G04 Layer: BottomSilkscreenLayer*
G04 EasyEDA v6.5.34, 2023-08-10 18:14:54*
G04 20bccd1edbbc44acb32006424f2ee6ce,5a6b42c53f6a479593ecc07194224c93,10*
G04 Gerber Generator version 0.2*
G04 Scale: 100 percent, Rotated: No, Reflected: No *
G04 Dimensions in millimeters *
G04 leading zeros omitted , absolute positions ,4 integer and 5 decimal *
%FSLAX45Y45*%
%MOMM*%

%ADD10C,0.1520*%
%ADD11C,0.1524*%

%LPD*%
D10*
X26897444Y305838D02*
G01*
X26897444Y222712D01*
X26902641Y207124D01*
X26907835Y201929D01*
X26918226Y196735D01*
X26928617Y196735D01*
X26939008Y201929D01*
X26944205Y207124D01*
X26949400Y222712D01*
X26949400Y233103D01*
X26863154Y305838D02*
G01*
X26863154Y196735D01*
X26863154Y196735D02*
G01*
X26800809Y196735D01*
X26688587Y279862D02*
G01*
X26693784Y290253D01*
X26704175Y300644D01*
X26714564Y305838D01*
X26735346Y305838D01*
X26745737Y300644D01*
X26756128Y290253D01*
X26761325Y279862D01*
X26766520Y264274D01*
X26766520Y238297D01*
X26761325Y222712D01*
X26756128Y212321D01*
X26745737Y201929D01*
X26735346Y196735D01*
X26714564Y196735D01*
X26704175Y201929D01*
X26693784Y212321D01*
X26688587Y222712D01*
X26602344Y305838D02*
G01*
X26602344Y222712D01*
X26607538Y207124D01*
X26612735Y201929D01*
X26623124Y196735D01*
X26633515Y196735D01*
X26643906Y201929D01*
X26649103Y207124D01*
X26654297Y222712D01*
X26654297Y233103D01*
X26568054Y305838D02*
G01*
X26568054Y196735D01*
X26568054Y196735D02*
G01*
X26505707Y196735D01*
X26393485Y279862D02*
G01*
X26398682Y290253D01*
X26409073Y300644D01*
X26419464Y305838D01*
X26440244Y305838D01*
X26450635Y300644D01*
X26461026Y290253D01*
X26466223Y279862D01*
X26471417Y264274D01*
X26471417Y238297D01*
X26466223Y222712D01*
X26461026Y212321D01*
X26450635Y201929D01*
X26440244Y196735D01*
X26419464Y196735D01*
X26409073Y201929D01*
X26398682Y212321D01*
X26393485Y222712D01*
X26307242Y305838D02*
G01*
X26307242Y222712D01*
X26312436Y207124D01*
X26317633Y201929D01*
X26328024Y196735D01*
X26338415Y196735D01*
X26348804Y201929D01*
X26354001Y207124D01*
X26359195Y222712D01*
X26359195Y233103D01*
X26272952Y305838D02*
G01*
X26272952Y196735D01*
X26272952Y196735D02*
G01*
X26210605Y196735D01*
X26098385Y279862D02*
G01*
X26103579Y290253D01*
X26113971Y300644D01*
X26124362Y305838D01*
X26145144Y305838D01*
X26155535Y300644D01*
X26165924Y290253D01*
X26171121Y279862D01*
X26176315Y264274D01*
X26176315Y238297D01*
X26171121Y222712D01*
X26165924Y212321D01*
X26155535Y201929D01*
X26145144Y196735D01*
X26124362Y196735D01*
X26113971Y201929D01*
X26103579Y212321D01*
X26098385Y222712D01*
X26012140Y305838D02*
G01*
X26012140Y222712D01*
X26017334Y207124D01*
X26022531Y201929D01*
X26032922Y196735D01*
X26043313Y196735D01*
X26053704Y201929D01*
X26058898Y207124D01*
X26064095Y222712D01*
X26064095Y233103D01*
X25977850Y305838D02*
G01*
X25977850Y196735D01*
X25977850Y196735D02*
G01*
X25915505Y196735D01*
X25803283Y279862D02*
G01*
X25808477Y290253D01*
X25818868Y300644D01*
X25829259Y305838D01*
X25850042Y305838D01*
X25860433Y300644D01*
X25870824Y290253D01*
X25876018Y279862D01*
X25881215Y264274D01*
X25881215Y238297D01*
X25876018Y222712D01*
X25870824Y212321D01*
X25860433Y201929D01*
X25850042Y196735D01*
X25829259Y196735D01*
X25818868Y201929D01*
X25808477Y212321D01*
X25803283Y222712D01*
D11*
X2487467Y279862D02*
G01*
X2492664Y290253D01*
X2503055Y300644D01*
X2513444Y305838D01*
X2534226Y305838D01*
X2544617Y300644D01*
X2555008Y290253D01*
X2560205Y279862D01*
X2565400Y264274D01*
X2565400Y238297D01*
X2560205Y222712D01*
X2555008Y212321D01*
X2544617Y201929D01*
X2534226Y196735D01*
X2513444Y196735D01*
X2503055Y201929D01*
X2492664Y212321D01*
X2487467Y222712D01*
X2422004Y305838D02*
G01*
X2432395Y300644D01*
X2442786Y290253D01*
X2447983Y279862D01*
X2453177Y264274D01*
X2453177Y238297D01*
X2447983Y222712D01*
X2442786Y212321D01*
X2432395Y201929D01*
X2422004Y196735D01*
X2401224Y196735D01*
X2390833Y201929D01*
X2380442Y212321D01*
X2375245Y222712D01*
X2370051Y238297D01*
X2370051Y264274D01*
X2375245Y279862D01*
X2380442Y290253D01*
X2390833Y300644D01*
X2401224Y305838D01*
X2422004Y305838D01*
X2335761Y305838D02*
G01*
X2335761Y196735D01*
X2335761Y305838D02*
G01*
X2289002Y305838D01*
X2273414Y300644D01*
X2268220Y295447D01*
X2263025Y285056D01*
X2263025Y269471D01*
X2268220Y259079D01*
X2273414Y253885D01*
X2289002Y248688D01*
X2335761Y248688D01*
X2228735Y305838D02*
G01*
X2187171Y253885D01*
X2187171Y196735D01*
X2145606Y305838D02*
G01*
X2187171Y253885D01*
X2111316Y305838D02*
G01*
X2111316Y196735D01*
X2111316Y305838D02*
G01*
X2064557Y305838D01*
X2048972Y300644D01*
X2043775Y295447D01*
X2038581Y285056D01*
X2038581Y274665D01*
X2043775Y264274D01*
X2048972Y259079D01*
X2064557Y253885D01*
X2111316Y253885D01*
X2074948Y253885D02*
G01*
X2038581Y196735D01*
X2004291Y305838D02*
G01*
X2004291Y196735D01*
X1892068Y279862D02*
G01*
X1897265Y290253D01*
X1907654Y300644D01*
X1918045Y305838D01*
X1938827Y305838D01*
X1949218Y300644D01*
X1959609Y290253D01*
X1964804Y279862D01*
X1970001Y264274D01*
X1970001Y238297D01*
X1964804Y222712D01*
X1959609Y212321D01*
X1949218Y201929D01*
X1938827Y196735D01*
X1918045Y196735D01*
X1907654Y201929D01*
X1897265Y212321D01*
X1892068Y222712D01*
X1892068Y238297D01*
X1918045Y238297D02*
G01*
X1892068Y238297D01*
X1857778Y305838D02*
G01*
X1857778Y196735D01*
X1785043Y305838D02*
G01*
X1785043Y196735D01*
X1857778Y253885D02*
G01*
X1785043Y253885D01*
X1714385Y305838D02*
G01*
X1714385Y196735D01*
X1750753Y305838D02*
G01*
X1678015Y305838D01*
X1558521Y279862D02*
G01*
X1558521Y285056D01*
X1553324Y295447D01*
X1548129Y300644D01*
X1537738Y305838D01*
X1516956Y305838D01*
X1506565Y300644D01*
X1501371Y295447D01*
X1496174Y285056D01*
X1496174Y274665D01*
X1501371Y264274D01*
X1511762Y248688D01*
X1563715Y196735D01*
X1490979Y196735D01*
X1425516Y305838D02*
G01*
X1441104Y300644D01*
X1451495Y285056D01*
X1456689Y259079D01*
X1456689Y243494D01*
X1451495Y217515D01*
X1441104Y201929D01*
X1425516Y196735D01*
X1415125Y196735D01*
X1399539Y201929D01*
X1389148Y217515D01*
X1383954Y243494D01*
X1383954Y259079D01*
X1389148Y285056D01*
X1399539Y300644D01*
X1415125Y305838D01*
X1425516Y305838D01*
X1344467Y279862D02*
G01*
X1344467Y285056D01*
X1339273Y295447D01*
X1334076Y300644D01*
X1323685Y305838D01*
X1302905Y305838D01*
X1292514Y300644D01*
X1287317Y295447D01*
X1282123Y285056D01*
X1282123Y274665D01*
X1287317Y264274D01*
X1297708Y248688D01*
X1349664Y196735D01*
X1276926Y196735D01*
X1232245Y305838D02*
G01*
X1175095Y305838D01*
X1206268Y264274D01*
X1190683Y264274D01*
X1180292Y259079D01*
X1175095Y253885D01*
X1169901Y238297D01*
X1169901Y227906D01*
X1175095Y212321D01*
X1185486Y201929D01*
X1201074Y196735D01*
X1216660Y196735D01*
X1232245Y201929D01*
X1237442Y207124D01*
X1242636Y217515D01*
X1055601Y305838D02*
G01*
X1014036Y196735D01*
X972474Y305838D02*
G01*
X1014036Y196735D01*
X938184Y305838D02*
G01*
X938184Y196735D01*
X938184Y305838D02*
G01*
X870643Y305838D01*
X938184Y253885D02*
G01*
X896620Y253885D01*
X938184Y196735D02*
G01*
X870643Y196735D01*
X763615Y305838D02*
G01*
X815571Y196735D01*
X836353Y305838D02*
G01*
X763615Y305838D01*
X729325Y305838D02*
G01*
X729325Y196735D01*
X729325Y305838D02*
G01*
X661784Y305838D01*
X729325Y253885D02*
G01*
X687763Y253885D01*
X627494Y305838D02*
G01*
X627494Y196735D01*
X593204Y305838D02*
G01*
X593204Y196735D01*
X593204Y305838D02*
G01*
X551642Y196735D01*
X510077Y305838D02*
G01*
X551642Y196735D01*
X510077Y305838D02*
G01*
X510077Y196735D01*
M02*
