G04 Layer: TopSilkscreenLayer*
G04 EasyEDA v6.5.34, 2023-08-10 18:14:54*
G04 20bccd1edbbc44acb32006424f2ee6ce,5a6b42c53f6a479593ecc07194224c93,10*
G04 Gerber Generator version 0.2*
G04 Scale: 100 percent, Rotated: No, Reflected: No *
G04 Dimensions in millimeters *
G04 leading zeros omitted , absolute positions ,4 integer and 5 decimal *
%FSLAX45Y45*%
%MOMM*%

%ADD10C,0.1524*%

%LPD*%
G36*
X2059635Y10581589D02*
G01*
X2057400Y10579100D01*
X2055571Y10575899D01*
X2052980Y10566450D01*
X2050643Y10560862D01*
X2047697Y10555071D01*
X2045309Y10529976D01*
X2043125Y10527538D01*
X2042160Y10525861D01*
X2041093Y10523067D01*
X2037334Y10507675D01*
X2036114Y10504474D01*
X2033778Y10500309D01*
X2032711Y10497769D01*
X2030780Y10489285D01*
X2029917Y10486288D01*
X2028799Y10483443D01*
X2026310Y10478922D01*
X2024227Y10472877D01*
X2023110Y10466730D01*
X2022246Y10463885D01*
X2021128Y10461447D01*
X2018639Y10457738D01*
X2016556Y10453166D01*
X2015388Y10448696D01*
X2014474Y10446308D01*
X2013356Y10444124D01*
X2010968Y10440568D01*
X2009851Y10438282D01*
X2008936Y10435793D01*
X2007768Y10431018D01*
X2006955Y10428681D01*
X2005990Y10426649D01*
X2003806Y10423550D01*
X2001520Y10418521D01*
X1999792Y10412882D01*
X1997811Y10408158D01*
X1995982Y10405516D01*
X1993849Y10401300D01*
X1991969Y10396524D01*
X1989632Y10392105D01*
X1987550Y10389362D01*
X1985772Y10386263D01*
X1984552Y10383266D01*
X1982470Y10379659D01*
X1980031Y10376306D01*
X1978863Y10374223D01*
X1976882Y10368178D01*
X1974850Y10364368D01*
X1972360Y10361472D01*
X1971192Y10359745D01*
X1970278Y10357815D01*
X1969160Y10354259D01*
X1968296Y10352278D01*
X1967179Y10350398D01*
X1964740Y10347248D01*
X1962404Y10343184D01*
X1960829Y10339374D01*
X1958695Y10336123D01*
X1956562Y10334193D01*
X1955190Y10332313D01*
X1954682Y10330434D01*
X1952599Y10327335D01*
X1949551Y10323779D01*
X1948129Y10321747D01*
X1947062Y10319715D01*
X1945944Y10316362D01*
X1945030Y10314736D01*
X1943912Y10313314D01*
X1941474Y10311282D01*
X1939848Y10309301D01*
X1939239Y10307320D01*
X1936851Y10303510D01*
X1933346Y10299039D01*
X1930958Y10295128D01*
X1930298Y10292943D01*
X1928418Y10289997D01*
X1921052Y10281462D01*
X1907235Y10263479D01*
X1899666Y10254183D01*
X1889455Y10242702D01*
X1886051Y10238587D01*
X1882952Y10234015D01*
X1880514Y10229545D01*
X1879142Y10225786D01*
X1878177Y10221620D01*
X1888642Y10208768D01*
X1901139Y10208768D01*
X1905304Y10213035D01*
X1908352Y10215118D01*
X1911756Y10216692D01*
X1913026Y10218521D01*
X1915922Y10221010D01*
X1921611Y10224770D01*
X1924659Y10227056D01*
X1932533Y10234218D01*
X1936089Y10237114D01*
X1940407Y10239400D01*
X1942998Y10241534D01*
X1944928Y10244074D01*
X1946910Y10245750D01*
X1948738Y10246309D01*
X1951989Y10248392D01*
X1966264Y10261092D01*
X1974951Y10269169D01*
X1996744Y10290098D01*
X1999742Y10292638D01*
X2001875Y10293807D01*
X2003348Y10295432D01*
X2004822Y10297922D01*
X2005939Y10299242D01*
X2008479Y10301122D01*
X2009698Y10301782D01*
X2010664Y10302646D01*
X2011324Y10303560D01*
X2011883Y10305338D01*
X2013915Y10307777D01*
X2016912Y10310164D01*
X2018995Y10312450D01*
X2019554Y10314127D01*
X2021433Y10316718D01*
X2024583Y10319969D01*
X2029206Y10325303D01*
X2036165Y10333990D01*
X2042668Y10341051D01*
X2043430Y10342118D01*
X2043988Y10343591D01*
X2046071Y10346334D01*
X2051862Y10352481D01*
X2056485Y10358069D01*
X2058771Y10361980D01*
X2061616Y10365943D01*
X2064613Y10369651D01*
X2066543Y10372953D01*
X2067052Y10375036D01*
X2068677Y10377373D01*
X2071166Y10379710D01*
X2073656Y10383062D01*
X2075942Y10387533D01*
X2077770Y10389108D01*
X2079752Y10392105D01*
X2083612Y10399928D01*
X2087575Y10400741D01*
X2095957Y10401350D01*
X2108606Y10401503D01*
X2120747Y10401147D01*
X2125167Y10400792D01*
X2127605Y10400334D01*
X2129028Y10399572D01*
X2130145Y10398455D01*
X2131009Y10396982D01*
X2132076Y10393375D01*
X2134158Y10389717D01*
X2136749Y10386771D01*
X2137918Y10384790D01*
X2138883Y10382605D01*
X2140102Y10378338D01*
X2140966Y10376052D01*
X2144471Y10370210D01*
X2145639Y10367467D01*
X2146706Y10364216D01*
X2148230Y10357408D01*
X2150364Y10351262D01*
X2151430Y10349230D01*
X2154021Y10345623D01*
X2155444Y10329672D01*
X2156307Y10324846D01*
X2157425Y10320426D01*
X2158695Y10316718D01*
X2161590Y10309656D01*
X2163216Y10281615D01*
X2167585Y10272064D01*
X2169668Y10265613D01*
X2170887Y10260380D01*
X2171801Y10258094D01*
X2172919Y10256164D01*
X2176475Y10252303D01*
X2177135Y10251186D01*
X2177592Y10249560D01*
X2179116Y10247884D01*
X2181656Y10246360D01*
X2185009Y10243870D01*
X2190038Y10239298D01*
X2206650Y10238435D01*
X2217420Y10238587D01*
X2230424Y10239857D01*
X2234488Y10244124D01*
X2236825Y10245750D01*
X2237638Y10246004D01*
X2240788Y10247985D01*
X2245563Y10252456D01*
X2249982Y10257332D01*
X2251913Y10260533D01*
X2252675Y10262666D01*
X2256891Y10268915D01*
X2258263Y10274147D01*
X2258872Y10283190D01*
X2258974Y10321442D01*
X2254199Y10328757D01*
X2252929Y10331348D01*
X2251964Y10333939D01*
X2250795Y10338206D01*
X2249881Y10340441D01*
X2247392Y10344251D01*
X2245156Y10347147D01*
X2244445Y10348417D01*
X2243836Y10350398D01*
X2241448Y10353802D01*
X2237943Y10357815D01*
X2235555Y10361320D01*
X2234946Y10363301D01*
X2234285Y10364165D01*
X2229713Y10367314D01*
X2229053Y10368229D01*
X2228494Y10369854D01*
X2227681Y10370921D01*
X2223414Y10374020D01*
X2220671Y10376763D01*
X2219248Y10379202D01*
X2217724Y10380726D01*
X2216048Y10381335D01*
X2212797Y10383723D01*
X2205736Y10390530D01*
X2202180Y10393629D01*
X2199284Y10395559D01*
X2194864Y10397591D01*
X2193340Y10398506D01*
X2193137Y10398861D01*
X2193340Y10399217D01*
X2195423Y10399776D01*
X2200046Y10400233D01*
X2219147Y10400842D01*
X2373884Y10402265D01*
X2397709Y10402722D01*
X2400350Y10403433D01*
X2400808Y10399776D01*
X2400808Y10398048D01*
X2400401Y10396321D01*
X2399690Y10394746D01*
X2397404Y10391800D01*
X2394915Y10387228D01*
X2392984Y10382402D01*
X2390597Y10377982D01*
X2388463Y10375188D01*
X2386685Y10371734D01*
X2385466Y10368229D01*
X2383028Y10363911D01*
X2378964Y10358272D01*
X2378151Y10356545D01*
X2377694Y10354208D01*
X2376322Y10351922D01*
X2374188Y10349941D01*
X2371699Y10346334D01*
X2369616Y10342016D01*
X2366873Y10337393D01*
X2364333Y10334040D01*
X2362708Y10331399D01*
X2362149Y10329722D01*
X2360066Y10326674D01*
X2357069Y10322966D01*
X2355850Y10321036D01*
X2355037Y10319308D01*
X2354478Y10316819D01*
X2352751Y10314381D01*
X2350262Y10312400D01*
X2348585Y10310317D01*
X2348026Y10308437D01*
X2345944Y10305338D01*
X2342946Y10301986D01*
X2340914Y10299242D01*
X2340254Y10297718D01*
X2337968Y10294569D01*
X2334514Y10290505D01*
X2331720Y10286390D01*
X2330551Y10283748D01*
X2329840Y10282834D01*
X2329027Y10282224D01*
X2327402Y10281716D01*
X2326487Y10280904D01*
X2325674Y10279684D01*
X2324252Y10276636D01*
X2323236Y10275011D01*
X2322017Y10273588D01*
X2319528Y10271353D01*
X2318258Y10269575D01*
X2317140Y10267391D01*
X2316276Y10265054D01*
X2314752Y10259517D01*
X2316022Y10253878D01*
X2317343Y10249509D01*
X2319477Y10247122D01*
X2323439Y10246258D01*
X2330145Y10246309D01*
X2339594Y10246715D01*
X2343607Y10251592D01*
X2345893Y10253472D01*
X2347518Y10254030D01*
X2349804Y10256012D01*
X2352344Y10259009D01*
X2353868Y10260380D01*
X2355443Y10261396D01*
X2358034Y10262412D01*
X2359660Y10263479D01*
X2360320Y10264749D01*
X2363216Y10267238D01*
X2369159Y10271150D01*
X2372410Y10273639D01*
X2380538Y10281310D01*
X2384247Y10284510D01*
X2385720Y10285476D01*
X2387396Y10286085D01*
X2388920Y10287711D01*
X2390394Y10290251D01*
X2392730Y10292588D01*
X2395169Y10294061D01*
X2397150Y10296093D01*
X2398268Y10298226D01*
X2400300Y10300258D01*
X2402840Y10301782D01*
X2404922Y10303916D01*
X2405938Y10306100D01*
X2407259Y10307472D01*
X2408885Y10308031D01*
X2411831Y10310266D01*
X2419959Y10318445D01*
X2436774Y10336733D01*
X2457551Y10360863D01*
X2459786Y10364216D01*
X2460396Y10365943D01*
X2462072Y10367924D01*
X2464612Y10369854D01*
X2466746Y10372445D01*
X2467914Y10374985D01*
X2470200Y10378236D01*
X2474722Y10383316D01*
X2478227Y10387838D01*
X2481376Y10392511D01*
X2483713Y10396474D01*
X2485796Y10399014D01*
X2489962Y10400487D01*
X2497988Y10401147D01*
X2531719Y10401503D01*
X2537409Y10395915D01*
X2540558Y10391902D01*
X2542540Y10388650D01*
X2544521Y10386263D01*
X2546146Y10385145D01*
X2547620Y10382859D01*
X2548636Y10379760D01*
X2550515Y10376357D01*
X2552700Y10373410D01*
X2554986Y10368381D01*
X2556764Y10362692D01*
X2557830Y10359948D01*
X2558999Y10357662D01*
X2561234Y10354259D01*
X2562250Y10351516D01*
X2563164Y10348010D01*
X2564638Y10340086D01*
X2565501Y10336580D01*
X2566466Y10333837D01*
X2568346Y10330484D01*
X2570276Y10323830D01*
X2571953Y10315041D01*
X2573020Y10311180D01*
X2574188Y10308082D01*
X2576576Y10304272D01*
X2578506Y10300360D01*
X2579624Y10296956D01*
X2580538Y10295280D01*
X2581706Y10293807D01*
X2585161Y10290759D01*
X2585821Y10289692D01*
X2586380Y10287965D01*
X2587193Y10287050D01*
X2589936Y10285476D01*
X2592679Y10284206D01*
X2593594Y10283139D01*
X2592781Y10282224D01*
X2588463Y10280853D01*
X2584958Y10279024D01*
X2582011Y10276738D01*
X2577287Y10274350D01*
X2572258Y10272572D01*
X2567736Y10270337D01*
X2564739Y10268254D01*
X2562707Y10267289D01*
X2560370Y10266476D01*
X2555595Y10265359D01*
X2553258Y10264495D01*
X2551226Y10263479D01*
X2548280Y10261295D01*
X2546197Y10260177D01*
X2543759Y10259263D01*
X2538628Y10257993D01*
X2533091Y10255758D01*
X2528722Y10253218D01*
X2523540Y10251135D01*
X2518816Y10249966D01*
X2513685Y10247934D01*
X2509266Y10245496D01*
X2506472Y10244328D01*
X2503474Y10243413D01*
X2497785Y10242245D01*
X2494737Y10241330D01*
X2491943Y10240213D01*
X2487422Y10237774D01*
X2484628Y10236606D01*
X2481630Y10235692D01*
X2475839Y10234574D01*
X2469692Y10232542D01*
X2464612Y10230104D01*
X2461310Y10228986D01*
X2457754Y10228072D01*
X2450795Y10226954D01*
X2447493Y10226090D01*
X2444546Y10224922D01*
X2439670Y10222230D01*
X2436672Y10221112D01*
X2433218Y10220299D01*
X2425547Y10219182D01*
X2421686Y10218267D01*
X2418080Y10217150D01*
X2412136Y10214660D01*
X2408478Y10213543D01*
X2400350Y10212070D01*
X2396185Y10211511D01*
X2392375Y10210647D01*
X2389022Y10209530D01*
X2383434Y10206888D01*
X2380132Y10205821D01*
X2376373Y10205008D01*
X2368194Y10203891D01*
X2364028Y10203027D01*
X2360066Y10201808D01*
X2353614Y10199166D01*
X2347671Y10197439D01*
X2339136Y10196728D01*
X2332583Y10195661D01*
X2327046Y10194188D01*
X2323744Y10192562D01*
X2321407Y10190429D01*
X2296261Y10188041D01*
X2283409Y10181945D01*
X2260244Y10180320D01*
X2253589Y10177170D01*
X2250541Y10175951D01*
X2247239Y10174935D01*
X2244090Y10174274D01*
X2233828Y10173563D01*
X2225954Y10172496D01*
X2218893Y10170922D01*
X2213762Y10169042D01*
X2208834Y10166604D01*
X2190953Y10165334D01*
X2181352Y10163810D01*
X2178253Y10162997D01*
X2172157Y10160914D01*
X2166213Y10159492D01*
X2158949Y10158425D01*
X2142337Y10156850D01*
X2136597Y10155986D01*
X2131974Y10154920D01*
X2128520Y10153751D01*
X2122728Y10151211D01*
X2098497Y10149738D01*
X2091436Y10148824D01*
X2085289Y10147452D01*
X2078380Y10145268D01*
X2074875Y10144404D01*
X2063242Y10142778D01*
X2040483Y10141204D01*
X2035962Y10138867D01*
X2033320Y10137902D01*
X2029460Y10136936D01*
X2024786Y10136073D01*
X2008378Y10134346D01*
X2001266Y10126472D01*
X2001266Y10120630D01*
X2001621Y10115854D01*
X2002688Y10112502D01*
X2004720Y10110216D01*
X2007870Y10108641D01*
X2010308Y10108133D01*
X2019604Y10107523D01*
X2033371Y10107320D01*
X2049983Y10107472D01*
X2067814Y10108031D01*
X2085187Y10108844D01*
X2100427Y10109860D01*
X2111857Y10111130D01*
X2118207Y10112248D01*
X2126234Y10113111D01*
X2138019Y10113924D01*
X2192985Y10116362D01*
X2199640Y10116870D01*
X2205177Y10117531D01*
X2214778Y10119410D01*
X2219756Y10120731D01*
X2227783Y10122052D01*
X2232609Y10122509D01*
X2243937Y10122763D01*
X2258517Y10123525D01*
X2272284Y10124897D01*
X2282342Y10126472D01*
X2287727Y10128097D01*
X2295144Y10129570D01*
X2308504Y10130739D01*
X2307844Y10012781D01*
X2257704Y10009835D01*
X2246122Y10005517D01*
X2213254Y10003790D01*
X2200859Y10002875D01*
X2190953Y10001554D01*
X2175459Y9998252D01*
X2165400Y9997084D01*
X2130552Y9995001D01*
X2123186Y9994188D01*
X2118258Y9993376D01*
X2108403Y9991242D01*
X2098903Y9989820D01*
X2087473Y9988753D01*
X2047951Y9986619D01*
X2037892Y9982047D01*
X1951532Y9980625D01*
X1949602Y9978999D01*
X1947164Y9974884D01*
X1946554Y9969042D01*
X1947672Y9962845D01*
X1950516Y9957663D01*
X1951736Y9955834D01*
X1952853Y9953498D01*
X1953768Y9950907D01*
X1954885Y9945674D01*
X1955749Y9943338D01*
X1956917Y9941356D01*
X1959508Y9938664D01*
X1961184Y9936327D01*
X1961692Y9934651D01*
X1963369Y9932670D01*
X1967687Y9929672D01*
X1973884Y9930536D01*
X1979777Y9932009D01*
X1982724Y9933127D01*
X1990343Y9937242D01*
X2006955Y9938715D01*
X2012188Y9939528D01*
X2020570Y9941560D01*
X2027631Y9944100D01*
X2073554Y9946894D01*
X2083257Y9947960D01*
X2089505Y9949230D01*
X2095652Y9950856D01*
X2101850Y9951669D01*
X2110130Y9952431D01*
X2145182Y9954514D01*
X2154834Y9955580D01*
X2160981Y9956952D01*
X2167737Y9959695D01*
X2202281Y9961372D01*
X2215184Y9962286D01*
X2225344Y9963556D01*
X2235301Y9965537D01*
X2240991Y9966909D01*
X2244750Y9967468D01*
X2259482Y9968534D01*
X2277973Y9969449D01*
X2294229Y9970770D01*
X2299106Y9971481D01*
X2307082Y9973106D01*
X2307793Y9971278D01*
X2308250Y9956800D01*
X2308453Y9924491D01*
X2308301Y9877348D01*
X2307894Y9848799D01*
X2307488Y9840518D01*
X2304592Y9838334D01*
X2299157Y9836708D01*
X2290419Y9835540D01*
X2253183Y9833203D01*
X2243531Y9832136D01*
X2237435Y9830816D01*
X2235200Y9830003D01*
X2231898Y9829139D01*
X2226411Y9828276D01*
X2218893Y9827564D01*
X2184654Y9825431D01*
X2175002Y9824262D01*
X2171344Y9823602D01*
X2161438Y9820706D01*
X2157272Y9819944D01*
X2152599Y9819487D01*
X2140508Y9819182D01*
X2126030Y9818420D01*
X2112924Y9817150D01*
X2103374Y9815576D01*
X2100630Y9814763D01*
X2095754Y9812629D01*
X2062683Y9811004D01*
X2049830Y9809988D01*
X2039620Y9808616D01*
X2030120Y9806635D01*
X2025040Y9805314D01*
X2019350Y9804704D01*
X1990801Y9803536D01*
X1920951Y9802266D01*
X1918309Y9799980D01*
X1916379Y9796932D01*
X1913788Y9790938D01*
X1916125Y9779762D01*
X1917242Y9776561D01*
X1918563Y9773818D01*
X1921052Y9770262D01*
X1922627Y9767417D01*
X1923389Y9762540D01*
X1924710Y9758832D01*
X1926539Y9755835D01*
X1928723Y9754006D01*
X1936546Y9752584D01*
X1947316Y9752838D01*
X1957679Y9754514D01*
X1964232Y9757206D01*
X1966569Y9759289D01*
X2007362Y9762540D01*
X2016048Y9767112D01*
X2049729Y9768636D01*
X2062175Y9769500D01*
X2072030Y9770821D01*
X2087372Y9774377D01*
X2093671Y9775240D01*
X2116328Y9776104D01*
X2130856Y9777222D01*
X2143201Y9778746D01*
X2147620Y9779609D01*
X2153767Y9781336D01*
X2159355Y9782149D01*
X2167229Y9782860D01*
X2201875Y9784892D01*
X2211425Y9785959D01*
X2217521Y9787280D01*
X2219756Y9788144D01*
X2223109Y9789007D01*
X2228697Y9789820D01*
X2246122Y9791141D01*
X2264308Y9792157D01*
X2276500Y9793173D01*
X2284222Y9794290D01*
X2286965Y9794951D01*
X2291435Y9796526D01*
X2297785Y9797897D01*
X2308453Y9799167D01*
X2308707Y9683546D01*
X2309063Y9665106D01*
X2309723Y9653320D01*
X2310180Y9649307D01*
X2310790Y9646310D01*
X2311501Y9644024D01*
X2312365Y9642246D01*
X2314498Y9639046D01*
X2315972Y9635744D01*
X2316530Y9633051D01*
X2318867Y9628936D01*
X2322372Y9624415D01*
X2325116Y9620453D01*
X2325776Y9619132D01*
X2327351Y9617100D01*
X2330805Y9614306D01*
X2335885Y9610852D01*
X2343912Y9606026D01*
X2350312Y9601250D01*
X2352446Y9600234D01*
X2354884Y9599371D01*
X2359964Y9598253D01*
X2365756Y9596221D01*
X2373376Y9592056D01*
X2392527Y9590125D01*
X2402433Y9588246D01*
X2405481Y9587280D01*
X2410663Y9585096D01*
X2447391Y9583470D01*
X2490876Y9582353D01*
X2572512Y9581591D01*
X2667355Y9581946D01*
X2720949Y9582759D01*
X2765450Y9584029D01*
X2796387Y9585198D01*
X2801467Y9587331D01*
X2804718Y9588296D01*
X2809697Y9589262D01*
X2815945Y9590074D01*
X2834132Y9591598D01*
X2840786Y9592462D01*
X2844596Y9593580D01*
X2848508Y9596018D01*
X2853639Y9597694D01*
X2860040Y9599168D01*
X2863443Y9600234D01*
X2866491Y9601504D01*
X2870860Y9604044D01*
X2875178Y9606127D01*
X2878480Y9607245D01*
X2881579Y9609175D01*
X2883814Y9611512D01*
X2886354Y9613696D01*
X2888589Y9615220D01*
X2890621Y9617405D01*
X2891993Y9619691D01*
X2892958Y9620859D01*
X2896616Y9623450D01*
X2897733Y9625025D01*
X2898749Y9627209D01*
X2900375Y9632594D01*
X2902356Y9637166D01*
X2903321Y9638588D01*
X2905455Y9640976D01*
X2905455Y9663277D01*
X2901543Y9668510D01*
X2899562Y9672472D01*
X2898444Y9675926D01*
X2897632Y9677349D01*
X2896514Y9678517D01*
X2894025Y9679889D01*
X2891332Y9682276D01*
X2888081Y9686950D01*
X2880766Y9688271D01*
X2877210Y9689795D01*
X2872790Y9693910D01*
X2868218Y9696907D01*
X2863697Y9713722D01*
X2863799Y9738918D01*
X2864612Y9763201D01*
X2866745Y9804908D01*
X2855722Y9818370D01*
X2851200Y9817608D01*
X2847441Y9816541D01*
X2844444Y9814712D01*
X2842158Y9811969D01*
X2839872Y9806584D01*
X2838602Y9804247D01*
X2836773Y9802876D01*
X2835452Y9800031D01*
X2834284Y9795865D01*
X2832862Y9787788D01*
X2831947Y9784638D01*
X2830779Y9781794D01*
X2828290Y9777171D01*
X2827121Y9774377D01*
X2826207Y9771380D01*
X2825089Y9765690D01*
X2824226Y9762693D01*
X2823057Y9759899D01*
X2820619Y9755479D01*
X2819450Y9752888D01*
X2818536Y9750196D01*
X2817469Y9745370D01*
X2815691Y9740950D01*
X2813558Y9737801D01*
X2811221Y9732772D01*
X2809341Y9727184D01*
X2808224Y9724593D01*
X2807004Y9722459D01*
X2804871Y9719919D01*
X2803144Y9716820D01*
X2802077Y9713569D01*
X2801010Y9711486D01*
X2795422Y9704070D01*
X2792628Y9699345D01*
X2788513Y9695180D01*
X2783332Y9690658D01*
X2776626Y9685883D01*
X2774086Y9683699D01*
X2773172Y9682429D01*
X2769209Y9680702D01*
X2763316Y9678822D01*
X2758338Y9676841D01*
X2754426Y9674453D01*
X2749651Y9673386D01*
X2740710Y9672472D01*
X2709976Y9670389D01*
X2690571Y9668510D01*
X2671572Y9665970D01*
X2492908Y9665766D01*
X2473248Y9668306D01*
X2434031Y9672472D01*
X2426766Y9673437D01*
X2422245Y9674352D01*
X2420569Y9675215D01*
X2420010Y9675977D01*
X2417216Y9678111D01*
X2413304Y9680295D01*
X2409444Y9683089D01*
X2405481Y9687255D01*
X2404719Y9805416D01*
X2406243Y9807244D01*
X2407107Y9807956D01*
X2409901Y9808921D01*
X2413304Y9809226D01*
X2417876Y9810343D01*
X2424785Y9813188D01*
X2456230Y9814814D01*
X2469743Y9815779D01*
X2480106Y9817049D01*
X2488742Y9818725D01*
X2492908Y9819792D01*
X2497124Y9820554D01*
X2512212Y9821926D01*
X2528112Y9822738D01*
X2539441Y9823551D01*
X2548890Y9824821D01*
X2566365Y9828733D01*
X2574290Y9829495D01*
X2585313Y9829749D01*
X2599893Y9830562D01*
X2613761Y9832035D01*
X2624836Y9833813D01*
X2632608Y9835845D01*
X2637028Y9836658D01*
X2641701Y9837166D01*
X2653741Y9837521D01*
X2668828Y9838283D01*
X2682392Y9839553D01*
X2687878Y9840264D01*
X2692146Y9841077D01*
X2694889Y9841890D01*
X2699816Y9844024D01*
X2731414Y9845598D01*
X2745943Y9846564D01*
X2755290Y9847630D01*
X2761183Y9848951D01*
X2766771Y9850678D01*
X2772257Y9851491D01*
X2779928Y9852202D01*
X2813862Y9854285D01*
X2823565Y9855352D01*
X2831134Y9856927D01*
X2839567Y9859060D01*
X2844647Y9859873D01*
X2850134Y9860330D01*
X2866694Y9860889D01*
X2874518Y9861804D01*
X2880055Y9863429D01*
X2884068Y9865918D01*
X2887370Y9868408D01*
X2889707Y9869779D01*
X2891332Y9870338D01*
X2891332Y9888677D01*
X2882036Y9897872D01*
X2876042Y9902494D01*
X2871774Y9904780D01*
X2870250Y9905796D01*
X2869234Y9906812D01*
X2868574Y9908438D01*
X2867863Y9909251D01*
X2861767Y9912705D01*
X2855823Y9917277D01*
X2852420Y9919309D01*
X2850184Y9919868D01*
X2846730Y9921951D01*
X2843072Y9924948D01*
X2839974Y9926980D01*
X2838297Y9927539D01*
X2835960Y9929215D01*
X2833319Y9931755D01*
X2829814Y9933889D01*
X2826512Y9935057D01*
X2823006Y9937089D01*
X2820060Y9939629D01*
X2815742Y9941966D01*
X2811424Y9943439D01*
X2808274Y9945116D01*
X2807614Y9945928D01*
X2803652Y9948570D01*
X2795676Y9950500D01*
X2786126Y9951313D01*
X2777591Y9950602D01*
X2771800Y9949332D01*
X2760726Y9937038D01*
X2756408Y9931603D01*
X2755493Y9929622D01*
X2753766Y9927691D01*
X2751277Y9925812D01*
X2749550Y9923729D01*
X2748940Y9921798D01*
X2746552Y9917938D01*
X2743047Y9913518D01*
X2740660Y9909759D01*
X2739999Y9907778D01*
X2737967Y9904780D01*
X2734970Y9901377D01*
X2732887Y9898481D01*
X2732278Y9896703D01*
X2729941Y9893706D01*
X2723845Y9887864D01*
X2708300Y9886543D01*
X2698242Y9884714D01*
X2690063Y9882479D01*
X2685542Y9881666D01*
X2680716Y9881209D01*
X2669184Y9880904D01*
X2655773Y9880142D01*
X2643276Y9878822D01*
X2634030Y9877247D01*
X2631338Y9876383D01*
X2626563Y9874351D01*
X2595727Y9872726D01*
X2582265Y9871811D01*
X2573578Y9870795D01*
X2567838Y9869424D01*
X2562199Y9867646D01*
X2556662Y9866833D01*
X2549144Y9866122D01*
X2515870Y9864039D01*
X2506726Y9863023D01*
X2503474Y9862413D01*
X2495346Y9859975D01*
X2489708Y9859111D01*
X2456688Y9856825D01*
X2445867Y9855809D01*
X2437180Y9854336D01*
X2424633Y9851390D01*
X2420518Y9850780D01*
X2412949Y9850424D01*
X2405481Y9850831D01*
X2405126Y9925151D01*
X2405278Y9968484D01*
X2405837Y9982758D01*
X2407564Y9983266D01*
X2417114Y9984486D01*
X2430983Y9985705D01*
X2437384Y9986568D01*
X2442413Y9987483D01*
X2445613Y9988397D01*
X2450490Y9990480D01*
X2485034Y9992410D01*
X2502509Y9994087D01*
X2522270Y9997795D01*
X2532278Y9999014D01*
X2545130Y9999929D01*
X2576423Y10001554D01*
X2586736Y10005974D01*
X2618892Y10007600D01*
X2631389Y10008616D01*
X2641447Y10009936D01*
X2658922Y10013797D01*
X2666847Y10014559D01*
X2677668Y10014762D01*
X2692095Y10015626D01*
X2705608Y10016947D01*
X2715564Y10018572D01*
X2718308Y10019385D01*
X2722981Y10021366D01*
X2754325Y10022992D01*
X2767330Y10023957D01*
X2777236Y10025227D01*
X2785922Y10027005D01*
X2793949Y10028936D01*
X2803194Y10029952D01*
X2816656Y10030460D01*
X2823108Y10031526D01*
X2827985Y10033558D01*
X2832100Y10036810D01*
X2836722Y10041280D01*
X2836722Y10054742D01*
X2830118Y10062616D01*
X2828239Y10064445D01*
X2826664Y10065664D01*
X2824784Y10066324D01*
X2823057Y10068052D01*
X2821635Y10070541D01*
X2819908Y10072268D01*
X2818180Y10072776D01*
X2815742Y10074351D01*
X2813050Y10076891D01*
X2809138Y10079736D01*
X2805125Y10082022D01*
X2800807Y10084816D01*
X2797454Y10087356D01*
X2794558Y10088981D01*
X2792831Y10089438D01*
X2791155Y10090708D01*
X2789529Y10092842D01*
X2785719Y10095331D01*
X2780944Y10097414D01*
X2778810Y10098633D01*
X2777185Y10099852D01*
X2775508Y10101834D01*
X2774289Y10102748D01*
X2772867Y10103459D01*
X2769666Y10104526D01*
X2766161Y10106609D01*
X2763316Y10109149D01*
X2761538Y10110317D01*
X2759608Y10111232D01*
X2756052Y10112400D01*
X2754122Y10113264D01*
X2747721Y10117683D01*
X2743301Y10119156D01*
X2738120Y10119969D01*
X2732735Y10120172D01*
X2727502Y10119766D01*
X2722981Y10118750D01*
X2719578Y10117124D01*
X2717292Y10113975D01*
X2715310Y10112044D01*
X2712821Y10110622D01*
X2710738Y10108488D01*
X2709621Y10106253D01*
X2707487Y10103815D01*
X2704998Y10101884D01*
X2703271Y10099802D01*
X2702712Y10097820D01*
X2700274Y10094010D01*
X2696819Y10089591D01*
X2694381Y10085933D01*
X2693822Y10084206D01*
X2692450Y10082072D01*
X2688437Y10077500D01*
X2685338Y10073284D01*
X2682392Y10068661D01*
X2677312Y10058603D01*
X2661005Y10055860D01*
X2655163Y10054386D01*
X2652928Y10053574D01*
X2649423Y10052659D01*
X2643428Y10051846D01*
X2604312Y10049002D01*
X2596388Y10048138D01*
X2591206Y10047274D01*
X2581452Y10045242D01*
X2572054Y10043820D01*
X2560980Y10042753D01*
X2523388Y10040569D01*
X2513482Y10036251D01*
X2481783Y10034676D01*
X2467559Y10033558D01*
X2457043Y10032238D01*
X2453132Y10031526D01*
X2450185Y10030714D01*
X2448052Y10029850D01*
X2445613Y10029291D01*
X2434488Y10028072D01*
X2420162Y10027158D01*
X2408986Y10026954D01*
X2406497Y10027208D01*
X2404872Y10027818D01*
X2404872Y10144556D01*
X2406446Y10145166D01*
X2410815Y10145928D01*
X2423718Y10147604D01*
X2432608Y10149586D01*
X2439060Y10151821D01*
X2443378Y10152735D01*
X2448610Y10153497D01*
X2467965Y10154767D01*
X2475280Y10157866D01*
X2479141Y10159187D01*
X2483612Y10160355D01*
X2488590Y10161219D01*
X2498902Y10162336D01*
X2503373Y10163149D01*
X2507081Y10164114D01*
X2512771Y10166400D01*
X2516733Y10167416D01*
X2521559Y10168331D01*
X2532430Y10169753D01*
X2537307Y10170668D01*
X2541320Y10171734D01*
X2547264Y10174122D01*
X2556357Y10176408D01*
X2566619Y10178084D01*
X2570835Y10178999D01*
X2573934Y10180015D01*
X2577388Y10182047D01*
X2580081Y10182961D01*
X2583535Y10183774D01*
X2595219Y10185450D01*
X2600248Y10186416D01*
X2603398Y10187533D01*
X2607056Y10189819D01*
X2612847Y10191546D01*
X2620213Y10192918D01*
X2623769Y10193883D01*
X2626817Y10195001D01*
X2631084Y10197236D01*
X2634132Y10198354D01*
X2637739Y10199268D01*
X2645918Y10200640D01*
X2649575Y10201554D01*
X2652572Y10202672D01*
X2654858Y10203942D01*
X2658719Y10206736D01*
X2674112Y10207701D01*
X2681782Y10205008D01*
X2685694Y10203840D01*
X2689809Y10203027D01*
X2694127Y10202519D01*
X2698496Y10202316D01*
X2707538Y10202316D01*
X2713075Y10205872D01*
X2716428Y10207244D01*
X2718917Y10207802D01*
X2720594Y10208717D01*
X2724404Y10211816D01*
X2728772Y10216184D01*
X2728772Y10229443D01*
X2724302Y10233660D01*
X2722575Y10236047D01*
X2722321Y10236809D01*
X2720441Y10239857D01*
X2716123Y10244683D01*
X2711500Y10249204D01*
X2708554Y10251135D01*
X2707894Y10251338D01*
X2706674Y10252710D01*
X2705709Y10254843D01*
X2703779Y10257028D01*
X2701290Y10258602D01*
X2698089Y10261092D01*
X2691942Y10266578D01*
X2687116Y10270439D01*
X2682951Y10273233D01*
X2679598Y10274554D01*
X2677566Y10276179D01*
X2675534Y10278719D01*
X2674112Y10279989D01*
X2672435Y10281107D01*
X2669387Y10282428D01*
X2667355Y10283850D01*
X2666542Y10285272D01*
X2663240Y10287660D01*
X2660802Y10288981D01*
X2655671Y10292486D01*
X2653030Y10296448D01*
X2652979Y10300817D01*
X2657906Y10310266D01*
X2659583Y10317073D01*
X2660345Y10325455D01*
X2660142Y10334853D01*
X2659380Y10345978D01*
X2652725Y10358780D01*
X2650744Y10361980D01*
X2648966Y10364368D01*
X2646680Y10366248D01*
X2645410Y10367924D01*
X2645206Y10368737D01*
X2643479Y10371734D01*
X2639517Y10376255D01*
X2635199Y10380421D01*
X2630474Y10383266D01*
X2622550Y10390022D01*
X2617368Y10393832D01*
X2612948Y10396626D01*
X2608732Y10397998D01*
X2607462Y10398810D01*
X2606700Y10399776D01*
X2606903Y10400538D01*
X2697124Y10401300D01*
X2869692Y10402163D01*
X2875381Y10406024D01*
X2881376Y10412120D01*
X2884068Y10419486D01*
X2883408Y10427157D01*
X2879191Y10434116D01*
X2866847Y10446664D01*
X2858363Y10454640D01*
X2846984Y10463784D01*
X2843428Y10466222D01*
X2840786Y10467390D01*
X2837942Y10469473D01*
X2827578Y10479278D01*
X2825089Y10480954D01*
X2823260Y10481564D01*
X2819654Y10483951D01*
X2815234Y10487456D01*
X2811475Y10489844D01*
X2809595Y10490454D01*
X2808630Y10491063D01*
X2805582Y10494467D01*
X2803753Y10495737D01*
X2801569Y10496905D01*
X2796895Y10498582D01*
X2792628Y10500614D01*
X2789885Y10502442D01*
X2788056Y10503103D01*
X2785821Y10503458D01*
X2777794Y10503458D01*
X2772003Y10498734D01*
X2768854Y10496905D01*
X2766974Y10496346D01*
X2766060Y10495686D01*
X2765196Y10494670D01*
X2763824Y10492181D01*
X2762351Y10490454D01*
X2761691Y10490200D01*
X2758897Y10488218D01*
X2754274Y10483799D01*
X2749956Y10479074D01*
X2747772Y10475722D01*
X2746044Y10474350D01*
X2743555Y10473029D01*
X2741879Y10471454D01*
X2741269Y10469778D01*
X2739034Y10466832D01*
X2728569Y10455757D01*
X2716834Y10442600D01*
X2571343Y10443159D01*
X2534564Y10443616D01*
X2524404Y10444022D01*
X2518562Y10444632D01*
X2516987Y10444988D01*
X2516124Y10445394D01*
X2515920Y10445851D01*
X2516225Y10446410D01*
X2517952Y10448086D01*
X2520289Y10451947D01*
X2522372Y10456621D01*
X2524760Y10460532D01*
X2526741Y10462514D01*
X2527655Y10463885D01*
X2530398Y10470896D01*
X2531516Y10472877D01*
X2534005Y10476280D01*
X2536139Y10480192D01*
X2537358Y10483697D01*
X2539746Y10487914D01*
X2542641Y10491571D01*
X2544978Y10495178D01*
X2545537Y10496499D01*
X2546654Y10498226D01*
X2549296Y10499394D01*
X2554528Y10500207D01*
X2572054Y10501680D01*
X2580386Y10507065D01*
X2585821Y10510926D01*
X2588869Y10514533D01*
X2590241Y10519054D01*
X2590596Y10532414D01*
X2581960Y10540593D01*
X2577896Y10543692D01*
X2576017Y10544403D01*
X2573731Y10545775D01*
X2570886Y10547959D01*
X2568600Y10549178D01*
X2557576Y10553192D01*
X2555087Y10554360D01*
X2551430Y10556646D01*
X2548839Y10557662D01*
X2545842Y10558475D01*
X2539339Y10559542D01*
X2536088Y10560456D01*
X2533192Y10561574D01*
X2528265Y10564215D01*
X2525014Y10565434D01*
X2521153Y10566400D01*
X2513025Y10567720D01*
X2507589Y10569041D01*
X2506522Y10569600D01*
X2504694Y10571327D01*
X2501595Y10572699D01*
X2497328Y10573766D01*
X2488387Y10574985D01*
X2485136Y10575747D01*
X2482392Y10576712D01*
X2480310Y10577779D01*
X2476754Y10580319D01*
X2465933Y10574324D01*
X2464358Y10569854D01*
X2463292Y10564774D01*
X2462784Y10558830D01*
X2462682Y10552226D01*
X2457246Y10545318D01*
X2454859Y10528960D01*
X2453894Y10524744D01*
X2452725Y10521442D01*
X2450287Y10516971D01*
X2449118Y10514177D01*
X2448102Y10510977D01*
X2446680Y10504627D01*
X2444597Y10498886D01*
X2442413Y10495280D01*
X2441397Y10492892D01*
X2440584Y10490200D01*
X2439517Y10484764D01*
X2438603Y10481868D01*
X2437434Y10479227D01*
X2434945Y10475061D01*
X2432913Y10469626D01*
X2431796Y10464088D01*
X2430983Y10461650D01*
X2429865Y10459567D01*
X2427224Y10456418D01*
X2426106Y10454386D01*
X2425242Y10452049D01*
X2424125Y10447172D01*
X2423261Y10444683D01*
X2422144Y10442498D01*
X2419705Y10439146D01*
X2418537Y10436961D01*
X2417622Y10434523D01*
X2415540Y10425582D01*
X2413812Y10425379D01*
X2411069Y10427004D01*
X2408224Y10429798D01*
X2404364Y10436047D01*
X2400452Y10440670D01*
X2389124Y10452100D01*
X2383028Y10457738D01*
X2377440Y10462514D01*
X2373071Y10465816D01*
X2369718Y10467289D01*
X2368194Y10469016D01*
X2366873Y10471556D01*
X2365806Y10472724D01*
X2364536Y10473639D01*
X2361895Y10474706D01*
X2360726Y10475417D01*
X2359812Y10476331D01*
X2358644Y10478262D01*
X2357475Y10479430D01*
X2355900Y10480598D01*
X2352344Y10482529D01*
X2349957Y10484408D01*
X2349093Y10485831D01*
X2347823Y10486847D01*
X2338273Y10491774D01*
X2332634Y10495280D01*
X2330500Y10495991D01*
X2328062Y10496448D01*
X2319324Y10496600D01*
X2312263Y10492181D01*
X2306218Y10487660D01*
X2298649Y10480903D01*
X2290622Y10472978D01*
X2283155Y10464800D01*
X2273503Y10453217D01*
X2268524Y10446207D01*
X2267661Y10445394D01*
X2266289Y10444734D01*
X2264105Y10444226D01*
X2256485Y10443464D01*
X2242667Y10443057D01*
X2188210Y10442752D01*
X2114905Y10442651D01*
X2113483Y10444073D01*
X2112721Y10446258D01*
X2113229Y10449458D01*
X2114702Y10452658D01*
X2117902Y10456113D01*
X2118918Y10457688D01*
X2119731Y10459516D01*
X2120849Y10463479D01*
X2122881Y10467797D01*
X2125421Y10471353D01*
X2126640Y10473690D01*
X2129688Y10482834D01*
X2130399Y10484205D01*
X2131822Y10485424D01*
X2133904Y10488320D01*
X2136140Y10492282D01*
X2137410Y10493857D01*
X2138578Y10494924D01*
X2143150Y10496550D01*
X2146300Y10498175D01*
X2152243Y10499953D01*
X2159050Y10501274D01*
X2162200Y10502188D01*
X2164791Y10503204D01*
X2177745Y10512653D01*
X2180183Y10516158D01*
X2181453Y10520476D01*
X2181707Y10526217D01*
X2181606Y10533583D01*
X2175560Y10540949D01*
X2172360Y10543743D01*
X2170480Y10544403D01*
X2168093Y10546130D01*
X2165350Y10548772D01*
X2163368Y10549890D01*
X2161082Y10550804D01*
X2155952Y10551922D01*
X2153412Y10552836D01*
X2151075Y10553954D01*
X2149246Y10555173D01*
X2145741Y10558119D01*
X2134209Y10559592D01*
X2131009Y10560354D01*
X2128418Y10561370D01*
X2124608Y10563555D01*
X2121763Y10564622D01*
X2118360Y10565587D01*
X2110790Y10567009D01*
X2102764Y10569346D01*
X2096363Y10571937D01*
X2092299Y10573207D01*
X2087930Y10574223D01*
X2079904Y10575544D01*
X2076450Y10576306D01*
X2073757Y10577169D01*
X2070912Y10578795D01*
X2067052Y10580268D01*
G37*
G36*
X1636268Y10536580D02*
G01*
X1628749Y10535107D01*
X1625854Y10533278D01*
X1620926Y10528401D01*
X1619859Y10527741D01*
X1618284Y10527233D01*
X1616608Y10525506D01*
X1615084Y10522864D01*
X1612595Y10520375D01*
X1609953Y10518851D01*
X1608226Y10517530D01*
X1607312Y10515904D01*
X1602841Y10510723D01*
X1582826Y10489285D01*
X1573530Y10478617D01*
X1567688Y10471251D01*
X1566621Y10469473D01*
X1566011Y10467695D01*
X886307Y10467695D01*
X877925Y10469930D01*
X866749Y10471810D01*
X850798Y10473486D01*
X835355Y10474452D01*
X829411Y10474553D01*
X825601Y10474350D01*
X820267Y10472623D01*
X817219Y10469524D01*
X816457Y10465054D01*
X818794Y10456875D01*
X820267Y10450271D01*
X821334Y10443057D01*
X822198Y10439654D01*
X823366Y10436707D01*
X825957Y10432338D01*
X827582Y10428935D01*
X828040Y10427004D01*
X829564Y10425226D01*
X833475Y10422991D01*
X872439Y10424769D01*
X883208Y10425582D01*
X896569Y10426903D01*
X913282Y10428935D01*
X1171194Y10429951D01*
X1175156Y10426649D01*
X1174191Y10411714D01*
X1173581Y10407599D01*
X1172718Y10404195D01*
X1171752Y10401655D01*
X1169466Y10397286D01*
X1167231Y10367924D01*
X1166164Y10359390D01*
X1164793Y10352786D01*
X1162812Y10346740D01*
X1161948Y10343286D01*
X1161135Y10338155D01*
X1159967Y10324236D01*
X1159103Y10307066D01*
X1156614Y10301274D01*
X1155446Y10297668D01*
X1154328Y10292486D01*
X1153312Y10285882D01*
X1151636Y10270490D01*
X1150721Y10264394D01*
X1149756Y10259974D01*
X1148791Y10257485D01*
X1147216Y10254386D01*
X1146098Y10250220D01*
X1145133Y10243667D01*
X1143508Y10228072D01*
X1142695Y10223296D01*
X1141831Y10219690D01*
X1139291Y10213238D01*
X1137818Y10206380D01*
X1136751Y10198354D01*
X1136091Y10187686D01*
X1135430Y10184384D01*
X1134414Y10180980D01*
X1133144Y10177729D01*
X1129944Y10170820D01*
X1129131Y10157968D01*
X1128217Y10149179D01*
X1126794Y10142677D01*
X1124864Y10138257D01*
X1122375Y10135920D01*
X1117244Y10135514D01*
X1099464Y10135057D01*
X1040485Y10134600D01*
X968552Y10134955D01*
X945438Y10135463D01*
X909421Y10136581D01*
X902360Y10139222D01*
X898804Y10140289D01*
X894892Y10141153D01*
X890828Y10141661D01*
X878281Y10141915D01*
X876604Y10139934D01*
X874623Y10133736D01*
X874521Y10124287D01*
X876147Y10114635D01*
X879195Y10107625D01*
X880211Y10105999D01*
X881024Y10104120D01*
X881583Y10102088D01*
X881989Y10098379D01*
X883158Y10093858D01*
X886307Y10087356D01*
X890778Y10086441D01*
X894943Y10086035D01*
X899109Y10086390D01*
X903427Y10087610D01*
X908151Y10089743D01*
X913282Y10092436D01*
X1112164Y10093350D01*
X1113180Y10091724D01*
X1113891Y10087965D01*
X1113383Y10081920D01*
X1112012Y10075214D01*
X1108506Y10065867D01*
X1107389Y10061905D01*
X1106525Y10057434D01*
X1105357Y10047782D01*
X1104544Y10043515D01*
X1103426Y10039908D01*
X1100836Y10033863D01*
X1099769Y10030256D01*
X1098905Y10026091D01*
X1097737Y10016896D01*
X1096873Y10012426D01*
X1095756Y10008412D01*
X1093114Y10001605D01*
X1091946Y9997287D01*
X1090218Y9987330D01*
X1089558Y9982200D01*
X1088796Y9978237D01*
X1087831Y9975342D01*
X1085748Y9971684D01*
X1084732Y9968484D01*
X1083767Y9964115D01*
X1082040Y9953244D01*
X1080922Y9948164D01*
X1079754Y9943947D01*
X1077569Y9938359D01*
X1076553Y9934752D01*
X1075740Y9930638D01*
X1074623Y9921748D01*
X1073708Y9917328D01*
X1072591Y9913315D01*
X1070051Y9906711D01*
X1068933Y9902799D01*
X1068019Y9898583D01*
X1066901Y9890455D01*
X1066038Y9886442D01*
X1064971Y9882733D01*
X1062482Y9876688D01*
X1061262Y9872726D01*
X1060196Y9868255D01*
X1058773Y9859822D01*
X1057910Y9856165D01*
X1056995Y9853320D01*
X1054455Y9848697D01*
X1052982Y9844074D01*
X1051915Y9838639D01*
X1051306Y9831222D01*
X1050696Y9829038D01*
X1049832Y9826955D01*
X1048766Y9825228D01*
X1046022Y9821773D01*
X1043432Y9805263D01*
X1042466Y9801098D01*
X1041450Y9797948D01*
X1039571Y9794494D01*
X1038555Y9791598D01*
X1037590Y9787890D01*
X1035913Y9779508D01*
X1034846Y9775342D01*
X1033627Y9771735D01*
X1031290Y9766808D01*
X1030274Y9763760D01*
X1029411Y9760305D01*
X1028293Y9753498D01*
X1027480Y9750196D01*
X1026363Y9747199D01*
X1023823Y9742322D01*
X1022603Y9739020D01*
X1021638Y9735210D01*
X1020165Y9727031D01*
X1019200Y9723424D01*
X1018082Y9720427D01*
X1015746Y9716211D01*
X1014730Y9713518D01*
X1013968Y9710369D01*
X1012952Y9703562D01*
X1012190Y9700361D01*
X1011224Y9697618D01*
X1009142Y9693960D01*
X1007414Y9689846D01*
X1006556Y9686391D01*
X1103071Y9686391D01*
X1103426Y9688372D01*
X1104138Y9690303D01*
X1107084Y9694976D01*
X1108405Y9698126D01*
X1109421Y9702495D01*
X1111148Y9712909D01*
X1112062Y9716312D01*
X1113129Y9719106D01*
X1115415Y9723018D01*
X1116380Y9725710D01*
X1117142Y9729063D01*
X1118311Y9736886D01*
X1119174Y9740646D01*
X1120292Y9743998D01*
X1122883Y9749434D01*
X1124000Y9752787D01*
X1124864Y9756444D01*
X1126032Y9764014D01*
X1126947Y9767671D01*
X1128064Y9771024D01*
X1130554Y9776409D01*
X1131671Y9779762D01*
X1132586Y9783470D01*
X1133754Y9790988D01*
X1134618Y9794697D01*
X1135735Y9797999D01*
X1138275Y9803434D01*
X1139393Y9806736D01*
X1140256Y9810394D01*
X1141323Y9817709D01*
X1142085Y9821062D01*
X1143000Y9823856D01*
X1145743Y9828733D01*
X1147013Y9831933D01*
X1148029Y9836302D01*
X1149705Y9846513D01*
X1150518Y9849866D01*
X1151483Y9852507D01*
X1153363Y9855860D01*
X1154379Y9858857D01*
X1155344Y9862870D01*
X1156970Y9872065D01*
X1157935Y9876028D01*
X1158951Y9879076D01*
X1161592Y9884054D01*
X1163066Y9889286D01*
X1164132Y9895433D01*
X1164793Y9903714D01*
X1165453Y9906457D01*
X1167638Y9911892D01*
X1170686Y9917633D01*
X1173276Y9941509D01*
X1177798Y9946538D01*
X1179728Y9962896D01*
X1180693Y9967722D01*
X1181862Y9972040D01*
X1184554Y9978999D01*
X1185722Y9983368D01*
X1186688Y9988346D01*
X1187450Y9993833D01*
X1188669Y10005771D01*
X1193190Y10010800D01*
X1195171Y10027208D01*
X1196187Y10032034D01*
X1197406Y10036302D01*
X1200099Y10043109D01*
X1201216Y10047020D01*
X1202029Y10051288D01*
X1203147Y10060279D01*
X1203960Y10064445D01*
X1205026Y10068153D01*
X1207465Y10074046D01*
X1209497Y10080853D01*
X1211326Y10091115D01*
X1211630Y10092029D01*
X1217777Y10092385D01*
X1259738Y10092740D01*
X1444091Y10092436D01*
X1444091Y9679889D01*
X1103528Y9679889D01*
X1103071Y9686391D01*
X1006556Y9686391D01*
X1005992Y9684258D01*
X1004874Y9681311D01*
X1003604Y9678822D01*
X887374Y9680041D01*
X833069Y9681108D01*
X821029Y9681667D01*
X810260Y9684359D01*
X802995Y9685934D01*
X797153Y9686798D01*
X783082Y9687407D01*
X776681Y9683191D01*
X774903Y9672726D01*
X778154Y9666020D01*
X779526Y9662617D01*
X780745Y9658705D01*
X781659Y9654540D01*
X782269Y9650374D01*
X783082Y9641433D01*
X792835Y9631730D01*
X798830Y9631883D01*
X803503Y9633000D01*
X810463Y9635896D01*
X838708Y9637014D01*
X899058Y9637420D01*
X1056233Y9637826D01*
X1552702Y9638233D01*
X1716836Y9638639D01*
X1779778Y9639046D01*
X1790750Y9639350D01*
X1794256Y9641484D01*
X1798523Y9645040D01*
X1803349Y9649561D01*
X1803247Y9659416D01*
X1802536Y9663633D01*
X1802028Y9664496D01*
X1800098Y9666630D01*
X1797354Y9670643D01*
X1793189Y9675977D01*
X1786940Y9682632D01*
X1779879Y9689338D01*
X1771142Y9696500D01*
X1767535Y9699853D01*
X1765554Y9702088D01*
X1764436Y9702952D01*
X1763217Y9703460D01*
X1760982Y9703917D01*
X1759966Y9704578D01*
X1759051Y9705543D01*
X1757680Y9708134D01*
X1756613Y9709353D01*
X1755393Y9710267D01*
X1752752Y9711334D01*
X1751482Y9712248D01*
X1750364Y9713417D01*
X1748891Y9715906D01*
X1747367Y9717582D01*
X1745742Y9718141D01*
X1742439Y9720224D01*
X1733804Y9727336D01*
X1728622Y9731298D01*
X1725015Y9733737D01*
X1722221Y9734753D01*
X1721256Y9735413D01*
X1718310Y9738918D01*
X1715668Y9741052D01*
X1713026Y9742271D01*
X1710029Y9744303D01*
X1706016Y9748418D01*
X1699006Y9749332D01*
X1692910Y9749586D01*
X1687474Y9748824D01*
X1682546Y9746945D01*
X1678025Y9743948D01*
X1668475Y9735261D01*
X1656537Y9723374D01*
X1644650Y9710724D01*
X1639468Y9704933D01*
X1628089Y9691370D01*
X1622145Y9684613D01*
X1618488Y9679889D01*
X1544828Y9679127D01*
X1541170Y9682124D01*
X1541221Y10074452D01*
X1555445Y10087102D01*
X1561185Y10092537D01*
X1564538Y10096042D01*
X1566316Y10099649D01*
X1568145Y10101783D01*
X1570685Y10104170D01*
X1570888Y10112908D01*
X1570532Y10115245D01*
X1569974Y10117074D01*
X1568196Y10119664D01*
X1563420Y10128199D01*
X1560372Y10131958D01*
X1552041Y10140492D01*
X1547622Y10144506D01*
X1543507Y10147808D01*
X1540103Y10150094D01*
X1537055Y10151110D01*
X1535379Y10152481D01*
X1533855Y10154615D01*
X1530756Y10157002D01*
X1527149Y10158730D01*
X1524812Y10160457D01*
X1523949Y10161879D01*
X1520494Y10164318D01*
X1513484Y10168331D01*
X1512112Y10169347D01*
X1510995Y10170972D01*
X1508861Y10172039D01*
X1490167Y10178186D01*
X1484477Y10175290D01*
X1480261Y10174020D01*
X1477162Y10171988D01*
X1471320Y10166807D01*
X1464360Y10160050D01*
X1447546Y10142270D01*
X1445006Y10139019D01*
X1443634Y10135717D01*
X1433982Y10134752D01*
X1420164Y10134447D01*
X1349248Y10134295D01*
X1281328Y10134752D01*
X1231087Y10135565D01*
X1219962Y10136124D01*
X1219606Y10137089D01*
X1219809Y10138664D01*
X1221740Y10143642D01*
X1224737Y10149890D01*
X1226566Y10177272D01*
X1232408Y10191394D01*
X1234389Y10212882D01*
X1235151Y10218166D01*
X1236065Y10222026D01*
X1238656Y10228630D01*
X1240129Y10235539D01*
X1241247Y10243616D01*
X1241907Y10254538D01*
X1243533Y10261650D01*
X1247902Y10272420D01*
X1250442Y10305796D01*
X1252677Y10310114D01*
X1253693Y10313009D01*
X1254607Y10317276D01*
X1255420Y10323017D01*
X1256944Y10340289D01*
X1257960Y10347706D01*
X1259332Y10353751D01*
X1261364Y10359745D01*
X1262227Y10363098D01*
X1263904Y10375087D01*
X1265224Y10389870D01*
X1266037Y10396067D01*
X1266901Y10400690D01*
X1268780Y10405770D01*
X1270508Y10412679D01*
X1272844Y10426141D01*
X1274064Y10429748D01*
X1655267Y10429697D01*
X1708200Y10430052D01*
X1723999Y10430408D01*
X1734515Y10430865D01*
X1740865Y10431424D01*
X1744421Y10432186D01*
X1745996Y10432897D01*
X1749196Y10434878D01*
X1750060Y10440670D01*
X1750415Y10445089D01*
X1750009Y10449255D01*
X1748789Y10453370D01*
X1746656Y10457535D01*
X1743456Y10461955D01*
X1739188Y10466730D01*
X1733651Y10472013D01*
X1720545Y10483697D01*
X1717395Y10486745D01*
X1714804Y10488625D01*
X1713179Y10489184D01*
X1710740Y10490962D01*
X1707896Y10493705D01*
X1704238Y10496550D01*
X1700834Y10498582D01*
X1697532Y10501223D01*
X1695246Y10503763D01*
X1693011Y10505389D01*
X1691233Y10505846D01*
X1689150Y10507573D01*
X1687271Y10510062D01*
X1685289Y10511790D01*
X1683664Y10512348D01*
X1680972Y10514380D01*
X1678076Y10517378D01*
X1675638Y10519460D01*
X1674063Y10520121D01*
X1670557Y10522508D01*
X1666189Y10526014D01*
X1662379Y10528401D01*
X1660448Y10528960D01*
X1658620Y10530281D01*
X1657807Y10531246D01*
X1652981Y10534396D01*
X1645107Y10536224D01*
G37*
D10*
X508000Y305815D02*
G01*
X533907Y196850D01*
X560070Y305815D02*
G01*
X533907Y196850D01*
X560070Y305815D02*
G01*
X585978Y196850D01*
X611886Y305815D02*
G01*
X585978Y196850D01*
X646176Y305815D02*
G01*
X646176Y227837D01*
X651510Y212344D01*
X661670Y201929D01*
X677418Y196850D01*
X687831Y196850D01*
X703326Y201929D01*
X713739Y212344D01*
X718820Y227837D01*
X718820Y305815D01*
X753110Y305815D02*
G01*
X753110Y196850D01*
X753110Y305815D02*
G01*
X800100Y305815D01*
X815594Y300736D01*
X820673Y295402D01*
X826007Y284987D01*
X826007Y274573D01*
X820673Y264160D01*
X815594Y259079D01*
X800100Y254000D01*
X753110Y254000D02*
G01*
X800100Y254000D01*
X815594Y248665D01*
X820673Y243586D01*
X826007Y233171D01*
X826007Y217423D01*
X820673Y207010D01*
X815594Y201929D01*
X800100Y196850D01*
X753110Y196850D01*
X860297Y305815D02*
G01*
X860297Y196850D01*
X974597Y305815D02*
G01*
X974597Y196850D01*
X1047242Y305815D02*
G01*
X974597Y233171D01*
X1000505Y259079D02*
G01*
X1047242Y196850D01*
X1081531Y305815D02*
G01*
X1081531Y196850D01*
X1081531Y305815D02*
G01*
X1149095Y305815D01*
X1081531Y254000D02*
G01*
X1123187Y254000D01*
X1081531Y196850D02*
G01*
X1149095Y196850D01*
X1183386Y305815D02*
G01*
X1225042Y254000D01*
X1225042Y196850D01*
X1266444Y305815D02*
G01*
X1225042Y254000D01*
X1300734Y305815D02*
G01*
X1300734Y196850D01*
X1300734Y305815D02*
G01*
X1347470Y305815D01*
X1363218Y300736D01*
X1368297Y295402D01*
X1373631Y284987D01*
X1373631Y274573D01*
X1368297Y264160D01*
X1363218Y259079D01*
X1347470Y254000D01*
X1300734Y254000D02*
G01*
X1347470Y254000D01*
X1363218Y248665D01*
X1368297Y243586D01*
X1373631Y233171D01*
X1373631Y217423D01*
X1368297Y207010D01*
X1363218Y201929D01*
X1347470Y196850D01*
X1300734Y196850D01*
X1438910Y305815D02*
G01*
X1428750Y300736D01*
X1418336Y290321D01*
X1413002Y279907D01*
X1407921Y264160D01*
X1407921Y238252D01*
X1413002Y222757D01*
X1418336Y212344D01*
X1428750Y201929D01*
X1438910Y196850D01*
X1459737Y196850D01*
X1470152Y201929D01*
X1480565Y212344D01*
X1485900Y222757D01*
X1490979Y238252D01*
X1490979Y264160D01*
X1485900Y279907D01*
X1480565Y290321D01*
X1470152Y300736D01*
X1459737Y305815D01*
X1438910Y305815D01*
X1566926Y305815D02*
G01*
X1525270Y196850D01*
X1566926Y305815D02*
G01*
X1608328Y196850D01*
X1540763Y233171D02*
G01*
X1592834Y233171D01*
X1642618Y305815D02*
G01*
X1642618Y196850D01*
X1642618Y305815D02*
G01*
X1689354Y305815D01*
X1705102Y300736D01*
X1710181Y295402D01*
X1715515Y284987D01*
X1715515Y274573D01*
X1710181Y264160D01*
X1705102Y259079D01*
X1689354Y254000D01*
X1642618Y254000D01*
X1678939Y254000D02*
G01*
X1715515Y196850D01*
X1749805Y305815D02*
G01*
X1749805Y196850D01*
X1749805Y305815D02*
G01*
X1786128Y305815D01*
X1801621Y300736D01*
X1812036Y290321D01*
X1817370Y279907D01*
X1822450Y264160D01*
X1822450Y238252D01*
X1817370Y222757D01*
X1812036Y212344D01*
X1801621Y201929D01*
X1786128Y196850D01*
X1749805Y196850D01*
X24396700Y305815D02*
G01*
X24396700Y196850D01*
X24396700Y305815D02*
G01*
X24443436Y305815D01*
X24458929Y300736D01*
X24464263Y295402D01*
X24469343Y284987D01*
X24469343Y269494D01*
X24464263Y259079D01*
X24458929Y254000D01*
X24443436Y248665D01*
X24396700Y248665D01*
X24545290Y305815D02*
G01*
X24503634Y196850D01*
X24545290Y305815D02*
G01*
X24586945Y196850D01*
X24519381Y233171D02*
G01*
X24571198Y233171D01*
X24621236Y305815D02*
G01*
X24621236Y196850D01*
X24621236Y305815D02*
G01*
X24667972Y305815D01*
X24683466Y300736D01*
X24688800Y295402D01*
X24693879Y284987D01*
X24693879Y274573D01*
X24688800Y264160D01*
X24683466Y259079D01*
X24667972Y254000D01*
X24621236Y254000D01*
X24657558Y254000D02*
G01*
X24693879Y196850D01*
X24764491Y305815D02*
G01*
X24764491Y196850D01*
X24728170Y305815D02*
G01*
X24800813Y305815D01*
X24915113Y305815D02*
G01*
X24915113Y196850D01*
X24915113Y305815D02*
G01*
X24988011Y196850D01*
X24988011Y305815D02*
G01*
X24988011Y196850D01*
X25022302Y305815D02*
G01*
X25022302Y227837D01*
X25027381Y212344D01*
X25037795Y201929D01*
X25053290Y196850D01*
X25063704Y196850D01*
X25079452Y201929D01*
X25089866Y212344D01*
X25094945Y227837D01*
X25094945Y305815D01*
X25129236Y305815D02*
G01*
X25129236Y196850D01*
X25129236Y305815D02*
G01*
X25170891Y196850D01*
X25212293Y305815D02*
G01*
X25170891Y196850D01*
X25212293Y305815D02*
G01*
X25212293Y196850D01*
X25246584Y305815D02*
G01*
X25246584Y196850D01*
X25246584Y305815D02*
G01*
X25293320Y305815D01*
X25309068Y300736D01*
X25314148Y295402D01*
X25319481Y284987D01*
X25319481Y274573D01*
X25314148Y264160D01*
X25309068Y259079D01*
X25293320Y254000D01*
X25246584Y254000D02*
G01*
X25293320Y254000D01*
X25309068Y248665D01*
X25314148Y243586D01*
X25319481Y233171D01*
X25319481Y217423D01*
X25314148Y207010D01*
X25309068Y201929D01*
X25293320Y196850D01*
X25246584Y196850D01*
X25353772Y305815D02*
G01*
X25353772Y196850D01*
X25353772Y305815D02*
G01*
X25421336Y305815D01*
X25353772Y254000D02*
G01*
X25395174Y254000D01*
X25353772Y196850D02*
G01*
X25421336Y196850D01*
X25455625Y305815D02*
G01*
X25455625Y196850D01*
X25455625Y305815D02*
G01*
X25502361Y305815D01*
X25517856Y300736D01*
X25523190Y295402D01*
X25528270Y284987D01*
X25528270Y274573D01*
X25523190Y264160D01*
X25517856Y259079D01*
X25502361Y254000D01*
X25455625Y254000D01*
X25491948Y254000D02*
G01*
X25528270Y196850D01*
X25652984Y305815D02*
G01*
X25710134Y305815D01*
X25678891Y264160D01*
X25694640Y264160D01*
X25704800Y259079D01*
X25710134Y254000D01*
X25715213Y238252D01*
X25715213Y227837D01*
X25710134Y212344D01*
X25699720Y201929D01*
X25684225Y196850D01*
X25668477Y196850D01*
X25652984Y201929D01*
X25647650Y207010D01*
X25642570Y217423D01*
X25759918Y305815D02*
G01*
X25817068Y305815D01*
X25786079Y264160D01*
X25801574Y264160D01*
X25811988Y259079D01*
X25817068Y254000D01*
X25822402Y238252D01*
X25822402Y227837D01*
X25817068Y212344D01*
X25806654Y201929D01*
X25791159Y196850D01*
X25775666Y196850D01*
X25759918Y201929D01*
X25754838Y207010D01*
X25749504Y217423D01*
X25861772Y279907D02*
G01*
X25861772Y284987D01*
X25867106Y295402D01*
X25872186Y300736D01*
X25882600Y305815D01*
X25903427Y305815D01*
X25913841Y300736D01*
X25918922Y295402D01*
X25924256Y284987D01*
X25924256Y274573D01*
X25918922Y264160D01*
X25908508Y248665D01*
X25856691Y196850D01*
X25929336Y196850D01*
X25994868Y305815D02*
G01*
X25979120Y300736D01*
X25968959Y284987D01*
X25963625Y259079D01*
X25963625Y243586D01*
X25968959Y217423D01*
X25979120Y201929D01*
X25994868Y196850D01*
X26005281Y196850D01*
X26020775Y201929D01*
X26031190Y217423D01*
X26036270Y243586D01*
X26036270Y259079D01*
X26031190Y284987D01*
X26020775Y300736D01*
X26005281Y305815D01*
X25994868Y305815D01*
X26070559Y243586D02*
G01*
X26164286Y243586D01*
X26229563Y305815D02*
G01*
X26214070Y300736D01*
X26203656Y284987D01*
X26198575Y259079D01*
X26198575Y243586D01*
X26203656Y217423D01*
X26214070Y201929D01*
X26229563Y196850D01*
X26239977Y196850D01*
X26255725Y201929D01*
X26266140Y217423D01*
X26271220Y243586D01*
X26271220Y259079D01*
X26266140Y284987D01*
X26255725Y300736D01*
X26239977Y305815D01*
X26229563Y305815D01*
X26305509Y284987D02*
G01*
X26315924Y290321D01*
X26331418Y305815D01*
X26331418Y196850D01*
X26396950Y305815D02*
G01*
X26381456Y300736D01*
X26371041Y284987D01*
X26365708Y259079D01*
X26365708Y243586D01*
X26371041Y217423D01*
X26381456Y201929D01*
X26396950Y196850D01*
X26407363Y196850D01*
X26422858Y201929D01*
X26433272Y217423D01*
X26438606Y243586D01*
X26438606Y259079D01*
X26433272Y284987D01*
X26422858Y300736D01*
X26407363Y305815D01*
X26396950Y305815D01*
X26483309Y305815D02*
G01*
X26540459Y305815D01*
X26509218Y264160D01*
X26524711Y264160D01*
X26535125Y259079D01*
X26540459Y254000D01*
X26545540Y238252D01*
X26545540Y227837D01*
X26540459Y212344D01*
X26530045Y201929D01*
X26514298Y196850D01*
X26498804Y196850D01*
X26483309Y201929D01*
X26477975Y207010D01*
X26472895Y217423D01*
X26659840Y305815D02*
G01*
X26701495Y196850D01*
X26742898Y305815D02*
G01*
X26701495Y196850D01*
X26808429Y305815D02*
G01*
X26792936Y300736D01*
X26782522Y284987D01*
X26777188Y259079D01*
X26777188Y243586D01*
X26782522Y217423D01*
X26792936Y201929D01*
X26808429Y196850D01*
X26818843Y196850D01*
X26834338Y201929D01*
X26844752Y217423D01*
X26850086Y243586D01*
X26850086Y259079D01*
X26844752Y284987D01*
X26834338Y300736D01*
X26818843Y305815D01*
X26808429Y305815D01*
X26889456Y222757D02*
G01*
X26884375Y217423D01*
X26889456Y212344D01*
X26894790Y217423D01*
X26889456Y222757D01*
X26929079Y284987D02*
G01*
X26939240Y290321D01*
X26954988Y305815D01*
X26954988Y196850D01*
M02*
