G04 Layer: BoardOutlineLayer*
G04 EasyEDA v6.5.34, 2023-08-10 18:14:54*
G04 20bccd1edbbc44acb32006424f2ee6ce,5a6b42c53f6a479593ecc07194224c93,10*
G04 Gerber Generator version 0.2*
G04 Scale: 100 percent, Rotated: No, Reflected: No *
G04 Dimensions in millimeters *
G04 leading zeros omitted , absolute positions ,4 integer and 5 decimal *
%FSLAX45Y45*%
%MOMM*%

%ADD10C,0.2540*%
D10*
X0Y9004300D02*
G01*
X0Y11455400D01*
X27698700Y11455400D01*
X27686000Y0D01*
X0Y0D01*
X0Y9004300D01*
X495300Y8140700D02*
G01*
X495300Y495300D01*
X495300Y495300D02*
G01*
X26962100Y495300D01*
X26962100Y495300D02*
G01*
X26962100Y2400300D01*
X26962100Y2400300D02*
G01*
X27178000Y2400300D01*
X27178000Y2400300D02*
G01*
X27178000Y4330700D01*
X27178000Y4330700D02*
G01*
X27089100Y4330700D01*
X27089100Y4330700D02*
G01*
X27089100Y8140700D01*
X27089100Y8140700D02*
G01*
X495300Y8140700D01*
X3619500Y11264900D02*
G01*
X3619500Y8318500D01*
X3619500Y8318500D02*
G01*
X4597400Y8318500D01*
X4597400Y8318500D02*
G01*
X4711700Y8242300D01*
X4711700Y8242300D02*
G01*
X11150600Y8242300D01*
X11150600Y8242300D02*
G01*
X11264900Y8318500D01*
X11264900Y8318500D02*
G01*
X12242800Y8318500D01*
X12242800Y8318500D02*
G01*
X12242800Y11264900D01*
X12242800Y11264900D02*
G01*
X3619500Y11264900D01*
X15246350Y11264900D02*
G01*
X15246350Y8318500D01*
X15246350Y8318500D02*
G01*
X16224250Y8318500D01*
X16224250Y8318500D02*
G01*
X16338550Y8242300D01*
X16338550Y8242300D02*
G01*
X22777450Y8242300D01*
X22777450Y8242300D02*
G01*
X22891750Y8318500D01*
X22891750Y8318500D02*
G01*
X23869650Y8318500D01*
X23869650Y8318500D02*
G01*
X23869650Y11264900D01*
X23869650Y11264900D02*
G01*
X15246350Y11264900D01*

%LPD*%
M02*
