M48
METRIC,LZ,000.000
;FILE_FORMAT=3:3
;TYPE=NON_PLATED
;Layer: NPTH_Through
;EasyEDA v6.5.34, 2023-08-10 18:14:54
;ff69caebeaab4362ab2153d1a77cd0d5,5a6b42c53f6a479593ecc07194224c93,10
;Gerber Generator version 0.2
;Holesize 1 = 1.431 mm
T01C1.431
;Holesize 2 = 1.524 mm
T02C1.524
;Holesize 3 = 2.000 mm
T03C2.000
;Holesize 4 = 3.000 mm
T04C3.000
;Holesize 5 = 3.450 mm
T05C3.450
%
G05
G90
T01
X134493Y101600
X136993Y101600
X138993Y101600
X141493Y101600
T02
X009799Y101499
X012299Y101499
X009799Y099499
X012299Y099499
X267061Y099499
X264561Y099499
X267061Y101499
X264561Y101499
T03
X002540Y083820
X274320Y083820
X274320Y002540
X002540Y002540
X185420Y002540
X091440Y002540
X138494Y083820
X002540Y111760
X274320Y111760
X138494Y097155
T04
X005029Y104209
X017069Y104209
X259791Y104209
X271831Y104209
T05
X131423Y104310
X144563Y104310
M30
