G04 Layer: TopSilkscreenLayer*
G04 EasyEDA v6.5.29, 2023-07-18 11:26:45*
G04 4d29bd309a2048ebad46bf779903c475,5a6b42c53f6a479593ecc07194224c93,10*
G04 Gerber Generator version 0.2*
G04 Scale: 100 percent, Rotated: No, Reflected: No *
G04 Dimensions in millimeters *
G04 leading zeros omitted , absolute positions ,4 integer and 5 decimal *
%FSLAX45Y45*%
%MOMM*%

%ADD10C,0.2032*%
%ADD11C,0.1524*%
%ADD12C,0.1270*%

%LPD*%
D10*
X590550Y8076437D02*
G01*
X590550Y7980934D01*
X558800Y8076437D02*
G01*
X622554Y8076437D01*
X688847Y8076437D02*
G01*
X652526Y7980934D01*
X688847Y8076437D02*
G01*
X725170Y7980934D01*
X665987Y8012937D02*
G01*
X711454Y8012937D01*
X755142Y8076437D02*
G01*
X755142Y7980934D01*
X755142Y8076437D02*
G01*
X796036Y8076437D01*
X809752Y8071865D01*
X814323Y8067294D01*
X818895Y8058404D01*
X818895Y8049260D01*
X814323Y8040115D01*
X809752Y8035544D01*
X796036Y8030971D01*
X755142Y8030971D02*
G01*
X796036Y8030971D01*
X809752Y8026400D01*
X814323Y8022081D01*
X818895Y8012937D01*
X818895Y7999221D01*
X814323Y7990078D01*
X809752Y7985505D01*
X796036Y7980934D01*
X755142Y7980934D01*
X626871Y6148831D02*
G01*
X622554Y6157976D01*
X613410Y6166865D01*
X604265Y6171437D01*
X585978Y6171437D01*
X577087Y6166865D01*
X567944Y6157976D01*
X563371Y6148831D01*
X558800Y6135115D01*
X558800Y6112510D01*
X563371Y6098794D01*
X567944Y6089650D01*
X577087Y6080505D01*
X585978Y6075934D01*
X604265Y6075934D01*
X613410Y6080505D01*
X622554Y6089650D01*
X626871Y6098794D01*
X684276Y6171437D02*
G01*
X675131Y6166865D01*
X665987Y6157976D01*
X661415Y6148831D01*
X657097Y6135115D01*
X657097Y6112510D01*
X661415Y6098794D01*
X665987Y6089650D01*
X675131Y6080505D01*
X684276Y6075934D01*
X702310Y6075934D01*
X711454Y6080505D01*
X720597Y6089650D01*
X725170Y6098794D01*
X729742Y6112510D01*
X729742Y6135115D01*
X725170Y6148831D01*
X720597Y6157976D01*
X711454Y6166865D01*
X702310Y6171437D01*
X684276Y6171437D01*
X759713Y6171437D02*
G01*
X759713Y6075934D01*
X759713Y6171437D02*
G01*
X823468Y6075934D01*
X823468Y6171437D02*
G01*
X823468Y6075934D01*
X885189Y6171437D02*
G01*
X885189Y6075934D01*
X853439Y6171437D02*
G01*
X916939Y6171437D01*
X946912Y6171437D02*
G01*
X946912Y6075934D01*
X946912Y6171437D02*
G01*
X987805Y6171437D01*
X1001521Y6166865D01*
X1006094Y6162294D01*
X1010665Y6153404D01*
X1010665Y6144260D01*
X1006094Y6135115D01*
X1001521Y6130544D01*
X987805Y6125971D01*
X946912Y6125971D01*
X978915Y6125971D02*
G01*
X1010665Y6075934D01*
X1067815Y6171437D02*
G01*
X1058926Y6166865D01*
X1049781Y6157976D01*
X1045210Y6148831D01*
X1040637Y6135115D01*
X1040637Y6112510D01*
X1045210Y6098794D01*
X1049781Y6089650D01*
X1058926Y6080505D01*
X1067815Y6075934D01*
X1086104Y6075934D01*
X1095247Y6080505D01*
X1104137Y6089650D01*
X1108710Y6098794D01*
X1113281Y6112510D01*
X1113281Y6135115D01*
X1108710Y6148831D01*
X1104137Y6157976D01*
X1095247Y6166865D01*
X1086104Y6171437D01*
X1067815Y6171437D01*
X1143254Y6171437D02*
G01*
X1143254Y6075934D01*
X1143254Y6075934D02*
G01*
X1197863Y6075934D01*
X622554Y4252976D02*
G01*
X613410Y4261865D01*
X599694Y4266437D01*
X581405Y4266437D01*
X567944Y4261865D01*
X558800Y4252976D01*
X558800Y4243831D01*
X563371Y4234687D01*
X567944Y4230115D01*
X577087Y4225544D01*
X604265Y4216400D01*
X613410Y4212081D01*
X617981Y4207510D01*
X622554Y4198365D01*
X622554Y4184650D01*
X613410Y4175505D01*
X599694Y4170934D01*
X581405Y4170934D01*
X567944Y4175505D01*
X558800Y4184650D01*
X652526Y4266437D02*
G01*
X652526Y4170934D01*
X716026Y4266437D02*
G01*
X716026Y4170934D01*
X652526Y4220971D02*
G01*
X716026Y4220971D01*
X745997Y4266437D02*
G01*
X745997Y4170934D01*
X775970Y4266437D02*
G01*
X775970Y4170934D01*
X775970Y4266437D02*
G01*
X835152Y4266437D01*
X775970Y4220971D02*
G01*
X812545Y4220971D01*
X896873Y4266437D02*
G01*
X896873Y4170934D01*
X865123Y4266437D02*
G01*
X928878Y4266437D01*
X626871Y2338831D02*
G01*
X622554Y2347976D01*
X613410Y2356865D01*
X604265Y2361437D01*
X585978Y2361437D01*
X577087Y2356865D01*
X567944Y2347976D01*
X563371Y2338831D01*
X558800Y2325115D01*
X558800Y2302510D01*
X563371Y2288794D01*
X567944Y2279650D01*
X577087Y2270505D01*
X585978Y2265934D01*
X604265Y2265934D01*
X613410Y2270505D01*
X622554Y2279650D01*
X626871Y2288794D01*
X693420Y2361437D02*
G01*
X657097Y2265934D01*
X693420Y2361437D02*
G01*
X729742Y2265934D01*
X670560Y2297937D02*
G01*
X716026Y2297937D01*
X759713Y2361437D02*
G01*
X759713Y2265934D01*
X759713Y2361437D02*
G01*
X800607Y2361437D01*
X814323Y2356865D01*
X818895Y2352294D01*
X823468Y2343404D01*
X823468Y2329687D01*
X818895Y2320544D01*
X814323Y2315971D01*
X800607Y2311400D01*
X759713Y2311400D01*
X916939Y2347976D02*
G01*
X907795Y2356865D01*
X894334Y2361437D01*
X876045Y2361437D01*
X862329Y2356865D01*
X853439Y2347976D01*
X853439Y2338831D01*
X858012Y2329687D01*
X862329Y2325115D01*
X871473Y2320544D01*
X898905Y2311400D01*
X907795Y2307081D01*
X912368Y2302510D01*
X916939Y2293365D01*
X916939Y2279650D01*
X907795Y2270505D01*
X894334Y2265934D01*
X876045Y2265934D01*
X862329Y2270505D01*
X853439Y2279650D01*
X1017015Y2361437D02*
G01*
X1017015Y2265934D01*
X1017015Y2265934D02*
G01*
X1071626Y2265934D01*
X1128776Y2361437D02*
G01*
X1119631Y2356865D01*
X1110742Y2347976D01*
X1106170Y2338831D01*
X1101597Y2325115D01*
X1101597Y2302510D01*
X1106170Y2288794D01*
X1110742Y2279650D01*
X1119631Y2270505D01*
X1128776Y2265934D01*
X1147063Y2265934D01*
X1155954Y2270505D01*
X1165097Y2279650D01*
X1169670Y2288794D01*
X1174242Y2302510D01*
X1174242Y2325115D01*
X1169670Y2338831D01*
X1165097Y2347976D01*
X1155954Y2356865D01*
X1147063Y2361437D01*
X1128776Y2361437D01*
X1272539Y2338831D02*
G01*
X1267968Y2347976D01*
X1258823Y2356865D01*
X1249679Y2361437D01*
X1231645Y2361437D01*
X1222502Y2356865D01*
X1213357Y2347976D01*
X1208786Y2338831D01*
X1204213Y2325115D01*
X1204213Y2302510D01*
X1208786Y2288794D01*
X1213357Y2279650D01*
X1222502Y2270505D01*
X1231645Y2265934D01*
X1249679Y2265934D01*
X1258823Y2270505D01*
X1267968Y2279650D01*
X1272539Y2288794D01*
X1302512Y2361437D02*
G01*
X1302512Y2265934D01*
X1366012Y2361437D02*
G01*
X1302512Y2297937D01*
X1325118Y2320544D02*
G01*
X1366012Y2265934D01*
X3392677Y8076437D02*
G01*
X3383788Y8071865D01*
X3374643Y8062976D01*
X3370072Y8053831D01*
X3365500Y8040115D01*
X3365500Y8017510D01*
X3370072Y8003794D01*
X3374643Y7994650D01*
X3383788Y7985505D01*
X3392677Y7980934D01*
X3410965Y7980934D01*
X3420109Y7985505D01*
X3429254Y7994650D01*
X3433572Y8003794D01*
X3438143Y8017510D01*
X3438143Y8040115D01*
X3433572Y8053831D01*
X3429254Y8062976D01*
X3420109Y8071865D01*
X3410965Y8076437D01*
X3392677Y8076437D01*
X3406393Y7999221D02*
G01*
X3433572Y7972044D01*
X3550158Y8094726D02*
G01*
X3468115Y7949184D01*
X3589020Y8076437D02*
G01*
X3639058Y8076437D01*
X3611879Y8040115D01*
X3625595Y8040115D01*
X3634486Y8035544D01*
X3639058Y8030971D01*
X3643629Y8017510D01*
X3643629Y8008365D01*
X3639058Y7994650D01*
X3630168Y7985505D01*
X3616452Y7980934D01*
X3602736Y7980934D01*
X3589020Y7985505D01*
X3584702Y7990078D01*
X3580129Y7999221D01*
X3728211Y8076437D02*
G01*
X3682745Y8076437D01*
X3678174Y8035544D01*
X3682745Y8040115D01*
X3696461Y8044687D01*
X3709924Y8044687D01*
X3723640Y8040115D01*
X3732784Y8030971D01*
X3737356Y8017510D01*
X3737356Y8008365D01*
X3732784Y7994650D01*
X3723640Y7985505D01*
X3709924Y7980934D01*
X3696461Y7980934D01*
X3682745Y7985505D01*
X3678174Y7990078D01*
X3673602Y7999221D01*
X5270500Y8076437D02*
G01*
X5293106Y7980934D01*
X5315965Y8076437D02*
G01*
X5293106Y7980934D01*
X5315965Y8076437D02*
G01*
X5338572Y7980934D01*
X5361431Y8076437D02*
G01*
X5338572Y7980934D01*
X5473191Y8094726D02*
G01*
X5391404Y7949184D01*
X5512308Y8076437D02*
G01*
X5562345Y8076437D01*
X5535168Y8040115D01*
X5548629Y8040115D01*
X5557774Y8035544D01*
X5562345Y8030971D01*
X5566918Y8017510D01*
X5566918Y8008365D01*
X5562345Y7994650D01*
X5553202Y7985505D01*
X5539486Y7980934D01*
X5526024Y7980934D01*
X5512308Y7985505D01*
X5507736Y7990078D01*
X5503163Y7999221D01*
X5642356Y8076437D02*
G01*
X5596890Y8012937D01*
X5664961Y8012937D01*
X5642356Y8076437D02*
G01*
X5642356Y7980934D01*
X7175500Y8076437D02*
G01*
X7175500Y7980934D01*
X7175500Y8076437D02*
G01*
X7234681Y8076437D01*
X7175500Y8030971D02*
G01*
X7211822Y8030971D01*
X7175500Y7980934D02*
G01*
X7234681Y7980934D01*
X7346441Y8094726D02*
G01*
X7264654Y7949184D01*
X7385558Y8076437D02*
G01*
X7435595Y8076437D01*
X7408163Y8040115D01*
X7421879Y8040115D01*
X7431024Y8035544D01*
X7435595Y8030971D01*
X7440168Y8017510D01*
X7440168Y8008365D01*
X7435595Y7994650D01*
X7426452Y7985505D01*
X7412736Y7980934D01*
X7399020Y7980934D01*
X7385558Y7985505D01*
X7380986Y7990078D01*
X7376413Y7999221D01*
X7479029Y8076437D02*
G01*
X7529068Y8076437D01*
X7501890Y8040115D01*
X7515606Y8040115D01*
X7524495Y8035544D01*
X7529068Y8030971D01*
X7533640Y8017510D01*
X7533640Y8008365D01*
X7529068Y7994650D01*
X7519924Y7985505D01*
X7506461Y7980934D01*
X7492745Y7980934D01*
X7479029Y7985505D01*
X7474711Y7990078D01*
X7470140Y7999221D01*
X9080500Y8076437D02*
G01*
X9080500Y7980934D01*
X9080500Y8076437D02*
G01*
X9121393Y8076437D01*
X9135109Y8071865D01*
X9139681Y8067294D01*
X9144254Y8058404D01*
X9144254Y8049260D01*
X9139681Y8040115D01*
X9135109Y8035544D01*
X9121393Y8030971D01*
X9080500Y8030971D01*
X9112250Y8030971D02*
G01*
X9144254Y7980934D01*
X9256013Y8094726D02*
G01*
X9174225Y7949184D01*
X9295129Y8076437D02*
G01*
X9345168Y8076437D01*
X9317736Y8040115D01*
X9331452Y8040115D01*
X9340595Y8035544D01*
X9345168Y8030971D01*
X9349486Y8017510D01*
X9349486Y8008365D01*
X9345168Y7994650D01*
X9336024Y7985505D01*
X9322308Y7980934D01*
X9308591Y7980934D01*
X9295129Y7985505D01*
X9290558Y7990078D01*
X9285986Y7999221D01*
X9384029Y8053831D02*
G01*
X9384029Y8058404D01*
X9388602Y8067294D01*
X9393174Y8071865D01*
X9402318Y8076437D01*
X9420606Y8076437D01*
X9429495Y8071865D01*
X9434068Y8067294D01*
X9438640Y8058404D01*
X9438640Y8049260D01*
X9434068Y8040115D01*
X9424924Y8026400D01*
X9379711Y7980934D01*
X9443211Y7980934D01*
X3897122Y6171437D02*
G01*
X3860800Y6075934D01*
X3897122Y6171437D02*
G01*
X3933443Y6075934D01*
X3874515Y6107937D02*
G01*
X3919981Y6107937D01*
X4045458Y6189726D02*
G01*
X3963415Y6044184D01*
X4075429Y6153404D02*
G01*
X4084320Y6157976D01*
X4098036Y6171437D01*
X4098036Y6075934D01*
X4182618Y6171437D02*
G01*
X4137152Y6171437D01*
X4132579Y6130544D01*
X4137152Y6135115D01*
X4150868Y6139687D01*
X4164329Y6139687D01*
X4178045Y6135115D01*
X4187190Y6125971D01*
X4191761Y6112510D01*
X4191761Y6103365D01*
X4187190Y6089650D01*
X4178045Y6080505D01*
X4164329Y6075934D01*
X4150868Y6075934D01*
X4137152Y6080505D01*
X4132579Y6085078D01*
X4128008Y6094221D01*
X5829554Y6157976D02*
G01*
X5820409Y6166865D01*
X5806693Y6171437D01*
X5788406Y6171437D01*
X5774943Y6166865D01*
X5765800Y6157976D01*
X5765800Y6148831D01*
X5770372Y6139687D01*
X5774943Y6135115D01*
X5784088Y6130544D01*
X5811265Y6121400D01*
X5820409Y6117081D01*
X5824981Y6112510D01*
X5829554Y6103365D01*
X5829554Y6089650D01*
X5820409Y6080505D01*
X5806693Y6075934D01*
X5788406Y6075934D01*
X5774943Y6080505D01*
X5765800Y6089650D01*
X5941313Y6189726D02*
G01*
X5859525Y6044184D01*
X5971286Y6153404D02*
G01*
X5980429Y6157976D01*
X5993891Y6171437D01*
X5993891Y6075934D01*
X6069329Y6171437D02*
G01*
X6023863Y6107937D01*
X6092190Y6107937D01*
X6069329Y6171437D02*
G01*
X6069329Y6075934D01*
X7670800Y6171437D02*
G01*
X7670800Y6075934D01*
X7670800Y6171437D02*
G01*
X7702550Y6171437D01*
X7716265Y6166865D01*
X7725409Y6157976D01*
X7729981Y6148831D01*
X7734554Y6135115D01*
X7734554Y6112510D01*
X7729981Y6098794D01*
X7725409Y6089650D01*
X7716265Y6080505D01*
X7702550Y6075934D01*
X7670800Y6075934D01*
X7846313Y6189726D02*
G01*
X7764525Y6044184D01*
X7876286Y6153404D02*
G01*
X7885429Y6157976D01*
X7898891Y6171437D01*
X7898891Y6075934D01*
X7938008Y6171437D02*
G01*
X7988045Y6171437D01*
X7960868Y6135115D01*
X7974329Y6135115D01*
X7983474Y6130544D01*
X7988045Y6125971D01*
X7992618Y6112510D01*
X7992618Y6103365D01*
X7988045Y6089650D01*
X7978902Y6080505D01*
X7965440Y6075934D01*
X7951724Y6075934D01*
X7938008Y6080505D01*
X7933436Y6085078D01*
X7928863Y6094221D01*
X9575800Y6171437D02*
G01*
X9575800Y6075934D01*
X9575800Y6171437D02*
G01*
X9634981Y6171437D01*
X9575800Y6125971D02*
G01*
X9612122Y6125971D01*
X9746741Y6189726D02*
G01*
X9664954Y6044184D01*
X9776713Y6153404D02*
G01*
X9785858Y6157976D01*
X9799320Y6171437D01*
X9799320Y6075934D01*
X9833863Y6148831D02*
G01*
X9833863Y6153404D01*
X9838436Y6162294D01*
X9843008Y6166865D01*
X9852152Y6171437D01*
X9870440Y6171437D01*
X9879329Y6166865D01*
X9883902Y6162294D01*
X9888474Y6153404D01*
X9888474Y6144260D01*
X9883902Y6135115D01*
X9875011Y6121400D01*
X9829545Y6075934D01*
X9893045Y6075934D01*
X4927854Y4266437D02*
G01*
X4864100Y4170934D01*
X4864100Y4266437D02*
G01*
X4927854Y4266437D01*
X4864100Y4170934D02*
G01*
X4927854Y4170934D01*
X6769100Y4266437D02*
G01*
X6832854Y4170934D01*
X6832854Y4266437D02*
G01*
X6769100Y4170934D01*
X6944613Y4284726D02*
G01*
X6862825Y4139184D01*
X7029195Y4266437D02*
G01*
X6983729Y4266437D01*
X6979158Y4225544D01*
X6983729Y4230115D01*
X6997191Y4234687D01*
X7010908Y4234687D01*
X7024624Y4230115D01*
X7033768Y4220971D01*
X7038086Y4207510D01*
X7038086Y4198365D01*
X7033768Y4184650D01*
X7024624Y4175505D01*
X7010908Y4170934D01*
X6997191Y4170934D01*
X6983729Y4175505D01*
X6979158Y4180078D01*
X6974586Y4189221D01*
X7122668Y4266437D02*
G01*
X7077202Y4266437D01*
X7072629Y4225544D01*
X7077202Y4230115D01*
X7090918Y4234687D01*
X7104634Y4234687D01*
X7118095Y4230115D01*
X7127240Y4220971D01*
X7131811Y4207510D01*
X7131811Y4198365D01*
X7127240Y4184650D01*
X7118095Y4175505D01*
X7104634Y4170934D01*
X7090918Y4170934D01*
X7077202Y4175505D01*
X7072629Y4180078D01*
X7068311Y4189221D01*
X10579100Y4266437D02*
G01*
X10615422Y4170934D01*
X10651743Y4266437D02*
G01*
X10615422Y4170934D01*
X10763758Y4284726D02*
G01*
X10681715Y4139184D01*
X10848086Y4266437D02*
G01*
X10802620Y4266437D01*
X10798302Y4225544D01*
X10802620Y4230115D01*
X10816336Y4234687D01*
X10830052Y4234687D01*
X10843768Y4230115D01*
X10852658Y4220971D01*
X10857229Y4207510D01*
X10857229Y4198365D01*
X10852658Y4184650D01*
X10843768Y4175505D01*
X10830052Y4170934D01*
X10816336Y4170934D01*
X10802620Y4175505D01*
X10798302Y4180078D01*
X10793729Y4189221D01*
X10896345Y4266437D02*
G01*
X10946384Y4266437D01*
X10919206Y4230115D01*
X10932668Y4230115D01*
X10941811Y4225544D01*
X10946384Y4220971D01*
X10950956Y4207510D01*
X10950956Y4198365D01*
X10946384Y4184650D01*
X10937240Y4175505D01*
X10923524Y4170934D01*
X10910061Y4170934D01*
X10896345Y4175505D01*
X10891774Y4180078D01*
X10887202Y4189221D01*
X8742172Y4243831D02*
G01*
X8737854Y4252976D01*
X8728709Y4261865D01*
X8719565Y4266437D01*
X8701277Y4266437D01*
X8692388Y4261865D01*
X8683243Y4252976D01*
X8678672Y4243831D01*
X8674100Y4230115D01*
X8674100Y4207510D01*
X8678672Y4193794D01*
X8683243Y4184650D01*
X8692388Y4175505D01*
X8701277Y4170934D01*
X8719565Y4170934D01*
X8728709Y4175505D01*
X8737854Y4184650D01*
X8742172Y4193794D01*
X8854186Y4284726D02*
G01*
X8772397Y4139184D01*
X8938768Y4266437D02*
G01*
X8893302Y4266437D01*
X8888729Y4225544D01*
X8893302Y4230115D01*
X8906763Y4234687D01*
X8920479Y4234687D01*
X8934195Y4230115D01*
X8943086Y4220971D01*
X8947658Y4207510D01*
X8947658Y4198365D01*
X8943086Y4184650D01*
X8934195Y4175505D01*
X8920479Y4170934D01*
X8906763Y4170934D01*
X8893302Y4175505D01*
X8888729Y4180078D01*
X8884158Y4189221D01*
X9023095Y4266437D02*
G01*
X8977629Y4202937D01*
X9045956Y4202937D01*
X9023095Y4266437D02*
G01*
X9023095Y4170934D01*
X3897122Y2361437D02*
G01*
X3860800Y2265934D01*
X3897122Y2361437D02*
G01*
X3933443Y2265934D01*
X3874515Y2297937D02*
G01*
X3919981Y2297937D01*
X3963415Y2361437D02*
G01*
X3963415Y2265934D01*
X3963415Y2265934D02*
G01*
X4018025Y2265934D01*
X4080002Y2361437D02*
G01*
X4080002Y2265934D01*
X4047997Y2361437D02*
G01*
X4111752Y2361437D01*
X6731254Y2347976D02*
G01*
X6722109Y2356865D01*
X6708393Y2361437D01*
X6690106Y2361437D01*
X6676643Y2356865D01*
X6667500Y2347976D01*
X6667500Y2338831D01*
X6672072Y2329687D01*
X6676643Y2325115D01*
X6685788Y2320544D01*
X6712965Y2311400D01*
X6722109Y2307081D01*
X6726681Y2302510D01*
X6731254Y2293365D01*
X6731254Y2279650D01*
X6722109Y2270505D01*
X6708393Y2265934D01*
X6690106Y2265934D01*
X6676643Y2270505D01*
X6667500Y2279650D01*
X6761225Y2361437D02*
G01*
X6761225Y2265934D01*
X6761225Y2361437D02*
G01*
X6802120Y2361437D01*
X6815581Y2356865D01*
X6820154Y2352294D01*
X6824725Y2343404D01*
X6824725Y2329687D01*
X6820154Y2320544D01*
X6815581Y2315971D01*
X6802120Y2311400D01*
X6761225Y2311400D01*
X6891020Y2361437D02*
G01*
X6854697Y2265934D01*
X6891020Y2361437D02*
G01*
X6927595Y2265934D01*
X6868413Y2297937D02*
G01*
X6913879Y2297937D01*
X7025640Y2338831D02*
G01*
X7021068Y2347976D01*
X7011924Y2356865D01*
X7003034Y2361437D01*
X6984745Y2361437D01*
X6975602Y2356865D01*
X6966711Y2347976D01*
X6962140Y2338831D01*
X6957568Y2325115D01*
X6957568Y2302510D01*
X6962140Y2288794D01*
X6966711Y2279650D01*
X6975602Y2270505D01*
X6984745Y2265934D01*
X7003034Y2265934D01*
X7011924Y2270505D01*
X7021068Y2279650D01*
X7025640Y2288794D01*
X7055611Y2361437D02*
G01*
X7055611Y2265934D01*
X7055611Y2361437D02*
G01*
X7114793Y2361437D01*
X7055611Y2315971D02*
G01*
X7091934Y2315971D01*
X7055611Y2265934D02*
G01*
X7114793Y2265934D01*
X7214870Y2343404D02*
G01*
X7223759Y2347976D01*
X7237475Y2361437D01*
X7237475Y2265934D01*
X10439654Y2347976D02*
G01*
X10430509Y2356865D01*
X10416793Y2361437D01*
X10398506Y2361437D01*
X10385043Y2356865D01*
X10375900Y2347976D01*
X10375900Y2338831D01*
X10380472Y2329687D01*
X10385043Y2325115D01*
X10394188Y2320544D01*
X10421365Y2311400D01*
X10430509Y2307081D01*
X10435081Y2302510D01*
X10439654Y2293365D01*
X10439654Y2279650D01*
X10430509Y2270505D01*
X10416793Y2265934D01*
X10398506Y2265934D01*
X10385043Y2270505D01*
X10375900Y2279650D01*
X10469625Y2361437D02*
G01*
X10469625Y2265934D01*
X10469625Y2361437D02*
G01*
X10510520Y2361437D01*
X10523981Y2356865D01*
X10528554Y2352294D01*
X10533125Y2343404D01*
X10533125Y2329687D01*
X10528554Y2320544D01*
X10523981Y2315971D01*
X10510520Y2311400D01*
X10469625Y2311400D01*
X10599420Y2361437D02*
G01*
X10563097Y2265934D01*
X10599420Y2361437D02*
G01*
X10635995Y2265934D01*
X10576813Y2297937D02*
G01*
X10622279Y2297937D01*
X10734040Y2338831D02*
G01*
X10729468Y2347976D01*
X10720324Y2356865D01*
X10711434Y2361437D01*
X10693145Y2361437D01*
X10684002Y2356865D01*
X10675111Y2347976D01*
X10670540Y2338831D01*
X10665968Y2325115D01*
X10665968Y2302510D01*
X10670540Y2288794D01*
X10675111Y2279650D01*
X10684002Y2270505D01*
X10693145Y2265934D01*
X10711434Y2265934D01*
X10720324Y2270505D01*
X10729468Y2279650D01*
X10734040Y2288794D01*
X10764011Y2361437D02*
G01*
X10764011Y2265934D01*
X10764011Y2361437D02*
G01*
X10823193Y2361437D01*
X10764011Y2315971D02*
G01*
X10800334Y2315971D01*
X10764011Y2265934D02*
G01*
X10823193Y2265934D01*
X10927841Y2338831D02*
G01*
X10927841Y2343404D01*
X10932159Y2352294D01*
X10936731Y2356865D01*
X10945875Y2361437D01*
X10964163Y2361437D01*
X10973054Y2356865D01*
X10977625Y2352294D01*
X10982197Y2343404D01*
X10982197Y2334260D01*
X10977625Y2325115D01*
X10968736Y2311400D01*
X10923270Y2265934D01*
X10986770Y2265934D01*
X17481550Y2361437D02*
G01*
X17481550Y2265934D01*
X17481550Y2361437D02*
G01*
X17517872Y2265934D01*
X17554193Y2361437D02*
G01*
X17517872Y2265934D01*
X17554193Y2361437D02*
G01*
X17554193Y2265934D01*
X17584166Y2361437D02*
G01*
X17584166Y2265934D01*
X17584166Y2361437D02*
G01*
X17643348Y2361437D01*
X17584166Y2315971D02*
G01*
X17620741Y2315971D01*
X17584166Y2265934D02*
G01*
X17643348Y2265934D01*
X17673320Y2361437D02*
G01*
X17673320Y2265934D01*
X17673320Y2361437D02*
G01*
X17737074Y2265934D01*
X17737074Y2361437D02*
G01*
X17737074Y2265934D01*
X17767045Y2361437D02*
G01*
X17767045Y2293365D01*
X17771618Y2279650D01*
X17780761Y2270505D01*
X17794224Y2265934D01*
X17803368Y2265934D01*
X17817084Y2270505D01*
X17825974Y2279650D01*
X17830545Y2293365D01*
X17830545Y2361437D01*
X15576550Y2361437D02*
G01*
X15576550Y2265934D01*
X15576550Y2361437D02*
G01*
X15635731Y2361437D01*
X15576550Y2315971D02*
G01*
X15612872Y2315971D01*
X15665704Y2361437D02*
G01*
X15665704Y2293365D01*
X15670275Y2279650D01*
X15679166Y2270505D01*
X15692881Y2265934D01*
X15702025Y2265934D01*
X15715741Y2270505D01*
X15724631Y2279650D01*
X15729204Y2293365D01*
X15729204Y2361437D01*
X15759175Y2361437D02*
G01*
X15759175Y2265934D01*
X15759175Y2361437D02*
G01*
X15822929Y2265934D01*
X15822929Y2361437D02*
G01*
X15822929Y2265934D01*
X15920974Y2338831D02*
G01*
X15916656Y2347976D01*
X15907511Y2356865D01*
X15898368Y2361437D01*
X15880079Y2361437D01*
X15871190Y2356865D01*
X15862045Y2347976D01*
X15857474Y2338831D01*
X15852902Y2325115D01*
X15852902Y2302510D01*
X15857474Y2288794D01*
X15862045Y2279650D01*
X15871190Y2270505D01*
X15880079Y2265934D01*
X15898368Y2265934D01*
X15907511Y2270505D01*
X15916656Y2279650D01*
X15920974Y2288794D01*
X15982950Y2361437D02*
G01*
X15982950Y2265934D01*
X15951200Y2361437D02*
G01*
X16014700Y2361437D01*
X16044672Y2361437D02*
G01*
X16044672Y2265934D01*
X16102075Y2361437D02*
G01*
X16092931Y2356865D01*
X16083788Y2347976D01*
X16079216Y2338831D01*
X16074643Y2325115D01*
X16074643Y2302510D01*
X16079216Y2288794D01*
X16083788Y2279650D01*
X16092931Y2270505D01*
X16102075Y2265934D01*
X16120109Y2265934D01*
X16129254Y2270505D01*
X16138397Y2279650D01*
X16142970Y2288794D01*
X16147541Y2302510D01*
X16147541Y2325115D01*
X16142970Y2338831D01*
X16138397Y2347976D01*
X16129254Y2356865D01*
X16120109Y2361437D01*
X16102075Y2361437D01*
X16177513Y2361437D02*
G01*
X16177513Y2265934D01*
X16177513Y2361437D02*
G01*
X16241013Y2265934D01*
X16241013Y2361437D02*
G01*
X16241013Y2265934D01*
X21291550Y2361437D02*
G01*
X21291550Y2293365D01*
X21296122Y2279650D01*
X21305266Y2270505D01*
X21318727Y2265934D01*
X21327872Y2265934D01*
X21341588Y2270505D01*
X21350731Y2279650D01*
X21355304Y2293365D01*
X21355304Y2361437D01*
X21385275Y2361437D02*
G01*
X21385275Y2265934D01*
X21385275Y2361437D02*
G01*
X21426170Y2361437D01*
X21439631Y2356865D01*
X21444204Y2352294D01*
X21448775Y2343404D01*
X21448775Y2329687D01*
X21444204Y2320544D01*
X21439631Y2315971D01*
X21426170Y2311400D01*
X21385275Y2311400D01*
X19386550Y2361437D02*
G01*
X19386550Y2265934D01*
X19386550Y2265934D02*
G01*
X19441159Y2265934D01*
X19471131Y2361437D02*
G01*
X19471131Y2265934D01*
X19471131Y2361437D02*
G01*
X19530059Y2361437D01*
X19471131Y2315971D02*
G01*
X19507454Y2315971D01*
X19471131Y2265934D02*
G01*
X19530059Y2265934D01*
X19560286Y2361437D02*
G01*
X19560286Y2265934D01*
X19560286Y2361437D02*
G01*
X19619213Y2361437D01*
X19560286Y2315971D02*
G01*
X19596608Y2315971D01*
X19681190Y2361437D02*
G01*
X19681190Y2265934D01*
X19649186Y2361437D02*
G01*
X19712940Y2361437D01*
X25101550Y2361437D02*
G01*
X25101550Y2265934D01*
X25101550Y2361437D02*
G01*
X25142443Y2361437D01*
X25156159Y2356865D01*
X25160731Y2352294D01*
X25165304Y2343404D01*
X25165304Y2334260D01*
X25160731Y2325115D01*
X25156159Y2320544D01*
X25142443Y2315971D01*
X25101550Y2315971D01*
X25133300Y2315971D02*
G01*
X25165304Y2265934D01*
X25195275Y2361437D02*
G01*
X25195275Y2265934D01*
X25293320Y2338831D02*
G01*
X25288748Y2347976D01*
X25279858Y2356865D01*
X25270713Y2361437D01*
X25252425Y2361437D01*
X25243281Y2356865D01*
X25234391Y2347976D01*
X25229820Y2338831D01*
X25225248Y2325115D01*
X25225248Y2302510D01*
X25229820Y2288794D01*
X25234391Y2279650D01*
X25243281Y2270505D01*
X25252425Y2265934D01*
X25270713Y2265934D01*
X25279858Y2270505D01*
X25288748Y2279650D01*
X25293320Y2288794D01*
X25293320Y2302510D01*
X25270713Y2302510D02*
G01*
X25293320Y2302510D01*
X25323291Y2361437D02*
G01*
X25323291Y2265934D01*
X25387045Y2361437D02*
G01*
X25387045Y2265934D01*
X25323291Y2315971D02*
G01*
X25387045Y2315971D01*
X25448768Y2361437D02*
G01*
X25448768Y2265934D01*
X25417018Y2361437D02*
G01*
X25480518Y2361437D01*
X23196550Y2361437D02*
G01*
X23196550Y2265934D01*
X23196550Y2361437D02*
G01*
X23228300Y2361437D01*
X23242016Y2356865D01*
X23251159Y2347976D01*
X23255731Y2338831D01*
X23260304Y2325115D01*
X23260304Y2302510D01*
X23255731Y2288794D01*
X23251159Y2279650D01*
X23242016Y2270505D01*
X23228300Y2265934D01*
X23196550Y2265934D01*
X23317454Y2361437D02*
G01*
X23308309Y2356865D01*
X23299166Y2347976D01*
X23294848Y2338831D01*
X23290275Y2325115D01*
X23290275Y2302510D01*
X23294848Y2288794D01*
X23299166Y2279650D01*
X23308309Y2270505D01*
X23317454Y2265934D01*
X23335741Y2265934D01*
X23344631Y2270505D01*
X23353775Y2279650D01*
X23358348Y2288794D01*
X23362920Y2302510D01*
X23362920Y2325115D01*
X23358348Y2338831D01*
X23353775Y2347976D01*
X23344631Y2356865D01*
X23335741Y2361437D01*
X23317454Y2361437D01*
X23392891Y2361437D02*
G01*
X23415752Y2265934D01*
X23438358Y2361437D02*
G01*
X23415752Y2265934D01*
X23438358Y2361437D02*
G01*
X23461218Y2265934D01*
X23483824Y2361437D02*
G01*
X23461218Y2265934D01*
X23513795Y2361437D02*
G01*
X23513795Y2265934D01*
X23513795Y2361437D02*
G01*
X23577550Y2265934D01*
X23577550Y2361437D02*
G01*
X23577550Y2265934D01*
X14389100Y4266437D02*
G01*
X14389100Y4170934D01*
X14389100Y4266437D02*
G01*
X14452854Y4170934D01*
X14452854Y4266437D02*
G01*
X14452854Y4170934D01*
X14564613Y4284726D02*
G01*
X14482825Y4139184D01*
X14649195Y4266437D02*
G01*
X14603729Y4266437D01*
X14599158Y4225544D01*
X14603729Y4230115D01*
X14617191Y4234687D01*
X14630908Y4234687D01*
X14644624Y4230115D01*
X14653768Y4220971D01*
X14658086Y4207510D01*
X14658086Y4198365D01*
X14653768Y4184650D01*
X14644624Y4175505D01*
X14630908Y4170934D01*
X14617191Y4170934D01*
X14603729Y4175505D01*
X14599158Y4180078D01*
X14594586Y4189221D01*
X14688311Y4248404D02*
G01*
X14697202Y4252976D01*
X14710918Y4266437D01*
X14710918Y4170934D01*
X12484100Y4266437D02*
G01*
X12520422Y4170934D01*
X12556743Y4266437D02*
G01*
X12520422Y4170934D01*
X12668758Y4284726D02*
G01*
X12586715Y4139184D01*
X12753086Y4266437D02*
G01*
X12707620Y4266437D01*
X12703302Y4225544D01*
X12707620Y4230115D01*
X12721336Y4234687D01*
X12735052Y4234687D01*
X12748768Y4230115D01*
X12757658Y4220971D01*
X12762229Y4207510D01*
X12762229Y4198365D01*
X12757658Y4184650D01*
X12748768Y4175505D01*
X12735052Y4170934D01*
X12721336Y4170934D01*
X12707620Y4175505D01*
X12703302Y4180078D01*
X12698729Y4189221D01*
X12796774Y4243831D02*
G01*
X12796774Y4248404D01*
X12801345Y4257294D01*
X12805918Y4261865D01*
X12815061Y4266437D01*
X12833095Y4266437D01*
X12842240Y4261865D01*
X12846811Y4257294D01*
X12851384Y4248404D01*
X12851384Y4239260D01*
X12846811Y4230115D01*
X12837668Y4216400D01*
X12792202Y4170934D01*
X12855956Y4170934D01*
X18271743Y4252976D02*
G01*
X18199100Y4212081D01*
X18271743Y4170934D01*
X16294100Y4266437D02*
G01*
X16294100Y4170934D01*
X16294100Y4266437D02*
G01*
X16330422Y4170934D01*
X16366743Y4266437D02*
G01*
X16330422Y4170934D01*
X16366743Y4266437D02*
G01*
X16366743Y4170934D01*
X16478758Y4284726D02*
G01*
X16396716Y4139184D01*
X16513302Y4243831D02*
G01*
X16513302Y4248404D01*
X16517620Y4257294D01*
X16522191Y4261865D01*
X16531336Y4266437D01*
X16549624Y4266437D01*
X16558768Y4261865D01*
X16563086Y4257294D01*
X16567658Y4248404D01*
X16567658Y4239260D01*
X16563086Y4230115D01*
X16554195Y4216400D01*
X16508729Y4170934D01*
X16572229Y4170934D01*
X16656811Y4266437D02*
G01*
X16611345Y4266437D01*
X16606774Y4225544D01*
X16611345Y4230115D01*
X16625061Y4234687D01*
X16638524Y4234687D01*
X16652240Y4230115D01*
X16661384Y4220971D01*
X16665956Y4207510D01*
X16665956Y4198365D01*
X16661384Y4184650D01*
X16652240Y4175505D01*
X16638524Y4170934D01*
X16625061Y4170934D01*
X16611345Y4175505D01*
X16606774Y4180078D01*
X16602202Y4189221D01*
X22009097Y4243831D02*
G01*
X22009097Y4248404D01*
X22013669Y4257294D01*
X22018241Y4261865D01*
X22027385Y4266437D01*
X22045419Y4266437D01*
X22054563Y4261865D01*
X22059135Y4257294D01*
X22063707Y4248404D01*
X22063707Y4239260D01*
X22059135Y4230115D01*
X22054563Y4225544D01*
X22036275Y4216400D01*
X22036275Y4202937D01*
X22036275Y4180078D02*
G01*
X22031703Y4175505D01*
X22036275Y4170934D01*
X22040847Y4175505D01*
X22036275Y4180078D01*
X20104097Y4252976D02*
G01*
X20176741Y4212081D01*
X20104097Y4170934D01*
X23976327Y4252976D02*
G01*
X23967183Y4261865D01*
X23953467Y4266437D01*
X23935433Y4266437D01*
X23921717Y4261865D01*
X23912573Y4252976D01*
X23912573Y4243831D01*
X23917145Y4234687D01*
X23921717Y4230115D01*
X23930861Y4225544D01*
X23958039Y4216400D01*
X23967183Y4212081D01*
X23971755Y4207510D01*
X23976327Y4198365D01*
X23976327Y4184650D01*
X23967183Y4175505D01*
X23953467Y4170934D01*
X23935433Y4170934D01*
X23921717Y4175505D01*
X23912573Y4184650D01*
X24006299Y4266437D02*
G01*
X24006299Y4170934D01*
X24069799Y4266437D02*
G01*
X24069799Y4170934D01*
X24006299Y4220971D02*
G01*
X24069799Y4220971D01*
X24099771Y4266437D02*
G01*
X24099771Y4170934D01*
X24129997Y4266437D02*
G01*
X24129997Y4170934D01*
X24129997Y4266437D02*
G01*
X24188925Y4266437D01*
X24129997Y4220971D02*
G01*
X24166319Y4220971D01*
X24250901Y4266437D02*
G01*
X24250901Y4170934D01*
X24218897Y4266437D02*
G01*
X24282651Y4266437D01*
X13385800Y6171437D02*
G01*
X13385800Y6075934D01*
X13449554Y6171437D02*
G01*
X13449554Y6075934D01*
X13385800Y6125971D02*
G01*
X13449554Y6125971D01*
X13561313Y6189726D02*
G01*
X13479525Y6044184D01*
X13595858Y6148831D02*
G01*
X13595858Y6153404D01*
X13600429Y6162294D01*
X13605002Y6166865D01*
X13613891Y6171437D01*
X13632179Y6171437D01*
X13641324Y6166865D01*
X13645895Y6162294D01*
X13650468Y6153404D01*
X13650468Y6144260D01*
X13645895Y6135115D01*
X13636752Y6121400D01*
X13591286Y6075934D01*
X13654786Y6075934D01*
X13685011Y6153404D02*
G01*
X13693902Y6157976D01*
X13707618Y6171437D01*
X13707618Y6075934D01*
X11548872Y6148831D02*
G01*
X11544554Y6157976D01*
X11535409Y6166865D01*
X11526265Y6171437D01*
X11507977Y6171437D01*
X11499088Y6166865D01*
X11489943Y6157976D01*
X11485372Y6148831D01*
X11480800Y6135115D01*
X11480800Y6112510D01*
X11485372Y6098794D01*
X11489943Y6089650D01*
X11499088Y6080505D01*
X11507977Y6075934D01*
X11526265Y6075934D01*
X11535409Y6080505D01*
X11544554Y6089650D01*
X11548872Y6098794D01*
X11548872Y6112510D01*
X11526265Y6112510D02*
G01*
X11548872Y6112510D01*
X11660886Y6189726D02*
G01*
X11579097Y6044184D01*
X11690858Y6153404D02*
G01*
X11700002Y6157976D01*
X11713463Y6171437D01*
X11713463Y6075934D01*
X11743436Y6153404D02*
G01*
X11752579Y6157976D01*
X11766295Y6171437D01*
X11766295Y6075934D01*
X17195800Y6171437D02*
G01*
X17195800Y6075934D01*
X17259554Y6171437D02*
G01*
X17195800Y6107937D01*
X17218406Y6130544D02*
G01*
X17259554Y6075934D01*
X17371313Y6189726D02*
G01*
X17289525Y6044184D01*
X17405858Y6148831D02*
G01*
X17405858Y6153404D01*
X17410429Y6162294D01*
X17415002Y6166865D01*
X17423891Y6171437D01*
X17442179Y6171437D01*
X17451324Y6166865D01*
X17455895Y6162294D01*
X17460468Y6153404D01*
X17460468Y6144260D01*
X17455895Y6135115D01*
X17446752Y6121400D01*
X17401286Y6075934D01*
X17464786Y6075934D01*
X17503902Y6171437D02*
G01*
X17553940Y6171437D01*
X17526761Y6135115D01*
X17540224Y6135115D01*
X17549368Y6130544D01*
X17553940Y6125971D01*
X17558511Y6112510D01*
X17558511Y6103365D01*
X17553940Y6089650D01*
X17544795Y6080505D01*
X17531334Y6075934D01*
X17517618Y6075934D01*
X17503902Y6080505D01*
X17499329Y6085078D01*
X17495011Y6094221D01*
X15336266Y6171437D02*
G01*
X15336266Y6098794D01*
X15331693Y6085078D01*
X15327122Y6080505D01*
X15317977Y6075934D01*
X15309088Y6075934D01*
X15299943Y6080505D01*
X15295372Y6085078D01*
X15290800Y6098794D01*
X15290800Y6107937D01*
X15448025Y6189726D02*
G01*
X15366238Y6044184D01*
X15482570Y6148831D02*
G01*
X15482570Y6153404D01*
X15487141Y6162294D01*
X15491713Y6166865D01*
X15500858Y6171437D01*
X15518891Y6171437D01*
X15528036Y6166865D01*
X15532608Y6162294D01*
X15537179Y6153404D01*
X15537179Y6144260D01*
X15532608Y6135115D01*
X15523463Y6121400D01*
X15477997Y6075934D01*
X15541752Y6075934D01*
X15576295Y6148831D02*
G01*
X15576295Y6153404D01*
X15580868Y6162294D01*
X15585440Y6166865D01*
X15594329Y6171437D01*
X15612618Y6171437D01*
X15621761Y6166865D01*
X15626334Y6162294D01*
X15630906Y6153404D01*
X15630906Y6144260D01*
X15626334Y6135115D01*
X15617190Y6121400D01*
X15571724Y6075934D01*
X15635224Y6075934D01*
X21010372Y6130544D02*
G01*
X21005800Y6125971D01*
X21010372Y6121400D01*
X21014943Y6125971D01*
X21010372Y6130544D01*
X21010372Y6098794D02*
G01*
X21005800Y6094221D01*
X21010372Y6089650D01*
X21014943Y6094221D01*
X21010372Y6098794D01*
X19100800Y6171437D02*
G01*
X19100800Y6075934D01*
X19100800Y6075934D02*
G01*
X19155409Y6075934D01*
X19267170Y6189726D02*
G01*
X19185381Y6044184D01*
X19301713Y6148831D02*
G01*
X19301713Y6153404D01*
X19306286Y6162294D01*
X19310858Y6166865D01*
X19320002Y6171437D01*
X19338036Y6171437D01*
X19347179Y6166865D01*
X19351752Y6162294D01*
X19356324Y6153404D01*
X19356324Y6144260D01*
X19351752Y6135115D01*
X19342608Y6121400D01*
X19297141Y6075934D01*
X19360895Y6075934D01*
X19436334Y6171437D02*
G01*
X19390868Y6107937D01*
X19458940Y6107937D01*
X19436334Y6171437D02*
G01*
X19436334Y6075934D01*
X22937977Y6189726D02*
G01*
X22937977Y6044184D01*
X22942550Y6189726D02*
G01*
X22942550Y6044184D01*
X22910800Y6189726D02*
G01*
X22942550Y6189726D01*
X22910800Y6044184D02*
G01*
X22942550Y6044184D01*
X12890500Y8076437D02*
G01*
X12926822Y8030971D01*
X12926822Y7980934D01*
X12963143Y8076437D02*
G01*
X12926822Y8030971D01*
X13075158Y8094726D02*
G01*
X12993115Y7949184D01*
X13150595Y8076437D02*
G01*
X13105129Y8012937D01*
X13173202Y8012937D01*
X13150595Y8076437D02*
G01*
X13150595Y7980934D01*
X13203174Y8058404D02*
G01*
X13212318Y8062976D01*
X13226034Y8076437D01*
X13226034Y7980934D01*
X11017250Y8076437D02*
G01*
X11017250Y7980934D01*
X10985500Y8076437D02*
G01*
X11049254Y8076437D01*
X11161013Y8094726D02*
G01*
X11079225Y7949184D01*
X11200129Y8076437D02*
G01*
X11250168Y8076437D01*
X11222736Y8040115D01*
X11236452Y8040115D01*
X11245595Y8035544D01*
X11250168Y8030971D01*
X11254486Y8017510D01*
X11254486Y8008365D01*
X11250168Y7994650D01*
X11241024Y7985505D01*
X11227308Y7980934D01*
X11213591Y7980934D01*
X11200129Y7985505D01*
X11195558Y7990078D01*
X11190986Y7999221D01*
X11284711Y8058404D02*
G01*
X11293602Y8062976D01*
X11307318Y8076437D01*
X11307318Y7980934D01*
X16700500Y8076437D02*
G01*
X16700500Y7980934D01*
X16812259Y8094726D02*
G01*
X16730472Y7949184D01*
X16887698Y8076437D02*
G01*
X16842231Y8012937D01*
X16910558Y8012937D01*
X16887698Y8076437D02*
G01*
X16887698Y7980934D01*
X16949674Y8076437D02*
G01*
X16999711Y8076437D01*
X16972279Y8040115D01*
X16985995Y8040115D01*
X16995140Y8035544D01*
X16999711Y8030971D01*
X17004029Y8017510D01*
X17004029Y8008365D01*
X16999711Y7994650D01*
X16990568Y7985505D01*
X16976852Y7980934D01*
X16963136Y7980934D01*
X16949674Y7985505D01*
X16945102Y7990078D01*
X16940529Y7999221D01*
X14795500Y8076437D02*
G01*
X14795500Y8008365D01*
X14800072Y7994650D01*
X14809216Y7985505D01*
X14822677Y7980934D01*
X14831822Y7980934D01*
X14845538Y7985505D01*
X14854681Y7994650D01*
X14859254Y8008365D01*
X14859254Y8076437D01*
X14971013Y8094726D02*
G01*
X14889225Y7949184D01*
X15046452Y8076437D02*
G01*
X15000986Y8012937D01*
X15069058Y8012937D01*
X15046452Y8076437D02*
G01*
X15046452Y7980934D01*
X15103602Y8053831D02*
G01*
X15103602Y8058404D01*
X15108174Y8067294D01*
X15112745Y8071865D01*
X15121890Y8076437D01*
X15139924Y8076437D01*
X15149068Y8071865D01*
X15153640Y8067294D01*
X15158211Y8058404D01*
X15158211Y8049260D01*
X15153640Y8040115D01*
X15144495Y8026400D01*
X15099029Y7980934D01*
X15162784Y7980934D01*
X20510500Y8076437D02*
G01*
X20510500Y7980934D01*
X20510500Y8076437D02*
G01*
X20551393Y8076437D01*
X20565109Y8071865D01*
X20569681Y8067294D01*
X20574254Y8058404D01*
X20574254Y8044687D01*
X20569681Y8035544D01*
X20565109Y8030971D01*
X20551393Y8026400D01*
X20510500Y8026400D01*
X20686013Y8094726D02*
G01*
X20604225Y7949184D01*
X20761452Y8076437D02*
G01*
X20715986Y8012937D01*
X20784058Y8012937D01*
X20761452Y8076437D02*
G01*
X20761452Y7980934D01*
X20868640Y8076437D02*
G01*
X20823174Y8076437D01*
X20818602Y8035544D01*
X20823174Y8040115D01*
X20836890Y8044687D01*
X20850606Y8044687D01*
X20864068Y8040115D01*
X20873211Y8030971D01*
X20877784Y8017510D01*
X20877784Y8008365D01*
X20873211Y7994650D01*
X20864068Y7985505D01*
X20850606Y7980934D01*
X20836890Y7980934D01*
X20823174Y7985505D01*
X20818602Y7990078D01*
X20814029Y7999221D01*
X18632677Y8076437D02*
G01*
X18623788Y8071865D01*
X18614643Y8062976D01*
X18610072Y8053831D01*
X18605500Y8040115D01*
X18605500Y8017510D01*
X18610072Y8003794D01*
X18614643Y7994650D01*
X18623788Y7985505D01*
X18632677Y7980934D01*
X18650966Y7980934D01*
X18660109Y7985505D01*
X18669254Y7994650D01*
X18673572Y8003794D01*
X18678143Y8017510D01*
X18678143Y8040115D01*
X18673572Y8053831D01*
X18669254Y8062976D01*
X18660109Y8071865D01*
X18650966Y8076437D01*
X18632677Y8076437D01*
X18790158Y8094726D02*
G01*
X18708116Y7949184D01*
X18865595Y8076437D02*
G01*
X18820129Y8012937D01*
X18888202Y8012937D01*
X18865595Y8076437D02*
G01*
X18865595Y7980934D01*
X18963640Y8076437D02*
G01*
X18918174Y8012937D01*
X18986500Y8012937D01*
X18963640Y8076437D02*
G01*
X18963640Y7980934D01*
X24320500Y8076437D02*
G01*
X24320500Y7980934D01*
X24320500Y8076437D02*
G01*
X24379681Y8076437D01*
X24320500Y8030971D02*
G01*
X24356822Y8030971D01*
X24320500Y7980934D02*
G01*
X24379681Y7980934D01*
X24409654Y8076437D02*
G01*
X24409654Y7980934D01*
X24409654Y8076437D02*
G01*
X24473154Y7980934D01*
X24473154Y8076437D02*
G01*
X24473154Y7980934D01*
X24535129Y8076437D02*
G01*
X24535129Y7980934D01*
X24503125Y8076437D02*
G01*
X24566879Y8076437D01*
X24596852Y8076437D02*
G01*
X24596852Y7980934D01*
X24596852Y8076437D02*
G01*
X24656034Y8076437D01*
X24596852Y8030971D02*
G01*
X24633174Y8030971D01*
X24596852Y7980934D02*
G01*
X24656034Y7980934D01*
X24686006Y8076437D02*
G01*
X24686006Y7980934D01*
X24686006Y8076437D02*
G01*
X24726900Y8076437D01*
X24740616Y8071865D01*
X24744934Y8067294D01*
X24749506Y8058404D01*
X24749506Y8049260D01*
X24744934Y8040115D01*
X24740616Y8035544D01*
X24726900Y8030971D01*
X24686006Y8030971D01*
X24717756Y8030971D02*
G01*
X24749506Y7980934D01*
X22415500Y8094726D02*
G01*
X22415500Y7949184D01*
X22420072Y8094726D02*
G01*
X22420072Y7949184D01*
X22415500Y8094726D02*
G01*
X22447250Y8094726D01*
X22415500Y7949184D02*
G01*
X22447250Y7949184D01*
D11*
X647700Y8535415D02*
G01*
X647700Y8426450D01*
X720344Y8535415D02*
G01*
X647700Y8462771D01*
X673607Y8488679D02*
G01*
X720344Y8426450D01*
X754634Y8535415D02*
G01*
X754634Y8426450D01*
X754634Y8535415D02*
G01*
X822197Y8535415D01*
X754634Y8483600D02*
G01*
X796289Y8483600D01*
X754634Y8426450D02*
G01*
X822197Y8426450D01*
X856487Y8535415D02*
G01*
X898144Y8483600D01*
X898144Y8426450D01*
X939800Y8535415D02*
G01*
X898144Y8483600D01*
X974089Y8535415D02*
G01*
X974089Y8426450D01*
X974089Y8535415D02*
G01*
X1020826Y8535415D01*
X1036320Y8530336D01*
X1041400Y8525002D01*
X1046734Y8514587D01*
X1046734Y8504174D01*
X1041400Y8493760D01*
X1036320Y8488679D01*
X1020826Y8483600D01*
X974089Y8483600D02*
G01*
X1020826Y8483600D01*
X1036320Y8478265D01*
X1041400Y8473186D01*
X1046734Y8462771D01*
X1046734Y8447024D01*
X1041400Y8436610D01*
X1036320Y8431529D01*
X1020826Y8426450D01*
X974089Y8426450D01*
X1112265Y8535415D02*
G01*
X1101852Y8530336D01*
X1091437Y8519921D01*
X1086104Y8509508D01*
X1081023Y8493760D01*
X1081023Y8467852D01*
X1086104Y8452358D01*
X1091437Y8441944D01*
X1101852Y8431529D01*
X1112265Y8426450D01*
X1132839Y8426450D01*
X1143254Y8431529D01*
X1153668Y8441944D01*
X1159002Y8452358D01*
X1164081Y8467852D01*
X1164081Y8493760D01*
X1159002Y8509508D01*
X1153668Y8519921D01*
X1143254Y8530336D01*
X1132839Y8535415D01*
X1112265Y8535415D01*
X1240028Y8535415D02*
G01*
X1198371Y8426450D01*
X1240028Y8535415D02*
G01*
X1281429Y8426450D01*
X1214120Y8462771D02*
G01*
X1265936Y8462771D01*
X1315720Y8535415D02*
G01*
X1315720Y8426450D01*
X1315720Y8535415D02*
G01*
X1362710Y8535415D01*
X1378204Y8530336D01*
X1383284Y8525002D01*
X1388618Y8514587D01*
X1388618Y8504174D01*
X1383284Y8493760D01*
X1378204Y8488679D01*
X1362710Y8483600D01*
X1315720Y8483600D01*
X1352295Y8483600D02*
G01*
X1388618Y8426450D01*
X1422907Y8535415D02*
G01*
X1422907Y8426450D01*
X1422907Y8535415D02*
G01*
X1459229Y8535415D01*
X1474723Y8530336D01*
X1485137Y8519921D01*
X1490471Y8509508D01*
X1495552Y8493760D01*
X1495552Y8467852D01*
X1490471Y8452358D01*
X1485137Y8441944D01*
X1474723Y8431529D01*
X1459229Y8426450D01*
X1422907Y8426450D01*
X1609852Y8535415D02*
G01*
X1609852Y8426450D01*
X1609852Y8535415D02*
G01*
X1656587Y8535415D01*
X1672336Y8530336D01*
X1677415Y8525002D01*
X1682750Y8514587D01*
X1682750Y8499094D01*
X1677415Y8488679D01*
X1672336Y8483600D01*
X1656587Y8478265D01*
X1609852Y8478265D01*
X1717039Y8535415D02*
G01*
X1717039Y8426450D01*
X1717039Y8426450D02*
G01*
X1779270Y8426450D01*
X1855215Y8535415D02*
G01*
X1813560Y8426450D01*
X1855215Y8535415D02*
G01*
X1896618Y8426450D01*
X1829054Y8462771D02*
G01*
X1881123Y8462771D01*
X1967229Y8535415D02*
G01*
X1967229Y8426450D01*
X1930908Y8535415D02*
G01*
X2003806Y8535415D01*
X2038095Y8535415D02*
G01*
X2038095Y8426450D01*
X2038095Y8535415D02*
G01*
X2105659Y8535415D01*
X2038095Y8483600D02*
G01*
X2079497Y8483600D01*
X2038095Y8426450D02*
G01*
X2105659Y8426450D01*
X2219959Y8473186D02*
G01*
X2313431Y8473186D01*
X2464054Y8535415D02*
G01*
X2464054Y8426450D01*
X2427731Y8535415D02*
G01*
X2500375Y8535415D01*
X2565908Y8535415D02*
G01*
X2555493Y8530336D01*
X2545079Y8519921D01*
X2540000Y8509508D01*
X2534665Y8493760D01*
X2534665Y8467852D01*
X2540000Y8452358D01*
X2545079Y8441944D01*
X2555493Y8431529D01*
X2565908Y8426450D01*
X2586736Y8426450D01*
X2597150Y8431529D01*
X2607309Y8441944D01*
X2612643Y8452358D01*
X2617724Y8467852D01*
X2617724Y8493760D01*
X2612643Y8509508D01*
X2607309Y8519921D01*
X2597150Y8530336D01*
X2586736Y8535415D01*
X2565908Y8535415D01*
X2652013Y8535415D02*
G01*
X2652013Y8426450D01*
X2652013Y8535415D02*
G01*
X2698750Y8535415D01*
X2714497Y8530336D01*
X2719577Y8525002D01*
X2724911Y8514587D01*
X2724911Y8499094D01*
X2719577Y8488679D01*
X2714497Y8483600D01*
X2698750Y8478265D01*
X2652013Y8478265D01*
X647700Y8332215D02*
G01*
X647700Y8223250D01*
X647700Y8332215D02*
G01*
X694436Y8332215D01*
X709929Y8327136D01*
X715263Y8321802D01*
X720344Y8311387D01*
X720344Y8295894D01*
X715263Y8285479D01*
X709929Y8280400D01*
X694436Y8275065D01*
X647700Y8275065D01*
X796289Y8332215D02*
G01*
X754634Y8223250D01*
X796289Y8332215D02*
G01*
X837945Y8223250D01*
X770381Y8259571D02*
G01*
X822197Y8259571D01*
X872236Y8332215D02*
G01*
X872236Y8223250D01*
X872236Y8332215D02*
G01*
X918971Y8332215D01*
X934465Y8327136D01*
X939800Y8321802D01*
X944879Y8311387D01*
X944879Y8300973D01*
X939800Y8290560D01*
X934465Y8285479D01*
X918971Y8280400D01*
X872236Y8280400D01*
X908557Y8280400D02*
G01*
X944879Y8223250D01*
X1015492Y8332215D02*
G01*
X1015492Y8223250D01*
X979170Y8332215D02*
G01*
X1051813Y8332215D01*
X1166113Y8332215D02*
G01*
X1166113Y8223250D01*
X1166113Y8332215D02*
G01*
X1239012Y8223250D01*
X1239012Y8332215D02*
G01*
X1239012Y8223250D01*
X1273302Y8332215D02*
G01*
X1273302Y8254237D01*
X1278381Y8238744D01*
X1288795Y8228329D01*
X1304289Y8223250D01*
X1314704Y8223250D01*
X1330452Y8228329D01*
X1340865Y8238744D01*
X1345945Y8254237D01*
X1345945Y8332215D01*
X1380236Y8332215D02*
G01*
X1380236Y8223250D01*
X1380236Y8332215D02*
G01*
X1421892Y8223250D01*
X1463294Y8332215D02*
G01*
X1421892Y8223250D01*
X1463294Y8332215D02*
G01*
X1463294Y8223250D01*
X1497584Y8332215D02*
G01*
X1497584Y8223250D01*
X1497584Y8332215D02*
G01*
X1544320Y8332215D01*
X1560068Y8327136D01*
X1565147Y8321802D01*
X1570481Y8311387D01*
X1570481Y8300973D01*
X1565147Y8290560D01*
X1560068Y8285479D01*
X1544320Y8280400D01*
X1497584Y8280400D02*
G01*
X1544320Y8280400D01*
X1560068Y8275065D01*
X1565147Y8269986D01*
X1570481Y8259571D01*
X1570481Y8243823D01*
X1565147Y8233410D01*
X1560068Y8228329D01*
X1544320Y8223250D01*
X1497584Y8223250D01*
X1604771Y8332215D02*
G01*
X1604771Y8223250D01*
X1604771Y8332215D02*
G01*
X1672336Y8332215D01*
X1604771Y8280400D02*
G01*
X1646173Y8280400D01*
X1604771Y8223250D02*
G01*
X1672336Y8223250D01*
X1706626Y8332215D02*
G01*
X1706626Y8223250D01*
X1706626Y8332215D02*
G01*
X1753362Y8332215D01*
X1768855Y8327136D01*
X1774189Y8321802D01*
X1779270Y8311387D01*
X1779270Y8300973D01*
X1774189Y8290560D01*
X1768855Y8285479D01*
X1753362Y8280400D01*
X1706626Y8280400D01*
X1742947Y8280400D02*
G01*
X1779270Y8223250D01*
X1903984Y8332215D02*
G01*
X1961134Y8332215D01*
X1929892Y8290560D01*
X1945640Y8290560D01*
X1955800Y8285479D01*
X1961134Y8280400D01*
X1966213Y8264652D01*
X1966213Y8254237D01*
X1961134Y8238744D01*
X1950720Y8228329D01*
X1935225Y8223250D01*
X1919478Y8223250D01*
X1903984Y8228329D01*
X1898650Y8233410D01*
X1893570Y8243823D01*
X2010918Y8332215D02*
G01*
X2068068Y8332215D01*
X2037079Y8290560D01*
X2052574Y8290560D01*
X2062988Y8285479D01*
X2068068Y8280400D01*
X2073402Y8264652D01*
X2073402Y8254237D01*
X2068068Y8238744D01*
X2057654Y8228329D01*
X2042159Y8223250D01*
X2026665Y8223250D01*
X2010918Y8228329D01*
X2005838Y8233410D01*
X2000504Y8243823D01*
X2112772Y8306308D02*
G01*
X2112772Y8311387D01*
X2118106Y8321802D01*
X2123186Y8327136D01*
X2133600Y8332215D01*
X2154427Y8332215D01*
X2164841Y8327136D01*
X2169922Y8321802D01*
X2175256Y8311387D01*
X2175256Y8300973D01*
X2169922Y8290560D01*
X2159508Y8275065D01*
X2107691Y8223250D01*
X2180336Y8223250D01*
X2245868Y8332215D02*
G01*
X2230120Y8327136D01*
X2219959Y8311387D01*
X2214625Y8285479D01*
X2214625Y8269986D01*
X2219959Y8243823D01*
X2230120Y8228329D01*
X2245868Y8223250D01*
X2256281Y8223250D01*
X2271775Y8228329D01*
X2282190Y8243823D01*
X2287270Y8269986D01*
X2287270Y8285479D01*
X2282190Y8311387D01*
X2271775Y8327136D01*
X2256281Y8332215D01*
X2245868Y8332215D01*
X2321559Y8269986D02*
G01*
X2415286Y8269986D01*
X2480563Y8332215D02*
G01*
X2465070Y8327136D01*
X2454656Y8311387D01*
X2449575Y8285479D01*
X2449575Y8269986D01*
X2454656Y8243823D01*
X2465070Y8228329D01*
X2480563Y8223250D01*
X2490977Y8223250D01*
X2506725Y8228329D01*
X2517140Y8243823D01*
X2522220Y8269986D01*
X2522220Y8285479D01*
X2517140Y8311387D01*
X2506725Y8327136D01*
X2490977Y8332215D01*
X2480563Y8332215D01*
X2561590Y8306308D02*
G01*
X2561590Y8311387D01*
X2566924Y8321802D01*
X2572004Y8327136D01*
X2582418Y8332215D01*
X2603245Y8332215D01*
X2613659Y8327136D01*
X2618740Y8321802D01*
X2624074Y8311387D01*
X2624074Y8300973D01*
X2618740Y8290560D01*
X2608579Y8275065D01*
X2556509Y8223250D01*
X2629154Y8223250D01*
X2694686Y8332215D02*
G01*
X2679191Y8327136D01*
X2668777Y8311387D01*
X2663443Y8285479D01*
X2663443Y8269986D01*
X2668777Y8243823D01*
X2679191Y8228329D01*
X2694686Y8223250D01*
X2705100Y8223250D01*
X2720593Y8228329D01*
X2731008Y8243823D01*
X2736341Y8269986D01*
X2736341Y8285479D01*
X2731008Y8311387D01*
X2720593Y8327136D01*
X2705100Y8332215D01*
X2694686Y8332215D01*
X2770631Y8311387D02*
G01*
X2781045Y8316721D01*
X2796540Y8332215D01*
X2796540Y8223250D01*
X2910840Y8332215D02*
G01*
X2952495Y8223250D01*
X2993897Y8332215D02*
G01*
X2952495Y8223250D01*
X3059429Y8332215D02*
G01*
X3043936Y8327136D01*
X3033522Y8311387D01*
X3028188Y8285479D01*
X3028188Y8269986D01*
X3033522Y8243823D01*
X3043936Y8228329D01*
X3059429Y8223250D01*
X3069843Y8223250D01*
X3085338Y8228329D01*
X3095752Y8243823D01*
X3101086Y8269986D01*
X3101086Y8285479D01*
X3095752Y8311387D01*
X3085338Y8327136D01*
X3069843Y8332215D01*
X3059429Y8332215D01*
X3140456Y8249158D02*
G01*
X3135375Y8243823D01*
X3140456Y8238744D01*
X3145790Y8243823D01*
X3140456Y8249158D01*
X3185159Y8306308D02*
G01*
X3185159Y8311387D01*
X3190240Y8321802D01*
X3195574Y8327136D01*
X3205988Y8332215D01*
X3226815Y8332215D01*
X3237229Y8327136D01*
X3242309Y8321802D01*
X3247390Y8311387D01*
X3247390Y8300973D01*
X3242309Y8290560D01*
X3231895Y8275065D01*
X3180079Y8223250D01*
X3252724Y8223250D01*
D12*
X27076445Y4318000D02*
G01*
X27076400Y8128000D01*
X27076400Y8128000D02*
G01*
X24269700Y8128000D01*
X4813300Y4318000D02*
G01*
X6718300Y4318000D01*
X6718300Y2413000D01*
X4813300Y2413000D01*
X4813300Y4318000D01*
X5016500Y4114800D02*
G01*
X6515100Y4114800D01*
X6515100Y2616200D01*
X5016500Y2616200D01*
X5016500Y4114800D01*
X6921500Y4114800D02*
G01*
X8420100Y4114800D01*
X8420100Y2616200D01*
X6921500Y2616200D01*
X6921500Y4114800D01*
X6718300Y4318000D02*
G01*
X8623300Y4318000D01*
X8623300Y2413000D01*
X6718300Y2413000D01*
X6718300Y4318000D01*
X1411198Y2209800D02*
G01*
X2909798Y2209800D01*
X2909798Y711200D01*
X1411198Y711200D01*
X1411198Y2209800D01*
X508000Y2413000D02*
G01*
X3812997Y2413000D01*
X3812997Y508000D01*
X508000Y508000D01*
X508000Y2413000D01*
X508000Y4318000D02*
G01*
X4812995Y4318000D01*
X4812995Y2413000D01*
X508000Y2413000D01*
X508000Y4318000D01*
X711200Y4114800D02*
G01*
X2209800Y4114800D01*
X2209800Y2616200D01*
X711200Y2616200D01*
X711200Y4114800D01*
X3111500Y4114800D02*
G01*
X4610100Y4114800D01*
X4610100Y2616200D01*
X3111500Y2616200D01*
X3111500Y4114800D01*
X508000Y6223000D02*
G01*
X3812997Y6223000D01*
X3812997Y4318000D01*
X508000Y4318000D01*
X508000Y6223000D01*
X1411198Y6019800D02*
G01*
X2909798Y6019800D01*
X2909798Y4521200D01*
X1411198Y4521200D01*
X1411198Y6019800D01*
X5715000Y6223000D02*
G01*
X7620000Y6223000D01*
X7620000Y4318000D01*
X5715000Y4318000D01*
X5715000Y6223000D01*
X5918200Y6019800D02*
G01*
X7416800Y6019800D01*
X7416800Y4521200D01*
X5918200Y4521200D01*
X5918200Y6019800D01*
X4013200Y6019800D02*
G01*
X5511800Y6019800D01*
X5511800Y4521200D01*
X4013200Y4521200D01*
X4013200Y6019800D01*
X3810000Y6223000D02*
G01*
X5715000Y6223000D01*
X5715000Y4318000D01*
X3810000Y4318000D01*
X3810000Y6223000D01*
X1161211Y7924800D02*
G01*
X2659811Y7924800D01*
X2659811Y6426200D01*
X1161211Y6426200D01*
X1161211Y7924800D01*
X508000Y8128000D02*
G01*
X3312998Y8128000D01*
X3312998Y6223000D01*
X508000Y6223000D01*
X508000Y8128000D01*
X3314700Y8128000D02*
G01*
X5219700Y8128000D01*
X5219700Y6223000D01*
X3314700Y6223000D01*
X3314700Y8128000D01*
X3517900Y7924800D02*
G01*
X5016500Y7924800D01*
X5016500Y6426200D01*
X3517900Y6426200D01*
X3517900Y7924800D01*
X5422900Y7924800D02*
G01*
X6921500Y7924800D01*
X6921500Y6426200D01*
X5422900Y6426200D01*
X5422900Y7924800D01*
X5219700Y8128000D02*
G01*
X7124700Y8128000D01*
X7124700Y6223000D01*
X5219700Y6223000D01*
X5219700Y8128000D01*
X9029700Y8128000D02*
G01*
X10934700Y8128000D01*
X10934700Y6223000D01*
X9029700Y6223000D01*
X9029700Y8128000D01*
X9232900Y7924800D02*
G01*
X10731500Y7924800D01*
X10731500Y6426200D01*
X9232900Y6426200D01*
X9232900Y7924800D01*
X7327900Y7924800D02*
G01*
X8826500Y7924800D01*
X8826500Y6426200D01*
X7327900Y6426200D01*
X7327900Y7924800D01*
X7124700Y8128000D02*
G01*
X9029700Y8128000D01*
X9029700Y6223000D01*
X7124700Y6223000D01*
X7124700Y8128000D01*
X9525000Y6223000D02*
G01*
X11430000Y6223000D01*
X11430000Y4318000D01*
X9525000Y4318000D01*
X9525000Y6223000D01*
X9728200Y6019800D02*
G01*
X11226800Y6019800D01*
X11226800Y4521200D01*
X9728200Y4521200D01*
X9728200Y6019800D01*
X7823200Y6019800D02*
G01*
X9321800Y6019800D01*
X9321800Y4521200D01*
X7823200Y4521200D01*
X7823200Y6019800D01*
X7620000Y6223000D02*
G01*
X9525000Y6223000D01*
X9525000Y4318000D01*
X7620000Y4318000D01*
X7620000Y6223000D01*
X10528300Y4318000D02*
G01*
X12433300Y4318000D01*
X12433300Y2413000D01*
X10528300Y2413000D01*
X10528300Y4318000D01*
X10731500Y4114800D02*
G01*
X12230100Y4114800D01*
X12230100Y2616200D01*
X10731500Y2616200D01*
X10731500Y4114800D01*
X8826500Y4114800D02*
G01*
X10325100Y4114800D01*
X10325100Y2616200D01*
X8826500Y2616200D01*
X8826500Y4114800D01*
X8623300Y4318000D02*
G01*
X10528300Y4318000D01*
X10528300Y2413000D01*
X8623300Y2413000D01*
X8623300Y4318000D01*
X3810000Y2413000D02*
G01*
X6614998Y2413000D01*
X6614998Y508000D01*
X3810000Y508000D01*
X3810000Y2413000D01*
X4463211Y2209800D02*
G01*
X5961811Y2209800D01*
X5961811Y711200D01*
X4463211Y711200D01*
X4463211Y2209800D01*
X7719898Y2209800D02*
G01*
X9218498Y2209800D01*
X9218498Y711200D01*
X7719898Y711200D01*
X7719898Y2209800D01*
X6616700Y2413000D02*
G01*
X10321696Y2413000D01*
X10321696Y508000D01*
X6616700Y508000D01*
X6616700Y2413000D01*
X10325100Y2413000D02*
G01*
X15530093Y2413000D01*
X15530093Y508000D01*
X10325100Y508000D01*
X10325100Y2413000D01*
X10978311Y2209800D02*
G01*
X12476911Y2209800D01*
X12476911Y711200D01*
X10978311Y711200D01*
X10978311Y2209800D01*
X13378611Y2209800D02*
G01*
X14877211Y2209800D01*
X14877211Y711200D01*
X13378611Y711200D01*
X13378611Y2209800D01*
X15525750Y2413000D02*
G01*
X17430750Y2413000D01*
X17430750Y508000D01*
X15525750Y508000D01*
X15525750Y2413000D01*
X15728950Y2209800D02*
G01*
X17227550Y2209800D01*
X17227550Y711200D01*
X15728950Y711200D01*
X15728950Y2209800D01*
X17633950Y2209800D02*
G01*
X19132550Y2209800D01*
X19132550Y711200D01*
X17633950Y711200D01*
X17633950Y2209800D01*
X17430750Y2413000D02*
G01*
X19335750Y2413000D01*
X19335750Y508000D01*
X17430750Y508000D01*
X17430750Y2413000D01*
X19335750Y2413000D02*
G01*
X21240750Y2413000D01*
X21240750Y508000D01*
X19335750Y508000D01*
X19335750Y2413000D01*
X19538950Y2209800D02*
G01*
X21037550Y2209800D01*
X21037550Y711200D01*
X19538950Y711200D01*
X19538950Y2209800D01*
X21443950Y2209800D02*
G01*
X22942550Y2209800D01*
X22942550Y711200D01*
X21443950Y711200D01*
X21443950Y2209800D01*
X21240750Y2413000D02*
G01*
X23145750Y2413000D01*
X23145750Y508000D01*
X21240750Y508000D01*
X21240750Y2413000D01*
X23145750Y2413000D02*
G01*
X25050750Y2413000D01*
X25050750Y508000D01*
X23145750Y508000D01*
X23145750Y2413000D01*
X23348950Y2209800D02*
G01*
X24847550Y2209800D01*
X24847550Y711200D01*
X23348950Y711200D01*
X23348950Y2209800D01*
X25253950Y2209800D02*
G01*
X26752550Y2209800D01*
X26752550Y711200D01*
X25253950Y711200D01*
X25253950Y2209800D01*
X25050750Y2413000D02*
G01*
X26955750Y2413000D01*
X26955750Y508000D01*
X25050750Y508000D01*
X25050750Y2413000D01*
X12433300Y4318000D02*
G01*
X14338300Y4318000D01*
X14338300Y2413000D01*
X12433300Y2413000D01*
X12433300Y4318000D01*
X12636500Y4114800D02*
G01*
X14135100Y4114800D01*
X14135100Y2616200D01*
X12636500Y2616200D01*
X12636500Y4114800D01*
X14541500Y4114800D02*
G01*
X16040100Y4114800D01*
X16040100Y2616200D01*
X14541500Y2616200D01*
X14541500Y4114800D01*
X14338300Y4318000D02*
G01*
X16243300Y4318000D01*
X16243300Y2413000D01*
X14338300Y2413000D01*
X14338300Y4318000D01*
X16243300Y4318000D02*
G01*
X18148300Y4318000D01*
X18148300Y2413000D01*
X16243300Y2413000D01*
X16243300Y4318000D01*
X16446500Y4114800D02*
G01*
X17945100Y4114800D01*
X17945100Y2616200D01*
X16446500Y2616200D01*
X16446500Y4114800D01*
X18351500Y4114800D02*
G01*
X19850100Y4114800D01*
X19850100Y2616200D01*
X18351500Y2616200D01*
X18351500Y4114800D01*
X18148300Y4318000D02*
G01*
X20053300Y4318000D01*
X20053300Y2413000D01*
X18148300Y2413000D01*
X18148300Y4318000D01*
X20053300Y4318000D02*
G01*
X21958300Y4318000D01*
X21958300Y2413000D01*
X20053300Y2413000D01*
X20053300Y4318000D01*
X20256500Y4114800D02*
G01*
X21755100Y4114800D01*
X21755100Y2616200D01*
X20256500Y2616200D01*
X20256500Y4114800D01*
X22161500Y4114800D02*
G01*
X23660100Y4114800D01*
X23660100Y2616200D01*
X22161500Y2616200D01*
X22161500Y4114800D01*
X21958300Y4318000D02*
G01*
X23863300Y4318000D01*
X23863300Y2413000D01*
X21958300Y2413000D01*
X21958300Y4318000D01*
X24765000Y4114800D02*
G01*
X26263600Y4114800D01*
X26263600Y2616200D01*
X24765000Y2616200D01*
X24765000Y4114800D01*
X23861801Y4318000D02*
G01*
X27166798Y4318000D01*
X27166798Y2413000D01*
X23861801Y2413000D01*
X23861801Y4318000D01*
X11430000Y6223000D02*
G01*
X13335000Y6223000D01*
X13335000Y4318000D01*
X11430000Y4318000D01*
X11430000Y6223000D01*
X11633200Y6019800D02*
G01*
X13131800Y6019800D01*
X13131800Y4521200D01*
X11633200Y4521200D01*
X11633200Y6019800D01*
X13538200Y6019800D02*
G01*
X15036800Y6019800D01*
X15036800Y4521200D01*
X13538200Y4521200D01*
X13538200Y6019800D01*
X13335000Y6223000D02*
G01*
X15240000Y6223000D01*
X15240000Y4318000D01*
X13335000Y4318000D01*
X13335000Y6223000D01*
X15240000Y6223000D02*
G01*
X17145000Y6223000D01*
X17145000Y4318000D01*
X15240000Y4318000D01*
X15240000Y6223000D01*
X15443200Y6019800D02*
G01*
X16941800Y6019800D01*
X16941800Y4521200D01*
X15443200Y4521200D01*
X15443200Y6019800D01*
X17348200Y6019800D02*
G01*
X18846800Y6019800D01*
X18846800Y4521200D01*
X17348200Y4521200D01*
X17348200Y6019800D01*
X17145000Y6223000D02*
G01*
X19050000Y6223000D01*
X19050000Y4318000D01*
X17145000Y4318000D01*
X17145000Y6223000D01*
X19050000Y6223000D02*
G01*
X20955000Y6223000D01*
X20955000Y4318000D01*
X19050000Y4318000D01*
X19050000Y6223000D01*
X19253200Y6019800D02*
G01*
X20751800Y6019800D01*
X20751800Y4521200D01*
X19253200Y4521200D01*
X19253200Y6019800D01*
X21158200Y6019800D02*
G01*
X22656800Y6019800D01*
X22656800Y4521200D01*
X21158200Y4521200D01*
X21158200Y6019800D01*
X20955000Y6223000D02*
G01*
X22860000Y6223000D01*
X22860000Y4318000D01*
X20955000Y4318000D01*
X20955000Y6223000D01*
X22860000Y6223000D02*
G01*
X24765000Y6223000D01*
X24765000Y4318000D01*
X22860000Y4318000D01*
X22860000Y6223000D01*
X23063200Y6019800D02*
G01*
X24561800Y6019800D01*
X24561800Y4521200D01*
X23063200Y4521200D01*
X23063200Y6019800D01*
X10934700Y8128000D02*
G01*
X12839700Y8128000D01*
X12839700Y6223000D01*
X10934700Y6223000D01*
X10934700Y8128000D01*
X11137900Y7924800D02*
G01*
X12636500Y7924800D01*
X12636500Y6426200D01*
X11137900Y6426200D01*
X11137900Y7924800D01*
X13042900Y7924800D02*
G01*
X14541500Y7924800D01*
X14541500Y6426200D01*
X13042900Y6426200D01*
X13042900Y7924800D01*
X12839700Y8128000D02*
G01*
X14744700Y8128000D01*
X14744700Y6223000D01*
X12839700Y6223000D01*
X12839700Y8128000D01*
X14744700Y8128000D02*
G01*
X16649700Y8128000D01*
X16649700Y6223000D01*
X14744700Y6223000D01*
X14744700Y8128000D01*
X14947900Y7924800D02*
G01*
X16446500Y7924800D01*
X16446500Y6426200D01*
X14947900Y6426200D01*
X14947900Y7924800D01*
X16852900Y7924800D02*
G01*
X18351500Y7924800D01*
X18351500Y6426200D01*
X16852900Y6426200D01*
X16852900Y7924800D01*
X16649700Y8128000D02*
G01*
X18554700Y8128000D01*
X18554700Y6223000D01*
X16649700Y6223000D01*
X16649700Y8128000D01*
X18554700Y8128000D02*
G01*
X20459700Y8128000D01*
X20459700Y6223000D01*
X18554700Y6223000D01*
X18554700Y8128000D01*
X18757900Y7924800D02*
G01*
X20256500Y7924800D01*
X20256500Y6426200D01*
X18757900Y6426200D01*
X18757900Y7924800D01*
X20662900Y7924800D02*
G01*
X22161500Y7924800D01*
X22161500Y6426200D01*
X20662900Y6426200D01*
X20662900Y7924800D01*
X20459700Y8128000D02*
G01*
X22364700Y8128000D01*
X22364700Y6223000D01*
X20459700Y6223000D01*
X20459700Y8128000D01*
X22364700Y8128000D02*
G01*
X24269700Y8128000D01*
X24269700Y6223000D01*
X22364700Y6223000D01*
X22364700Y8128000D01*
X22567900Y7924800D02*
G01*
X24066500Y7924800D01*
X24066500Y6426200D01*
X22567900Y6426200D01*
X22567900Y7924800D01*
X25171400Y6972300D02*
G01*
X26670000Y6972300D01*
X26670000Y5473700D01*
X25171400Y5473700D01*
X25171400Y6972300D01*
M02*
