G04 Layer: BoardOutlineLayer*
G04 EasyEDA v6.5.29, 2023-07-18 11:26:45*
G04 4d29bd309a2048ebad46bf779903c475,5a6b42c53f6a479593ecc07194224c93,10*
G04 Gerber Generator version 0.2*
G04 Scale: 100 percent, Rotated: No, Reflected: No *
G04 Dimensions in millimeters *
G04 leading zeros omitted , absolute positions ,4 integer and 5 decimal *
%FSLAX45Y45*%
%MOMM*%

%ADD10C,0.2540*%
D10*
X0Y8636000D02*
G01*
X27686000Y8636000D01*
X27686000Y0D01*
X0Y0D01*
X0Y8636000D01*
X3543300Y7874000D02*
G01*
X3543300Y7340600D01*
X3543300Y7340600D02*
G01*
X3619500Y7340600D01*
X3619500Y7340600D02*
G01*
X3619500Y7035800D01*
X3619500Y7035800D02*
G01*
X3543300Y7035800D01*
X3543300Y7035800D02*
G01*
X3543300Y6477000D01*
X3543300Y6477000D02*
G01*
X4991100Y6477000D01*
X4991100Y6477000D02*
G01*
X4991100Y7035800D01*
X4991100Y7035800D02*
G01*
X4914900Y7035800D01*
X4914900Y7035800D02*
G01*
X4914900Y7340600D01*
X4914900Y7340600D02*
G01*
X4991100Y7340600D01*
X4991100Y7340600D02*
G01*
X4991100Y7874000D01*
X4991100Y7874000D02*
G01*
X3543300Y7874000D01*
X1187500Y7874000D02*
G01*
X1187500Y7340600D01*
X1187500Y7340600D02*
G01*
X1263700Y7340600D01*
X1263700Y7340600D02*
G01*
X1263700Y7035800D01*
X1263700Y7035800D02*
G01*
X1187500Y7035800D01*
X1187500Y7035800D02*
G01*
X1187500Y6477000D01*
X1187500Y6477000D02*
G01*
X2635300Y6477000D01*
X2635300Y6477000D02*
G01*
X2635300Y7035800D01*
X2635300Y7035800D02*
G01*
X2559100Y7035800D01*
X2559100Y7035800D02*
G01*
X2559100Y7340600D01*
X2559100Y7340600D02*
G01*
X2635300Y7340600D01*
X2635300Y7340600D02*
G01*
X2635300Y7874000D01*
X2635300Y7874000D02*
G01*
X1187500Y7874000D01*
X5448300Y7874000D02*
G01*
X5448300Y7340600D01*
X5448300Y7340600D02*
G01*
X5524500Y7340600D01*
X5524500Y7340600D02*
G01*
X5524500Y7035800D01*
X5524500Y7035800D02*
G01*
X5448300Y7035800D01*
X5448300Y7035800D02*
G01*
X5448300Y6477000D01*
X5448300Y6477000D02*
G01*
X6896100Y6477000D01*
X6896100Y6477000D02*
G01*
X6896100Y7035800D01*
X6896100Y7035800D02*
G01*
X6819900Y7035800D01*
X6819900Y7035800D02*
G01*
X6819900Y7340600D01*
X6819900Y7340600D02*
G01*
X6896100Y7340600D01*
X6896100Y7340600D02*
G01*
X6896100Y7874000D01*
X6896100Y7874000D02*
G01*
X5448300Y7874000D01*
X7353300Y7874000D02*
G01*
X7353300Y7340600D01*
X7353300Y7340600D02*
G01*
X7429500Y7340600D01*
X7429500Y7340600D02*
G01*
X7429500Y7035800D01*
X7429500Y7035800D02*
G01*
X7353300Y7035800D01*
X7353300Y7035800D02*
G01*
X7353300Y6477000D01*
X7353300Y6477000D02*
G01*
X8801100Y6477000D01*
X8801100Y6477000D02*
G01*
X8801100Y7035800D01*
X8801100Y7035800D02*
G01*
X8724900Y7035800D01*
X8724900Y7035800D02*
G01*
X8724900Y7340600D01*
X8724900Y7340600D02*
G01*
X8801100Y7340600D01*
X8801100Y7340600D02*
G01*
X8801100Y7874000D01*
X8801100Y7874000D02*
G01*
X7353300Y7874000D01*
X9258300Y7874000D02*
G01*
X9258300Y7340600D01*
X9258300Y7340600D02*
G01*
X9334500Y7340600D01*
X9334500Y7340600D02*
G01*
X9334500Y7035800D01*
X9334500Y7035800D02*
G01*
X9258300Y7035800D01*
X9258300Y7035800D02*
G01*
X9258300Y6477000D01*
X9258300Y6477000D02*
G01*
X10706100Y6477000D01*
X10706100Y6477000D02*
G01*
X10706100Y7035800D01*
X10706100Y7035800D02*
G01*
X10629900Y7035800D01*
X10629900Y7035800D02*
G01*
X10629900Y7340600D01*
X10629900Y7340600D02*
G01*
X10706100Y7340600D01*
X10706100Y7340600D02*
G01*
X10706100Y7874000D01*
X10706100Y7874000D02*
G01*
X9258300Y7874000D01*
X11163300Y7874000D02*
G01*
X11163300Y7340600D01*
X11163300Y7340600D02*
G01*
X11239500Y7340600D01*
X11239500Y7340600D02*
G01*
X11239500Y7035800D01*
X11239500Y7035800D02*
G01*
X11163300Y7035800D01*
X11163300Y7035800D02*
G01*
X11163300Y6477000D01*
X11163300Y6477000D02*
G01*
X12611100Y6477000D01*
X12611100Y6477000D02*
G01*
X12611100Y7035800D01*
X12611100Y7035800D02*
G01*
X12534900Y7035800D01*
X12534900Y7035800D02*
G01*
X12534900Y7340600D01*
X12534900Y7340600D02*
G01*
X12611100Y7340600D01*
X12611100Y7340600D02*
G01*
X12611100Y7874000D01*
X12611100Y7874000D02*
G01*
X11163300Y7874000D01*
X13068300Y7874000D02*
G01*
X13068300Y7340600D01*
X13068300Y7340600D02*
G01*
X13144500Y7340600D01*
X13144500Y7340600D02*
G01*
X13144500Y7035800D01*
X13144500Y7035800D02*
G01*
X13068300Y7035800D01*
X13068300Y7035800D02*
G01*
X13068300Y6477000D01*
X13068300Y6477000D02*
G01*
X14516100Y6477000D01*
X14516100Y6477000D02*
G01*
X14516100Y7035800D01*
X14516100Y7035800D02*
G01*
X14439900Y7035800D01*
X14439900Y7035800D02*
G01*
X14439900Y7340600D01*
X14439900Y7340600D02*
G01*
X14516100Y7340600D01*
X14516100Y7340600D02*
G01*
X14516100Y7874000D01*
X14516100Y7874000D02*
G01*
X13068300Y7874000D01*
X14973300Y7874000D02*
G01*
X14973300Y7340600D01*
X14973300Y7340600D02*
G01*
X15049500Y7340600D01*
X15049500Y7340600D02*
G01*
X15049500Y7035800D01*
X15049500Y7035800D02*
G01*
X14973300Y7035800D01*
X14973300Y7035800D02*
G01*
X14973300Y6477000D01*
X14973300Y6477000D02*
G01*
X16421100Y6477000D01*
X16421100Y6477000D02*
G01*
X16421100Y7035800D01*
X16421100Y7035800D02*
G01*
X16344900Y7035800D01*
X16344900Y7035800D02*
G01*
X16344900Y7340600D01*
X16344900Y7340600D02*
G01*
X16421100Y7340600D01*
X16421100Y7340600D02*
G01*
X16421100Y7874000D01*
X16421100Y7874000D02*
G01*
X14973300Y7874000D01*
X16878300Y7874000D02*
G01*
X16878300Y7340600D01*
X16878300Y7340600D02*
G01*
X16954500Y7340600D01*
X16954500Y7340600D02*
G01*
X16954500Y7035800D01*
X16954500Y7035800D02*
G01*
X16878300Y7035800D01*
X16878300Y7035800D02*
G01*
X16878300Y6477000D01*
X16878300Y6477000D02*
G01*
X18326100Y6477000D01*
X18326100Y6477000D02*
G01*
X18326100Y7035800D01*
X18326100Y7035800D02*
G01*
X18249900Y7035800D01*
X18249900Y7035800D02*
G01*
X18249900Y7340600D01*
X18249900Y7340600D02*
G01*
X18326100Y7340600D01*
X18326100Y7340600D02*
G01*
X18326100Y7874000D01*
X18326100Y7874000D02*
G01*
X16878300Y7874000D01*
X18783300Y7874000D02*
G01*
X18783300Y7340600D01*
X18783300Y7340600D02*
G01*
X18859500Y7340600D01*
X18859500Y7340600D02*
G01*
X18859500Y7035800D01*
X18859500Y7035800D02*
G01*
X18783300Y7035800D01*
X18783300Y7035800D02*
G01*
X18783300Y6477000D01*
X18783300Y6477000D02*
G01*
X20231100Y6477000D01*
X20231100Y6477000D02*
G01*
X20231100Y7035800D01*
X20231100Y7035800D02*
G01*
X20154900Y7035800D01*
X20154900Y7035800D02*
G01*
X20154900Y7340600D01*
X20154900Y7340600D02*
G01*
X20231100Y7340600D01*
X20231100Y7340600D02*
G01*
X20231100Y7874000D01*
X20231100Y7874000D02*
G01*
X18783300Y7874000D01*
X20688300Y7874000D02*
G01*
X20688300Y7340600D01*
X20688300Y7340600D02*
G01*
X20764500Y7340600D01*
X20764500Y7340600D02*
G01*
X20764500Y7035800D01*
X20764500Y7035800D02*
G01*
X20688300Y7035800D01*
X20688300Y7035800D02*
G01*
X20688300Y6477000D01*
X20688300Y6477000D02*
G01*
X22136100Y6477000D01*
X22136100Y6477000D02*
G01*
X22136100Y7035800D01*
X22136100Y7035800D02*
G01*
X22059900Y7035800D01*
X22059900Y7035800D02*
G01*
X22059900Y7340600D01*
X22059900Y7340600D02*
G01*
X22136100Y7340600D01*
X22136100Y7340600D02*
G01*
X22136100Y7874000D01*
X22136100Y7874000D02*
G01*
X20688300Y7874000D01*
X22593300Y7874000D02*
G01*
X22593300Y7340600D01*
X22593300Y7340600D02*
G01*
X22669500Y7340600D01*
X22669500Y7340600D02*
G01*
X22669500Y7035800D01*
X22669500Y7035800D02*
G01*
X22593300Y7035800D01*
X22593300Y7035800D02*
G01*
X22593300Y6477000D01*
X22593300Y6477000D02*
G01*
X24041100Y6477000D01*
X24041100Y6477000D02*
G01*
X24041100Y7035800D01*
X24041100Y7035800D02*
G01*
X23964900Y7035800D01*
X23964900Y7035800D02*
G01*
X23964900Y7340600D01*
X23964900Y7340600D02*
G01*
X24041100Y7340600D01*
X24041100Y7340600D02*
G01*
X24041100Y7874000D01*
X24041100Y7874000D02*
G01*
X22593300Y7874000D01*
X25196800Y6921500D02*
G01*
X25196800Y6388100D01*
X25196800Y6388100D02*
G01*
X25273000Y6388100D01*
X25273000Y6388100D02*
G01*
X25273000Y6083300D01*
X25273000Y6083300D02*
G01*
X25196800Y6083300D01*
X25196800Y6083300D02*
G01*
X25196800Y5524500D01*
X25196800Y5524500D02*
G01*
X26644600Y5524500D01*
X26644600Y5524500D02*
G01*
X26644600Y6083300D01*
X26644600Y6083300D02*
G01*
X26568400Y6083300D01*
X26568400Y6083300D02*
G01*
X26568400Y6388100D01*
X26568400Y6388100D02*
G01*
X26644600Y6388100D01*
X26644600Y6388100D02*
G01*
X26644600Y6921500D01*
X26644600Y6921500D02*
G01*
X25196800Y6921500D01*
X1435100Y5969000D02*
G01*
X1435100Y5435600D01*
X1435100Y5435600D02*
G01*
X1511300Y5435600D01*
X1511300Y5435600D02*
G01*
X1511300Y5130800D01*
X1511300Y5130800D02*
G01*
X1435100Y5130800D01*
X1435100Y5130800D02*
G01*
X1435100Y4572000D01*
X1435100Y4572000D02*
G01*
X2882900Y4572000D01*
X2882900Y4572000D02*
G01*
X2882900Y5130800D01*
X2882900Y5130800D02*
G01*
X2806700Y5130800D01*
X2806700Y5130800D02*
G01*
X2806700Y5435600D01*
X2806700Y5435600D02*
G01*
X2882900Y5435600D01*
X2882900Y5435600D02*
G01*
X2882900Y5969000D01*
X2882900Y5969000D02*
G01*
X1435100Y5969000D01*
X4038600Y5969000D02*
G01*
X4038600Y5435600D01*
X4038600Y5435600D02*
G01*
X4114800Y5435600D01*
X4114800Y5435600D02*
G01*
X4114800Y5130800D01*
X4114800Y5130800D02*
G01*
X4038600Y5130800D01*
X4038600Y5130800D02*
G01*
X4038600Y4572000D01*
X4038600Y4572000D02*
G01*
X5486400Y4572000D01*
X5486400Y4572000D02*
G01*
X5486400Y5130800D01*
X5486400Y5130800D02*
G01*
X5410200Y5130800D01*
X5410200Y5130800D02*
G01*
X5410200Y5435600D01*
X5410200Y5435600D02*
G01*
X5486400Y5435600D01*
X5486400Y5435600D02*
G01*
X5486400Y5969000D01*
X5486400Y5969000D02*
G01*
X4038600Y5969000D01*
X5943600Y5969000D02*
G01*
X5943600Y5435600D01*
X5943600Y5435600D02*
G01*
X6019800Y5435600D01*
X6019800Y5435600D02*
G01*
X6019800Y5130800D01*
X6019800Y5130800D02*
G01*
X5943600Y5130800D01*
X5943600Y5130800D02*
G01*
X5943600Y4572000D01*
X5943600Y4572000D02*
G01*
X7391400Y4572000D01*
X7391400Y4572000D02*
G01*
X7391400Y5130800D01*
X7391400Y5130800D02*
G01*
X7315200Y5130800D01*
X7315200Y5130800D02*
G01*
X7315200Y5435600D01*
X7315200Y5435600D02*
G01*
X7391400Y5435600D01*
X7391400Y5435600D02*
G01*
X7391400Y5969000D01*
X7391400Y5969000D02*
G01*
X5943600Y5969000D01*
X7848600Y5969000D02*
G01*
X7848600Y5435600D01*
X7848600Y5435600D02*
G01*
X7924800Y5435600D01*
X7924800Y5435600D02*
G01*
X7924800Y5130800D01*
X7924800Y5130800D02*
G01*
X7848600Y5130800D01*
X7848600Y5130800D02*
G01*
X7848600Y4572000D01*
X7848600Y4572000D02*
G01*
X9296400Y4572000D01*
X9296400Y4572000D02*
G01*
X9296400Y5130800D01*
X9296400Y5130800D02*
G01*
X9220200Y5130800D01*
X9220200Y5130800D02*
G01*
X9220200Y5435600D01*
X9220200Y5435600D02*
G01*
X9296400Y5435600D01*
X9296400Y5435600D02*
G01*
X9296400Y5969000D01*
X9296400Y5969000D02*
G01*
X7848600Y5969000D01*
X9753600Y5969000D02*
G01*
X9753600Y5435600D01*
X9753600Y5435600D02*
G01*
X9829800Y5435600D01*
X9829800Y5435600D02*
G01*
X9829800Y5130800D01*
X9829800Y5130800D02*
G01*
X9753600Y5130800D01*
X9753600Y5130800D02*
G01*
X9753600Y4572000D01*
X9753600Y4572000D02*
G01*
X11201400Y4572000D01*
X11201400Y4572000D02*
G01*
X11201400Y5130800D01*
X11201400Y5130800D02*
G01*
X11125200Y5130800D01*
X11125200Y5130800D02*
G01*
X11125200Y5435600D01*
X11125200Y5435600D02*
G01*
X11201400Y5435600D01*
X11201400Y5435600D02*
G01*
X11201400Y5969000D01*
X11201400Y5969000D02*
G01*
X9753600Y5969000D01*
X11658600Y5969000D02*
G01*
X11658600Y5435600D01*
X11658600Y5435600D02*
G01*
X11734800Y5435600D01*
X11734800Y5435600D02*
G01*
X11734800Y5130800D01*
X11734800Y5130800D02*
G01*
X11658600Y5130800D01*
X11658600Y5130800D02*
G01*
X11658600Y4572000D01*
X11658600Y4572000D02*
G01*
X13106400Y4572000D01*
X13106400Y4572000D02*
G01*
X13106400Y5130800D01*
X13106400Y5130800D02*
G01*
X13030200Y5130800D01*
X13030200Y5130800D02*
G01*
X13030200Y5435600D01*
X13030200Y5435600D02*
G01*
X13106400Y5435600D01*
X13106400Y5435600D02*
G01*
X13106400Y5969000D01*
X13106400Y5969000D02*
G01*
X11658600Y5969000D01*
X13563600Y5969000D02*
G01*
X13563600Y5435600D01*
X13563600Y5435600D02*
G01*
X13639800Y5435600D01*
X13639800Y5435600D02*
G01*
X13639800Y5130800D01*
X13639800Y5130800D02*
G01*
X13563600Y5130800D01*
X13563600Y5130800D02*
G01*
X13563600Y4572000D01*
X13563600Y4572000D02*
G01*
X15011400Y4572000D01*
X15011400Y4572000D02*
G01*
X15011400Y5130800D01*
X15011400Y5130800D02*
G01*
X14935200Y5130800D01*
X14935200Y5130800D02*
G01*
X14935200Y5435600D01*
X14935200Y5435600D02*
G01*
X15011400Y5435600D01*
X15011400Y5435600D02*
G01*
X15011400Y5969000D01*
X15011400Y5969000D02*
G01*
X13563600Y5969000D01*
X15468600Y5969000D02*
G01*
X15468600Y5435600D01*
X15468600Y5435600D02*
G01*
X15544800Y5435600D01*
X15544800Y5435600D02*
G01*
X15544800Y5130800D01*
X15544800Y5130800D02*
G01*
X15468600Y5130800D01*
X15468600Y5130800D02*
G01*
X15468600Y4572000D01*
X15468600Y4572000D02*
G01*
X16916400Y4572000D01*
X16916400Y4572000D02*
G01*
X16916400Y5130800D01*
X16916400Y5130800D02*
G01*
X16840200Y5130800D01*
X16840200Y5130800D02*
G01*
X16840200Y5435600D01*
X16840200Y5435600D02*
G01*
X16916400Y5435600D01*
X16916400Y5435600D02*
G01*
X16916400Y5969000D01*
X16916400Y5969000D02*
G01*
X15468600Y5969000D01*
X17373600Y5969000D02*
G01*
X17373600Y5435600D01*
X17373600Y5435600D02*
G01*
X17449800Y5435600D01*
X17449800Y5435600D02*
G01*
X17449800Y5130800D01*
X17449800Y5130800D02*
G01*
X17373600Y5130800D01*
X17373600Y5130800D02*
G01*
X17373600Y4572000D01*
X17373600Y4572000D02*
G01*
X18821400Y4572000D01*
X18821400Y4572000D02*
G01*
X18821400Y5130800D01*
X18821400Y5130800D02*
G01*
X18745200Y5130800D01*
X18745200Y5130800D02*
G01*
X18745200Y5435600D01*
X18745200Y5435600D02*
G01*
X18821400Y5435600D01*
X18821400Y5435600D02*
G01*
X18821400Y5969000D01*
X18821400Y5969000D02*
G01*
X17373600Y5969000D01*
X19278600Y5969000D02*
G01*
X19278600Y5435600D01*
X19278600Y5435600D02*
G01*
X19354800Y5435600D01*
X19354800Y5435600D02*
G01*
X19354800Y5130800D01*
X19354800Y5130800D02*
G01*
X19278600Y5130800D01*
X19278600Y5130800D02*
G01*
X19278600Y4572000D01*
X19278600Y4572000D02*
G01*
X20726400Y4572000D01*
X20726400Y4572000D02*
G01*
X20726400Y5130800D01*
X20726400Y5130800D02*
G01*
X20650200Y5130800D01*
X20650200Y5130800D02*
G01*
X20650200Y5435600D01*
X20650200Y5435600D02*
G01*
X20726400Y5435600D01*
X20726400Y5435600D02*
G01*
X20726400Y5969000D01*
X20726400Y5969000D02*
G01*
X19278600Y5969000D01*
X21183600Y5969000D02*
G01*
X21183600Y5435600D01*
X21183600Y5435600D02*
G01*
X21259800Y5435600D01*
X21259800Y5435600D02*
G01*
X21259800Y5130800D01*
X21259800Y5130800D02*
G01*
X21183600Y5130800D01*
X21183600Y5130800D02*
G01*
X21183600Y4572000D01*
X21183600Y4572000D02*
G01*
X22631400Y4572000D01*
X22631400Y4572000D02*
G01*
X22631400Y5130800D01*
X22631400Y5130800D02*
G01*
X22555200Y5130800D01*
X22555200Y5130800D02*
G01*
X22555200Y5435600D01*
X22555200Y5435600D02*
G01*
X22631400Y5435600D01*
X22631400Y5435600D02*
G01*
X22631400Y5969000D01*
X22631400Y5969000D02*
G01*
X21183600Y5969000D01*
X23088600Y5969000D02*
G01*
X23088600Y5435600D01*
X23088600Y5435600D02*
G01*
X23164800Y5435600D01*
X23164800Y5435600D02*
G01*
X23164800Y5130800D01*
X23164800Y5130800D02*
G01*
X23088600Y5130800D01*
X23088600Y5130800D02*
G01*
X23088600Y4572000D01*
X23088600Y4572000D02*
G01*
X24536400Y4572000D01*
X24536400Y4572000D02*
G01*
X24536400Y5130800D01*
X24536400Y5130800D02*
G01*
X24460200Y5130800D01*
X24460200Y5130800D02*
G01*
X24460200Y5435600D01*
X24460200Y5435600D02*
G01*
X24536400Y5435600D01*
X24536400Y5435600D02*
G01*
X24536400Y5969000D01*
X24536400Y5969000D02*
G01*
X23088600Y5969000D01*
X736600Y4064000D02*
G01*
X736600Y3530600D01*
X736600Y3530600D02*
G01*
X812800Y3530600D01*
X812800Y3530600D02*
G01*
X812800Y3225800D01*
X812800Y3225800D02*
G01*
X736600Y3225800D01*
X736600Y3225800D02*
G01*
X736600Y2667000D01*
X736600Y2667000D02*
G01*
X2184400Y2667000D01*
X2184400Y2667000D02*
G01*
X2184400Y3225800D01*
X2184400Y3225800D02*
G01*
X2108200Y3225800D01*
X2108200Y3225800D02*
G01*
X2108200Y3530600D01*
X2108200Y3530600D02*
G01*
X2184400Y3530600D01*
X2184400Y3530600D02*
G01*
X2184400Y4064000D01*
X2184400Y4064000D02*
G01*
X736600Y4064000D01*
X3136900Y4064000D02*
G01*
X3136900Y3530600D01*
X3136900Y3530600D02*
G01*
X3213100Y3530600D01*
X3213100Y3530600D02*
G01*
X3213100Y3225800D01*
X3213100Y3225800D02*
G01*
X3136900Y3225800D01*
X3136900Y3225800D02*
G01*
X3136900Y2667000D01*
X3136900Y2667000D02*
G01*
X4584700Y2667000D01*
X4584700Y2667000D02*
G01*
X4584700Y3225800D01*
X4584700Y3225800D02*
G01*
X4508500Y3225800D01*
X4508500Y3225800D02*
G01*
X4508500Y3530600D01*
X4508500Y3530600D02*
G01*
X4584700Y3530600D01*
X4584700Y3530600D02*
G01*
X4584700Y4064000D01*
X4584700Y4064000D02*
G01*
X3136900Y4064000D01*
X5041900Y4064000D02*
G01*
X5041900Y3530600D01*
X5041900Y3530600D02*
G01*
X5118100Y3530600D01*
X5118100Y3530600D02*
G01*
X5118100Y3225800D01*
X5118100Y3225800D02*
G01*
X5041900Y3225800D01*
X5041900Y3225800D02*
G01*
X5041900Y2667000D01*
X5041900Y2667000D02*
G01*
X6489700Y2667000D01*
X6489700Y2667000D02*
G01*
X6489700Y3225800D01*
X6489700Y3225800D02*
G01*
X6413500Y3225800D01*
X6413500Y3225800D02*
G01*
X6413500Y3530600D01*
X6413500Y3530600D02*
G01*
X6489700Y3530600D01*
X6489700Y3530600D02*
G01*
X6489700Y4064000D01*
X6489700Y4064000D02*
G01*
X5041900Y4064000D01*
X6946900Y4064000D02*
G01*
X6946900Y3530600D01*
X6946900Y3530600D02*
G01*
X7023100Y3530600D01*
X7023100Y3530600D02*
G01*
X7023100Y3225800D01*
X7023100Y3225800D02*
G01*
X6946900Y3225800D01*
X6946900Y3225800D02*
G01*
X6946900Y2667000D01*
X6946900Y2667000D02*
G01*
X8394700Y2667000D01*
X8394700Y2667000D02*
G01*
X8394700Y3225800D01*
X8394700Y3225800D02*
G01*
X8318500Y3225800D01*
X8318500Y3225800D02*
G01*
X8318500Y3530600D01*
X8318500Y3530600D02*
G01*
X8394700Y3530600D01*
X8394700Y3530600D02*
G01*
X8394700Y4064000D01*
X8394700Y4064000D02*
G01*
X6946900Y4064000D01*
X8851900Y4064000D02*
G01*
X8851900Y3530600D01*
X8851900Y3530600D02*
G01*
X8928100Y3530600D01*
X8928100Y3530600D02*
G01*
X8928100Y3225800D01*
X8928100Y3225800D02*
G01*
X8851900Y3225800D01*
X8851900Y3225800D02*
G01*
X8851900Y2667000D01*
X8851900Y2667000D02*
G01*
X10299700Y2667000D01*
X10299700Y2667000D02*
G01*
X10299700Y3225800D01*
X10299700Y3225800D02*
G01*
X10223500Y3225800D01*
X10223500Y3225800D02*
G01*
X10223500Y3530600D01*
X10223500Y3530600D02*
G01*
X10299700Y3530600D01*
X10299700Y3530600D02*
G01*
X10299700Y4064000D01*
X10299700Y4064000D02*
G01*
X8851900Y4064000D01*
X10756900Y4064000D02*
G01*
X10756900Y3530600D01*
X10756900Y3530600D02*
G01*
X10833100Y3530600D01*
X10833100Y3530600D02*
G01*
X10833100Y3225800D01*
X10833100Y3225800D02*
G01*
X10756900Y3225800D01*
X10756900Y3225800D02*
G01*
X10756900Y2667000D01*
X10756900Y2667000D02*
G01*
X12204700Y2667000D01*
X12204700Y2667000D02*
G01*
X12204700Y3225800D01*
X12204700Y3225800D02*
G01*
X12128500Y3225800D01*
X12128500Y3225800D02*
G01*
X12128500Y3530600D01*
X12128500Y3530600D02*
G01*
X12204700Y3530600D01*
X12204700Y3530600D02*
G01*
X12204700Y4064000D01*
X12204700Y4064000D02*
G01*
X10756900Y4064000D01*
X12661900Y4064000D02*
G01*
X12661900Y3530600D01*
X12661900Y3530600D02*
G01*
X12738100Y3530600D01*
X12738100Y3530600D02*
G01*
X12738100Y3225800D01*
X12738100Y3225800D02*
G01*
X12661900Y3225800D01*
X12661900Y3225800D02*
G01*
X12661900Y2667000D01*
X12661900Y2667000D02*
G01*
X14109700Y2667000D01*
X14109700Y2667000D02*
G01*
X14109700Y3225800D01*
X14109700Y3225800D02*
G01*
X14033500Y3225800D01*
X14033500Y3225800D02*
G01*
X14033500Y3530600D01*
X14033500Y3530600D02*
G01*
X14109700Y3530600D01*
X14109700Y3530600D02*
G01*
X14109700Y4064000D01*
X14109700Y4064000D02*
G01*
X12661900Y4064000D01*
X14566900Y4064000D02*
G01*
X14566900Y3530600D01*
X14566900Y3530600D02*
G01*
X14643100Y3530600D01*
X14643100Y3530600D02*
G01*
X14643100Y3225800D01*
X14643100Y3225800D02*
G01*
X14566900Y3225800D01*
X14566900Y3225800D02*
G01*
X14566900Y2667000D01*
X14566900Y2667000D02*
G01*
X16014700Y2667000D01*
X16014700Y2667000D02*
G01*
X16014700Y3225800D01*
X16014700Y3225800D02*
G01*
X15938500Y3225800D01*
X15938500Y3225800D02*
G01*
X15938500Y3530600D01*
X15938500Y3530600D02*
G01*
X16014700Y3530600D01*
X16014700Y3530600D02*
G01*
X16014700Y4064000D01*
X16014700Y4064000D02*
G01*
X14566900Y4064000D01*
X16471900Y4064000D02*
G01*
X16471900Y3530600D01*
X16471900Y3530600D02*
G01*
X16548100Y3530600D01*
X16548100Y3530600D02*
G01*
X16548100Y3225800D01*
X16548100Y3225800D02*
G01*
X16471900Y3225800D01*
X16471900Y3225800D02*
G01*
X16471900Y2667000D01*
X16471900Y2667000D02*
G01*
X17919700Y2667000D01*
X17919700Y2667000D02*
G01*
X17919700Y3225800D01*
X17919700Y3225800D02*
G01*
X17843500Y3225800D01*
X17843500Y3225800D02*
G01*
X17843500Y3530600D01*
X17843500Y3530600D02*
G01*
X17919700Y3530600D01*
X17919700Y3530600D02*
G01*
X17919700Y4064000D01*
X17919700Y4064000D02*
G01*
X16471900Y4064000D01*
X18376900Y4064000D02*
G01*
X18376900Y3530600D01*
X18376900Y3530600D02*
G01*
X18453100Y3530600D01*
X18453100Y3530600D02*
G01*
X18453100Y3225800D01*
X18453100Y3225800D02*
G01*
X18376900Y3225800D01*
X18376900Y3225800D02*
G01*
X18376900Y2667000D01*
X18376900Y2667000D02*
G01*
X19824700Y2667000D01*
X19824700Y2667000D02*
G01*
X19824700Y3225800D01*
X19824700Y3225800D02*
G01*
X19748500Y3225800D01*
X19748500Y3225800D02*
G01*
X19748500Y3530600D01*
X19748500Y3530600D02*
G01*
X19824700Y3530600D01*
X19824700Y3530600D02*
G01*
X19824700Y4064000D01*
X19824700Y4064000D02*
G01*
X18376900Y4064000D01*
X20281900Y4064000D02*
G01*
X20281900Y3530600D01*
X20281900Y3530600D02*
G01*
X20358100Y3530600D01*
X20358100Y3530600D02*
G01*
X20358100Y3225800D01*
X20358100Y3225800D02*
G01*
X20281900Y3225800D01*
X20281900Y3225800D02*
G01*
X20281900Y2667000D01*
X20281900Y2667000D02*
G01*
X21729700Y2667000D01*
X21729700Y2667000D02*
G01*
X21729700Y3225800D01*
X21729700Y3225800D02*
G01*
X21653500Y3225800D01*
X21653500Y3225800D02*
G01*
X21653500Y3530600D01*
X21653500Y3530600D02*
G01*
X21729700Y3530600D01*
X21729700Y3530600D02*
G01*
X21729700Y4064000D01*
X21729700Y4064000D02*
G01*
X20281900Y4064000D01*
X22186900Y4064000D02*
G01*
X22186900Y3530600D01*
X22186900Y3530600D02*
G01*
X22263100Y3530600D01*
X22263100Y3530600D02*
G01*
X22263100Y3225800D01*
X22263100Y3225800D02*
G01*
X22186900Y3225800D01*
X22186900Y3225800D02*
G01*
X22186900Y2667000D01*
X22186900Y2667000D02*
G01*
X23634700Y2667000D01*
X23634700Y2667000D02*
G01*
X23634700Y3225800D01*
X23634700Y3225800D02*
G01*
X23558500Y3225800D01*
X23558500Y3225800D02*
G01*
X23558500Y3530600D01*
X23558500Y3530600D02*
G01*
X23634700Y3530600D01*
X23634700Y3530600D02*
G01*
X23634700Y4064000D01*
X23634700Y4064000D02*
G01*
X22186900Y4064000D01*
X24790400Y4064000D02*
G01*
X24790400Y3530600D01*
X24790400Y3530600D02*
G01*
X24866600Y3530600D01*
X24866600Y3530600D02*
G01*
X24866600Y3225800D01*
X24866600Y3225800D02*
G01*
X24790400Y3225800D01*
X24790400Y3225800D02*
G01*
X24790400Y2667000D01*
X24790400Y2667000D02*
G01*
X26238200Y2667000D01*
X26238200Y2667000D02*
G01*
X26238200Y3225800D01*
X26238200Y3225800D02*
G01*
X26162000Y3225800D01*
X26162000Y3225800D02*
G01*
X26162000Y3530600D01*
X26162000Y3530600D02*
G01*
X26238200Y3530600D01*
X26238200Y3530600D02*
G01*
X26238200Y4064000D01*
X26238200Y4064000D02*
G01*
X24790400Y4064000D01*
X1435100Y2159000D02*
G01*
X1435100Y1625600D01*
X1435100Y1625600D02*
G01*
X1511300Y1625600D01*
X1511300Y1625600D02*
G01*
X1511300Y1320800D01*
X1511300Y1320800D02*
G01*
X1435100Y1320800D01*
X1435100Y1320800D02*
G01*
X1435100Y762000D01*
X1435100Y762000D02*
G01*
X2882900Y762000D01*
X2882900Y762000D02*
G01*
X2882900Y1320800D01*
X2882900Y1320800D02*
G01*
X2806700Y1320800D01*
X2806700Y1320800D02*
G01*
X2806700Y1625600D01*
X2806700Y1625600D02*
G01*
X2882900Y1625600D01*
X2882900Y1625600D02*
G01*
X2882900Y2159000D01*
X2882900Y2159000D02*
G01*
X1435100Y2159000D01*
X4489500Y2159000D02*
G01*
X4489500Y1625600D01*
X4489500Y1625600D02*
G01*
X4565700Y1625600D01*
X4565700Y1625600D02*
G01*
X4565700Y1320800D01*
X4565700Y1320800D02*
G01*
X4489500Y1320800D01*
X4489500Y1320800D02*
G01*
X4489500Y762000D01*
X4489500Y762000D02*
G01*
X5937300Y762000D01*
X5937300Y762000D02*
G01*
X5937300Y1320800D01*
X5937300Y1320800D02*
G01*
X5861100Y1320800D01*
X5861100Y1320800D02*
G01*
X5861100Y1625600D01*
X5861100Y1625600D02*
G01*
X5937300Y1625600D01*
X5937300Y1625600D02*
G01*
X5937300Y2159000D01*
X5937300Y2159000D02*
G01*
X4489500Y2159000D01*
X7747000Y2159000D02*
G01*
X7747000Y1625600D01*
X7747000Y1625600D02*
G01*
X7823200Y1625600D01*
X7823200Y1625600D02*
G01*
X7823200Y1320800D01*
X7823200Y1320800D02*
G01*
X7747000Y1320800D01*
X7747000Y1320800D02*
G01*
X7747000Y762000D01*
X7747000Y762000D02*
G01*
X9194800Y762000D01*
X9194800Y762000D02*
G01*
X9194800Y1320800D01*
X9194800Y1320800D02*
G01*
X9118600Y1320800D01*
X9118600Y1320800D02*
G01*
X9118600Y1625600D01*
X9118600Y1625600D02*
G01*
X9194800Y1625600D01*
X9194800Y1625600D02*
G01*
X9194800Y2159000D01*
X9194800Y2159000D02*
G01*
X7747000Y2159000D01*
X11004600Y2159000D02*
G01*
X11004600Y1625600D01*
X11004600Y1625600D02*
G01*
X11080800Y1625600D01*
X11080800Y1625600D02*
G01*
X11080800Y1320800D01*
X11080800Y1320800D02*
G01*
X11004600Y1320800D01*
X11004600Y1320800D02*
G01*
X11004600Y762000D01*
X11004600Y762000D02*
G01*
X12452400Y762000D01*
X12452400Y762000D02*
G01*
X12452400Y1320800D01*
X12452400Y1320800D02*
G01*
X12376200Y1320800D01*
X12376200Y1320800D02*
G01*
X12376200Y1625600D01*
X12376200Y1625600D02*
G01*
X12452400Y1625600D01*
X12452400Y1625600D02*
G01*
X12452400Y2159000D01*
X12452400Y2159000D02*
G01*
X11004600Y2159000D01*
X13404900Y2159000D02*
G01*
X13404900Y1625600D01*
X13404900Y1625600D02*
G01*
X13481100Y1625600D01*
X13481100Y1625600D02*
G01*
X13481100Y1320800D01*
X13481100Y1320800D02*
G01*
X13404900Y1320800D01*
X13404900Y1320800D02*
G01*
X13404900Y762000D01*
X13404900Y762000D02*
G01*
X14852700Y762000D01*
X14852700Y762000D02*
G01*
X14852700Y1320800D01*
X14852700Y1320800D02*
G01*
X14776500Y1320800D01*
X14776500Y1320800D02*
G01*
X14776500Y1625600D01*
X14776500Y1625600D02*
G01*
X14852700Y1625600D01*
X14852700Y1625600D02*
G01*
X14852700Y2159000D01*
X14852700Y2159000D02*
G01*
X13404900Y2159000D01*
X15754400Y2159000D02*
G01*
X15754400Y1625600D01*
X15754400Y1625600D02*
G01*
X15830600Y1625600D01*
X15830600Y1625600D02*
G01*
X15830600Y1320800D01*
X15830600Y1320800D02*
G01*
X15754400Y1320800D01*
X15754400Y1320800D02*
G01*
X15754400Y762000D01*
X15754400Y762000D02*
G01*
X17202200Y762000D01*
X17202200Y762000D02*
G01*
X17202200Y1320800D01*
X17202200Y1320800D02*
G01*
X17126000Y1320800D01*
X17126000Y1320800D02*
G01*
X17126000Y1625600D01*
X17126000Y1625600D02*
G01*
X17202200Y1625600D01*
X17202200Y1625600D02*
G01*
X17202200Y2159000D01*
X17202200Y2159000D02*
G01*
X15754400Y2159000D01*
X17659400Y2159000D02*
G01*
X17659400Y1625600D01*
X17659400Y1625600D02*
G01*
X17735600Y1625600D01*
X17735600Y1625600D02*
G01*
X17735600Y1320800D01*
X17735600Y1320800D02*
G01*
X17659400Y1320800D01*
X17659400Y1320800D02*
G01*
X17659400Y762000D01*
X17659400Y762000D02*
G01*
X19107200Y762000D01*
X19107200Y762000D02*
G01*
X19107200Y1320800D01*
X19107200Y1320800D02*
G01*
X19031000Y1320800D01*
X19031000Y1320800D02*
G01*
X19031000Y1625600D01*
X19031000Y1625600D02*
G01*
X19107200Y1625600D01*
X19107200Y1625600D02*
G01*
X19107200Y2159000D01*
X19107200Y2159000D02*
G01*
X17659400Y2159000D01*
X19564400Y2159000D02*
G01*
X19564400Y1625600D01*
X19564400Y1625600D02*
G01*
X19640600Y1625600D01*
X19640600Y1625600D02*
G01*
X19640600Y1320800D01*
X19640600Y1320800D02*
G01*
X19564400Y1320800D01*
X19564400Y1320800D02*
G01*
X19564400Y762000D01*
X19564400Y762000D02*
G01*
X21012200Y762000D01*
X21012200Y762000D02*
G01*
X21012200Y1320800D01*
X21012200Y1320800D02*
G01*
X20936000Y1320800D01*
X20936000Y1320800D02*
G01*
X20936000Y1625600D01*
X20936000Y1625600D02*
G01*
X21012200Y1625600D01*
X21012200Y1625600D02*
G01*
X21012200Y2159000D01*
X21012200Y2159000D02*
G01*
X19564400Y2159000D01*
X21469400Y2159000D02*
G01*
X21469400Y1625600D01*
X21469400Y1625600D02*
G01*
X21545600Y1625600D01*
X21545600Y1625600D02*
G01*
X21545600Y1320800D01*
X21545600Y1320800D02*
G01*
X21469400Y1320800D01*
X21469400Y1320800D02*
G01*
X21469400Y762000D01*
X21469400Y762000D02*
G01*
X22917200Y762000D01*
X22917200Y762000D02*
G01*
X22917200Y1320800D01*
X22917200Y1320800D02*
G01*
X22841000Y1320800D01*
X22841000Y1320800D02*
G01*
X22841000Y1625600D01*
X22841000Y1625600D02*
G01*
X22917200Y1625600D01*
X22917200Y1625600D02*
G01*
X22917200Y2159000D01*
X22917200Y2159000D02*
G01*
X21469400Y2159000D01*
X23374400Y2159000D02*
G01*
X23374400Y1625600D01*
X23374400Y1625600D02*
G01*
X23450600Y1625600D01*
X23450600Y1625600D02*
G01*
X23450600Y1320800D01*
X23450600Y1320800D02*
G01*
X23374400Y1320800D01*
X23374400Y1320800D02*
G01*
X23374400Y762000D01*
X23374400Y762000D02*
G01*
X24822200Y762000D01*
X24822200Y762000D02*
G01*
X24822200Y1320800D01*
X24822200Y1320800D02*
G01*
X24746000Y1320800D01*
X24746000Y1320800D02*
G01*
X24746000Y1625600D01*
X24746000Y1625600D02*
G01*
X24822200Y1625600D01*
X24822200Y1625600D02*
G01*
X24822200Y2159000D01*
X24822200Y2159000D02*
G01*
X23374400Y2159000D01*
X25279400Y2159000D02*
G01*
X25279400Y1625600D01*
X25279400Y1625600D02*
G01*
X25355600Y1625600D01*
X25355600Y1625600D02*
G01*
X25355600Y1320800D01*
X25355600Y1320800D02*
G01*
X25279400Y1320800D01*
X25279400Y1320800D02*
G01*
X25279400Y762000D01*
X25279400Y762000D02*
G01*
X26727200Y762000D01*
X26727200Y762000D02*
G01*
X26727200Y1320800D01*
X26727200Y1320800D02*
G01*
X26651000Y1320800D01*
X26651000Y1320800D02*
G01*
X26651000Y1625600D01*
X26651000Y1625600D02*
G01*
X26727200Y1625600D01*
X26727200Y1625600D02*
G01*
X26727200Y2159000D01*
X26727200Y2159000D02*
G01*
X25279400Y2159000D01*

%LPD*%
M02*
