G04 Layer: TopSilkscreenLayer*
G04 EasyEDA v6.5.34, 2023-08-21 18:11:39*
G04 5f339448e5ce41b4b7b7b9c2d0f11448,5a6b42c53f6a479593ecc07194224c93,10*
G04 Gerber Generator version 0.2*
G04 Scale: 100 percent, Rotated: No, Reflected: No *
G04 Dimensions in millimeters *
G04 leading zeros omitted , absolute positions ,4 integer and 5 decimal *
%FSLAX45Y45*%
%MOMM*%

%ADD10C,0.1524*%

%LPD*%
G36*
X2339035Y10581589D02*
G01*
X2336800Y10579100D01*
X2334971Y10575899D01*
X2332380Y10566450D01*
X2330043Y10560862D01*
X2327097Y10555071D01*
X2324709Y10529976D01*
X2322525Y10527538D01*
X2321560Y10525861D01*
X2320493Y10523067D01*
X2316734Y10507675D01*
X2315514Y10504474D01*
X2313178Y10500309D01*
X2312111Y10497769D01*
X2310180Y10489285D01*
X2309317Y10486288D01*
X2308199Y10483443D01*
X2305710Y10478922D01*
X2303627Y10472877D01*
X2302510Y10466730D01*
X2301646Y10463885D01*
X2300528Y10461447D01*
X2298039Y10457738D01*
X2295956Y10453166D01*
X2294788Y10448696D01*
X2293874Y10446308D01*
X2292756Y10444124D01*
X2290368Y10440568D01*
X2289251Y10438282D01*
X2288336Y10435793D01*
X2287168Y10431018D01*
X2286355Y10428681D01*
X2285390Y10426649D01*
X2283206Y10423550D01*
X2280920Y10418521D01*
X2279192Y10412882D01*
X2277211Y10408158D01*
X2275382Y10405516D01*
X2273249Y10401300D01*
X2271369Y10396524D01*
X2269032Y10392105D01*
X2266950Y10389362D01*
X2265172Y10386263D01*
X2263952Y10383266D01*
X2261870Y10379659D01*
X2259431Y10376306D01*
X2258263Y10374223D01*
X2256282Y10368178D01*
X2254250Y10364368D01*
X2251760Y10361472D01*
X2250592Y10359745D01*
X2249678Y10357815D01*
X2248560Y10354259D01*
X2247696Y10352278D01*
X2246579Y10350398D01*
X2244140Y10347248D01*
X2241804Y10343184D01*
X2240229Y10339374D01*
X2238095Y10336123D01*
X2235962Y10334193D01*
X2234590Y10332313D01*
X2234082Y10330434D01*
X2231999Y10327335D01*
X2228951Y10323779D01*
X2227529Y10321747D01*
X2226462Y10319715D01*
X2225344Y10316362D01*
X2224430Y10314736D01*
X2223312Y10313314D01*
X2220874Y10311282D01*
X2219248Y10309301D01*
X2218639Y10307320D01*
X2216251Y10303510D01*
X2212746Y10299039D01*
X2210358Y10295128D01*
X2209698Y10292943D01*
X2207818Y10289997D01*
X2200452Y10281462D01*
X2186635Y10263479D01*
X2179066Y10254183D01*
X2168855Y10242702D01*
X2165451Y10238587D01*
X2162352Y10234015D01*
X2159914Y10229545D01*
X2158542Y10225786D01*
X2157577Y10221620D01*
X2168042Y10208768D01*
X2180539Y10208768D01*
X2184704Y10213035D01*
X2187752Y10215118D01*
X2191156Y10216692D01*
X2192426Y10218521D01*
X2195322Y10221010D01*
X2201011Y10224770D01*
X2204059Y10227056D01*
X2211933Y10234218D01*
X2215489Y10237114D01*
X2219807Y10239400D01*
X2222398Y10241534D01*
X2224328Y10244074D01*
X2226310Y10245750D01*
X2228138Y10246309D01*
X2231390Y10248392D01*
X2245664Y10261092D01*
X2254351Y10269169D01*
X2276144Y10290098D01*
X2279142Y10292638D01*
X2281275Y10293807D01*
X2282748Y10295432D01*
X2284222Y10297922D01*
X2285339Y10299242D01*
X2287879Y10301122D01*
X2289098Y10301782D01*
X2290064Y10302646D01*
X2290724Y10303560D01*
X2291283Y10305338D01*
X2293315Y10307777D01*
X2296312Y10310164D01*
X2298395Y10312450D01*
X2298954Y10314127D01*
X2300833Y10316718D01*
X2303983Y10319969D01*
X2308606Y10325303D01*
X2315565Y10333990D01*
X2322068Y10341051D01*
X2322830Y10342118D01*
X2323388Y10343591D01*
X2325471Y10346334D01*
X2331262Y10352481D01*
X2335885Y10358069D01*
X2338171Y10361980D01*
X2341016Y10365943D01*
X2344013Y10369651D01*
X2345944Y10372953D01*
X2346452Y10375036D01*
X2348077Y10377373D01*
X2350566Y10379710D01*
X2353056Y10383062D01*
X2355342Y10387533D01*
X2357170Y10389108D01*
X2359152Y10392105D01*
X2363012Y10399928D01*
X2366975Y10400741D01*
X2375357Y10401350D01*
X2388006Y10401503D01*
X2400147Y10401147D01*
X2404567Y10400792D01*
X2407005Y10400334D01*
X2408428Y10399572D01*
X2409545Y10398455D01*
X2410409Y10396982D01*
X2411476Y10393375D01*
X2413558Y10389717D01*
X2416149Y10386771D01*
X2417318Y10384790D01*
X2418283Y10382605D01*
X2419502Y10378338D01*
X2420366Y10376052D01*
X2423871Y10370210D01*
X2425039Y10367467D01*
X2426106Y10364216D01*
X2427630Y10357408D01*
X2429764Y10351262D01*
X2430830Y10349230D01*
X2433421Y10345623D01*
X2434844Y10329672D01*
X2435707Y10324846D01*
X2436825Y10320426D01*
X2438095Y10316718D01*
X2440990Y10309656D01*
X2442616Y10281615D01*
X2446985Y10272064D01*
X2449068Y10265613D01*
X2450287Y10260380D01*
X2451201Y10258094D01*
X2452319Y10256164D01*
X2455875Y10252303D01*
X2456535Y10251186D01*
X2456992Y10249560D01*
X2458516Y10247884D01*
X2461056Y10246360D01*
X2464409Y10243870D01*
X2469438Y10239298D01*
X2486050Y10238435D01*
X2496820Y10238587D01*
X2509824Y10239857D01*
X2513888Y10244124D01*
X2516225Y10245750D01*
X2517038Y10246004D01*
X2520188Y10247985D01*
X2524963Y10252456D01*
X2529382Y10257332D01*
X2531313Y10260533D01*
X2532075Y10262666D01*
X2536291Y10268915D01*
X2537663Y10274147D01*
X2538272Y10283190D01*
X2538374Y10321442D01*
X2533599Y10328757D01*
X2532329Y10331348D01*
X2531364Y10333939D01*
X2530195Y10338206D01*
X2529281Y10340441D01*
X2526792Y10344251D01*
X2524556Y10347147D01*
X2523845Y10348417D01*
X2523236Y10350398D01*
X2520848Y10353802D01*
X2517343Y10357815D01*
X2514955Y10361320D01*
X2514346Y10363301D01*
X2513685Y10364165D01*
X2509113Y10367314D01*
X2508453Y10368229D01*
X2507894Y10369854D01*
X2507081Y10370921D01*
X2502814Y10374020D01*
X2500071Y10376763D01*
X2498648Y10379202D01*
X2497124Y10380726D01*
X2495448Y10381335D01*
X2492197Y10383723D01*
X2485136Y10390530D01*
X2481580Y10393629D01*
X2478684Y10395559D01*
X2474264Y10397591D01*
X2472740Y10398506D01*
X2472537Y10398861D01*
X2472740Y10399217D01*
X2474823Y10399776D01*
X2479446Y10400233D01*
X2498547Y10400842D01*
X2653284Y10402265D01*
X2677109Y10402722D01*
X2679750Y10403433D01*
X2680208Y10399776D01*
X2680208Y10398048D01*
X2679801Y10396321D01*
X2679090Y10394746D01*
X2676804Y10391800D01*
X2674315Y10387228D01*
X2672384Y10382402D01*
X2669997Y10377982D01*
X2667863Y10375188D01*
X2666085Y10371734D01*
X2664866Y10368229D01*
X2662428Y10363911D01*
X2658364Y10358272D01*
X2657551Y10356545D01*
X2657094Y10354208D01*
X2655722Y10351922D01*
X2653588Y10349941D01*
X2651099Y10346334D01*
X2649016Y10342016D01*
X2646273Y10337393D01*
X2643733Y10334040D01*
X2642108Y10331399D01*
X2641549Y10329722D01*
X2639466Y10326674D01*
X2636469Y10322966D01*
X2635250Y10321036D01*
X2634437Y10319308D01*
X2633878Y10316819D01*
X2632151Y10314381D01*
X2629662Y10312400D01*
X2627985Y10310317D01*
X2627426Y10308437D01*
X2625344Y10305338D01*
X2622346Y10301986D01*
X2620314Y10299242D01*
X2619654Y10297718D01*
X2617368Y10294569D01*
X2613914Y10290505D01*
X2611120Y10286390D01*
X2609951Y10283748D01*
X2609240Y10282834D01*
X2608427Y10282224D01*
X2606802Y10281716D01*
X2605887Y10280904D01*
X2605074Y10279684D01*
X2603652Y10276636D01*
X2602636Y10275011D01*
X2601417Y10273588D01*
X2598928Y10271353D01*
X2597658Y10269575D01*
X2596540Y10267391D01*
X2595676Y10265054D01*
X2594152Y10259517D01*
X2595422Y10253878D01*
X2596743Y10249509D01*
X2598877Y10247122D01*
X2602839Y10246258D01*
X2609545Y10246309D01*
X2618994Y10246715D01*
X2623007Y10251592D01*
X2625293Y10253472D01*
X2626918Y10254030D01*
X2629204Y10256012D01*
X2631744Y10259009D01*
X2633268Y10260380D01*
X2634843Y10261396D01*
X2637434Y10262412D01*
X2639060Y10263479D01*
X2639720Y10264749D01*
X2642616Y10267238D01*
X2648559Y10271150D01*
X2651810Y10273639D01*
X2659938Y10281310D01*
X2663647Y10284510D01*
X2665120Y10285476D01*
X2666796Y10286085D01*
X2668320Y10287711D01*
X2669794Y10290251D01*
X2672130Y10292588D01*
X2674569Y10294061D01*
X2676550Y10296093D01*
X2677668Y10298226D01*
X2679700Y10300258D01*
X2682240Y10301782D01*
X2684322Y10303916D01*
X2685338Y10306100D01*
X2686659Y10307472D01*
X2688285Y10308031D01*
X2691231Y10310266D01*
X2699359Y10318445D01*
X2716174Y10336733D01*
X2736951Y10360863D01*
X2739186Y10364216D01*
X2739796Y10365943D01*
X2741472Y10367924D01*
X2744012Y10369854D01*
X2746146Y10372445D01*
X2747314Y10374985D01*
X2749600Y10378236D01*
X2754122Y10383316D01*
X2757627Y10387838D01*
X2760776Y10392511D01*
X2763113Y10396474D01*
X2765196Y10399014D01*
X2769362Y10400487D01*
X2777388Y10401147D01*
X2811119Y10401503D01*
X2816809Y10395915D01*
X2819958Y10391902D01*
X2821940Y10388650D01*
X2823921Y10386263D01*
X2825546Y10385145D01*
X2827020Y10382859D01*
X2828036Y10379760D01*
X2829915Y10376357D01*
X2832100Y10373410D01*
X2834386Y10368381D01*
X2836164Y10362692D01*
X2837230Y10359948D01*
X2838399Y10357662D01*
X2840634Y10354259D01*
X2841650Y10351516D01*
X2842564Y10348010D01*
X2844038Y10340086D01*
X2844901Y10336580D01*
X2845866Y10333837D01*
X2847746Y10330484D01*
X2849676Y10323830D01*
X2851353Y10315041D01*
X2852420Y10311180D01*
X2853588Y10308082D01*
X2855976Y10304272D01*
X2857906Y10300360D01*
X2859024Y10296956D01*
X2859938Y10295280D01*
X2861106Y10293807D01*
X2864561Y10290759D01*
X2865221Y10289692D01*
X2865780Y10287965D01*
X2866593Y10287050D01*
X2869336Y10285476D01*
X2872079Y10284206D01*
X2872994Y10283139D01*
X2872181Y10282224D01*
X2867863Y10280853D01*
X2864358Y10279024D01*
X2861411Y10276738D01*
X2856687Y10274350D01*
X2851658Y10272572D01*
X2847136Y10270337D01*
X2844139Y10268254D01*
X2842107Y10267289D01*
X2839770Y10266476D01*
X2834995Y10265359D01*
X2832658Y10264495D01*
X2830626Y10263479D01*
X2827680Y10261295D01*
X2825597Y10260177D01*
X2823159Y10259263D01*
X2818028Y10257993D01*
X2812491Y10255758D01*
X2808122Y10253218D01*
X2802940Y10251135D01*
X2798216Y10249966D01*
X2793085Y10247934D01*
X2788666Y10245496D01*
X2785872Y10244328D01*
X2782874Y10243413D01*
X2777185Y10242245D01*
X2774137Y10241330D01*
X2771343Y10240213D01*
X2766822Y10237774D01*
X2764028Y10236606D01*
X2761030Y10235692D01*
X2755239Y10234574D01*
X2749092Y10232542D01*
X2744012Y10230104D01*
X2740710Y10228986D01*
X2737154Y10228072D01*
X2730195Y10226954D01*
X2726893Y10226090D01*
X2723946Y10224922D01*
X2719070Y10222230D01*
X2716072Y10221112D01*
X2712618Y10220299D01*
X2704947Y10219182D01*
X2701086Y10218267D01*
X2697480Y10217150D01*
X2691536Y10214660D01*
X2687878Y10213543D01*
X2679750Y10212070D01*
X2675585Y10211511D01*
X2671775Y10210647D01*
X2668422Y10209530D01*
X2662834Y10206888D01*
X2659532Y10205821D01*
X2655773Y10205008D01*
X2647594Y10203891D01*
X2643428Y10203027D01*
X2639466Y10201808D01*
X2633014Y10199166D01*
X2627071Y10197439D01*
X2618536Y10196728D01*
X2611983Y10195661D01*
X2606446Y10194188D01*
X2603144Y10192562D01*
X2600807Y10190429D01*
X2575661Y10188041D01*
X2562809Y10181945D01*
X2539644Y10180320D01*
X2532989Y10177170D01*
X2529941Y10175951D01*
X2526639Y10174935D01*
X2523490Y10174274D01*
X2513228Y10173563D01*
X2505354Y10172496D01*
X2498293Y10170922D01*
X2493162Y10169042D01*
X2488234Y10166604D01*
X2470353Y10165334D01*
X2460752Y10163810D01*
X2457653Y10162997D01*
X2451557Y10160914D01*
X2445613Y10159492D01*
X2438349Y10158425D01*
X2421737Y10156850D01*
X2415997Y10155986D01*
X2411374Y10154920D01*
X2407920Y10153751D01*
X2402128Y10151211D01*
X2377897Y10149738D01*
X2370836Y10148824D01*
X2364689Y10147452D01*
X2357780Y10145268D01*
X2354275Y10144404D01*
X2342642Y10142778D01*
X2319883Y10141204D01*
X2315362Y10138867D01*
X2312720Y10137902D01*
X2308860Y10136936D01*
X2304186Y10136073D01*
X2287778Y10134346D01*
X2280666Y10126472D01*
X2280666Y10120630D01*
X2281021Y10115854D01*
X2282088Y10112502D01*
X2284120Y10110216D01*
X2287270Y10108641D01*
X2289708Y10108133D01*
X2299004Y10107523D01*
X2312771Y10107320D01*
X2329383Y10107472D01*
X2347214Y10108031D01*
X2364587Y10108844D01*
X2379827Y10109860D01*
X2391257Y10111130D01*
X2397607Y10112248D01*
X2405634Y10113111D01*
X2417419Y10113924D01*
X2472385Y10116362D01*
X2479040Y10116870D01*
X2484577Y10117531D01*
X2494178Y10119410D01*
X2499156Y10120731D01*
X2507183Y10122052D01*
X2512009Y10122509D01*
X2523337Y10122763D01*
X2537917Y10123525D01*
X2551684Y10124897D01*
X2561742Y10126472D01*
X2567127Y10128097D01*
X2574544Y10129570D01*
X2587904Y10130739D01*
X2587244Y10012781D01*
X2537104Y10009835D01*
X2525522Y10005517D01*
X2492654Y10003790D01*
X2480259Y10002875D01*
X2470353Y10001554D01*
X2454859Y9998252D01*
X2444800Y9997084D01*
X2409952Y9995001D01*
X2402586Y9994188D01*
X2397658Y9993376D01*
X2387803Y9991242D01*
X2378303Y9989820D01*
X2366873Y9988753D01*
X2327351Y9986619D01*
X2317292Y9982047D01*
X2230932Y9980625D01*
X2229002Y9978999D01*
X2226564Y9974884D01*
X2225954Y9969042D01*
X2227072Y9962845D01*
X2229916Y9957663D01*
X2231136Y9955834D01*
X2232253Y9953498D01*
X2233168Y9950907D01*
X2234285Y9945674D01*
X2235149Y9943338D01*
X2236317Y9941356D01*
X2238908Y9938664D01*
X2240584Y9936327D01*
X2241092Y9934651D01*
X2242769Y9932670D01*
X2247087Y9929672D01*
X2253284Y9930536D01*
X2259177Y9932009D01*
X2262124Y9933127D01*
X2269744Y9937242D01*
X2286355Y9938715D01*
X2291588Y9939528D01*
X2299970Y9941560D01*
X2307031Y9944100D01*
X2352954Y9946894D01*
X2362657Y9947960D01*
X2368905Y9949230D01*
X2375052Y9950856D01*
X2381250Y9951669D01*
X2389530Y9952431D01*
X2424582Y9954514D01*
X2434234Y9955580D01*
X2440381Y9956952D01*
X2447137Y9959695D01*
X2481681Y9961372D01*
X2494584Y9962286D01*
X2504744Y9963556D01*
X2514701Y9965537D01*
X2520391Y9966909D01*
X2524150Y9967468D01*
X2538882Y9968534D01*
X2557373Y9969449D01*
X2573629Y9970770D01*
X2578506Y9971481D01*
X2586482Y9973106D01*
X2587193Y9971278D01*
X2587650Y9956800D01*
X2587853Y9924491D01*
X2587701Y9877348D01*
X2587294Y9848799D01*
X2586888Y9840518D01*
X2583992Y9838334D01*
X2578557Y9836708D01*
X2569819Y9835540D01*
X2532583Y9833203D01*
X2522931Y9832136D01*
X2516835Y9830816D01*
X2514600Y9830003D01*
X2511298Y9829139D01*
X2505811Y9828276D01*
X2498293Y9827564D01*
X2464054Y9825431D01*
X2454402Y9824262D01*
X2450744Y9823602D01*
X2440838Y9820706D01*
X2436672Y9819944D01*
X2431999Y9819487D01*
X2419908Y9819182D01*
X2405430Y9818420D01*
X2392324Y9817150D01*
X2382774Y9815576D01*
X2380030Y9814763D01*
X2375154Y9812629D01*
X2342083Y9811004D01*
X2329230Y9809988D01*
X2319020Y9808616D01*
X2309520Y9806635D01*
X2304440Y9805314D01*
X2298750Y9804704D01*
X2270201Y9803536D01*
X2200351Y9802266D01*
X2197709Y9799980D01*
X2195779Y9796932D01*
X2193188Y9790938D01*
X2195525Y9779762D01*
X2196642Y9776561D01*
X2197963Y9773818D01*
X2200452Y9770262D01*
X2202027Y9767417D01*
X2202789Y9762540D01*
X2204110Y9758832D01*
X2205939Y9755835D01*
X2208123Y9754006D01*
X2215946Y9752584D01*
X2226716Y9752838D01*
X2237079Y9754514D01*
X2243632Y9757206D01*
X2245969Y9759289D01*
X2286762Y9762540D01*
X2295448Y9767112D01*
X2329129Y9768636D01*
X2341575Y9769500D01*
X2351430Y9770821D01*
X2366772Y9774377D01*
X2373071Y9775240D01*
X2395728Y9776104D01*
X2410256Y9777222D01*
X2422601Y9778746D01*
X2427020Y9779609D01*
X2433167Y9781336D01*
X2438755Y9782149D01*
X2446629Y9782860D01*
X2481275Y9784892D01*
X2490825Y9785959D01*
X2496921Y9787280D01*
X2499156Y9788144D01*
X2502509Y9789007D01*
X2508097Y9789820D01*
X2525522Y9791141D01*
X2543708Y9792157D01*
X2555900Y9793173D01*
X2563622Y9794290D01*
X2566365Y9794951D01*
X2570835Y9796526D01*
X2577185Y9797897D01*
X2587853Y9799167D01*
X2588107Y9683546D01*
X2588463Y9665106D01*
X2589123Y9653320D01*
X2589580Y9649307D01*
X2590190Y9646310D01*
X2590901Y9644024D01*
X2591765Y9642246D01*
X2593898Y9639046D01*
X2595372Y9635744D01*
X2595930Y9633051D01*
X2598267Y9628936D01*
X2601772Y9624415D01*
X2604516Y9620453D01*
X2605176Y9619132D01*
X2606751Y9617100D01*
X2610205Y9614306D01*
X2615285Y9610852D01*
X2623312Y9606026D01*
X2629712Y9601250D01*
X2631846Y9600234D01*
X2634284Y9599371D01*
X2639364Y9598253D01*
X2645156Y9596221D01*
X2652776Y9592056D01*
X2671927Y9590125D01*
X2681833Y9588246D01*
X2684881Y9587280D01*
X2690063Y9585096D01*
X2726791Y9583470D01*
X2770276Y9582353D01*
X2851912Y9581591D01*
X2946755Y9581946D01*
X3000349Y9582759D01*
X3044850Y9584029D01*
X3075787Y9585198D01*
X3080867Y9587331D01*
X3084118Y9588296D01*
X3089097Y9589262D01*
X3095345Y9590074D01*
X3113532Y9591598D01*
X3120186Y9592462D01*
X3123996Y9593580D01*
X3127908Y9596018D01*
X3133039Y9597694D01*
X3139440Y9599168D01*
X3142843Y9600234D01*
X3145891Y9601504D01*
X3150260Y9604044D01*
X3154578Y9606127D01*
X3157880Y9607245D01*
X3160979Y9609175D01*
X3163214Y9611512D01*
X3165754Y9613696D01*
X3167989Y9615220D01*
X3170021Y9617405D01*
X3171393Y9619691D01*
X3172358Y9620859D01*
X3176016Y9623450D01*
X3177133Y9625025D01*
X3178149Y9627209D01*
X3179775Y9632594D01*
X3181756Y9637166D01*
X3182721Y9638588D01*
X3184855Y9640976D01*
X3184855Y9663277D01*
X3180943Y9668510D01*
X3178962Y9672472D01*
X3177844Y9675926D01*
X3177032Y9677349D01*
X3175914Y9678517D01*
X3173425Y9679889D01*
X3170732Y9682276D01*
X3167481Y9686950D01*
X3160166Y9688271D01*
X3156610Y9689795D01*
X3152190Y9693910D01*
X3147618Y9696907D01*
X3143097Y9713722D01*
X3143199Y9738918D01*
X3144012Y9763201D01*
X3146145Y9804908D01*
X3135122Y9818370D01*
X3130600Y9817608D01*
X3126841Y9816541D01*
X3123844Y9814712D01*
X3121558Y9811969D01*
X3119272Y9806584D01*
X3118002Y9804247D01*
X3116173Y9802876D01*
X3114852Y9800031D01*
X3113684Y9795865D01*
X3112262Y9787788D01*
X3111347Y9784638D01*
X3110179Y9781794D01*
X3107690Y9777171D01*
X3106521Y9774377D01*
X3105607Y9771380D01*
X3104489Y9765690D01*
X3103626Y9762693D01*
X3102457Y9759899D01*
X3100019Y9755479D01*
X3098850Y9752888D01*
X3097936Y9750196D01*
X3096869Y9745370D01*
X3095091Y9740950D01*
X3092958Y9737801D01*
X3090621Y9732772D01*
X3088741Y9727184D01*
X3087624Y9724593D01*
X3086404Y9722459D01*
X3084271Y9719919D01*
X3082544Y9716820D01*
X3081477Y9713569D01*
X3080410Y9711486D01*
X3074822Y9704070D01*
X3072028Y9699345D01*
X3067913Y9695180D01*
X3062732Y9690658D01*
X3056026Y9685883D01*
X3053486Y9683699D01*
X3052572Y9682429D01*
X3048609Y9680702D01*
X3042716Y9678822D01*
X3037738Y9676841D01*
X3033826Y9674453D01*
X3029051Y9673386D01*
X3020110Y9672472D01*
X2989376Y9670389D01*
X2969971Y9668510D01*
X2950972Y9665970D01*
X2772308Y9665766D01*
X2752648Y9668306D01*
X2713431Y9672472D01*
X2706166Y9673437D01*
X2701645Y9674352D01*
X2699969Y9675215D01*
X2699410Y9675977D01*
X2696616Y9678111D01*
X2692704Y9680295D01*
X2688844Y9683089D01*
X2684881Y9687255D01*
X2684119Y9805416D01*
X2685643Y9807244D01*
X2686507Y9807956D01*
X2689301Y9808921D01*
X2692704Y9809226D01*
X2697276Y9810343D01*
X2704185Y9813188D01*
X2735630Y9814814D01*
X2749143Y9815779D01*
X2759506Y9817049D01*
X2768142Y9818725D01*
X2772308Y9819792D01*
X2776524Y9820554D01*
X2791612Y9821926D01*
X2807512Y9822738D01*
X2818841Y9823551D01*
X2828290Y9824821D01*
X2845765Y9828733D01*
X2853690Y9829495D01*
X2864713Y9829749D01*
X2879293Y9830562D01*
X2893161Y9832035D01*
X2904236Y9833813D01*
X2912008Y9835845D01*
X2916428Y9836658D01*
X2921101Y9837166D01*
X2933141Y9837521D01*
X2948228Y9838283D01*
X2961792Y9839553D01*
X2967278Y9840264D01*
X2971546Y9841077D01*
X2974289Y9841890D01*
X2979216Y9844024D01*
X3010814Y9845598D01*
X3025343Y9846564D01*
X3034690Y9847630D01*
X3040583Y9848951D01*
X3046171Y9850678D01*
X3051657Y9851491D01*
X3059328Y9852202D01*
X3093262Y9854285D01*
X3102965Y9855352D01*
X3110534Y9856927D01*
X3118967Y9859060D01*
X3124047Y9859873D01*
X3129534Y9860330D01*
X3146094Y9860889D01*
X3153918Y9861804D01*
X3159455Y9863429D01*
X3163468Y9865918D01*
X3166770Y9868408D01*
X3169107Y9869779D01*
X3170732Y9870338D01*
X3170732Y9888677D01*
X3161436Y9897872D01*
X3155442Y9902494D01*
X3151174Y9904780D01*
X3149650Y9905796D01*
X3148634Y9906812D01*
X3147974Y9908438D01*
X3147263Y9909251D01*
X3141167Y9912705D01*
X3135223Y9917277D01*
X3131820Y9919309D01*
X3129584Y9919868D01*
X3126130Y9921951D01*
X3122472Y9924948D01*
X3119374Y9926980D01*
X3117697Y9927539D01*
X3115360Y9929215D01*
X3112719Y9931755D01*
X3109214Y9933889D01*
X3105912Y9935057D01*
X3102406Y9937089D01*
X3099460Y9939629D01*
X3095142Y9941966D01*
X3090824Y9943439D01*
X3087674Y9945116D01*
X3087014Y9945928D01*
X3083052Y9948570D01*
X3075076Y9950500D01*
X3065526Y9951313D01*
X3056991Y9950602D01*
X3051200Y9949332D01*
X3040126Y9937038D01*
X3035808Y9931603D01*
X3034893Y9929622D01*
X3033166Y9927691D01*
X3030677Y9925812D01*
X3028950Y9923729D01*
X3028340Y9921798D01*
X3025952Y9917938D01*
X3022447Y9913518D01*
X3020060Y9909759D01*
X3019399Y9907778D01*
X3017367Y9904780D01*
X3014370Y9901377D01*
X3012287Y9898481D01*
X3011678Y9896703D01*
X3009341Y9893706D01*
X3003245Y9887864D01*
X2987700Y9886543D01*
X2977642Y9884714D01*
X2969463Y9882479D01*
X2964942Y9881666D01*
X2960116Y9881209D01*
X2948584Y9880904D01*
X2935173Y9880142D01*
X2922676Y9878822D01*
X2913430Y9877247D01*
X2910738Y9876383D01*
X2905963Y9874351D01*
X2875127Y9872726D01*
X2861665Y9871811D01*
X2852978Y9870795D01*
X2847238Y9869424D01*
X2841599Y9867646D01*
X2836062Y9866833D01*
X2828544Y9866122D01*
X2795270Y9864039D01*
X2786126Y9863023D01*
X2782874Y9862413D01*
X2774746Y9859975D01*
X2769108Y9859111D01*
X2736088Y9856825D01*
X2725267Y9855809D01*
X2716580Y9854336D01*
X2704033Y9851390D01*
X2699918Y9850780D01*
X2692349Y9850424D01*
X2684881Y9850831D01*
X2684526Y9925151D01*
X2684678Y9968484D01*
X2685237Y9982758D01*
X2686964Y9983266D01*
X2696514Y9984486D01*
X2710383Y9985705D01*
X2716784Y9986568D01*
X2721813Y9987483D01*
X2725013Y9988397D01*
X2729890Y9990480D01*
X2764434Y9992410D01*
X2781909Y9994087D01*
X2801670Y9997795D01*
X2811678Y9999014D01*
X2824530Y9999929D01*
X2855823Y10001554D01*
X2866136Y10005974D01*
X2898292Y10007600D01*
X2910789Y10008616D01*
X2920847Y10009936D01*
X2938322Y10013797D01*
X2946247Y10014559D01*
X2957068Y10014762D01*
X2971495Y10015626D01*
X2985008Y10016947D01*
X2994964Y10018572D01*
X2997708Y10019385D01*
X3002381Y10021366D01*
X3033725Y10022992D01*
X3046730Y10023957D01*
X3056636Y10025227D01*
X3065322Y10027005D01*
X3073349Y10028936D01*
X3082594Y10029952D01*
X3096056Y10030460D01*
X3102508Y10031526D01*
X3107385Y10033558D01*
X3111500Y10036810D01*
X3116122Y10041280D01*
X3116122Y10054742D01*
X3109518Y10062616D01*
X3107639Y10064445D01*
X3106064Y10065664D01*
X3104184Y10066324D01*
X3102457Y10068052D01*
X3101035Y10070541D01*
X3099308Y10072268D01*
X3097580Y10072776D01*
X3095142Y10074351D01*
X3092450Y10076891D01*
X3088538Y10079736D01*
X3084525Y10082022D01*
X3080207Y10084816D01*
X3076854Y10087356D01*
X3073958Y10088981D01*
X3072231Y10089438D01*
X3070555Y10090708D01*
X3068929Y10092842D01*
X3065119Y10095331D01*
X3060344Y10097414D01*
X3058210Y10098633D01*
X3056585Y10099852D01*
X3054908Y10101834D01*
X3053689Y10102748D01*
X3052267Y10103459D01*
X3049066Y10104526D01*
X3045561Y10106609D01*
X3042716Y10109149D01*
X3040938Y10110317D01*
X3039008Y10111232D01*
X3035452Y10112400D01*
X3033522Y10113264D01*
X3027121Y10117683D01*
X3022701Y10119156D01*
X3017520Y10119969D01*
X3012135Y10120172D01*
X3006902Y10119766D01*
X3002381Y10118750D01*
X2998978Y10117124D01*
X2996692Y10113975D01*
X2994710Y10112044D01*
X2992221Y10110622D01*
X2990138Y10108488D01*
X2989021Y10106253D01*
X2986887Y10103815D01*
X2984398Y10101884D01*
X2982671Y10099802D01*
X2982112Y10097820D01*
X2979674Y10094010D01*
X2976219Y10089591D01*
X2973781Y10085933D01*
X2973222Y10084206D01*
X2971850Y10082072D01*
X2967837Y10077500D01*
X2964738Y10073284D01*
X2961792Y10068661D01*
X2956712Y10058603D01*
X2940405Y10055860D01*
X2934563Y10054386D01*
X2932328Y10053574D01*
X2928823Y10052659D01*
X2922828Y10051846D01*
X2883712Y10049002D01*
X2875788Y10048138D01*
X2870606Y10047274D01*
X2860852Y10045242D01*
X2851454Y10043820D01*
X2840380Y10042753D01*
X2802788Y10040569D01*
X2792882Y10036251D01*
X2761183Y10034676D01*
X2746959Y10033558D01*
X2736443Y10032238D01*
X2732532Y10031526D01*
X2729585Y10030714D01*
X2727452Y10029850D01*
X2725013Y10029291D01*
X2713888Y10028072D01*
X2699562Y10027158D01*
X2688386Y10026954D01*
X2685897Y10027208D01*
X2684272Y10027818D01*
X2684272Y10144556D01*
X2685846Y10145166D01*
X2690215Y10145928D01*
X2703118Y10147604D01*
X2712008Y10149586D01*
X2718460Y10151821D01*
X2722778Y10152735D01*
X2728010Y10153497D01*
X2747365Y10154767D01*
X2754680Y10157866D01*
X2758541Y10159187D01*
X2763012Y10160355D01*
X2767990Y10161219D01*
X2778302Y10162336D01*
X2782773Y10163149D01*
X2786481Y10164114D01*
X2792171Y10166400D01*
X2796133Y10167416D01*
X2800959Y10168331D01*
X2811830Y10169753D01*
X2816707Y10170668D01*
X2820720Y10171734D01*
X2826664Y10174122D01*
X2835757Y10176408D01*
X2846019Y10178084D01*
X2850235Y10178999D01*
X2853334Y10180015D01*
X2856788Y10182047D01*
X2859481Y10182961D01*
X2862935Y10183774D01*
X2874619Y10185450D01*
X2879648Y10186416D01*
X2882798Y10187533D01*
X2886456Y10189819D01*
X2892247Y10191546D01*
X2899613Y10192918D01*
X2903169Y10193883D01*
X2906217Y10195001D01*
X2910484Y10197236D01*
X2913532Y10198354D01*
X2917139Y10199268D01*
X2925318Y10200640D01*
X2928975Y10201554D01*
X2931972Y10202672D01*
X2934258Y10203942D01*
X2938119Y10206736D01*
X2953512Y10207701D01*
X2961182Y10205008D01*
X2965094Y10203840D01*
X2969209Y10203027D01*
X2973527Y10202519D01*
X2977896Y10202316D01*
X2986938Y10202316D01*
X2992475Y10205872D01*
X2995828Y10207244D01*
X2998317Y10207802D01*
X2999994Y10208717D01*
X3003804Y10211816D01*
X3008172Y10216184D01*
X3008172Y10229443D01*
X3003702Y10233660D01*
X3001975Y10236047D01*
X3001721Y10236809D01*
X2999841Y10239857D01*
X2995523Y10244683D01*
X2990900Y10249204D01*
X2987954Y10251135D01*
X2987294Y10251338D01*
X2986074Y10252710D01*
X2985109Y10254843D01*
X2983179Y10257028D01*
X2980690Y10258602D01*
X2977489Y10261092D01*
X2971342Y10266578D01*
X2966516Y10270439D01*
X2962351Y10273233D01*
X2958998Y10274554D01*
X2956966Y10276179D01*
X2954934Y10278719D01*
X2953512Y10279989D01*
X2951835Y10281107D01*
X2948787Y10282428D01*
X2946755Y10283850D01*
X2945942Y10285272D01*
X2942640Y10287660D01*
X2940202Y10288981D01*
X2935071Y10292486D01*
X2932430Y10296448D01*
X2932379Y10300817D01*
X2937306Y10310266D01*
X2938983Y10317073D01*
X2939745Y10325455D01*
X2939542Y10334853D01*
X2938780Y10345978D01*
X2932125Y10358780D01*
X2930144Y10361980D01*
X2928366Y10364368D01*
X2926080Y10366248D01*
X2924810Y10367924D01*
X2924606Y10368737D01*
X2922879Y10371734D01*
X2918917Y10376255D01*
X2914599Y10380421D01*
X2909874Y10383266D01*
X2901950Y10390022D01*
X2896768Y10393832D01*
X2892348Y10396626D01*
X2888132Y10397998D01*
X2886862Y10398810D01*
X2886100Y10399776D01*
X2886303Y10400538D01*
X2976524Y10401300D01*
X3149092Y10402163D01*
X3154781Y10406024D01*
X3160776Y10412120D01*
X3163468Y10419486D01*
X3162808Y10427157D01*
X3158591Y10434116D01*
X3146247Y10446664D01*
X3137763Y10454640D01*
X3126384Y10463784D01*
X3122828Y10466222D01*
X3120186Y10467390D01*
X3117342Y10469473D01*
X3106978Y10479278D01*
X3104489Y10480954D01*
X3102660Y10481564D01*
X3099054Y10483951D01*
X3094634Y10487456D01*
X3090875Y10489844D01*
X3088995Y10490454D01*
X3088030Y10491063D01*
X3084982Y10494467D01*
X3083153Y10495737D01*
X3080969Y10496905D01*
X3076295Y10498582D01*
X3072028Y10500614D01*
X3069285Y10502442D01*
X3067456Y10503103D01*
X3065221Y10503458D01*
X3057194Y10503458D01*
X3051403Y10498734D01*
X3048254Y10496905D01*
X3046374Y10496346D01*
X3045460Y10495686D01*
X3044596Y10494670D01*
X3043224Y10492181D01*
X3041751Y10490454D01*
X3041091Y10490200D01*
X3038297Y10488218D01*
X3033674Y10483799D01*
X3029356Y10479074D01*
X3027172Y10475722D01*
X3025444Y10474350D01*
X3022955Y10473029D01*
X3021279Y10471454D01*
X3020669Y10469778D01*
X3018434Y10466832D01*
X3007969Y10455757D01*
X2996234Y10442600D01*
X2850743Y10443159D01*
X2813964Y10443616D01*
X2803804Y10444022D01*
X2797962Y10444632D01*
X2796387Y10444988D01*
X2795524Y10445394D01*
X2795320Y10445851D01*
X2795625Y10446410D01*
X2797352Y10448086D01*
X2799689Y10451947D01*
X2801772Y10456621D01*
X2804160Y10460532D01*
X2806141Y10462514D01*
X2807055Y10463885D01*
X2809798Y10470896D01*
X2810916Y10472877D01*
X2813405Y10476280D01*
X2815539Y10480192D01*
X2816758Y10483697D01*
X2819146Y10487914D01*
X2822041Y10491571D01*
X2824378Y10495178D01*
X2824937Y10496499D01*
X2826054Y10498226D01*
X2828696Y10499394D01*
X2833928Y10500207D01*
X2851454Y10501680D01*
X2859786Y10507065D01*
X2865221Y10510926D01*
X2868269Y10514533D01*
X2869641Y10519054D01*
X2869996Y10532414D01*
X2861360Y10540593D01*
X2857296Y10543692D01*
X2855417Y10544403D01*
X2853131Y10545775D01*
X2850286Y10547959D01*
X2848000Y10549178D01*
X2836976Y10553192D01*
X2834487Y10554360D01*
X2830830Y10556646D01*
X2828239Y10557662D01*
X2825242Y10558475D01*
X2818739Y10559542D01*
X2815488Y10560456D01*
X2812592Y10561574D01*
X2807665Y10564215D01*
X2804414Y10565434D01*
X2800553Y10566400D01*
X2792425Y10567720D01*
X2786989Y10569041D01*
X2785922Y10569600D01*
X2784094Y10571327D01*
X2780995Y10572699D01*
X2776728Y10573766D01*
X2767787Y10574985D01*
X2764536Y10575747D01*
X2761792Y10576712D01*
X2759710Y10577779D01*
X2756154Y10580319D01*
X2745333Y10574324D01*
X2743758Y10569854D01*
X2742692Y10564774D01*
X2742184Y10558830D01*
X2742082Y10552226D01*
X2736646Y10545318D01*
X2734259Y10528960D01*
X2733294Y10524744D01*
X2732125Y10521442D01*
X2729687Y10516971D01*
X2728518Y10514177D01*
X2727502Y10510977D01*
X2726080Y10504627D01*
X2723997Y10498886D01*
X2721813Y10495280D01*
X2720797Y10492892D01*
X2719984Y10490200D01*
X2718917Y10484764D01*
X2718003Y10481868D01*
X2716834Y10479227D01*
X2714345Y10475061D01*
X2712313Y10469626D01*
X2711196Y10464088D01*
X2710383Y10461650D01*
X2709265Y10459567D01*
X2706624Y10456418D01*
X2705506Y10454386D01*
X2704642Y10452049D01*
X2703525Y10447172D01*
X2702661Y10444683D01*
X2701544Y10442498D01*
X2699105Y10439146D01*
X2697937Y10436961D01*
X2697022Y10434523D01*
X2694940Y10425582D01*
X2693212Y10425379D01*
X2690469Y10427004D01*
X2687624Y10429798D01*
X2683764Y10436047D01*
X2679852Y10440670D01*
X2668524Y10452100D01*
X2662428Y10457738D01*
X2656840Y10462514D01*
X2652471Y10465816D01*
X2649118Y10467289D01*
X2647594Y10469016D01*
X2646273Y10471556D01*
X2645206Y10472724D01*
X2643936Y10473639D01*
X2641295Y10474706D01*
X2640126Y10475417D01*
X2639212Y10476331D01*
X2638044Y10478262D01*
X2636875Y10479430D01*
X2635300Y10480598D01*
X2631744Y10482529D01*
X2629357Y10484408D01*
X2628493Y10485831D01*
X2627223Y10486847D01*
X2617673Y10491774D01*
X2612034Y10495280D01*
X2609900Y10495991D01*
X2607462Y10496448D01*
X2598724Y10496600D01*
X2591663Y10492181D01*
X2585618Y10487660D01*
X2578049Y10480903D01*
X2570022Y10472978D01*
X2562555Y10464800D01*
X2552903Y10453217D01*
X2547924Y10446207D01*
X2547061Y10445394D01*
X2545689Y10444734D01*
X2543505Y10444226D01*
X2535885Y10443464D01*
X2522067Y10443057D01*
X2467610Y10442752D01*
X2394305Y10442651D01*
X2392883Y10444073D01*
X2392121Y10446258D01*
X2392629Y10449458D01*
X2394102Y10452658D01*
X2397302Y10456113D01*
X2398318Y10457688D01*
X2399131Y10459516D01*
X2400249Y10463479D01*
X2402281Y10467797D01*
X2404821Y10471353D01*
X2406040Y10473690D01*
X2409088Y10482834D01*
X2409799Y10484205D01*
X2411222Y10485424D01*
X2413304Y10488320D01*
X2415540Y10492282D01*
X2416810Y10493857D01*
X2417978Y10494924D01*
X2422550Y10496550D01*
X2425700Y10498175D01*
X2431643Y10499953D01*
X2438450Y10501274D01*
X2441600Y10502188D01*
X2444191Y10503204D01*
X2457145Y10512653D01*
X2459583Y10516158D01*
X2460853Y10520476D01*
X2461107Y10526217D01*
X2461006Y10533583D01*
X2454960Y10540949D01*
X2451760Y10543743D01*
X2449880Y10544403D01*
X2447493Y10546130D01*
X2444750Y10548772D01*
X2442768Y10549890D01*
X2440482Y10550804D01*
X2435352Y10551922D01*
X2432812Y10552836D01*
X2430475Y10553954D01*
X2428646Y10555173D01*
X2425141Y10558119D01*
X2413609Y10559592D01*
X2410409Y10560354D01*
X2407818Y10561370D01*
X2404008Y10563555D01*
X2401163Y10564622D01*
X2397760Y10565587D01*
X2390190Y10567009D01*
X2382164Y10569346D01*
X2375763Y10571937D01*
X2371699Y10573207D01*
X2367330Y10574223D01*
X2359304Y10575544D01*
X2355850Y10576306D01*
X2353157Y10577169D01*
X2350312Y10578795D01*
X2346452Y10580268D01*
G37*
G36*
X1915668Y10536580D02*
G01*
X1908149Y10535107D01*
X1905254Y10533278D01*
X1900326Y10528401D01*
X1899259Y10527741D01*
X1897684Y10527233D01*
X1896008Y10525506D01*
X1894484Y10522864D01*
X1891995Y10520375D01*
X1889353Y10518851D01*
X1887626Y10517530D01*
X1886712Y10515904D01*
X1882241Y10510723D01*
X1862226Y10489285D01*
X1852930Y10478617D01*
X1847088Y10471251D01*
X1846021Y10469473D01*
X1845411Y10467695D01*
X1165707Y10467695D01*
X1157325Y10469930D01*
X1146149Y10471810D01*
X1130198Y10473486D01*
X1114755Y10474452D01*
X1108811Y10474553D01*
X1105001Y10474350D01*
X1099667Y10472623D01*
X1096619Y10469524D01*
X1095857Y10465054D01*
X1098194Y10456875D01*
X1099667Y10450271D01*
X1100734Y10443057D01*
X1101598Y10439654D01*
X1102766Y10436707D01*
X1105357Y10432338D01*
X1106982Y10428935D01*
X1107440Y10427004D01*
X1108964Y10425226D01*
X1112875Y10422991D01*
X1151839Y10424769D01*
X1162608Y10425582D01*
X1175969Y10426903D01*
X1192682Y10428935D01*
X1450594Y10429951D01*
X1454556Y10426649D01*
X1453591Y10411714D01*
X1452981Y10407599D01*
X1452118Y10404195D01*
X1451152Y10401655D01*
X1448866Y10397286D01*
X1446631Y10367924D01*
X1445564Y10359390D01*
X1444193Y10352786D01*
X1442212Y10346740D01*
X1441348Y10343286D01*
X1440535Y10338155D01*
X1439367Y10324236D01*
X1438503Y10307066D01*
X1436014Y10301274D01*
X1434846Y10297668D01*
X1433728Y10292486D01*
X1432712Y10285882D01*
X1431036Y10270490D01*
X1430121Y10264394D01*
X1429156Y10259974D01*
X1428191Y10257485D01*
X1426616Y10254386D01*
X1425498Y10250220D01*
X1424533Y10243667D01*
X1422908Y10228072D01*
X1422095Y10223296D01*
X1421231Y10219690D01*
X1418691Y10213238D01*
X1417218Y10206380D01*
X1416151Y10198354D01*
X1415491Y10187686D01*
X1414830Y10184384D01*
X1413814Y10180980D01*
X1412544Y10177729D01*
X1409344Y10170820D01*
X1408531Y10157968D01*
X1407617Y10149179D01*
X1406194Y10142677D01*
X1404264Y10138257D01*
X1401775Y10135920D01*
X1396644Y10135514D01*
X1378864Y10135057D01*
X1319885Y10134600D01*
X1247952Y10134955D01*
X1224838Y10135463D01*
X1188821Y10136581D01*
X1181760Y10139222D01*
X1178204Y10140289D01*
X1174292Y10141153D01*
X1170228Y10141661D01*
X1157681Y10141915D01*
X1156004Y10139934D01*
X1154023Y10133736D01*
X1153922Y10124287D01*
X1155547Y10114635D01*
X1158595Y10107625D01*
X1159611Y10105999D01*
X1160424Y10104120D01*
X1160983Y10102088D01*
X1161389Y10098379D01*
X1162558Y10093858D01*
X1165707Y10087356D01*
X1170178Y10086441D01*
X1174343Y10086035D01*
X1178509Y10086390D01*
X1182827Y10087610D01*
X1187551Y10089743D01*
X1192682Y10092436D01*
X1391564Y10093350D01*
X1392580Y10091724D01*
X1393291Y10087965D01*
X1392783Y10081920D01*
X1391412Y10075214D01*
X1387906Y10065867D01*
X1386789Y10061905D01*
X1385925Y10057434D01*
X1384757Y10047782D01*
X1383944Y10043515D01*
X1382826Y10039908D01*
X1380236Y10033863D01*
X1379169Y10030256D01*
X1378305Y10026091D01*
X1377137Y10016896D01*
X1376273Y10012426D01*
X1375156Y10008412D01*
X1372514Y10001605D01*
X1371346Y9997287D01*
X1369618Y9987330D01*
X1368958Y9982200D01*
X1368196Y9978237D01*
X1367231Y9975342D01*
X1365148Y9971684D01*
X1364132Y9968484D01*
X1363167Y9964115D01*
X1361440Y9953244D01*
X1360322Y9948164D01*
X1359154Y9943947D01*
X1356969Y9938359D01*
X1355953Y9934752D01*
X1355140Y9930638D01*
X1354023Y9921748D01*
X1353108Y9917328D01*
X1351991Y9913315D01*
X1349451Y9906711D01*
X1348333Y9902799D01*
X1347419Y9898583D01*
X1346301Y9890455D01*
X1345438Y9886442D01*
X1344371Y9882733D01*
X1341882Y9876688D01*
X1340662Y9872726D01*
X1339596Y9868255D01*
X1338173Y9859822D01*
X1337310Y9856165D01*
X1336395Y9853320D01*
X1333855Y9848697D01*
X1332382Y9844074D01*
X1331315Y9838639D01*
X1330706Y9831222D01*
X1330096Y9829038D01*
X1329232Y9826955D01*
X1328166Y9825228D01*
X1325422Y9821773D01*
X1322832Y9805263D01*
X1321866Y9801098D01*
X1320850Y9797948D01*
X1318971Y9794494D01*
X1317955Y9791598D01*
X1316990Y9787890D01*
X1315313Y9779508D01*
X1314246Y9775342D01*
X1313027Y9771735D01*
X1310690Y9766808D01*
X1309674Y9763760D01*
X1308811Y9760305D01*
X1307693Y9753498D01*
X1306880Y9750196D01*
X1305763Y9747199D01*
X1303223Y9742322D01*
X1302004Y9739020D01*
X1301038Y9735210D01*
X1299565Y9727031D01*
X1298600Y9723424D01*
X1297482Y9720427D01*
X1295146Y9716211D01*
X1294130Y9713518D01*
X1293368Y9710369D01*
X1292352Y9703562D01*
X1291590Y9700361D01*
X1290624Y9697618D01*
X1288542Y9693960D01*
X1286814Y9689846D01*
X1285956Y9686391D01*
X1382471Y9686391D01*
X1382826Y9688372D01*
X1383538Y9690303D01*
X1386484Y9694976D01*
X1387805Y9698126D01*
X1388821Y9702495D01*
X1390548Y9712909D01*
X1391462Y9716312D01*
X1392529Y9719106D01*
X1394815Y9723018D01*
X1395780Y9725710D01*
X1396542Y9729063D01*
X1397711Y9736886D01*
X1398574Y9740646D01*
X1399692Y9743998D01*
X1402283Y9749434D01*
X1403400Y9752787D01*
X1404264Y9756444D01*
X1405432Y9764014D01*
X1406347Y9767671D01*
X1407464Y9771024D01*
X1409954Y9776409D01*
X1411071Y9779762D01*
X1411986Y9783470D01*
X1413154Y9790988D01*
X1414018Y9794697D01*
X1415135Y9797999D01*
X1417675Y9803434D01*
X1418793Y9806736D01*
X1419656Y9810394D01*
X1420723Y9817709D01*
X1421485Y9821062D01*
X1422400Y9823856D01*
X1425143Y9828733D01*
X1426413Y9831933D01*
X1427429Y9836302D01*
X1429105Y9846513D01*
X1429918Y9849866D01*
X1430883Y9852507D01*
X1432763Y9855860D01*
X1433779Y9858857D01*
X1434744Y9862870D01*
X1436370Y9872065D01*
X1437335Y9876028D01*
X1438351Y9879076D01*
X1440992Y9884054D01*
X1442466Y9889286D01*
X1443532Y9895433D01*
X1444193Y9903714D01*
X1444853Y9906457D01*
X1447038Y9911892D01*
X1450086Y9917633D01*
X1452676Y9941509D01*
X1457198Y9946538D01*
X1459128Y9962896D01*
X1460093Y9967722D01*
X1461262Y9972040D01*
X1463954Y9978999D01*
X1465122Y9983368D01*
X1466088Y9988346D01*
X1466850Y9993833D01*
X1468069Y10005771D01*
X1472590Y10010800D01*
X1474571Y10027208D01*
X1475587Y10032034D01*
X1476806Y10036302D01*
X1479499Y10043109D01*
X1480616Y10047020D01*
X1481429Y10051288D01*
X1482547Y10060279D01*
X1483360Y10064445D01*
X1484426Y10068153D01*
X1486865Y10074046D01*
X1488897Y10080853D01*
X1490726Y10091115D01*
X1491030Y10092029D01*
X1497177Y10092385D01*
X1539138Y10092740D01*
X1723491Y10092436D01*
X1723491Y9679889D01*
X1382928Y9679889D01*
X1382471Y9686391D01*
X1285956Y9686391D01*
X1285392Y9684258D01*
X1284274Y9681311D01*
X1283004Y9678822D01*
X1166774Y9680041D01*
X1112469Y9681108D01*
X1100429Y9681667D01*
X1089660Y9684359D01*
X1082395Y9685934D01*
X1076553Y9686798D01*
X1062482Y9687407D01*
X1056081Y9683191D01*
X1054303Y9672726D01*
X1057554Y9666020D01*
X1058926Y9662617D01*
X1060145Y9658705D01*
X1061059Y9654540D01*
X1061669Y9650374D01*
X1062482Y9641433D01*
X1072235Y9631730D01*
X1078230Y9631883D01*
X1082903Y9633000D01*
X1089863Y9635896D01*
X1118108Y9637014D01*
X1178458Y9637420D01*
X1335633Y9637826D01*
X1832102Y9638233D01*
X1996236Y9638639D01*
X2059178Y9639046D01*
X2070150Y9639350D01*
X2073656Y9641484D01*
X2077923Y9645040D01*
X2082749Y9649561D01*
X2082647Y9659416D01*
X2081936Y9663633D01*
X2081428Y9664496D01*
X2079498Y9666630D01*
X2076754Y9670643D01*
X2072589Y9675977D01*
X2066340Y9682632D01*
X2059279Y9689338D01*
X2050542Y9696500D01*
X2046935Y9699853D01*
X2044954Y9702088D01*
X2043836Y9702952D01*
X2042617Y9703460D01*
X2040382Y9703917D01*
X2039366Y9704578D01*
X2038451Y9705543D01*
X2037080Y9708134D01*
X2036013Y9709353D01*
X2034793Y9710267D01*
X2032152Y9711334D01*
X2030882Y9712248D01*
X2029764Y9713417D01*
X2028291Y9715906D01*
X2026767Y9717582D01*
X2025142Y9718141D01*
X2021839Y9720224D01*
X2013204Y9727336D01*
X2008022Y9731298D01*
X2004415Y9733737D01*
X2001621Y9734753D01*
X2000656Y9735413D01*
X1997710Y9738918D01*
X1995068Y9741052D01*
X1992426Y9742271D01*
X1989429Y9744303D01*
X1985416Y9748418D01*
X1978406Y9749332D01*
X1972310Y9749586D01*
X1966874Y9748824D01*
X1961946Y9746945D01*
X1957425Y9743948D01*
X1947875Y9735261D01*
X1935937Y9723374D01*
X1924050Y9710724D01*
X1918868Y9704933D01*
X1907489Y9691370D01*
X1901545Y9684613D01*
X1897888Y9679889D01*
X1824228Y9679127D01*
X1820570Y9682124D01*
X1820621Y10074452D01*
X1834845Y10087102D01*
X1840585Y10092537D01*
X1843938Y10096042D01*
X1845716Y10099649D01*
X1847545Y10101783D01*
X1850085Y10104170D01*
X1850288Y10112908D01*
X1849932Y10115245D01*
X1849374Y10117074D01*
X1847596Y10119664D01*
X1842820Y10128199D01*
X1839772Y10131958D01*
X1831441Y10140492D01*
X1827022Y10144506D01*
X1822907Y10147808D01*
X1819503Y10150094D01*
X1816455Y10151110D01*
X1814779Y10152481D01*
X1813255Y10154615D01*
X1810156Y10157002D01*
X1806549Y10158730D01*
X1804212Y10160457D01*
X1803349Y10161879D01*
X1799894Y10164318D01*
X1792884Y10168331D01*
X1791512Y10169347D01*
X1790395Y10170972D01*
X1788261Y10172039D01*
X1769567Y10178186D01*
X1763877Y10175290D01*
X1759661Y10174020D01*
X1756562Y10171988D01*
X1750720Y10166807D01*
X1743760Y10160050D01*
X1726946Y10142270D01*
X1724406Y10139019D01*
X1723034Y10135717D01*
X1713382Y10134752D01*
X1699564Y10134447D01*
X1628648Y10134295D01*
X1560728Y10134752D01*
X1510487Y10135565D01*
X1499362Y10136124D01*
X1499006Y10137089D01*
X1499209Y10138664D01*
X1501140Y10143642D01*
X1504137Y10149890D01*
X1505966Y10177272D01*
X1511808Y10191394D01*
X1513789Y10212882D01*
X1514551Y10218166D01*
X1515465Y10222026D01*
X1518056Y10228630D01*
X1519529Y10235539D01*
X1520647Y10243616D01*
X1521307Y10254538D01*
X1522933Y10261650D01*
X1527302Y10272420D01*
X1529842Y10305796D01*
X1532077Y10310114D01*
X1533093Y10313009D01*
X1534007Y10317276D01*
X1534820Y10323017D01*
X1536344Y10340289D01*
X1537360Y10347706D01*
X1538732Y10353751D01*
X1540764Y10359745D01*
X1541627Y10363098D01*
X1543304Y10375087D01*
X1544624Y10389870D01*
X1545437Y10396067D01*
X1546301Y10400690D01*
X1548180Y10405770D01*
X1549908Y10412679D01*
X1552244Y10426141D01*
X1553464Y10429748D01*
X1934667Y10429697D01*
X1987600Y10430052D01*
X2003399Y10430408D01*
X2013915Y10430865D01*
X2020265Y10431424D01*
X2023821Y10432186D01*
X2025396Y10432897D01*
X2028596Y10434878D01*
X2029460Y10440670D01*
X2029815Y10445089D01*
X2029409Y10449255D01*
X2028189Y10453370D01*
X2026056Y10457535D01*
X2022856Y10461955D01*
X2018588Y10466730D01*
X2013051Y10472013D01*
X1999945Y10483697D01*
X1996795Y10486745D01*
X1994204Y10488625D01*
X1992579Y10489184D01*
X1990140Y10490962D01*
X1987296Y10493705D01*
X1983638Y10496550D01*
X1980234Y10498582D01*
X1976932Y10501223D01*
X1974646Y10503763D01*
X1972411Y10505389D01*
X1970633Y10505846D01*
X1968550Y10507573D01*
X1966671Y10510062D01*
X1964689Y10511790D01*
X1963064Y10512348D01*
X1960372Y10514380D01*
X1957476Y10517378D01*
X1955038Y10519460D01*
X1953463Y10520121D01*
X1949957Y10522508D01*
X1945589Y10526014D01*
X1941779Y10528401D01*
X1939848Y10528960D01*
X1938020Y10530281D01*
X1937207Y10531246D01*
X1932381Y10534396D01*
X1924507Y10536224D01*
G37*
D10*
X508000Y305815D02*
G01*
X533907Y196850D01*
X560070Y305815D02*
G01*
X533907Y196850D01*
X560070Y305815D02*
G01*
X585978Y196850D01*
X611886Y305815D02*
G01*
X585978Y196850D01*
X646176Y305815D02*
G01*
X646176Y227837D01*
X651510Y212344D01*
X661670Y201929D01*
X677418Y196850D01*
X687831Y196850D01*
X703326Y201929D01*
X713739Y212344D01*
X718820Y227837D01*
X718820Y305815D01*
X753110Y305815D02*
G01*
X753110Y196850D01*
X753110Y305815D02*
G01*
X800100Y305815D01*
X815594Y300736D01*
X820673Y295402D01*
X826007Y284987D01*
X826007Y274573D01*
X820673Y264160D01*
X815594Y259079D01*
X800100Y254000D01*
X753110Y254000D02*
G01*
X800100Y254000D01*
X815594Y248665D01*
X820673Y243586D01*
X826007Y233171D01*
X826007Y217423D01*
X820673Y207010D01*
X815594Y201929D01*
X800100Y196850D01*
X753110Y196850D01*
X860297Y305815D02*
G01*
X860297Y196850D01*
X974597Y305815D02*
G01*
X974597Y196850D01*
X1047242Y305815D02*
G01*
X974597Y233171D01*
X1000505Y259079D02*
G01*
X1047242Y196850D01*
X1081531Y305815D02*
G01*
X1081531Y196850D01*
X1081531Y305815D02*
G01*
X1149095Y305815D01*
X1081531Y254000D02*
G01*
X1123187Y254000D01*
X1081531Y196850D02*
G01*
X1149095Y196850D01*
X1183386Y305815D02*
G01*
X1225042Y254000D01*
X1225042Y196850D01*
X1266444Y305815D02*
G01*
X1225042Y254000D01*
X1300734Y305815D02*
G01*
X1300734Y196850D01*
X1300734Y305815D02*
G01*
X1347470Y305815D01*
X1363218Y300736D01*
X1368297Y295402D01*
X1373631Y284987D01*
X1373631Y274573D01*
X1368297Y264160D01*
X1363218Y259079D01*
X1347470Y254000D01*
X1300734Y254000D02*
G01*
X1347470Y254000D01*
X1363218Y248665D01*
X1368297Y243586D01*
X1373631Y233171D01*
X1373631Y217423D01*
X1368297Y207010D01*
X1363218Y201929D01*
X1347470Y196850D01*
X1300734Y196850D01*
X1438910Y305815D02*
G01*
X1428750Y300736D01*
X1418336Y290321D01*
X1413002Y279907D01*
X1407921Y264160D01*
X1407921Y238252D01*
X1413002Y222757D01*
X1418336Y212344D01*
X1428750Y201929D01*
X1438910Y196850D01*
X1459737Y196850D01*
X1470152Y201929D01*
X1480565Y212344D01*
X1485900Y222757D01*
X1490979Y238252D01*
X1490979Y264160D01*
X1485900Y279907D01*
X1480565Y290321D01*
X1470152Y300736D01*
X1459737Y305815D01*
X1438910Y305815D01*
X1566926Y305815D02*
G01*
X1525270Y196850D01*
X1566926Y305815D02*
G01*
X1608328Y196850D01*
X1540763Y233171D02*
G01*
X1592834Y233171D01*
X1642618Y305815D02*
G01*
X1642618Y196850D01*
X1642618Y305815D02*
G01*
X1689354Y305815D01*
X1705102Y300736D01*
X1710181Y295402D01*
X1715515Y284987D01*
X1715515Y274573D01*
X1710181Y264160D01*
X1705102Y259079D01*
X1689354Y254000D01*
X1642618Y254000D01*
X1678939Y254000D02*
G01*
X1715515Y196850D01*
X1749805Y305815D02*
G01*
X1749805Y196850D01*
X1749805Y305815D02*
G01*
X1786128Y305815D01*
X1801621Y300736D01*
X1812036Y290321D01*
X1817370Y279907D01*
X1822450Y264160D01*
X1822450Y238252D01*
X1817370Y222757D01*
X1812036Y212344D01*
X1801621Y201929D01*
X1786128Y196850D01*
X1749805Y196850D01*
X24396700Y305815D02*
G01*
X24396700Y196850D01*
X24396700Y305815D02*
G01*
X24443436Y305815D01*
X24458929Y300736D01*
X24464263Y295402D01*
X24469343Y284987D01*
X24469343Y269494D01*
X24464263Y259079D01*
X24458929Y254000D01*
X24443436Y248665D01*
X24396700Y248665D01*
X24545290Y305815D02*
G01*
X24503634Y196850D01*
X24545290Y305815D02*
G01*
X24586945Y196850D01*
X24519381Y233171D02*
G01*
X24571198Y233171D01*
X24621236Y305815D02*
G01*
X24621236Y196850D01*
X24621236Y305815D02*
G01*
X24667972Y305815D01*
X24683466Y300736D01*
X24688800Y295402D01*
X24693879Y284987D01*
X24693879Y274573D01*
X24688800Y264160D01*
X24683466Y259079D01*
X24667972Y254000D01*
X24621236Y254000D01*
X24657558Y254000D02*
G01*
X24693879Y196850D01*
X24764491Y305815D02*
G01*
X24764491Y196850D01*
X24728170Y305815D02*
G01*
X24800813Y305815D01*
X24915113Y305815D02*
G01*
X24915113Y196850D01*
X24915113Y305815D02*
G01*
X24988011Y196850D01*
X24988011Y305815D02*
G01*
X24988011Y196850D01*
X25022302Y305815D02*
G01*
X25022302Y227837D01*
X25027381Y212344D01*
X25037795Y201929D01*
X25053290Y196850D01*
X25063704Y196850D01*
X25079452Y201929D01*
X25089866Y212344D01*
X25094945Y227837D01*
X25094945Y305815D01*
X25129236Y305815D02*
G01*
X25129236Y196850D01*
X25129236Y305815D02*
G01*
X25170891Y196850D01*
X25212293Y305815D02*
G01*
X25170891Y196850D01*
X25212293Y305815D02*
G01*
X25212293Y196850D01*
X25246584Y305815D02*
G01*
X25246584Y196850D01*
X25246584Y305815D02*
G01*
X25293320Y305815D01*
X25309068Y300736D01*
X25314148Y295402D01*
X25319481Y284987D01*
X25319481Y274573D01*
X25314148Y264160D01*
X25309068Y259079D01*
X25293320Y254000D01*
X25246584Y254000D02*
G01*
X25293320Y254000D01*
X25309068Y248665D01*
X25314148Y243586D01*
X25319481Y233171D01*
X25319481Y217423D01*
X25314148Y207010D01*
X25309068Y201929D01*
X25293320Y196850D01*
X25246584Y196850D01*
X25353772Y305815D02*
G01*
X25353772Y196850D01*
X25353772Y305815D02*
G01*
X25421336Y305815D01*
X25353772Y254000D02*
G01*
X25395174Y254000D01*
X25353772Y196850D02*
G01*
X25421336Y196850D01*
X25455625Y305815D02*
G01*
X25455625Y196850D01*
X25455625Y305815D02*
G01*
X25502361Y305815D01*
X25517856Y300736D01*
X25523190Y295402D01*
X25528270Y284987D01*
X25528270Y274573D01*
X25523190Y264160D01*
X25517856Y259079D01*
X25502361Y254000D01*
X25455625Y254000D01*
X25491948Y254000D02*
G01*
X25528270Y196850D01*
X25652984Y305815D02*
G01*
X25710134Y305815D01*
X25678891Y264160D01*
X25694640Y264160D01*
X25704800Y259079D01*
X25710134Y254000D01*
X25715213Y238252D01*
X25715213Y227837D01*
X25710134Y212344D01*
X25699720Y201929D01*
X25684225Y196850D01*
X25668477Y196850D01*
X25652984Y201929D01*
X25647650Y207010D01*
X25642570Y217423D01*
X25759918Y305815D02*
G01*
X25817068Y305815D01*
X25786079Y264160D01*
X25801574Y264160D01*
X25811988Y259079D01*
X25817068Y254000D01*
X25822402Y238252D01*
X25822402Y227837D01*
X25817068Y212344D01*
X25806654Y201929D01*
X25791159Y196850D01*
X25775666Y196850D01*
X25759918Y201929D01*
X25754838Y207010D01*
X25749504Y217423D01*
X25861772Y279907D02*
G01*
X25861772Y284987D01*
X25867106Y295402D01*
X25872186Y300736D01*
X25882600Y305815D01*
X25903427Y305815D01*
X25913841Y300736D01*
X25918922Y295402D01*
X25924256Y284987D01*
X25924256Y274573D01*
X25918922Y264160D01*
X25908508Y248665D01*
X25856691Y196850D01*
X25929336Y196850D01*
X25994868Y305815D02*
G01*
X25979120Y300736D01*
X25968959Y284987D01*
X25963625Y259079D01*
X25963625Y243586D01*
X25968959Y217423D01*
X25979120Y201929D01*
X25994868Y196850D01*
X26005281Y196850D01*
X26020775Y201929D01*
X26031190Y217423D01*
X26036270Y243586D01*
X26036270Y259079D01*
X26031190Y284987D01*
X26020775Y300736D01*
X26005281Y305815D01*
X25994868Y305815D01*
X26070559Y243586D02*
G01*
X26164286Y243586D01*
X26229563Y305815D02*
G01*
X26214070Y300736D01*
X26203656Y284987D01*
X26198575Y259079D01*
X26198575Y243586D01*
X26203656Y217423D01*
X26214070Y201929D01*
X26229563Y196850D01*
X26239977Y196850D01*
X26255725Y201929D01*
X26266140Y217423D01*
X26271220Y243586D01*
X26271220Y259079D01*
X26266140Y284987D01*
X26255725Y300736D01*
X26239977Y305815D01*
X26229563Y305815D01*
X26305509Y284987D02*
G01*
X26315924Y290321D01*
X26331418Y305815D01*
X26331418Y196850D01*
X26396950Y305815D02*
G01*
X26381456Y300736D01*
X26371041Y284987D01*
X26365708Y259079D01*
X26365708Y243586D01*
X26371041Y217423D01*
X26381456Y201929D01*
X26396950Y196850D01*
X26407363Y196850D01*
X26422858Y201929D01*
X26433272Y217423D01*
X26438606Y243586D01*
X26438606Y259079D01*
X26433272Y284987D01*
X26422858Y300736D01*
X26407363Y305815D01*
X26396950Y305815D01*
X26535125Y290321D02*
G01*
X26530045Y300736D01*
X26514298Y305815D01*
X26503884Y305815D01*
X26488390Y300736D01*
X26477975Y284987D01*
X26472895Y259079D01*
X26472895Y233171D01*
X26477975Y212344D01*
X26488390Y201929D01*
X26503884Y196850D01*
X26509218Y196850D01*
X26524711Y201929D01*
X26535125Y212344D01*
X26540459Y227837D01*
X26540459Y233171D01*
X26535125Y248665D01*
X26524711Y259079D01*
X26509218Y264160D01*
X26503884Y264160D01*
X26488390Y259079D01*
X26477975Y248665D01*
X26472895Y233171D01*
X26654759Y305815D02*
G01*
X26696161Y196850D01*
X26737818Y305815D02*
G01*
X26696161Y196850D01*
X26803350Y305815D02*
G01*
X26787602Y300736D01*
X26777188Y284987D01*
X26772108Y259079D01*
X26772108Y243586D01*
X26777188Y217423D01*
X26787602Y201929D01*
X26803350Y196850D01*
X26813509Y196850D01*
X26829258Y201929D01*
X26839672Y217423D01*
X26844752Y243586D01*
X26844752Y259079D01*
X26839672Y284987D01*
X26829258Y300736D01*
X26813509Y305815D01*
X26803350Y305815D01*
X26884375Y222757D02*
G01*
X26879041Y217423D01*
X26884375Y212344D01*
X26889456Y217423D01*
X26884375Y222757D01*
X26923745Y284987D02*
G01*
X26934159Y290321D01*
X26949654Y305815D01*
X26949654Y196850D01*
M02*
