G04 Layer: TopSilkscreenLayer*
G04 EasyEDA v6.5.34, 2023-08-10 18:14:54*
G04 61c515f7e5544ef1bb628199d2442a0d,5a6b42c53f6a479593ecc07194224c93,10*
G04 Gerber Generator version 0.2*
G04 Scale: 100 percent, Rotated: No, Reflected: No *
G04 Dimensions in millimeters *
G04 leading zeros omitted , absolute positions ,4 integer and 5 decimal *
%FSLAX45Y45*%
%MOMM*%

%ADD10C,0.1524*%

%LPD*%
D10*
X13059577Y8498570D02*
G01*
X13168543Y8498570D01*
X13059577Y8571468D02*
G01*
X13132221Y8498570D01*
X13106313Y8524732D02*
G01*
X13168543Y8571468D01*
X13059577Y8605758D02*
G01*
X13168543Y8605758D01*
X13059577Y8605758D02*
G01*
X13059577Y8673322D01*
X13111393Y8605758D02*
G01*
X13111393Y8647160D01*
X13168543Y8605758D02*
G01*
X13168543Y8673322D01*
X13059577Y8707612D02*
G01*
X13111393Y8749014D01*
X13168543Y8749014D01*
X13059577Y8790670D02*
G01*
X13111393Y8749014D01*
X13059577Y8824960D02*
G01*
X13168543Y8824960D01*
X13059577Y8824960D02*
G01*
X13059577Y8871696D01*
X13064657Y8887190D01*
X13069991Y8892524D01*
X13080151Y8897604D01*
X13090565Y8897604D01*
X13100979Y8892524D01*
X13106313Y8887190D01*
X13111393Y8871696D01*
X13111393Y8824960D02*
G01*
X13111393Y8871696D01*
X13116727Y8887190D01*
X13121807Y8892524D01*
X13132221Y8897604D01*
X13147715Y8897604D01*
X13158129Y8892524D01*
X13163463Y8887190D01*
X13168543Y8871696D01*
X13168543Y8824960D01*
X13059577Y8963136D02*
G01*
X13064657Y8952722D01*
X13075071Y8942308D01*
X13085485Y8937228D01*
X13100979Y8931894D01*
X13127141Y8931894D01*
X13142635Y8937228D01*
X13153049Y8942308D01*
X13163463Y8952722D01*
X13168543Y8963136D01*
X13168543Y8983964D01*
X13163463Y8994378D01*
X13153049Y9004792D01*
X13142635Y9009872D01*
X13127141Y9015206D01*
X13100979Y9015206D01*
X13085485Y9009872D01*
X13075071Y9004792D01*
X13064657Y8994378D01*
X13059577Y8983964D01*
X13059577Y8963136D01*
X13059577Y9090898D02*
G01*
X13168543Y9049496D01*
X13059577Y9090898D02*
G01*
X13168543Y9132554D01*
X13132221Y9064990D02*
G01*
X13132221Y9116806D01*
X13059577Y9166844D02*
G01*
X13168543Y9166844D01*
X13059577Y9166844D02*
G01*
X13059577Y9213580D01*
X13064657Y9229074D01*
X13069991Y9234408D01*
X13080151Y9239488D01*
X13090565Y9239488D01*
X13100979Y9234408D01*
X13106313Y9229074D01*
X13111393Y9213580D01*
X13111393Y9166844D01*
X13111393Y9203166D02*
G01*
X13168543Y9239488D01*
X13059577Y9273778D02*
G01*
X13168543Y9273778D01*
X13059577Y9273778D02*
G01*
X13059577Y9310100D01*
X13064657Y9325848D01*
X13075071Y9336262D01*
X13085485Y9341342D01*
X13100979Y9346676D01*
X13127141Y9346676D01*
X13142635Y9341342D01*
X13153049Y9336262D01*
X13163463Y9325848D01*
X13168543Y9310100D01*
X13168543Y9273778D01*
X13075071Y9533620D02*
G01*
X13064657Y9523206D01*
X13059577Y9507712D01*
X13059577Y9486884D01*
X13064657Y9471136D01*
X13075071Y9460976D01*
X13085485Y9460976D01*
X13095899Y9466056D01*
X13100979Y9471136D01*
X13106313Y9481550D01*
X13116727Y9512792D01*
X13121807Y9523206D01*
X13127141Y9528286D01*
X13137301Y9533620D01*
X13153049Y9533620D01*
X13163463Y9523206D01*
X13168543Y9507712D01*
X13168543Y9486884D01*
X13163463Y9471136D01*
X13153049Y9460976D01*
X13059577Y9567910D02*
G01*
X13168543Y9567910D01*
X13059577Y9567910D02*
G01*
X13059577Y9614646D01*
X13064657Y9630140D01*
X13069991Y9635474D01*
X13080151Y9640554D01*
X13095899Y9640554D01*
X13106313Y9635474D01*
X13111393Y9630140D01*
X13116727Y9614646D01*
X13116727Y9567910D01*
X13059577Y9716500D02*
G01*
X13168543Y9674844D01*
X13059577Y9716500D02*
G01*
X13168543Y9758156D01*
X13132221Y9690592D02*
G01*
X13132221Y9742408D01*
X13085485Y9870170D02*
G01*
X13075071Y9865090D01*
X13064657Y9854676D01*
X13059577Y9844262D01*
X13059577Y9823434D01*
X13064657Y9813020D01*
X13075071Y9802606D01*
X13085485Y9797526D01*
X13100979Y9792446D01*
X13127141Y9792446D01*
X13142635Y9797526D01*
X13153049Y9802606D01*
X13163463Y9813020D01*
X13168543Y9823434D01*
X13168543Y9844262D01*
X13163463Y9854676D01*
X13153049Y9865090D01*
X13142635Y9870170D01*
X13059577Y9904460D02*
G01*
X13168543Y9904460D01*
X13059577Y9904460D02*
G01*
X13059577Y9972024D01*
X13111393Y9904460D02*
G01*
X13111393Y9946116D01*
X13168543Y9904460D02*
G01*
X13168543Y9972024D01*
X13059577Y10006314D02*
G01*
X13168543Y10006314D01*
X13059577Y10006314D02*
G01*
X13059577Y10053050D01*
X13064657Y10068798D01*
X13069991Y10073878D01*
X13080151Y10079212D01*
X13090565Y10079212D01*
X13100979Y10073878D01*
X13106313Y10068798D01*
X13111393Y10053050D01*
X13111393Y10006314D01*
X13111393Y10042636D02*
G01*
X13168543Y10079212D01*
X13059577Y10193512D02*
G01*
X13168543Y10193512D01*
X13059577Y10227802D02*
G01*
X13168543Y10227802D01*
X13059577Y10227802D02*
G01*
X13168543Y10300446D01*
X13059577Y10300446D02*
G01*
X13168543Y10300446D01*
X13075071Y10407380D02*
G01*
X13064657Y10396966D01*
X13059577Y10381472D01*
X13059577Y10360644D01*
X13064657Y10345150D01*
X13075071Y10334736D01*
X13085485Y10334736D01*
X13095899Y10339816D01*
X13100979Y10345150D01*
X13106313Y10355564D01*
X13116727Y10386806D01*
X13121807Y10396966D01*
X13127141Y10402300D01*
X13137301Y10407380D01*
X13153049Y10407380D01*
X13163463Y10396966D01*
X13168543Y10381472D01*
X13168543Y10360644D01*
X13163463Y10345150D01*
X13153049Y10334736D01*
X13059577Y10441670D02*
G01*
X13168543Y10441670D01*
X13059577Y10441670D02*
G01*
X13059577Y10509234D01*
X13111393Y10441670D02*
G01*
X13111393Y10483326D01*
X13168543Y10441670D02*
G01*
X13168543Y10509234D01*
X13059577Y10579846D02*
G01*
X13168543Y10579846D01*
X13059577Y10543524D02*
G01*
X13059577Y10616422D01*
X13121807Y10730722D02*
G01*
X13121807Y10824194D01*
X13059577Y10974816D02*
G01*
X13168543Y10974816D01*
X13059577Y10938494D02*
G01*
X13059577Y11011138D01*
X13059577Y11076670D02*
G01*
X13064657Y11066256D01*
X13075071Y11055842D01*
X13085485Y11050762D01*
X13100979Y11045428D01*
X13127141Y11045428D01*
X13142635Y11050762D01*
X13153049Y11055842D01*
X13163463Y11066256D01*
X13168543Y11076670D01*
X13168543Y11097498D01*
X13163463Y11107912D01*
X13153049Y11118326D01*
X13142635Y11123406D01*
X13127141Y11128486D01*
X13100979Y11128486D01*
X13085485Y11123406D01*
X13075071Y11118326D01*
X13064657Y11107912D01*
X13059577Y11097498D01*
X13059577Y11076670D01*
X13059577Y11162776D02*
G01*
X13168543Y11162776D01*
X13059577Y11162776D02*
G01*
X13059577Y11209766D01*
X13064657Y11225260D01*
X13069991Y11230340D01*
X13080151Y11235674D01*
X13095899Y11235674D01*
X13106313Y11230340D01*
X13111393Y11225260D01*
X13116727Y11209766D01*
X13116727Y11162776D01*
X13262777Y8498570D02*
G01*
X13371743Y8498570D01*
X13262777Y8498570D02*
G01*
X13262777Y8545306D01*
X13267857Y8561054D01*
X13273191Y8566134D01*
X13283351Y8571468D01*
X13299099Y8571468D01*
X13309513Y8566134D01*
X13314593Y8561054D01*
X13319927Y8545306D01*
X13319927Y8498570D01*
X13262777Y8647160D02*
G01*
X13371743Y8605758D01*
X13262777Y8647160D02*
G01*
X13371743Y8688816D01*
X13335421Y8621252D02*
G01*
X13335421Y8673322D01*
X13262777Y8723106D02*
G01*
X13371743Y8723106D01*
X13262777Y8723106D02*
G01*
X13262777Y8769842D01*
X13267857Y8785336D01*
X13273191Y8790670D01*
X13283351Y8795750D01*
X13293765Y8795750D01*
X13304179Y8790670D01*
X13309513Y8785336D01*
X13314593Y8769842D01*
X13314593Y8723106D01*
X13314593Y8759428D02*
G01*
X13371743Y8795750D01*
X13262777Y8866616D02*
G01*
X13371743Y8866616D01*
X13262777Y8830040D02*
G01*
X13262777Y8902938D01*
X13262777Y9017238D02*
G01*
X13371743Y9017238D01*
X13262777Y9017238D02*
G01*
X13371743Y9089882D01*
X13262777Y9089882D02*
G01*
X13371743Y9089882D01*
X13262777Y9124172D02*
G01*
X13340501Y9124172D01*
X13356249Y9129506D01*
X13366663Y9139666D01*
X13371743Y9155414D01*
X13371743Y9165828D01*
X13366663Y9181322D01*
X13356249Y9191736D01*
X13340501Y9196816D01*
X13262777Y9196816D01*
X13262777Y9231106D02*
G01*
X13371743Y9231106D01*
X13262777Y9231106D02*
G01*
X13371743Y9272762D01*
X13262777Y9314418D02*
G01*
X13371743Y9272762D01*
X13262777Y9314418D02*
G01*
X13371743Y9314418D01*
X13262777Y9348708D02*
G01*
X13371743Y9348708D01*
X13262777Y9348708D02*
G01*
X13262777Y9395444D01*
X13267857Y9410938D01*
X13273191Y9416272D01*
X13283351Y9421352D01*
X13293765Y9421352D01*
X13304179Y9416272D01*
X13309513Y9410938D01*
X13314593Y9395444D01*
X13314593Y9348708D02*
G01*
X13314593Y9395444D01*
X13319927Y9410938D01*
X13325007Y9416272D01*
X13335421Y9421352D01*
X13350915Y9421352D01*
X13361329Y9416272D01*
X13366663Y9410938D01*
X13371743Y9395444D01*
X13371743Y9348708D01*
X13262777Y9455642D02*
G01*
X13371743Y9455642D01*
X13262777Y9455642D02*
G01*
X13262777Y9523206D01*
X13314593Y9455642D02*
G01*
X13314593Y9497298D01*
X13371743Y9455642D02*
G01*
X13371743Y9523206D01*
X13262777Y9557496D02*
G01*
X13371743Y9557496D01*
X13262777Y9557496D02*
G01*
X13262777Y9604232D01*
X13267857Y9619726D01*
X13273191Y9625060D01*
X13283351Y9630140D01*
X13293765Y9630140D01*
X13304179Y9625060D01*
X13309513Y9619726D01*
X13314593Y9604232D01*
X13314593Y9557496D01*
X13314593Y9593818D02*
G01*
X13371743Y9630140D01*
X13262777Y9754854D02*
G01*
X13262777Y9812004D01*
X13304179Y9781016D01*
X13304179Y9796510D01*
X13309513Y9806924D01*
X13314593Y9812004D01*
X13330341Y9817338D01*
X13340501Y9817338D01*
X13356249Y9812004D01*
X13366663Y9801590D01*
X13371743Y9786096D01*
X13371743Y9770602D01*
X13366663Y9754854D01*
X13361329Y9749774D01*
X13350915Y9744440D01*
X13262777Y9862042D02*
G01*
X13262777Y9919192D01*
X13304179Y9887950D01*
X13304179Y9903444D01*
X13309513Y9913858D01*
X13314593Y9919192D01*
X13330341Y9924272D01*
X13340501Y9924272D01*
X13356249Y9919192D01*
X13366663Y9908778D01*
X13371743Y9893030D01*
X13371743Y9877536D01*
X13366663Y9862042D01*
X13361329Y9856708D01*
X13350915Y9851628D01*
X13288685Y9963896D02*
G01*
X13283351Y9963896D01*
X13273191Y9968976D01*
X13267857Y9974056D01*
X13262777Y9984470D01*
X13262777Y10005298D01*
X13267857Y10015712D01*
X13273191Y10021046D01*
X13283351Y10026126D01*
X13293765Y10026126D01*
X13304179Y10021046D01*
X13319927Y10010632D01*
X13371743Y9958562D01*
X13371743Y10031206D01*
X13262777Y10096738D02*
G01*
X13267857Y10081244D01*
X13283351Y10070830D01*
X13309513Y10065496D01*
X13325007Y10065496D01*
X13350915Y10070830D01*
X13366663Y10081244D01*
X13371743Y10096738D01*
X13371743Y10107152D01*
X13366663Y10122646D01*
X13350915Y10133060D01*
X13325007Y10138394D01*
X13309513Y10138394D01*
X13283351Y10133060D01*
X13267857Y10122646D01*
X13262777Y10107152D01*
X13262777Y10096738D01*
X13325007Y10172684D02*
G01*
X13325007Y10266156D01*
X13262777Y10331688D02*
G01*
X13267857Y10315940D01*
X13283351Y10305526D01*
X13309513Y10300446D01*
X13325007Y10300446D01*
X13350915Y10305526D01*
X13366663Y10315940D01*
X13371743Y10331688D01*
X13371743Y10342102D01*
X13366663Y10357596D01*
X13350915Y10368010D01*
X13325007Y10373090D01*
X13309513Y10373090D01*
X13283351Y10368010D01*
X13267857Y10357596D01*
X13262777Y10342102D01*
X13262777Y10331688D01*
X13283351Y10407380D02*
G01*
X13278271Y10417794D01*
X13262777Y10433542D01*
X13371743Y10433542D01*
X13262777Y10498820D02*
G01*
X13267857Y10483326D01*
X13283351Y10472912D01*
X13309513Y10467832D01*
X13325007Y10467832D01*
X13350915Y10472912D01*
X13366663Y10483326D01*
X13371743Y10498820D01*
X13371743Y10509234D01*
X13366663Y10524982D01*
X13350915Y10535396D01*
X13325007Y10540476D01*
X13309513Y10540476D01*
X13283351Y10535396D01*
X13267857Y10524982D01*
X13262777Y10509234D01*
X13262777Y10498820D01*
X13262777Y10626836D02*
G01*
X13335421Y10574766D01*
X13335421Y10652744D01*
X13262777Y10626836D02*
G01*
X13371743Y10626836D01*
X13262777Y10767044D02*
G01*
X13371743Y10808446D01*
X13262777Y10850102D02*
G01*
X13371743Y10808446D01*
X13262777Y10915634D02*
G01*
X13267857Y10899886D01*
X13283351Y10889726D01*
X13309513Y10884392D01*
X13325007Y10884392D01*
X13350915Y10889726D01*
X13366663Y10899886D01*
X13371743Y10915634D01*
X13371743Y10926048D01*
X13366663Y10941542D01*
X13350915Y10951956D01*
X13325007Y10957036D01*
X13309513Y10957036D01*
X13283351Y10951956D01*
X13267857Y10941542D01*
X13262777Y10926048D01*
X13262777Y10915634D01*
X13345835Y10996660D02*
G01*
X13350915Y10991326D01*
X13356249Y10996660D01*
X13350915Y11001740D01*
X13345835Y10996660D01*
X13283351Y11036030D02*
G01*
X13278271Y11046444D01*
X13262777Y11062192D01*
X13371743Y11062192D01*
M02*
