M48
METRIC,LZ,000.000
;FILE_FORMAT=3:3
;TYPE=PLATED
;Layer: PTH_Through_Via
;EasyEDA v6.5.34, 2023-08-13 23:18:08
;4af7dcaf46fa4c71bde35255d9dd92c6,5a6b42c53f6a479593ecc07194224c93,10
;Gerber Generator version 0.2
;Holesize 1 = 0.305 mm
T01C0.305
;Holesize 2 = 0.310 mm
T02C0.310
%
G05
G90
T01
X058420Y016510
X058420Y008806
X026289Y017780
X017005Y019050
X041008Y020320
X023990Y021590
X050024Y022860
X025654Y024130
X051689Y025400
X051689Y065955
X119634Y007112
X076200Y016510
X076200Y007112
X077724Y017780
X077724Y008763
X064643Y019050
X064643Y027855
X079108Y020320
X069074Y021590
X088125Y022860
X058420Y044196
X058420Y065955
X065532Y024130
X065532Y044196
X077343Y044196
X077343Y065955
X117208Y019050
X098158Y020320
X145161Y017780
X145161Y008805
X126225Y021590
X107175Y022860
X127762Y024130
X127762Y065955
X108839Y025400
X108839Y065955
X167182Y007112
X149352Y016510
X149352Y007112
X160020Y019050
X153543Y027855
X153543Y020320
X149860Y021590
X149860Y046905
X164325Y022860
X160020Y027855
X140322Y062357
X158750Y024130
X158750Y062357
X165735Y025400
X165735Y065955
X226060Y017780
X226060Y008805
X208280Y019050
X208280Y008805
X161163Y016510
X161163Y019050
X248920Y027855
X248920Y033528
X248920Y034798
X248920Y056430
X185420Y042418
X185420Y065955
X205740Y041148
X205740Y065955
X183375Y039878
X202425Y038608
X177927Y037338
X177927Y027855
X193408Y022860
X233680Y036068
X233680Y022860
X234315Y034798
X234315Y008763
X262382Y003175
X234950Y033528
X234950Y003175
X216522Y062230
X242189Y042418
X242189Y062230
X240525Y038608
X212458Y024130
X239268Y037338
X239268Y024130
X221475Y045212
X239268Y039878
X239268Y045212
X243840Y041148
X243840Y065955
X231508Y024765
X239903Y036068
X239903Y024765
X022225Y108077
X028829Y108077
X029718Y103251
X027813Y103251
X023114Y103251
X021209Y103251
X150241Y012700
X150241Y004318
X150876Y015240
X150876Y004953
X153543Y011430
X153543Y006223
X154178Y010160
X154178Y005588
X068834Y006223
X069469Y005588
X068834Y011430
X069469Y010160
X065913Y004953
X065278Y004318
X065278Y012700
X065913Y015240
X245364Y005588
X245364Y027178
X244729Y006223
X244729Y028448
X232918Y004953
X232918Y032258
X229362Y004318
X229362Y029718
X025654Y065955
X027813Y005588
X030480Y006223
X029210Y004318
X032385Y004953
X074295Y013970
X072517Y081915
X158750Y013970
X147574Y081915
X157480Y044196
X147574Y044196
X250317Y030988
X250317Y081915
X252349Y026543
X252349Y030861
X158750Y009525
X252349Y006858
T02
X025654Y108074
X025654Y081915
X034290Y099314
X030480Y096774
X027813Y094234
X029210Y091694
X025654Y089154
M30
