M48
METRIC,LZ,000.000
;FILE_FORMAT=3:3
;TYPE=PLATED
;Layer: PTH_Through
;EasyEDA v6.5.34, 2023-08-13 23:18:08
;4af7dcaf46fa4c71bde35255d9dd92c6,5a6b42c53f6a479593ecc07194224c93,10
;Gerber Generator version 0.2
;Holesize 1 = 0.305 mm
T01C0.305
;Holesize 2 = 0.310 mm
T02C0.310
;Holesize 3 = 0.920 mm
T03C0.920
;Holesize 4 = 1.000 mm
T04C1.000
;Holesize 5 = 1.101 mm
T05C1.101
;Holesize 6 = 2.301 mm
T06C2.301
%
G05
G90
T01
X058420Y016510
X058420Y008806
X026289Y017780
X017005Y019050
X041008Y020320
X023990Y021590
X050024Y022860
X025654Y024130
X051689Y025400
X051689Y065955
X119634Y007112
X076200Y016510
X076200Y007112
X077724Y017780
X077724Y008763
X064643Y019050
X064643Y027855
X079108Y020320
X069074Y021590
X088125Y022860
X058420Y044196
X058420Y065955
X065532Y024130
X065532Y044196
X077343Y044196
X077343Y065955
X117208Y019050
X098158Y020320
X145161Y017780
X145161Y008805
X126225Y021590
X107175Y022860
X127762Y024130
X127762Y065955
X108839Y025400
X108839Y065955
X167182Y007112
X149352Y016510
X149352Y007112
X160020Y019050
X153543Y027855
X153543Y020320
X149860Y021590
X149860Y046905
X164325Y022860
X160020Y027855
X140322Y062357
X158750Y024130
X158750Y062357
X165735Y025400
X165735Y065955
X226060Y017780
X226060Y008805
X208280Y019050
X208280Y008805
X161163Y016510
X161163Y019050
X248920Y027855
X248920Y033528
X248920Y034798
X248920Y056430
X185420Y042418
X185420Y065955
X205740Y041148
X205740Y065955
X183375Y039878
X202425Y038608
X177927Y037338
X177927Y027855
X193408Y022860
X233680Y036068
X233680Y022860
X234315Y034798
X234315Y008763
X262382Y003175
X234950Y033528
X234950Y003175
X216522Y062230
X242189Y042418
X242189Y062230
X240525Y038608
X212458Y024130
X239268Y037338
X239268Y024130
X221475Y045212
X239268Y039878
X239268Y045212
X243840Y041148
X243840Y065955
X231508Y024765
X239903Y036068
X239903Y024765
X022225Y108077
X028829Y108077
X029718Y103251
X027813Y103251
X023114Y103251
X021209Y103251
X150241Y012700
X150241Y004318
X150876Y015240
X150876Y004953
X153543Y011430
X153543Y006223
X154178Y010160
X154178Y005588
X068834Y006223
X069469Y005588
X068834Y011430
X069469Y010160
X065913Y004953
X065278Y004318
X065278Y012700
X065913Y015240
X245364Y005588
X245364Y027178
X244729Y006223
X244729Y028448
X232918Y004953
X232918Y032258
X229362Y004318
X229362Y029718
X025654Y065955
X027813Y005588
X030480Y006223
X029210Y004318
X032385Y004953
X074295Y013970
X072517Y081915
X158750Y013970
X147574Y081915
X157480Y044196
X147574Y044196
X250317Y030988
X250317Y081915
X252349Y026543
X252349Y030861
X158750Y009525
X252349Y006858
T02
X025654Y108074
X025654Y081915
X034290Y099314
X030480Y096774
X027813Y094234
X029210Y091694
X025654Y089154
T03
X134496Y101600G85X134490Y101600
X136990Y101600G85X136995Y101600
X138990Y101600G85X138995Y101600
X141496Y101600G85X141490Y101600
T04
X014613Y067155G85X014613Y067155
X021513Y065955G85X021513Y065955
X038172Y067155G85X038172Y067155
X045072Y065955G85X045072Y065955
X057222Y067155G85X057222Y067155
X064122Y065955G85X064122Y065955
X076272Y067155G85X076272Y067155
X083172Y065955G85X083172Y065955
X095322Y067155G85X095322Y067155
X102222Y065955G85X102222Y065955
X114372Y067155G85X114372Y067155
X121272Y065955G85X121272Y065955
X133422Y067155G85X133422Y067155
X140322Y065955G85X140322Y065955
X152472Y067155G85X152472Y067155
X159372Y065955G85X159372Y065955
X171522Y067155G85X171522Y067155
X178422Y065955G85X178422Y065955
X190572Y067155G85X190572Y067155
X197472Y065955G85X197472Y065955
X209622Y067155G85X209622Y067155
X216522Y065955G85X216522Y065955
X228672Y067155G85X228672Y067155
X235572Y065955G85X235572Y065955
X254707Y057630G85X254707Y057630
X261607Y056430G85X261607Y056430
X017090Y048105G85X017090Y048105
X023990Y046905G85X023990Y046905
X043125Y048105G85X043125Y048105
X050025Y046905G85X050025Y046905
X062175Y048105G85X062175Y048105
X069075Y046905G85X069075Y046905
X081225Y048105G85X081225Y048105
X088125Y046905G85X088125Y046905
X100275Y048105G85X100275Y048105
X107175Y046905G85X107175Y046905
X119325Y048105G85X119325Y048105
X126225Y046905G85X126225Y046905
X138375Y048105G85X138375Y048105
X145275Y046905G85X145275Y046905
X157425Y048105G85X157425Y048105
X164325Y046905G85X164325Y046905
X176475Y048105G85X176475Y048105
X183375Y046905G85X183375Y046905
X195525Y048105G85X195525Y048105
X202425Y046905G85X202425Y046905
X214575Y048105G85X214575Y048105
X221475Y046905G85X221475Y046905
X233625Y048105G85X233625Y048105
X240525Y046905G85X240525Y046905
X010105Y029055G85X010105Y029055
X017005Y027855G85X017005Y027855
X034108Y029055G85X034108Y029055
X041008Y027855G85X041008Y027855
X053158Y029055G85X053158Y029055
X060058Y027855G85X060058Y027855
X072208Y029055G85X072208Y029055
X079108Y027855G85X079108Y027855
X091258Y029055G85X091258Y029055
X098158Y027855G85X098158Y027855
X110308Y029055G85X110308Y029055
X117208Y027855G85X117208Y027855
X129358Y029055G85X129358Y029055
X136258Y027855G85X136258Y027855
X148408Y029055G85X148408Y029055
X155308Y027855G85X155308Y027855
X167458Y029055G85X167458Y029055
X174358Y027855G85X174358Y027855
X186508Y029055G85X186508Y029055
X193408Y027855G85X193408Y027855
X205558Y029055G85X205558Y029055
X212458Y027855G85X212458Y027855
X224608Y029055G85X224608Y029055
X231508Y027855G85X231508Y027855
X250643Y029055G85X250643Y029055
X257543Y027855G85X257543Y027855
X017090Y010005G85X017090Y010005
X023990Y008805G85X023990Y008805
X047633Y010005G85X047633Y010005
X054533Y008805G85X054533Y008805
X080209Y010005G85X080209Y010005
X087109Y008805G85X087109Y008805
X112784Y010005G85X112784Y010005
X119684Y008805G85X119684Y008805
X136787Y010005G85X136787Y010005
X143687Y008805G85X143687Y008805
X160282Y010005G85X160282Y010005
X167182Y008805G85X167182Y008805
X179332Y010005G85X179332Y010005
X186232Y008805G85X186232Y008805
X198382Y010005G85X198382Y010005
X205282Y008805G85X205282Y008805
X217432Y010005G85X217432Y010005
X224332Y008805G85X224332Y008805
X236482Y010005G85X236482Y010005
X243382Y008805G85X243382Y008805
X255532Y010005G85X255532Y010005
X262432Y008805G85X262432Y008805
X012299Y101499
X009799Y101499
X009799Y099499
X012299Y099499
X267061Y101499
X264561Y101499
X264561Y099499
X267061Y099499
T05
X126873Y106172
X124333Y106172
X126873Y103632
X124333Y103632
X124333Y101092
X126873Y101092
X124333Y098552
X126873Y098552
X124333Y096012
X126873Y096012
X124333Y093472
X126873Y093472
X124333Y090932
X126873Y090932
X124333Y088392
X126873Y088392
X243078Y088265
X240538Y088265
X243078Y090805
X240538Y090805
X243078Y093345
X240538Y093345
X243078Y095885
X240538Y095885
X243078Y098425
X240538Y098425
X243078Y100965
X240538Y100965
X240538Y103505
X243078Y103505
X240538Y106045
X243078Y106045
X021209Y086614
X021209Y089154
X021209Y091694
X021209Y094234
X021209Y096774
X021209Y099314
T06
X131423Y104310G85X131423Y104310
X144563Y104310G85X144563Y104310
X005029Y104209
X017069Y104209
X259791Y104209
X271831Y104209
M30
