M48
METRIC,LZ,000.000
;FILE_FORMAT=3:3
;TYPE=NON_PLATED
;Layer: NPTH_Through
;EasyEDA v6.5.34, 2023-08-13 23:18:08
;4af7dcaf46fa4c71bde35255d9dd92c6,5a6b42c53f6a479593ecc07194224c93,10
;Gerber Generator version 0.2
;Holesize 1 = 2.000 mm
T01C2.000
;Holesize 2 = 5.150 mm
T02C5.150
%
G05
G90
T01
X002540Y083820
X274320Y083820
X274320Y002540
X002540Y002540
X185420Y002540
X091440Y002540
X002540Y111760
X274320Y111760
X138494Y083820
X138494Y097155
T02
X019113Y071755
X042672Y071755
X061722Y071755
X080772Y071755
X099822Y071755
X118872Y071755
X137922Y071755
X156972Y071755
X176022Y071755
X195072Y071755
X214122Y071755
X233172Y071755
X259207Y062230
X021590Y052705
X047625Y052705
X066675Y052705
X085725Y052705
X104775Y052705
X123825Y052705
X142875Y052705
X161925Y052705
X180975Y052705
X200025Y052705
X219075Y052705
X238125Y052705
X014605Y033655
X038608Y033655
X057658Y033655
X076708Y033655
X095758Y033655
X114808Y033655
X133858Y033655
X152908Y033655
X171958Y033655
X191008Y033655
X210058Y033655
X229108Y033655
X255143Y033655
X021590Y014605
X052133Y014605
X084709Y014605
X117284Y014605
X141287Y014605
X164782Y014605
X183832Y014605
X202882Y014605
X221932Y014605
X240982Y014605
X260032Y014605
M30
