G04 Layer: TopSilkscreenLayer*
G04 EasyEDA v6.5.34, 2023-08-13 23:18:08*
G04 4af7dcaf46fa4c71bde35255d9dd92c6,5a6b42c53f6a479593ecc07194224c93,10*
G04 Gerber Generator version 0.2*
G04 Scale: 100 percent, Rotated: No, Reflected: No *
G04 Dimensions in millimeters *
G04 leading zeros omitted , absolute positions ,4 integer and 5 decimal *
%FSLAX45Y45*%
%MOMM*%

%ADD10C,0.2032*%
%ADD11C,0.1524*%
%ADD12C,0.1270*%
%ADD13C,0.2540*%

%LPD*%
D10*
X590550Y8076437D02*
G01*
X590550Y7980934D01*
X558800Y8076437D02*
G01*
X622554Y8076437D01*
X688847Y8076437D02*
G01*
X652526Y7980934D01*
X688847Y8076437D02*
G01*
X725170Y7980934D01*
X665987Y8012937D02*
G01*
X711454Y8012937D01*
X755142Y8076437D02*
G01*
X755142Y7980934D01*
X755142Y8076437D02*
G01*
X796036Y8076437D01*
X809752Y8071865D01*
X814323Y8067294D01*
X818895Y8058404D01*
X818895Y8049260D01*
X814323Y8040115D01*
X809752Y8035544D01*
X796036Y8030971D01*
X755142Y8030971D02*
G01*
X796036Y8030971D01*
X809752Y8026400D01*
X814323Y8022081D01*
X818895Y8012937D01*
X818895Y7999221D01*
X814323Y7990078D01*
X809752Y7985505D01*
X796036Y7980934D01*
X755142Y7980934D01*
X626871Y6148831D02*
G01*
X622554Y6157976D01*
X613410Y6166865D01*
X604265Y6171437D01*
X585978Y6171437D01*
X577087Y6166865D01*
X567944Y6157976D01*
X563371Y6148831D01*
X558800Y6135115D01*
X558800Y6112510D01*
X563371Y6098794D01*
X567944Y6089650D01*
X577087Y6080505D01*
X585978Y6075934D01*
X604265Y6075934D01*
X613410Y6080505D01*
X622554Y6089650D01*
X626871Y6098794D01*
X684276Y6171437D02*
G01*
X675131Y6166865D01*
X665987Y6157976D01*
X661415Y6148831D01*
X657097Y6135115D01*
X657097Y6112510D01*
X661415Y6098794D01*
X665987Y6089650D01*
X675131Y6080505D01*
X684276Y6075934D01*
X702310Y6075934D01*
X711454Y6080505D01*
X720597Y6089650D01*
X725170Y6098794D01*
X729742Y6112510D01*
X729742Y6135115D01*
X725170Y6148831D01*
X720597Y6157976D01*
X711454Y6166865D01*
X702310Y6171437D01*
X684276Y6171437D01*
X759713Y6171437D02*
G01*
X759713Y6075934D01*
X759713Y6171437D02*
G01*
X823468Y6075934D01*
X823468Y6171437D02*
G01*
X823468Y6075934D01*
X885189Y6171437D02*
G01*
X885189Y6075934D01*
X853439Y6171437D02*
G01*
X916939Y6171437D01*
X946912Y6171437D02*
G01*
X946912Y6075934D01*
X946912Y6171437D02*
G01*
X987805Y6171437D01*
X1001521Y6166865D01*
X1006094Y6162294D01*
X1010665Y6153404D01*
X1010665Y6144260D01*
X1006094Y6135115D01*
X1001521Y6130544D01*
X987805Y6125971D01*
X946912Y6125971D01*
X978915Y6125971D02*
G01*
X1010665Y6075934D01*
X1067815Y6171437D02*
G01*
X1058926Y6166865D01*
X1049781Y6157976D01*
X1045210Y6148831D01*
X1040637Y6135115D01*
X1040637Y6112510D01*
X1045210Y6098794D01*
X1049781Y6089650D01*
X1058926Y6080505D01*
X1067815Y6075934D01*
X1086104Y6075934D01*
X1095247Y6080505D01*
X1104137Y6089650D01*
X1108710Y6098794D01*
X1113281Y6112510D01*
X1113281Y6135115D01*
X1108710Y6148831D01*
X1104137Y6157976D01*
X1095247Y6166865D01*
X1086104Y6171437D01*
X1067815Y6171437D01*
X1143254Y6171437D02*
G01*
X1143254Y6075934D01*
X1143254Y6075934D02*
G01*
X1197863Y6075934D01*
X622554Y4252976D02*
G01*
X613410Y4261865D01*
X599694Y4266437D01*
X581405Y4266437D01*
X567944Y4261865D01*
X558800Y4252976D01*
X558800Y4243831D01*
X563371Y4234687D01*
X567944Y4230115D01*
X577087Y4225544D01*
X604265Y4216400D01*
X613410Y4212081D01*
X617981Y4207510D01*
X622554Y4198365D01*
X622554Y4184650D01*
X613410Y4175505D01*
X599694Y4170934D01*
X581405Y4170934D01*
X567944Y4175505D01*
X558800Y4184650D01*
X652526Y4266437D02*
G01*
X652526Y4170934D01*
X716026Y4266437D02*
G01*
X716026Y4170934D01*
X652526Y4220971D02*
G01*
X716026Y4220971D01*
X745997Y4266437D02*
G01*
X745997Y4170934D01*
X775970Y4266437D02*
G01*
X775970Y4170934D01*
X775970Y4266437D02*
G01*
X835152Y4266437D01*
X775970Y4220971D02*
G01*
X812545Y4220971D01*
X896873Y4266437D02*
G01*
X896873Y4170934D01*
X865123Y4266437D02*
G01*
X928878Y4266437D01*
X626871Y2338831D02*
G01*
X622554Y2347976D01*
X613410Y2356865D01*
X604265Y2361437D01*
X585978Y2361437D01*
X577087Y2356865D01*
X567944Y2347976D01*
X563371Y2338831D01*
X558800Y2325115D01*
X558800Y2302510D01*
X563371Y2288794D01*
X567944Y2279650D01*
X577087Y2270505D01*
X585978Y2265934D01*
X604265Y2265934D01*
X613410Y2270505D01*
X622554Y2279650D01*
X626871Y2288794D01*
X693420Y2361437D02*
G01*
X657097Y2265934D01*
X693420Y2361437D02*
G01*
X729742Y2265934D01*
X670560Y2297937D02*
G01*
X716026Y2297937D01*
X759713Y2361437D02*
G01*
X759713Y2265934D01*
X759713Y2361437D02*
G01*
X800607Y2361437D01*
X814323Y2356865D01*
X818895Y2352294D01*
X823468Y2343404D01*
X823468Y2329687D01*
X818895Y2320544D01*
X814323Y2315971D01*
X800607Y2311400D01*
X759713Y2311400D01*
X916939Y2347976D02*
G01*
X907795Y2356865D01*
X894334Y2361437D01*
X876045Y2361437D01*
X862329Y2356865D01*
X853439Y2347976D01*
X853439Y2338831D01*
X858012Y2329687D01*
X862329Y2325115D01*
X871473Y2320544D01*
X898905Y2311400D01*
X907795Y2307081D01*
X912368Y2302510D01*
X916939Y2293365D01*
X916939Y2279650D01*
X907795Y2270505D01*
X894334Y2265934D01*
X876045Y2265934D01*
X862329Y2270505D01*
X853439Y2279650D01*
X1017015Y2361437D02*
G01*
X1017015Y2265934D01*
X1017015Y2265934D02*
G01*
X1071626Y2265934D01*
X1128776Y2361437D02*
G01*
X1119631Y2356865D01*
X1110742Y2347976D01*
X1106170Y2338831D01*
X1101597Y2325115D01*
X1101597Y2302510D01*
X1106170Y2288794D01*
X1110742Y2279650D01*
X1119631Y2270505D01*
X1128776Y2265934D01*
X1147063Y2265934D01*
X1155954Y2270505D01*
X1165097Y2279650D01*
X1169670Y2288794D01*
X1174242Y2302510D01*
X1174242Y2325115D01*
X1169670Y2338831D01*
X1165097Y2347976D01*
X1155954Y2356865D01*
X1147063Y2361437D01*
X1128776Y2361437D01*
X1272539Y2338831D02*
G01*
X1267968Y2347976D01*
X1258823Y2356865D01*
X1249679Y2361437D01*
X1231645Y2361437D01*
X1222502Y2356865D01*
X1213357Y2347976D01*
X1208786Y2338831D01*
X1204213Y2325115D01*
X1204213Y2302510D01*
X1208786Y2288794D01*
X1213357Y2279650D01*
X1222502Y2270505D01*
X1231645Y2265934D01*
X1249679Y2265934D01*
X1258823Y2270505D01*
X1267968Y2279650D01*
X1272539Y2288794D01*
X1302512Y2361437D02*
G01*
X1302512Y2265934D01*
X1366012Y2361437D02*
G01*
X1302512Y2297937D01*
X1325118Y2320544D02*
G01*
X1366012Y2265934D01*
X3392677Y8076437D02*
G01*
X3383788Y8071865D01*
X3374643Y8062976D01*
X3370072Y8053831D01*
X3365500Y8040115D01*
X3365500Y8017510D01*
X3370072Y8003794D01*
X3374643Y7994650D01*
X3383788Y7985505D01*
X3392677Y7980934D01*
X3410965Y7980934D01*
X3420109Y7985505D01*
X3429254Y7994650D01*
X3433572Y8003794D01*
X3438143Y8017510D01*
X3438143Y8040115D01*
X3433572Y8053831D01*
X3429254Y8062976D01*
X3420109Y8071865D01*
X3410965Y8076437D01*
X3392677Y8076437D01*
X3406393Y7999221D02*
G01*
X3433572Y7972044D01*
X3550158Y8094726D02*
G01*
X3468115Y7949184D01*
X3589020Y8076437D02*
G01*
X3639058Y8076437D01*
X3611879Y8040115D01*
X3625595Y8040115D01*
X3634486Y8035544D01*
X3639058Y8030971D01*
X3643629Y8017510D01*
X3643629Y8008365D01*
X3639058Y7994650D01*
X3630168Y7985505D01*
X3616452Y7980934D01*
X3602736Y7980934D01*
X3589020Y7985505D01*
X3584702Y7990078D01*
X3580129Y7999221D01*
X3728211Y8076437D02*
G01*
X3682745Y8076437D01*
X3678174Y8035544D01*
X3682745Y8040115D01*
X3696461Y8044687D01*
X3709924Y8044687D01*
X3723640Y8040115D01*
X3732784Y8030971D01*
X3737356Y8017510D01*
X3737356Y8008365D01*
X3732784Y7994650D01*
X3723640Y7985505D01*
X3709924Y7980934D01*
X3696461Y7980934D01*
X3682745Y7985505D01*
X3678174Y7990078D01*
X3673602Y7999221D01*
X5270500Y8076437D02*
G01*
X5293106Y7980934D01*
X5315965Y8076437D02*
G01*
X5293106Y7980934D01*
X5315965Y8076437D02*
G01*
X5338572Y7980934D01*
X5361431Y8076437D02*
G01*
X5338572Y7980934D01*
X5473191Y8094726D02*
G01*
X5391404Y7949184D01*
X5512308Y8076437D02*
G01*
X5562345Y8076437D01*
X5535168Y8040115D01*
X5548629Y8040115D01*
X5557774Y8035544D01*
X5562345Y8030971D01*
X5566918Y8017510D01*
X5566918Y8008365D01*
X5562345Y7994650D01*
X5553202Y7985505D01*
X5539486Y7980934D01*
X5526024Y7980934D01*
X5512308Y7985505D01*
X5507736Y7990078D01*
X5503163Y7999221D01*
X5642356Y8076437D02*
G01*
X5596890Y8012937D01*
X5664961Y8012937D01*
X5642356Y8076437D02*
G01*
X5642356Y7980934D01*
X7175500Y8076437D02*
G01*
X7175500Y7980934D01*
X7175500Y8076437D02*
G01*
X7234681Y8076437D01*
X7175500Y8030971D02*
G01*
X7211822Y8030971D01*
X7175500Y7980934D02*
G01*
X7234681Y7980934D01*
X7346441Y8094726D02*
G01*
X7264654Y7949184D01*
X7385558Y8076437D02*
G01*
X7435595Y8076437D01*
X7408163Y8040115D01*
X7421879Y8040115D01*
X7431024Y8035544D01*
X7435595Y8030971D01*
X7440168Y8017510D01*
X7440168Y8008365D01*
X7435595Y7994650D01*
X7426452Y7985505D01*
X7412736Y7980934D01*
X7399020Y7980934D01*
X7385558Y7985505D01*
X7380986Y7990078D01*
X7376413Y7999221D01*
X7479029Y8076437D02*
G01*
X7529068Y8076437D01*
X7501890Y8040115D01*
X7515606Y8040115D01*
X7524495Y8035544D01*
X7529068Y8030971D01*
X7533640Y8017510D01*
X7533640Y8008365D01*
X7529068Y7994650D01*
X7519924Y7985505D01*
X7506461Y7980934D01*
X7492745Y7980934D01*
X7479029Y7985505D01*
X7474711Y7990078D01*
X7470140Y7999221D01*
X9080500Y8076437D02*
G01*
X9080500Y7980934D01*
X9080500Y8076437D02*
G01*
X9121393Y8076437D01*
X9135109Y8071865D01*
X9139681Y8067294D01*
X9144254Y8058404D01*
X9144254Y8049260D01*
X9139681Y8040115D01*
X9135109Y8035544D01*
X9121393Y8030971D01*
X9080500Y8030971D01*
X9112250Y8030971D02*
G01*
X9144254Y7980934D01*
X9256013Y8094726D02*
G01*
X9174225Y7949184D01*
X9295129Y8076437D02*
G01*
X9345168Y8076437D01*
X9317736Y8040115D01*
X9331452Y8040115D01*
X9340595Y8035544D01*
X9345168Y8030971D01*
X9349486Y8017510D01*
X9349486Y8008365D01*
X9345168Y7994650D01*
X9336024Y7985505D01*
X9322308Y7980934D01*
X9308591Y7980934D01*
X9295129Y7985505D01*
X9290558Y7990078D01*
X9285986Y7999221D01*
X9384029Y8053831D02*
G01*
X9384029Y8058404D01*
X9388602Y8067294D01*
X9393174Y8071865D01*
X9402318Y8076437D01*
X9420606Y8076437D01*
X9429495Y8071865D01*
X9434068Y8067294D01*
X9438640Y8058404D01*
X9438640Y8049260D01*
X9434068Y8040115D01*
X9424924Y8026400D01*
X9379711Y7980934D01*
X9443211Y7980934D01*
X3897122Y6171437D02*
G01*
X3860800Y6075934D01*
X3897122Y6171437D02*
G01*
X3933443Y6075934D01*
X3874515Y6107937D02*
G01*
X3919981Y6107937D01*
X4045458Y6189726D02*
G01*
X3963415Y6044184D01*
X4075429Y6153404D02*
G01*
X4084320Y6157976D01*
X4098036Y6171437D01*
X4098036Y6075934D01*
X4182618Y6171437D02*
G01*
X4137152Y6171437D01*
X4132579Y6130544D01*
X4137152Y6135115D01*
X4150868Y6139687D01*
X4164329Y6139687D01*
X4178045Y6135115D01*
X4187190Y6125971D01*
X4191761Y6112510D01*
X4191761Y6103365D01*
X4187190Y6089650D01*
X4178045Y6080505D01*
X4164329Y6075934D01*
X4150868Y6075934D01*
X4137152Y6080505D01*
X4132579Y6085078D01*
X4128008Y6094221D01*
X5829554Y6157976D02*
G01*
X5820409Y6166865D01*
X5806693Y6171437D01*
X5788406Y6171437D01*
X5774943Y6166865D01*
X5765800Y6157976D01*
X5765800Y6148831D01*
X5770372Y6139687D01*
X5774943Y6135115D01*
X5784088Y6130544D01*
X5811265Y6121400D01*
X5820409Y6117081D01*
X5824981Y6112510D01*
X5829554Y6103365D01*
X5829554Y6089650D01*
X5820409Y6080505D01*
X5806693Y6075934D01*
X5788406Y6075934D01*
X5774943Y6080505D01*
X5765800Y6089650D01*
X5941313Y6189726D02*
G01*
X5859525Y6044184D01*
X5971286Y6153404D02*
G01*
X5980429Y6157976D01*
X5993891Y6171437D01*
X5993891Y6075934D01*
X6069329Y6171437D02*
G01*
X6023863Y6107937D01*
X6092190Y6107937D01*
X6069329Y6171437D02*
G01*
X6069329Y6075934D01*
X7670800Y6171437D02*
G01*
X7670800Y6075934D01*
X7670800Y6171437D02*
G01*
X7702550Y6171437D01*
X7716265Y6166865D01*
X7725409Y6157976D01*
X7729981Y6148831D01*
X7734554Y6135115D01*
X7734554Y6112510D01*
X7729981Y6098794D01*
X7725409Y6089650D01*
X7716265Y6080505D01*
X7702550Y6075934D01*
X7670800Y6075934D01*
X7846313Y6189726D02*
G01*
X7764525Y6044184D01*
X7876286Y6153404D02*
G01*
X7885429Y6157976D01*
X7898891Y6171437D01*
X7898891Y6075934D01*
X7938008Y6171437D02*
G01*
X7988045Y6171437D01*
X7960868Y6135115D01*
X7974329Y6135115D01*
X7983474Y6130544D01*
X7988045Y6125971D01*
X7992618Y6112510D01*
X7992618Y6103365D01*
X7988045Y6089650D01*
X7978902Y6080505D01*
X7965440Y6075934D01*
X7951724Y6075934D01*
X7938008Y6080505D01*
X7933436Y6085078D01*
X7928863Y6094221D01*
X9575800Y6171437D02*
G01*
X9575800Y6075934D01*
X9575800Y6171437D02*
G01*
X9634981Y6171437D01*
X9575800Y6125971D02*
G01*
X9612122Y6125971D01*
X9746741Y6189726D02*
G01*
X9664954Y6044184D01*
X9776713Y6153404D02*
G01*
X9785858Y6157976D01*
X9799320Y6171437D01*
X9799320Y6075934D01*
X9833863Y6148831D02*
G01*
X9833863Y6153404D01*
X9838436Y6162294D01*
X9843008Y6166865D01*
X9852152Y6171437D01*
X9870440Y6171437D01*
X9879329Y6166865D01*
X9883902Y6162294D01*
X9888474Y6153404D01*
X9888474Y6144260D01*
X9883902Y6135115D01*
X9875011Y6121400D01*
X9829545Y6075934D01*
X9893045Y6075934D01*
X4927854Y4266437D02*
G01*
X4864100Y4170934D01*
X4864100Y4266437D02*
G01*
X4927854Y4266437D01*
X4864100Y4170934D02*
G01*
X4927854Y4170934D01*
X6769100Y4266437D02*
G01*
X6832854Y4170934D01*
X6832854Y4266437D02*
G01*
X6769100Y4170934D01*
X6944613Y4284726D02*
G01*
X6862825Y4139184D01*
X7029195Y4266437D02*
G01*
X6983729Y4266437D01*
X6979158Y4225544D01*
X6983729Y4230115D01*
X6997191Y4234687D01*
X7010908Y4234687D01*
X7024624Y4230115D01*
X7033768Y4220971D01*
X7038086Y4207510D01*
X7038086Y4198365D01*
X7033768Y4184650D01*
X7024624Y4175505D01*
X7010908Y4170934D01*
X6997191Y4170934D01*
X6983729Y4175505D01*
X6979158Y4180078D01*
X6974586Y4189221D01*
X7122668Y4266437D02*
G01*
X7077202Y4266437D01*
X7072629Y4225544D01*
X7077202Y4230115D01*
X7090918Y4234687D01*
X7104634Y4234687D01*
X7118095Y4230115D01*
X7127240Y4220971D01*
X7131811Y4207510D01*
X7131811Y4198365D01*
X7127240Y4184650D01*
X7118095Y4175505D01*
X7104634Y4170934D01*
X7090918Y4170934D01*
X7077202Y4175505D01*
X7072629Y4180078D01*
X7068311Y4189221D01*
X10579100Y4266437D02*
G01*
X10615422Y4170934D01*
X10651743Y4266437D02*
G01*
X10615422Y4170934D01*
X10763758Y4284726D02*
G01*
X10681715Y4139184D01*
X10848086Y4266437D02*
G01*
X10802620Y4266437D01*
X10798302Y4225544D01*
X10802620Y4230115D01*
X10816336Y4234687D01*
X10830052Y4234687D01*
X10843768Y4230115D01*
X10852658Y4220971D01*
X10857229Y4207510D01*
X10857229Y4198365D01*
X10852658Y4184650D01*
X10843768Y4175505D01*
X10830052Y4170934D01*
X10816336Y4170934D01*
X10802620Y4175505D01*
X10798302Y4180078D01*
X10793729Y4189221D01*
X10896345Y4266437D02*
G01*
X10946384Y4266437D01*
X10919206Y4230115D01*
X10932668Y4230115D01*
X10941811Y4225544D01*
X10946384Y4220971D01*
X10950956Y4207510D01*
X10950956Y4198365D01*
X10946384Y4184650D01*
X10937240Y4175505D01*
X10923524Y4170934D01*
X10910061Y4170934D01*
X10896345Y4175505D01*
X10891774Y4180078D01*
X10887202Y4189221D01*
X8742172Y4243831D02*
G01*
X8737854Y4252976D01*
X8728709Y4261865D01*
X8719565Y4266437D01*
X8701277Y4266437D01*
X8692388Y4261865D01*
X8683243Y4252976D01*
X8678672Y4243831D01*
X8674100Y4230115D01*
X8674100Y4207510D01*
X8678672Y4193794D01*
X8683243Y4184650D01*
X8692388Y4175505D01*
X8701277Y4170934D01*
X8719565Y4170934D01*
X8728709Y4175505D01*
X8737854Y4184650D01*
X8742172Y4193794D01*
X8854186Y4284726D02*
G01*
X8772397Y4139184D01*
X8938768Y4266437D02*
G01*
X8893302Y4266437D01*
X8888729Y4225544D01*
X8893302Y4230115D01*
X8906763Y4234687D01*
X8920479Y4234687D01*
X8934195Y4230115D01*
X8943086Y4220971D01*
X8947658Y4207510D01*
X8947658Y4198365D01*
X8943086Y4184650D01*
X8934195Y4175505D01*
X8920479Y4170934D01*
X8906763Y4170934D01*
X8893302Y4175505D01*
X8888729Y4180078D01*
X8884158Y4189221D01*
X9023095Y4266437D02*
G01*
X8977629Y4202937D01*
X9045956Y4202937D01*
X9023095Y4266437D02*
G01*
X9023095Y4170934D01*
X3897122Y2361437D02*
G01*
X3860800Y2265934D01*
X3897122Y2361437D02*
G01*
X3933443Y2265934D01*
X3874515Y2297937D02*
G01*
X3919981Y2297937D01*
X3963415Y2361437D02*
G01*
X3963415Y2265934D01*
X3963415Y2265934D02*
G01*
X4018025Y2265934D01*
X4080002Y2361437D02*
G01*
X4080002Y2265934D01*
X4047997Y2361437D02*
G01*
X4111752Y2361437D01*
X6731254Y2347976D02*
G01*
X6722109Y2356865D01*
X6708393Y2361437D01*
X6690106Y2361437D01*
X6676643Y2356865D01*
X6667500Y2347976D01*
X6667500Y2338831D01*
X6672072Y2329687D01*
X6676643Y2325115D01*
X6685788Y2320544D01*
X6712965Y2311400D01*
X6722109Y2307081D01*
X6726681Y2302510D01*
X6731254Y2293365D01*
X6731254Y2279650D01*
X6722109Y2270505D01*
X6708393Y2265934D01*
X6690106Y2265934D01*
X6676643Y2270505D01*
X6667500Y2279650D01*
X6761225Y2361437D02*
G01*
X6761225Y2265934D01*
X6761225Y2361437D02*
G01*
X6802120Y2361437D01*
X6815581Y2356865D01*
X6820154Y2352294D01*
X6824725Y2343404D01*
X6824725Y2329687D01*
X6820154Y2320544D01*
X6815581Y2315971D01*
X6802120Y2311400D01*
X6761225Y2311400D01*
X6891020Y2361437D02*
G01*
X6854697Y2265934D01*
X6891020Y2361437D02*
G01*
X6927595Y2265934D01*
X6868413Y2297937D02*
G01*
X6913879Y2297937D01*
X7025640Y2338831D02*
G01*
X7021068Y2347976D01*
X7011924Y2356865D01*
X7003034Y2361437D01*
X6984745Y2361437D01*
X6975602Y2356865D01*
X6966711Y2347976D01*
X6962140Y2338831D01*
X6957568Y2325115D01*
X6957568Y2302510D01*
X6962140Y2288794D01*
X6966711Y2279650D01*
X6975602Y2270505D01*
X6984745Y2265934D01*
X7003034Y2265934D01*
X7011924Y2270505D01*
X7021068Y2279650D01*
X7025640Y2288794D01*
X7055611Y2361437D02*
G01*
X7055611Y2265934D01*
X7055611Y2361437D02*
G01*
X7114793Y2361437D01*
X7055611Y2315971D02*
G01*
X7091934Y2315971D01*
X7055611Y2265934D02*
G01*
X7114793Y2265934D01*
X7214870Y2343404D02*
G01*
X7223759Y2347976D01*
X7237475Y2361437D01*
X7237475Y2265934D01*
X10439654Y2347976D02*
G01*
X10430509Y2356865D01*
X10416793Y2361437D01*
X10398506Y2361437D01*
X10385043Y2356865D01*
X10375900Y2347976D01*
X10375900Y2338831D01*
X10380472Y2329687D01*
X10385043Y2325115D01*
X10394188Y2320544D01*
X10421365Y2311400D01*
X10430509Y2307081D01*
X10435081Y2302510D01*
X10439654Y2293365D01*
X10439654Y2279650D01*
X10430509Y2270505D01*
X10416793Y2265934D01*
X10398506Y2265934D01*
X10385043Y2270505D01*
X10375900Y2279650D01*
X10469625Y2361437D02*
G01*
X10469625Y2265934D01*
X10469625Y2361437D02*
G01*
X10510520Y2361437D01*
X10523981Y2356865D01*
X10528554Y2352294D01*
X10533125Y2343404D01*
X10533125Y2329687D01*
X10528554Y2320544D01*
X10523981Y2315971D01*
X10510520Y2311400D01*
X10469625Y2311400D01*
X10599420Y2361437D02*
G01*
X10563097Y2265934D01*
X10599420Y2361437D02*
G01*
X10635995Y2265934D01*
X10576813Y2297937D02*
G01*
X10622279Y2297937D01*
X10734040Y2338831D02*
G01*
X10729468Y2347976D01*
X10720324Y2356865D01*
X10711434Y2361437D01*
X10693145Y2361437D01*
X10684002Y2356865D01*
X10675111Y2347976D01*
X10670540Y2338831D01*
X10665968Y2325115D01*
X10665968Y2302510D01*
X10670540Y2288794D01*
X10675111Y2279650D01*
X10684002Y2270505D01*
X10693145Y2265934D01*
X10711434Y2265934D01*
X10720324Y2270505D01*
X10729468Y2279650D01*
X10734040Y2288794D01*
X10764011Y2361437D02*
G01*
X10764011Y2265934D01*
X10764011Y2361437D02*
G01*
X10823193Y2361437D01*
X10764011Y2315971D02*
G01*
X10800334Y2315971D01*
X10764011Y2265934D02*
G01*
X10823193Y2265934D01*
X10927841Y2338831D02*
G01*
X10927841Y2343404D01*
X10932159Y2352294D01*
X10936731Y2356865D01*
X10945875Y2361437D01*
X10964163Y2361437D01*
X10973054Y2356865D01*
X10977625Y2352294D01*
X10982197Y2343404D01*
X10982197Y2334260D01*
X10977625Y2325115D01*
X10968736Y2311400D01*
X10923270Y2265934D01*
X10986770Y2265934D01*
X17481550Y2361437D02*
G01*
X17481550Y2265934D01*
X17481550Y2361437D02*
G01*
X17517872Y2265934D01*
X17554193Y2361437D02*
G01*
X17517872Y2265934D01*
X17554193Y2361437D02*
G01*
X17554193Y2265934D01*
X17584166Y2361437D02*
G01*
X17584166Y2265934D01*
X17584166Y2361437D02*
G01*
X17643348Y2361437D01*
X17584166Y2315971D02*
G01*
X17620741Y2315971D01*
X17584166Y2265934D02*
G01*
X17643348Y2265934D01*
X17673320Y2361437D02*
G01*
X17673320Y2265934D01*
X17673320Y2361437D02*
G01*
X17737074Y2265934D01*
X17737074Y2361437D02*
G01*
X17737074Y2265934D01*
X17767045Y2361437D02*
G01*
X17767045Y2293365D01*
X17771618Y2279650D01*
X17780761Y2270505D01*
X17794224Y2265934D01*
X17803368Y2265934D01*
X17817084Y2270505D01*
X17825974Y2279650D01*
X17830545Y2293365D01*
X17830545Y2361437D01*
X15576550Y2361437D02*
G01*
X15576550Y2265934D01*
X15576550Y2361437D02*
G01*
X15635731Y2361437D01*
X15576550Y2315971D02*
G01*
X15612872Y2315971D01*
X15665704Y2361437D02*
G01*
X15665704Y2293365D01*
X15670275Y2279650D01*
X15679166Y2270505D01*
X15692881Y2265934D01*
X15702025Y2265934D01*
X15715741Y2270505D01*
X15724631Y2279650D01*
X15729204Y2293365D01*
X15729204Y2361437D01*
X15759175Y2361437D02*
G01*
X15759175Y2265934D01*
X15759175Y2361437D02*
G01*
X15822929Y2265934D01*
X15822929Y2361437D02*
G01*
X15822929Y2265934D01*
X15920974Y2338831D02*
G01*
X15916656Y2347976D01*
X15907511Y2356865D01*
X15898368Y2361437D01*
X15880079Y2361437D01*
X15871190Y2356865D01*
X15862045Y2347976D01*
X15857474Y2338831D01*
X15852902Y2325115D01*
X15852902Y2302510D01*
X15857474Y2288794D01*
X15862045Y2279650D01*
X15871190Y2270505D01*
X15880079Y2265934D01*
X15898368Y2265934D01*
X15907511Y2270505D01*
X15916656Y2279650D01*
X15920974Y2288794D01*
X15982950Y2361437D02*
G01*
X15982950Y2265934D01*
X15951200Y2361437D02*
G01*
X16014700Y2361437D01*
X16044672Y2361437D02*
G01*
X16044672Y2265934D01*
X16102075Y2361437D02*
G01*
X16092931Y2356865D01*
X16083788Y2347976D01*
X16079216Y2338831D01*
X16074643Y2325115D01*
X16074643Y2302510D01*
X16079216Y2288794D01*
X16083788Y2279650D01*
X16092931Y2270505D01*
X16102075Y2265934D01*
X16120109Y2265934D01*
X16129254Y2270505D01*
X16138397Y2279650D01*
X16142970Y2288794D01*
X16147541Y2302510D01*
X16147541Y2325115D01*
X16142970Y2338831D01*
X16138397Y2347976D01*
X16129254Y2356865D01*
X16120109Y2361437D01*
X16102075Y2361437D01*
X16177513Y2361437D02*
G01*
X16177513Y2265934D01*
X16177513Y2361437D02*
G01*
X16241013Y2265934D01*
X16241013Y2361437D02*
G01*
X16241013Y2265934D01*
X21291550Y2361437D02*
G01*
X21291550Y2293365D01*
X21296122Y2279650D01*
X21305266Y2270505D01*
X21318727Y2265934D01*
X21327872Y2265934D01*
X21341588Y2270505D01*
X21350731Y2279650D01*
X21355304Y2293365D01*
X21355304Y2361437D01*
X21385275Y2361437D02*
G01*
X21385275Y2265934D01*
X21385275Y2361437D02*
G01*
X21426170Y2361437D01*
X21439631Y2356865D01*
X21444204Y2352294D01*
X21448775Y2343404D01*
X21448775Y2329687D01*
X21444204Y2320544D01*
X21439631Y2315971D01*
X21426170Y2311400D01*
X21385275Y2311400D01*
X19386550Y2361437D02*
G01*
X19386550Y2265934D01*
X19386550Y2265934D02*
G01*
X19441159Y2265934D01*
X19471131Y2361437D02*
G01*
X19471131Y2265934D01*
X19471131Y2361437D02*
G01*
X19530059Y2361437D01*
X19471131Y2315971D02*
G01*
X19507454Y2315971D01*
X19471131Y2265934D02*
G01*
X19530059Y2265934D01*
X19560286Y2361437D02*
G01*
X19560286Y2265934D01*
X19560286Y2361437D02*
G01*
X19619213Y2361437D01*
X19560286Y2315971D02*
G01*
X19596608Y2315971D01*
X19681190Y2361437D02*
G01*
X19681190Y2265934D01*
X19649186Y2361437D02*
G01*
X19712940Y2361437D01*
X25101550Y2361437D02*
G01*
X25101550Y2265934D01*
X25101550Y2361437D02*
G01*
X25142443Y2361437D01*
X25156159Y2356865D01*
X25160731Y2352294D01*
X25165304Y2343404D01*
X25165304Y2334260D01*
X25160731Y2325115D01*
X25156159Y2320544D01*
X25142443Y2315971D01*
X25101550Y2315971D01*
X25133300Y2315971D02*
G01*
X25165304Y2265934D01*
X25195275Y2361437D02*
G01*
X25195275Y2265934D01*
X25293320Y2338831D02*
G01*
X25288748Y2347976D01*
X25279858Y2356865D01*
X25270713Y2361437D01*
X25252425Y2361437D01*
X25243281Y2356865D01*
X25234391Y2347976D01*
X25229820Y2338831D01*
X25225248Y2325115D01*
X25225248Y2302510D01*
X25229820Y2288794D01*
X25234391Y2279650D01*
X25243281Y2270505D01*
X25252425Y2265934D01*
X25270713Y2265934D01*
X25279858Y2270505D01*
X25288748Y2279650D01*
X25293320Y2288794D01*
X25293320Y2302510D01*
X25270713Y2302510D02*
G01*
X25293320Y2302510D01*
X25323291Y2361437D02*
G01*
X25323291Y2265934D01*
X25387045Y2361437D02*
G01*
X25387045Y2265934D01*
X25323291Y2315971D02*
G01*
X25387045Y2315971D01*
X25448768Y2361437D02*
G01*
X25448768Y2265934D01*
X25417018Y2361437D02*
G01*
X25480518Y2361437D01*
X23196550Y2361437D02*
G01*
X23196550Y2265934D01*
X23196550Y2361437D02*
G01*
X23228300Y2361437D01*
X23242016Y2356865D01*
X23251159Y2347976D01*
X23255731Y2338831D01*
X23260304Y2325115D01*
X23260304Y2302510D01*
X23255731Y2288794D01*
X23251159Y2279650D01*
X23242016Y2270505D01*
X23228300Y2265934D01*
X23196550Y2265934D01*
X23317454Y2361437D02*
G01*
X23308309Y2356865D01*
X23299166Y2347976D01*
X23294848Y2338831D01*
X23290275Y2325115D01*
X23290275Y2302510D01*
X23294848Y2288794D01*
X23299166Y2279650D01*
X23308309Y2270505D01*
X23317454Y2265934D01*
X23335741Y2265934D01*
X23344631Y2270505D01*
X23353775Y2279650D01*
X23358348Y2288794D01*
X23362920Y2302510D01*
X23362920Y2325115D01*
X23358348Y2338831D01*
X23353775Y2347976D01*
X23344631Y2356865D01*
X23335741Y2361437D01*
X23317454Y2361437D01*
X23392891Y2361437D02*
G01*
X23415752Y2265934D01*
X23438358Y2361437D02*
G01*
X23415752Y2265934D01*
X23438358Y2361437D02*
G01*
X23461218Y2265934D01*
X23483824Y2361437D02*
G01*
X23461218Y2265934D01*
X23513795Y2361437D02*
G01*
X23513795Y2265934D01*
X23513795Y2361437D02*
G01*
X23577550Y2265934D01*
X23577550Y2361437D02*
G01*
X23577550Y2265934D01*
X14389100Y4266437D02*
G01*
X14389100Y4170934D01*
X14389100Y4266437D02*
G01*
X14452854Y4170934D01*
X14452854Y4266437D02*
G01*
X14452854Y4170934D01*
X14564613Y4284726D02*
G01*
X14482825Y4139184D01*
X14649195Y4266437D02*
G01*
X14603729Y4266437D01*
X14599158Y4225544D01*
X14603729Y4230115D01*
X14617191Y4234687D01*
X14630908Y4234687D01*
X14644624Y4230115D01*
X14653768Y4220971D01*
X14658086Y4207510D01*
X14658086Y4198365D01*
X14653768Y4184650D01*
X14644624Y4175505D01*
X14630908Y4170934D01*
X14617191Y4170934D01*
X14603729Y4175505D01*
X14599158Y4180078D01*
X14594586Y4189221D01*
X14688311Y4248404D02*
G01*
X14697202Y4252976D01*
X14710918Y4266437D01*
X14710918Y4170934D01*
X12484100Y4266437D02*
G01*
X12484100Y4170934D01*
X12484100Y4266437D02*
G01*
X12524993Y4266437D01*
X12538709Y4261865D01*
X12543281Y4257294D01*
X12547854Y4248404D01*
X12547854Y4239260D01*
X12543281Y4230115D01*
X12538709Y4225544D01*
X12524993Y4220971D01*
X12484100Y4220971D02*
G01*
X12524993Y4220971D01*
X12538709Y4216400D01*
X12543281Y4212081D01*
X12547854Y4202937D01*
X12547854Y4189221D01*
X12543281Y4180078D01*
X12538709Y4175505D01*
X12524993Y4170934D01*
X12484100Y4170934D01*
X12659613Y4284726D02*
G01*
X12577825Y4139184D01*
X12744195Y4266437D02*
G01*
X12698729Y4266437D01*
X12694158Y4225544D01*
X12698729Y4230115D01*
X12712191Y4234687D01*
X12725908Y4234687D01*
X12739624Y4230115D01*
X12748768Y4220971D01*
X12753086Y4207510D01*
X12753086Y4198365D01*
X12748768Y4184650D01*
X12739624Y4175505D01*
X12725908Y4170934D01*
X12712191Y4170934D01*
X12698729Y4175505D01*
X12694158Y4180078D01*
X12689586Y4189221D01*
X12787629Y4243831D02*
G01*
X12787629Y4248404D01*
X12792202Y4257294D01*
X12796774Y4261865D01*
X12805918Y4266437D01*
X12824206Y4266437D01*
X12833095Y4261865D01*
X12837668Y4257294D01*
X12842240Y4248404D01*
X12842240Y4239260D01*
X12837668Y4230115D01*
X12828524Y4216400D01*
X12783311Y4170934D01*
X12846811Y4170934D01*
X18271743Y4252976D02*
G01*
X18199100Y4212081D01*
X18271743Y4170934D01*
X16294100Y4266437D02*
G01*
X16294100Y4170934D01*
X16294100Y4266437D02*
G01*
X16330422Y4170934D01*
X16366743Y4266437D02*
G01*
X16330422Y4170934D01*
X16366743Y4266437D02*
G01*
X16366743Y4170934D01*
X16478758Y4284726D02*
G01*
X16396716Y4139184D01*
X16513302Y4243831D02*
G01*
X16513302Y4248404D01*
X16517620Y4257294D01*
X16522191Y4261865D01*
X16531336Y4266437D01*
X16549624Y4266437D01*
X16558768Y4261865D01*
X16563086Y4257294D01*
X16567658Y4248404D01*
X16567658Y4239260D01*
X16563086Y4230115D01*
X16554195Y4216400D01*
X16508729Y4170934D01*
X16572229Y4170934D01*
X16656811Y4266437D02*
G01*
X16611345Y4266437D01*
X16606774Y4225544D01*
X16611345Y4230115D01*
X16625061Y4234687D01*
X16638524Y4234687D01*
X16652240Y4230115D01*
X16661384Y4220971D01*
X16665956Y4207510D01*
X16665956Y4198365D01*
X16661384Y4184650D01*
X16652240Y4175505D01*
X16638524Y4170934D01*
X16625061Y4170934D01*
X16611345Y4175505D01*
X16606774Y4180078D01*
X16602202Y4189221D01*
X22009097Y4243831D02*
G01*
X22009097Y4248404D01*
X22013669Y4257294D01*
X22018241Y4261865D01*
X22027385Y4266437D01*
X22045419Y4266437D01*
X22054563Y4261865D01*
X22059135Y4257294D01*
X22063707Y4248404D01*
X22063707Y4239260D01*
X22059135Y4230115D01*
X22054563Y4225544D01*
X22036275Y4216400D01*
X22036275Y4202937D01*
X22036275Y4180078D02*
G01*
X22031703Y4175505D01*
X22036275Y4170934D01*
X22040847Y4175505D01*
X22036275Y4180078D01*
X20104097Y4252976D02*
G01*
X20176741Y4212081D01*
X20104097Y4170934D01*
X23976327Y4252976D02*
G01*
X23967183Y4261865D01*
X23953467Y4266437D01*
X23935433Y4266437D01*
X23921717Y4261865D01*
X23912573Y4252976D01*
X23912573Y4243831D01*
X23917145Y4234687D01*
X23921717Y4230115D01*
X23930861Y4225544D01*
X23958039Y4216400D01*
X23967183Y4212081D01*
X23971755Y4207510D01*
X23976327Y4198365D01*
X23976327Y4184650D01*
X23967183Y4175505D01*
X23953467Y4170934D01*
X23935433Y4170934D01*
X23921717Y4175505D01*
X23912573Y4184650D01*
X24006299Y4266437D02*
G01*
X24006299Y4170934D01*
X24069799Y4266437D02*
G01*
X24069799Y4170934D01*
X24006299Y4220971D02*
G01*
X24069799Y4220971D01*
X24099771Y4266437D02*
G01*
X24099771Y4170934D01*
X24129997Y4266437D02*
G01*
X24129997Y4170934D01*
X24129997Y4266437D02*
G01*
X24188925Y4266437D01*
X24129997Y4220971D02*
G01*
X24166319Y4220971D01*
X24250901Y4266437D02*
G01*
X24250901Y4170934D01*
X24218897Y4266437D02*
G01*
X24282651Y4266437D01*
X13385800Y6171437D02*
G01*
X13385800Y6075934D01*
X13449554Y6171437D02*
G01*
X13449554Y6075934D01*
X13385800Y6125971D02*
G01*
X13449554Y6125971D01*
X13561313Y6189726D02*
G01*
X13479525Y6044184D01*
X13595858Y6148831D02*
G01*
X13595858Y6153404D01*
X13600429Y6162294D01*
X13605002Y6166865D01*
X13613891Y6171437D01*
X13632179Y6171437D01*
X13641324Y6166865D01*
X13645895Y6162294D01*
X13650468Y6153404D01*
X13650468Y6144260D01*
X13645895Y6135115D01*
X13636752Y6121400D01*
X13591286Y6075934D01*
X13654786Y6075934D01*
X13685011Y6153404D02*
G01*
X13693902Y6157976D01*
X13707618Y6171437D01*
X13707618Y6075934D01*
X11548872Y6148831D02*
G01*
X11544554Y6157976D01*
X11535409Y6166865D01*
X11526265Y6171437D01*
X11507977Y6171437D01*
X11499088Y6166865D01*
X11489943Y6157976D01*
X11485372Y6148831D01*
X11480800Y6135115D01*
X11480800Y6112510D01*
X11485372Y6098794D01*
X11489943Y6089650D01*
X11499088Y6080505D01*
X11507977Y6075934D01*
X11526265Y6075934D01*
X11535409Y6080505D01*
X11544554Y6089650D01*
X11548872Y6098794D01*
X11548872Y6112510D01*
X11526265Y6112510D02*
G01*
X11548872Y6112510D01*
X11660886Y6189726D02*
G01*
X11579097Y6044184D01*
X11690858Y6153404D02*
G01*
X11700002Y6157976D01*
X11713463Y6171437D01*
X11713463Y6075934D01*
X11743436Y6153404D02*
G01*
X11752579Y6157976D01*
X11766295Y6171437D01*
X11766295Y6075934D01*
X17195800Y6171437D02*
G01*
X17195800Y6075934D01*
X17259554Y6171437D02*
G01*
X17195800Y6107937D01*
X17218406Y6130544D02*
G01*
X17259554Y6075934D01*
X17371313Y6189726D02*
G01*
X17289525Y6044184D01*
X17405858Y6148831D02*
G01*
X17405858Y6153404D01*
X17410429Y6162294D01*
X17415002Y6166865D01*
X17423891Y6171437D01*
X17442179Y6171437D01*
X17451324Y6166865D01*
X17455895Y6162294D01*
X17460468Y6153404D01*
X17460468Y6144260D01*
X17455895Y6135115D01*
X17446752Y6121400D01*
X17401286Y6075934D01*
X17464786Y6075934D01*
X17503902Y6171437D02*
G01*
X17553940Y6171437D01*
X17526761Y6135115D01*
X17540224Y6135115D01*
X17549368Y6130544D01*
X17553940Y6125971D01*
X17558511Y6112510D01*
X17558511Y6103365D01*
X17553940Y6089650D01*
X17544795Y6080505D01*
X17531334Y6075934D01*
X17517618Y6075934D01*
X17503902Y6080505D01*
X17499329Y6085078D01*
X17495011Y6094221D01*
X15336266Y6171437D02*
G01*
X15336266Y6098794D01*
X15331693Y6085078D01*
X15327122Y6080505D01*
X15317977Y6075934D01*
X15309088Y6075934D01*
X15299943Y6080505D01*
X15295372Y6085078D01*
X15290800Y6098794D01*
X15290800Y6107937D01*
X15448025Y6189726D02*
G01*
X15366238Y6044184D01*
X15482570Y6148831D02*
G01*
X15482570Y6153404D01*
X15487141Y6162294D01*
X15491713Y6166865D01*
X15500858Y6171437D01*
X15518891Y6171437D01*
X15528036Y6166865D01*
X15532608Y6162294D01*
X15537179Y6153404D01*
X15537179Y6144260D01*
X15532608Y6135115D01*
X15523463Y6121400D01*
X15477997Y6075934D01*
X15541752Y6075934D01*
X15576295Y6148831D02*
G01*
X15576295Y6153404D01*
X15580868Y6162294D01*
X15585440Y6166865D01*
X15594329Y6171437D01*
X15612618Y6171437D01*
X15621761Y6166865D01*
X15626334Y6162294D01*
X15630906Y6153404D01*
X15630906Y6144260D01*
X15626334Y6135115D01*
X15617190Y6121400D01*
X15571724Y6075934D01*
X15635224Y6075934D01*
X21010372Y6130544D02*
G01*
X21005800Y6125971D01*
X21010372Y6121400D01*
X21014943Y6125971D01*
X21010372Y6130544D01*
X21010372Y6098794D02*
G01*
X21005800Y6094221D01*
X21010372Y6089650D01*
X21014943Y6094221D01*
X21010372Y6098794D01*
X19100800Y6171437D02*
G01*
X19100800Y6075934D01*
X19100800Y6075934D02*
G01*
X19155409Y6075934D01*
X19267170Y6189726D02*
G01*
X19185381Y6044184D01*
X19301713Y6148831D02*
G01*
X19301713Y6153404D01*
X19306286Y6162294D01*
X19310858Y6166865D01*
X19320002Y6171437D01*
X19338036Y6171437D01*
X19347179Y6166865D01*
X19351752Y6162294D01*
X19356324Y6153404D01*
X19356324Y6144260D01*
X19351752Y6135115D01*
X19342608Y6121400D01*
X19297141Y6075934D01*
X19360895Y6075934D01*
X19436334Y6171437D02*
G01*
X19390868Y6107937D01*
X19458940Y6107937D01*
X19436334Y6171437D02*
G01*
X19436334Y6075934D01*
X22937977Y6189726D02*
G01*
X22937977Y6044184D01*
X22942550Y6189726D02*
G01*
X22942550Y6044184D01*
X22910800Y6189726D02*
G01*
X22942550Y6189726D01*
X22910800Y6044184D02*
G01*
X22942550Y6044184D01*
X12890500Y8076437D02*
G01*
X12926822Y8030971D01*
X12926822Y7980934D01*
X12963143Y8076437D02*
G01*
X12926822Y8030971D01*
X13075158Y8094726D02*
G01*
X12993115Y7949184D01*
X13150595Y8076437D02*
G01*
X13105129Y8012937D01*
X13173202Y8012937D01*
X13150595Y8076437D02*
G01*
X13150595Y7980934D01*
X13203174Y8058404D02*
G01*
X13212318Y8062976D01*
X13226034Y8076437D01*
X13226034Y7980934D01*
X11017250Y8076437D02*
G01*
X11017250Y7980934D01*
X10985500Y8076437D02*
G01*
X11049254Y8076437D01*
X11161013Y8094726D02*
G01*
X11079225Y7949184D01*
X11200129Y8076437D02*
G01*
X11250168Y8076437D01*
X11222736Y8040115D01*
X11236452Y8040115D01*
X11245595Y8035544D01*
X11250168Y8030971D01*
X11254486Y8017510D01*
X11254486Y8008365D01*
X11250168Y7994650D01*
X11241024Y7985505D01*
X11227308Y7980934D01*
X11213591Y7980934D01*
X11200129Y7985505D01*
X11195558Y7990078D01*
X11190986Y7999221D01*
X11284711Y8058404D02*
G01*
X11293602Y8062976D01*
X11307318Y8076437D01*
X11307318Y7980934D01*
X16700500Y8076437D02*
G01*
X16700500Y7980934D01*
X16812259Y8094726D02*
G01*
X16730472Y7949184D01*
X16887698Y8076437D02*
G01*
X16842231Y8012937D01*
X16910558Y8012937D01*
X16887698Y8076437D02*
G01*
X16887698Y7980934D01*
X16949674Y8076437D02*
G01*
X16999711Y8076437D01*
X16972279Y8040115D01*
X16985995Y8040115D01*
X16995140Y8035544D01*
X16999711Y8030971D01*
X17004029Y8017510D01*
X17004029Y8008365D01*
X16999711Y7994650D01*
X16990568Y7985505D01*
X16976852Y7980934D01*
X16963136Y7980934D01*
X16949674Y7985505D01*
X16945102Y7990078D01*
X16940529Y7999221D01*
X14795500Y8076437D02*
G01*
X14795500Y8008365D01*
X14800072Y7994650D01*
X14809216Y7985505D01*
X14822677Y7980934D01*
X14831822Y7980934D01*
X14845538Y7985505D01*
X14854681Y7994650D01*
X14859254Y8008365D01*
X14859254Y8076437D01*
X14971013Y8094726D02*
G01*
X14889225Y7949184D01*
X15046452Y8076437D02*
G01*
X15000986Y8012937D01*
X15069058Y8012937D01*
X15046452Y8076437D02*
G01*
X15046452Y7980934D01*
X15103602Y8053831D02*
G01*
X15103602Y8058404D01*
X15108174Y8067294D01*
X15112745Y8071865D01*
X15121890Y8076437D01*
X15139924Y8076437D01*
X15149068Y8071865D01*
X15153640Y8067294D01*
X15158211Y8058404D01*
X15158211Y8049260D01*
X15153640Y8040115D01*
X15144495Y8026400D01*
X15099029Y7980934D01*
X15162784Y7980934D01*
X20510500Y8076437D02*
G01*
X20510500Y7980934D01*
X20510500Y8076437D02*
G01*
X20551393Y8076437D01*
X20565109Y8071865D01*
X20569681Y8067294D01*
X20574254Y8058404D01*
X20574254Y8044687D01*
X20569681Y8035544D01*
X20565109Y8030971D01*
X20551393Y8026400D01*
X20510500Y8026400D01*
X20686013Y8094726D02*
G01*
X20604225Y7949184D01*
X20761452Y8076437D02*
G01*
X20715986Y8012937D01*
X20784058Y8012937D01*
X20761452Y8076437D02*
G01*
X20761452Y7980934D01*
X20868640Y8076437D02*
G01*
X20823174Y8076437D01*
X20818602Y8035544D01*
X20823174Y8040115D01*
X20836890Y8044687D01*
X20850606Y8044687D01*
X20864068Y8040115D01*
X20873211Y8030971D01*
X20877784Y8017510D01*
X20877784Y8008365D01*
X20873211Y7994650D01*
X20864068Y7985505D01*
X20850606Y7980934D01*
X20836890Y7980934D01*
X20823174Y7985505D01*
X20818602Y7990078D01*
X20814029Y7999221D01*
X18632677Y8076437D02*
G01*
X18623788Y8071865D01*
X18614643Y8062976D01*
X18610072Y8053831D01*
X18605500Y8040115D01*
X18605500Y8017510D01*
X18610072Y8003794D01*
X18614643Y7994650D01*
X18623788Y7985505D01*
X18632677Y7980934D01*
X18650966Y7980934D01*
X18660109Y7985505D01*
X18669254Y7994650D01*
X18673572Y8003794D01*
X18678143Y8017510D01*
X18678143Y8040115D01*
X18673572Y8053831D01*
X18669254Y8062976D01*
X18660109Y8071865D01*
X18650966Y8076437D01*
X18632677Y8076437D01*
X18790158Y8094726D02*
G01*
X18708116Y7949184D01*
X18865595Y8076437D02*
G01*
X18820129Y8012937D01*
X18888202Y8012937D01*
X18865595Y8076437D02*
G01*
X18865595Y7980934D01*
X18963640Y8076437D02*
G01*
X18918174Y8012937D01*
X18986500Y8012937D01*
X18963640Y8076437D02*
G01*
X18963640Y7980934D01*
X24320500Y8076437D02*
G01*
X24320500Y7980934D01*
X24320500Y8076437D02*
G01*
X24379681Y8076437D01*
X24320500Y8030971D02*
G01*
X24356822Y8030971D01*
X24320500Y7980934D02*
G01*
X24379681Y7980934D01*
X24409654Y8076437D02*
G01*
X24409654Y7980934D01*
X24409654Y8076437D02*
G01*
X24473154Y7980934D01*
X24473154Y8076437D02*
G01*
X24473154Y7980934D01*
X24535129Y8076437D02*
G01*
X24535129Y7980934D01*
X24503125Y8076437D02*
G01*
X24566879Y8076437D01*
X24596852Y8076437D02*
G01*
X24596852Y7980934D01*
X24596852Y8076437D02*
G01*
X24656034Y8076437D01*
X24596852Y8030971D02*
G01*
X24633174Y8030971D01*
X24596852Y7980934D02*
G01*
X24656034Y7980934D01*
X24686006Y8076437D02*
G01*
X24686006Y7980934D01*
X24686006Y8076437D02*
G01*
X24726900Y8076437D01*
X24740616Y8071865D01*
X24744934Y8067294D01*
X24749506Y8058404D01*
X24749506Y8049260D01*
X24744934Y8040115D01*
X24740616Y8035544D01*
X24726900Y8030971D01*
X24686006Y8030971D01*
X24717756Y8030971D02*
G01*
X24749506Y7980934D01*
X22415500Y8094726D02*
G01*
X22415500Y7949184D01*
X22420072Y8094726D02*
G01*
X22420072Y7949184D01*
X22415500Y8094726D02*
G01*
X22447250Y8094726D01*
X22415500Y7949184D02*
G01*
X22447250Y7949184D01*
D11*
X469900Y11342115D02*
G01*
X469900Y11233150D01*
X542544Y11342115D02*
G01*
X469900Y11269471D01*
X495807Y11295379D02*
G01*
X542544Y11233150D01*
X576834Y11342115D02*
G01*
X576834Y11233150D01*
X576834Y11342115D02*
G01*
X644397Y11342115D01*
X576834Y11290300D02*
G01*
X618489Y11290300D01*
X576834Y11233150D02*
G01*
X644397Y11233150D01*
X678687Y11342115D02*
G01*
X720344Y11290300D01*
X720344Y11233150D01*
X762000Y11342115D02*
G01*
X720344Y11290300D01*
X796289Y11342115D02*
G01*
X796289Y11233150D01*
X796289Y11342115D02*
G01*
X843026Y11342115D01*
X858520Y11337036D01*
X863600Y11331702D01*
X868934Y11321287D01*
X868934Y11310874D01*
X863600Y11300460D01*
X858520Y11295379D01*
X843026Y11290300D01*
X796289Y11290300D02*
G01*
X843026Y11290300D01*
X858520Y11284965D01*
X863600Y11279886D01*
X868934Y11269471D01*
X868934Y11253724D01*
X863600Y11243310D01*
X858520Y11238229D01*
X843026Y11233150D01*
X796289Y11233150D01*
X934465Y11342115D02*
G01*
X924052Y11337036D01*
X913637Y11326621D01*
X908304Y11316208D01*
X903223Y11300460D01*
X903223Y11274552D01*
X908304Y11259058D01*
X913637Y11248644D01*
X924052Y11238229D01*
X934465Y11233150D01*
X955039Y11233150D01*
X965454Y11238229D01*
X975868Y11248644D01*
X981202Y11259058D01*
X986281Y11274552D01*
X986281Y11300460D01*
X981202Y11316208D01*
X975868Y11326621D01*
X965454Y11337036D01*
X955039Y11342115D01*
X934465Y11342115D01*
X1062228Y11342115D02*
G01*
X1020571Y11233150D01*
X1062228Y11342115D02*
G01*
X1103629Y11233150D01*
X1036320Y11269471D02*
G01*
X1088136Y11269471D01*
X1137920Y11342115D02*
G01*
X1137920Y11233150D01*
X1137920Y11342115D02*
G01*
X1184910Y11342115D01*
X1200404Y11337036D01*
X1205484Y11331702D01*
X1210818Y11321287D01*
X1210818Y11310874D01*
X1205484Y11300460D01*
X1200404Y11295379D01*
X1184910Y11290300D01*
X1137920Y11290300D01*
X1174495Y11290300D02*
G01*
X1210818Y11233150D01*
X1245107Y11342115D02*
G01*
X1245107Y11233150D01*
X1245107Y11342115D02*
G01*
X1281429Y11342115D01*
X1296923Y11337036D01*
X1307337Y11326621D01*
X1312671Y11316208D01*
X1317752Y11300460D01*
X1317752Y11274552D01*
X1312671Y11259058D01*
X1307337Y11248644D01*
X1296923Y11238229D01*
X1281429Y11233150D01*
X1245107Y11233150D01*
X1504950Y11326621D02*
G01*
X1494536Y11337036D01*
X1478787Y11342115D01*
X1457960Y11342115D01*
X1442465Y11337036D01*
X1432052Y11326621D01*
X1432052Y11316208D01*
X1437386Y11305794D01*
X1442465Y11300460D01*
X1452879Y11295379D01*
X1484121Y11284965D01*
X1494536Y11279886D01*
X1499615Y11274552D01*
X1504950Y11264137D01*
X1504950Y11248644D01*
X1494536Y11238229D01*
X1478787Y11233150D01*
X1457960Y11233150D01*
X1442465Y11238229D01*
X1432052Y11248644D01*
X1539239Y11342115D02*
G01*
X1565147Y11233150D01*
X1591055Y11342115D02*
G01*
X1565147Y11233150D01*
X1591055Y11342115D02*
G01*
X1616963Y11233150D01*
X1643126Y11342115D02*
G01*
X1616963Y11233150D01*
X1677415Y11342115D02*
G01*
X1677415Y11233150D01*
X1748028Y11342115D02*
G01*
X1748028Y11233150D01*
X1711705Y11342115D02*
G01*
X1784350Y11342115D01*
X1896618Y11316208D02*
G01*
X1891284Y11326621D01*
X1880870Y11337036D01*
X1870710Y11342115D01*
X1849881Y11342115D01*
X1839468Y11337036D01*
X1829054Y11326621D01*
X1823720Y11316208D01*
X1818639Y11300460D01*
X1818639Y11274552D01*
X1823720Y11259058D01*
X1829054Y11248644D01*
X1839468Y11238229D01*
X1849881Y11233150D01*
X1870710Y11233150D01*
X1880870Y11238229D01*
X1891284Y11248644D01*
X1896618Y11259058D01*
X1930908Y11342115D02*
G01*
X1930908Y11233150D01*
X2003552Y11342115D02*
G01*
X2003552Y11233150D01*
X1930908Y11290300D02*
G01*
X2003552Y11290300D01*
X2117852Y11342115D02*
G01*
X2117852Y11233150D01*
X2117852Y11342115D02*
G01*
X2164588Y11342115D01*
X2180336Y11337036D01*
X2185415Y11331702D01*
X2190750Y11321287D01*
X2190750Y11310874D01*
X2185415Y11300460D01*
X2180336Y11295379D01*
X2164588Y11290300D01*
X2117852Y11290300D02*
G01*
X2164588Y11290300D01*
X2180336Y11284965D01*
X2185415Y11279886D01*
X2190750Y11269471D01*
X2190750Y11253724D01*
X2185415Y11243310D01*
X2180336Y11238229D01*
X2164588Y11233150D01*
X2117852Y11233150D01*
X2256027Y11342115D02*
G01*
X2245613Y11337036D01*
X2235200Y11326621D01*
X2230120Y11316208D01*
X2225040Y11300460D01*
X2225040Y11274552D01*
X2230120Y11259058D01*
X2235200Y11248644D01*
X2245613Y11238229D01*
X2256027Y11233150D01*
X2276856Y11233150D01*
X2287270Y11238229D01*
X2297684Y11248644D01*
X2302763Y11259058D01*
X2308097Y11274552D01*
X2308097Y11300460D01*
X2302763Y11316208D01*
X2297684Y11326621D01*
X2287270Y11337036D01*
X2276856Y11342115D01*
X2256027Y11342115D01*
X2383790Y11342115D02*
G01*
X2342388Y11233150D01*
X2383790Y11342115D02*
G01*
X2425445Y11233150D01*
X2357881Y11269471D02*
G01*
X2409952Y11269471D01*
X2459736Y11342115D02*
G01*
X2459736Y11233150D01*
X2459736Y11342115D02*
G01*
X2506472Y11342115D01*
X2522220Y11337036D01*
X2527300Y11331702D01*
X2532379Y11321287D01*
X2532379Y11310874D01*
X2527300Y11300460D01*
X2522220Y11295379D01*
X2506472Y11290300D01*
X2459736Y11290300D01*
X2496058Y11290300D02*
G01*
X2532379Y11233150D01*
X2566670Y11342115D02*
G01*
X2566670Y11233150D01*
X2566670Y11342115D02*
G01*
X2603245Y11342115D01*
X2618740Y11337036D01*
X2629154Y11326621D01*
X2634234Y11316208D01*
X2639568Y11300460D01*
X2639568Y11274552D01*
X2634234Y11259058D01*
X2629154Y11248644D01*
X2618740Y11238229D01*
X2603245Y11233150D01*
X2566670Y11233150D01*
X2753868Y11279886D02*
G01*
X2847340Y11279886D01*
X2997961Y11342115D02*
G01*
X2997961Y11233150D01*
X2961640Y11342115D02*
G01*
X3034284Y11342115D01*
X3099815Y11342115D02*
G01*
X3089402Y11337036D01*
X3078988Y11326621D01*
X3073908Y11316208D01*
X3068574Y11300460D01*
X3068574Y11274552D01*
X3073908Y11259058D01*
X3078988Y11248644D01*
X3089402Y11238229D01*
X3099815Y11233150D01*
X3120643Y11233150D01*
X3131058Y11238229D01*
X3141472Y11248644D01*
X3146552Y11259058D01*
X3151886Y11274552D01*
X3151886Y11300460D01*
X3146552Y11316208D01*
X3141472Y11326621D01*
X3131058Y11337036D01*
X3120643Y11342115D01*
X3099815Y11342115D01*
X3186175Y11342115D02*
G01*
X3186175Y11233150D01*
X3186175Y11342115D02*
G01*
X3232911Y11342115D01*
X3248406Y11337036D01*
X3253740Y11331702D01*
X3258820Y11321287D01*
X3258820Y11305794D01*
X3253740Y11295379D01*
X3248406Y11290300D01*
X3232911Y11284965D01*
X3186175Y11284965D01*
X469900Y11113480D02*
G01*
X469900Y11004514D01*
X469900Y11113480D02*
G01*
X516636Y11113480D01*
X532129Y11108400D01*
X537463Y11103066D01*
X542544Y11092652D01*
X542544Y11077158D01*
X537463Y11066744D01*
X532129Y11061664D01*
X516636Y11056330D01*
X469900Y11056330D01*
X618489Y11113480D02*
G01*
X576834Y11004514D01*
X618489Y11113480D02*
G01*
X660145Y11004514D01*
X592581Y11040836D02*
G01*
X644397Y11040836D01*
X694436Y11113480D02*
G01*
X694436Y11004514D01*
X694436Y11113480D02*
G01*
X741171Y11113480D01*
X756665Y11108400D01*
X762000Y11103066D01*
X767079Y11092652D01*
X767079Y11082492D01*
X762000Y11072078D01*
X756665Y11066744D01*
X741171Y11061664D01*
X694436Y11061664D01*
X730757Y11061664D02*
G01*
X767079Y11004514D01*
X837692Y11113480D02*
G01*
X837692Y11004514D01*
X801370Y11113480D02*
G01*
X874013Y11113480D01*
X988313Y11113480D02*
G01*
X988313Y11004514D01*
X988313Y11113480D02*
G01*
X1061212Y11004514D01*
X1061212Y11113480D02*
G01*
X1061212Y11004514D01*
X1095502Y11113480D02*
G01*
X1095502Y11035502D01*
X1100581Y11020008D01*
X1110995Y11009594D01*
X1126489Y11004514D01*
X1136904Y11004514D01*
X1152652Y11009594D01*
X1163065Y11020008D01*
X1168145Y11035502D01*
X1168145Y11113480D01*
X1202436Y11113480D02*
G01*
X1202436Y11004514D01*
X1202436Y11113480D02*
G01*
X1244092Y11004514D01*
X1285494Y11113480D02*
G01*
X1244092Y11004514D01*
X1285494Y11113480D02*
G01*
X1285494Y11004514D01*
X1319784Y11113480D02*
G01*
X1319784Y11004514D01*
X1319784Y11113480D02*
G01*
X1366520Y11113480D01*
X1382268Y11108400D01*
X1387347Y11103066D01*
X1392681Y11092652D01*
X1392681Y11082492D01*
X1387347Y11072078D01*
X1382268Y11066744D01*
X1366520Y11061664D01*
X1319784Y11061664D02*
G01*
X1366520Y11061664D01*
X1382268Y11056330D01*
X1387347Y11051250D01*
X1392681Y11040836D01*
X1392681Y11025342D01*
X1387347Y11014928D01*
X1382268Y11009594D01*
X1366520Y11004514D01*
X1319784Y11004514D01*
X1426971Y11113480D02*
G01*
X1426971Y11004514D01*
X1426971Y11113480D02*
G01*
X1494536Y11113480D01*
X1426971Y11061664D02*
G01*
X1468373Y11061664D01*
X1426971Y11004514D02*
G01*
X1494536Y11004514D01*
X1528826Y11113480D02*
G01*
X1528826Y11004514D01*
X1528826Y11113480D02*
G01*
X1575562Y11113480D01*
X1591055Y11108400D01*
X1596389Y11103066D01*
X1601470Y11092652D01*
X1601470Y11082492D01*
X1596389Y11072078D01*
X1591055Y11066744D01*
X1575562Y11061664D01*
X1528826Y11061664D01*
X1565147Y11061664D02*
G01*
X1601470Y11004514D01*
X1726184Y11113480D02*
G01*
X1783334Y11113480D01*
X1752092Y11072078D01*
X1767839Y11072078D01*
X1778000Y11066744D01*
X1783334Y11061664D01*
X1788413Y11045916D01*
X1788413Y11035502D01*
X1783334Y11020008D01*
X1772920Y11009594D01*
X1757426Y11004514D01*
X1741678Y11004514D01*
X1726184Y11009594D01*
X1720850Y11014928D01*
X1715770Y11025342D01*
X1833118Y11113480D02*
G01*
X1890268Y11113480D01*
X1859279Y11072078D01*
X1874773Y11072078D01*
X1885187Y11066744D01*
X1890268Y11061664D01*
X1895602Y11045916D01*
X1895602Y11035502D01*
X1890268Y11020008D01*
X1879854Y11009594D01*
X1864360Y11004514D01*
X1848865Y11004514D01*
X1833118Y11009594D01*
X1828037Y11014928D01*
X1822704Y11025342D01*
X1934972Y11087572D02*
G01*
X1934972Y11092652D01*
X1940306Y11103066D01*
X1945386Y11108400D01*
X1955800Y11113480D01*
X1976627Y11113480D01*
X1987041Y11108400D01*
X1992122Y11103066D01*
X1997456Y11092652D01*
X1997456Y11082492D01*
X1992122Y11072078D01*
X1981708Y11056330D01*
X1929892Y11004514D01*
X2002536Y11004514D01*
X2068068Y11113480D02*
G01*
X2052320Y11108400D01*
X2042159Y11092652D01*
X2036825Y11066744D01*
X2036825Y11051250D01*
X2042159Y11025342D01*
X2052320Y11009594D01*
X2068068Y11004514D01*
X2078481Y11004514D01*
X2093975Y11009594D01*
X2104390Y11025342D01*
X2109470Y11051250D01*
X2109470Y11066744D01*
X2104390Y11092652D01*
X2093975Y11108400D01*
X2078481Y11113480D01*
X2068068Y11113480D01*
X2143759Y11051250D02*
G01*
X2237486Y11051250D01*
X2302763Y11113480D02*
G01*
X2287270Y11108400D01*
X2276856Y11092652D01*
X2271775Y11066744D01*
X2271775Y11051250D01*
X2276856Y11025342D01*
X2287270Y11009594D01*
X2302763Y11004514D01*
X2313177Y11004514D01*
X2328925Y11009594D01*
X2339340Y11025342D01*
X2344420Y11051250D01*
X2344420Y11066744D01*
X2339340Y11092652D01*
X2328925Y11108400D01*
X2313177Y11113480D01*
X2302763Y11113480D01*
X2389124Y11113480D02*
G01*
X2446274Y11113480D01*
X2415031Y11072078D01*
X2430779Y11072078D01*
X2440940Y11066744D01*
X2446274Y11061664D01*
X2451354Y11045916D01*
X2451354Y11035502D01*
X2446274Y11020008D01*
X2435859Y11009594D01*
X2420365Y11004514D01*
X2404618Y11004514D01*
X2389124Y11009594D01*
X2383790Y11014928D01*
X2378709Y11025342D01*
X2516886Y11113480D02*
G01*
X2501391Y11108400D01*
X2490977Y11092652D01*
X2485643Y11066744D01*
X2485643Y11051250D01*
X2490977Y11025342D01*
X2501391Y11009594D01*
X2516886Y11004514D01*
X2527300Y11004514D01*
X2542793Y11009594D01*
X2553208Y11025342D01*
X2558541Y11051250D01*
X2558541Y11066744D01*
X2553208Y11092652D01*
X2542793Y11108400D01*
X2527300Y11113480D01*
X2516886Y11113480D01*
X2592831Y11092652D02*
G01*
X2603245Y11097986D01*
X2618740Y11113480D01*
X2618740Y11004514D01*
X2733040Y11113480D02*
G01*
X2774695Y11004514D01*
X2816097Y11113480D02*
G01*
X2774695Y11004514D01*
X2881629Y11113480D02*
G01*
X2866136Y11108400D01*
X2855722Y11092652D01*
X2850388Y11066744D01*
X2850388Y11051250D01*
X2855722Y11025342D01*
X2866136Y11009594D01*
X2881629Y11004514D01*
X2892043Y11004514D01*
X2907538Y11009594D01*
X2917952Y11025342D01*
X2923286Y11051250D01*
X2923286Y11066744D01*
X2917952Y11092652D01*
X2907538Y11108400D01*
X2892043Y11113480D01*
X2881629Y11113480D01*
X2962656Y11030422D02*
G01*
X2957575Y11025342D01*
X2962656Y11020008D01*
X2967990Y11025342D01*
X2962656Y11030422D01*
X3007359Y11087572D02*
G01*
X3007359Y11092652D01*
X3012440Y11103066D01*
X3017774Y11108400D01*
X3028188Y11113480D01*
X3049015Y11113480D01*
X3059429Y11108400D01*
X3064509Y11103066D01*
X3069590Y11092652D01*
X3069590Y11082492D01*
X3064509Y11072078D01*
X3054095Y11056330D01*
X3002279Y11004514D01*
X3074924Y11004514D01*
X2324100Y9995915D02*
G01*
X2324100Y9886950D01*
X2324100Y9995915D02*
G01*
X2370836Y9995915D01*
X2386329Y9990836D01*
X2391663Y9985502D01*
X2396743Y9975087D01*
X2396743Y9964674D01*
X2391663Y9954260D01*
X2386329Y9949179D01*
X2370836Y9944100D01*
X2324100Y9944100D01*
X2360422Y9944100D02*
G01*
X2396743Y9886950D01*
X2431034Y9995915D02*
G01*
X2431034Y9886950D01*
X2431034Y9995915D02*
G01*
X2498597Y9995915D01*
X2431034Y9944100D02*
G01*
X2472690Y9944100D01*
X2431034Y9886950D02*
G01*
X2498597Y9886950D01*
X2605786Y9980421D02*
G01*
X2595372Y9990836D01*
X2579624Y9995915D01*
X2559050Y9995915D01*
X2543302Y9990836D01*
X2532888Y9980421D01*
X2532888Y9970008D01*
X2538222Y9959594D01*
X2543302Y9954260D01*
X2553715Y9949179D01*
X2584958Y9938765D01*
X2595372Y9933686D01*
X2600452Y9928352D01*
X2605786Y9917937D01*
X2605786Y9902444D01*
X2595372Y9892029D01*
X2579624Y9886950D01*
X2559050Y9886950D01*
X2543302Y9892029D01*
X2532888Y9902444D01*
X2640075Y9995915D02*
G01*
X2640075Y9886950D01*
X2640075Y9995915D02*
G01*
X2707640Y9995915D01*
X2640075Y9944100D02*
G01*
X2681477Y9944100D01*
X2640075Y9886950D02*
G01*
X2707640Y9886950D01*
X2778252Y9995915D02*
G01*
X2778252Y9886950D01*
X2741929Y9995915D02*
G01*
X2814574Y9995915D01*
X2396743Y9726421D02*
G01*
X2386329Y9736836D01*
X2370836Y9741915D01*
X2350008Y9741915D01*
X2334513Y9736836D01*
X2324100Y9726421D01*
X2324100Y9716008D01*
X2329179Y9705594D01*
X2334513Y9700260D01*
X2344927Y9695179D01*
X2376170Y9684765D01*
X2386329Y9679686D01*
X2391663Y9674352D01*
X2396743Y9663937D01*
X2396743Y9648444D01*
X2386329Y9638029D01*
X2370836Y9632950D01*
X2350008Y9632950D01*
X2334513Y9638029D01*
X2324100Y9648444D01*
X2509011Y9716008D02*
G01*
X2503931Y9726421D01*
X2493518Y9736836D01*
X2483104Y9741915D01*
X2462275Y9741915D01*
X2451861Y9736836D01*
X2441447Y9726421D01*
X2436368Y9716008D01*
X2431034Y9700260D01*
X2431034Y9674352D01*
X2436368Y9658858D01*
X2441447Y9648444D01*
X2451861Y9638029D01*
X2462275Y9632950D01*
X2483104Y9632950D01*
X2493518Y9638029D01*
X2503931Y9648444D01*
X2509011Y9658858D01*
X2543302Y9741915D02*
G01*
X2543302Y9632950D01*
X2616200Y9741915D02*
G01*
X2543302Y9669271D01*
X2569209Y9695179D02*
G01*
X2616200Y9632950D01*
X2396743Y9472421D02*
G01*
X2386329Y9482836D01*
X2370836Y9487915D01*
X2350008Y9487915D01*
X2334513Y9482836D01*
X2324100Y9472421D01*
X2324100Y9462008D01*
X2329179Y9451594D01*
X2334513Y9446260D01*
X2344927Y9441179D01*
X2376170Y9430765D01*
X2386329Y9425686D01*
X2391663Y9420352D01*
X2396743Y9409937D01*
X2396743Y9394444D01*
X2386329Y9384029D01*
X2370836Y9378950D01*
X2350008Y9378950D01*
X2334513Y9384029D01*
X2324100Y9394444D01*
X2431034Y9487915D02*
G01*
X2431034Y9378950D01*
X2431034Y9487915D02*
G01*
X2467609Y9487915D01*
X2483104Y9482836D01*
X2493518Y9472421D01*
X2498597Y9462008D01*
X2503931Y9446260D01*
X2503931Y9420352D01*
X2498597Y9404858D01*
X2493518Y9394444D01*
X2483104Y9384029D01*
X2467609Y9378950D01*
X2431034Y9378950D01*
X2579624Y9487915D02*
G01*
X2538222Y9378950D01*
X2579624Y9487915D02*
G01*
X2621279Y9378950D01*
X2553715Y9415271D02*
G01*
X2605786Y9415271D01*
X2324100Y9233915D02*
G01*
X2324100Y9124950D01*
X2358390Y9233915D02*
G01*
X2358390Y9124950D01*
X2358390Y9233915D02*
G01*
X2431034Y9124950D01*
X2431034Y9233915D02*
G01*
X2431034Y9124950D01*
X2501900Y9233915D02*
G01*
X2501900Y9124950D01*
X2465324Y9233915D02*
G01*
X2538222Y9233915D01*
X2334513Y8979915D02*
G01*
X2391663Y8979915D01*
X2360422Y8938260D01*
X2376170Y8938260D01*
X2386329Y8933179D01*
X2391663Y8928100D01*
X2396743Y8912352D01*
X2396743Y8901937D01*
X2391663Y8886444D01*
X2381250Y8876029D01*
X2365756Y8870950D01*
X2350008Y8870950D01*
X2334513Y8876029D01*
X2329179Y8881110D01*
X2324100Y8891524D01*
X2431034Y8979915D02*
G01*
X2472690Y8870950D01*
X2514345Y8979915D02*
G01*
X2472690Y8870950D01*
X2559050Y8979915D02*
G01*
X2616200Y8979915D01*
X2584958Y8938260D01*
X2600452Y8938260D01*
X2610865Y8933179D01*
X2616200Y8928100D01*
X2621279Y8912352D01*
X2621279Y8901937D01*
X2616200Y8886444D01*
X2605786Y8876029D01*
X2590038Y8870950D01*
X2574543Y8870950D01*
X2559050Y8876029D01*
X2553715Y8881110D01*
X2548636Y8891524D01*
X2402077Y8700008D02*
G01*
X2396743Y8710421D01*
X2386329Y8720836D01*
X2376170Y8725915D01*
X2355341Y8725915D01*
X2344927Y8720836D01*
X2334513Y8710421D01*
X2329179Y8700008D01*
X2324100Y8684260D01*
X2324100Y8658352D01*
X2329179Y8642858D01*
X2334513Y8632444D01*
X2344927Y8622029D01*
X2355341Y8616950D01*
X2376170Y8616950D01*
X2386329Y8622029D01*
X2396743Y8632444D01*
X2402077Y8642858D01*
X2402077Y8658352D01*
X2376170Y8658352D02*
G01*
X2402077Y8658352D01*
X2436368Y8725915D02*
G01*
X2436368Y8616950D01*
X2436368Y8725915D02*
G01*
X2509011Y8616950D01*
X2509011Y8725915D02*
G01*
X2509011Y8616950D01*
X2543302Y8725915D02*
G01*
X2543302Y8616950D01*
X2543302Y8725915D02*
G01*
X2579624Y8725915D01*
X2595372Y8720836D01*
X2605786Y8710421D01*
X2610865Y8700008D01*
X2616200Y8684260D01*
X2616200Y8658352D01*
X2610865Y8642858D01*
X2605786Y8632444D01*
X2595372Y8622029D01*
X2579624Y8616950D01*
X2543302Y8616950D01*
X2533599Y6361176D02*
G01*
X2524709Y6370065D01*
X2510993Y6374637D01*
X2492705Y6374637D01*
X2479243Y6370065D01*
X2470099Y6361176D01*
X2470099Y6352031D01*
X2474671Y6342887D01*
X2479243Y6338315D01*
X2488387Y6333744D01*
X2515565Y6324600D01*
X2524709Y6320281D01*
X2529281Y6315710D01*
X2533599Y6306565D01*
X2533599Y6292850D01*
X2524709Y6283705D01*
X2510993Y6279134D01*
X2492705Y6279134D01*
X2479243Y6283705D01*
X2470099Y6292850D01*
X2563825Y6356604D02*
G01*
X2572715Y6361176D01*
X2586431Y6374637D01*
X2586431Y6279134D01*
X4889754Y6361176D02*
G01*
X4880609Y6370065D01*
X4866893Y6374637D01*
X4848606Y6374637D01*
X4835143Y6370065D01*
X4826000Y6361176D01*
X4826000Y6352031D01*
X4830572Y6342887D01*
X4835143Y6338315D01*
X4844288Y6333744D01*
X4871465Y6324600D01*
X4880609Y6320281D01*
X4885181Y6315710D01*
X4889754Y6306565D01*
X4889754Y6292850D01*
X4880609Y6283705D01*
X4866893Y6279134D01*
X4848606Y6279134D01*
X4835143Y6283705D01*
X4826000Y6292850D01*
X4924297Y6352031D02*
G01*
X4924297Y6356604D01*
X4928615Y6365494D01*
X4933188Y6370065D01*
X4942331Y6374637D01*
X4960620Y6374637D01*
X4969509Y6370065D01*
X4974081Y6365494D01*
X4978654Y6356604D01*
X4978654Y6347460D01*
X4974081Y6338315D01*
X4965191Y6324600D01*
X4919725Y6279134D01*
X4983225Y6279134D01*
X6794754Y6361176D02*
G01*
X6785609Y6370065D01*
X6771893Y6374637D01*
X6753606Y6374637D01*
X6740143Y6370065D01*
X6731000Y6361176D01*
X6731000Y6352031D01*
X6735572Y6342887D01*
X6740143Y6338315D01*
X6749288Y6333744D01*
X6776465Y6324600D01*
X6785609Y6320281D01*
X6790181Y6315710D01*
X6794754Y6306565D01*
X6794754Y6292850D01*
X6785609Y6283705D01*
X6771893Y6279134D01*
X6753606Y6279134D01*
X6740143Y6283705D01*
X6731000Y6292850D01*
X6833615Y6374637D02*
G01*
X6883654Y6374637D01*
X6856475Y6338315D01*
X6870191Y6338315D01*
X6879081Y6333744D01*
X6883654Y6329171D01*
X6888225Y6315710D01*
X6888225Y6306565D01*
X6883654Y6292850D01*
X6874509Y6283705D01*
X6861047Y6279134D01*
X6847331Y6279134D01*
X6833615Y6283705D01*
X6829297Y6288278D01*
X6824725Y6297421D01*
X8699754Y6361176D02*
G01*
X8690609Y6370065D01*
X8676893Y6374637D01*
X8658606Y6374637D01*
X8645143Y6370065D01*
X8636000Y6361176D01*
X8636000Y6352031D01*
X8640572Y6342887D01*
X8645143Y6338315D01*
X8654288Y6333744D01*
X8681465Y6324600D01*
X8690609Y6320281D01*
X8695181Y6315710D01*
X8699754Y6306565D01*
X8699754Y6292850D01*
X8690609Y6283705D01*
X8676893Y6279134D01*
X8658606Y6279134D01*
X8645143Y6283705D01*
X8636000Y6292850D01*
X8775191Y6374637D02*
G01*
X8729725Y6311137D01*
X8797797Y6311137D01*
X8775191Y6374637D02*
G01*
X8775191Y6279134D01*
X10604751Y6361176D02*
G01*
X10595607Y6370065D01*
X10581891Y6374637D01*
X10563603Y6374637D01*
X10550141Y6370065D01*
X10540997Y6361176D01*
X10540997Y6352031D01*
X10545569Y6342887D01*
X10550141Y6338315D01*
X10559285Y6333744D01*
X10586463Y6324600D01*
X10595607Y6320281D01*
X10600179Y6315710D01*
X10604751Y6306565D01*
X10604751Y6292850D01*
X10595607Y6283705D01*
X10581891Y6279134D01*
X10563603Y6279134D01*
X10550141Y6283705D01*
X10540997Y6292850D01*
X10689079Y6374637D02*
G01*
X10643613Y6374637D01*
X10639295Y6333744D01*
X10643613Y6338315D01*
X10657329Y6342887D01*
X10671045Y6342887D01*
X10684507Y6338315D01*
X10693651Y6329171D01*
X10698223Y6315710D01*
X10698223Y6306565D01*
X10693651Y6292850D01*
X10684507Y6283705D01*
X10671045Y6279134D01*
X10657329Y6279134D01*
X10643613Y6283705D01*
X10639295Y6288278D01*
X10634723Y6297421D01*
X12509748Y6361176D02*
G01*
X12500604Y6370065D01*
X12486888Y6374637D01*
X12468600Y6374637D01*
X12455138Y6370065D01*
X12445994Y6361176D01*
X12445994Y6352031D01*
X12450566Y6342887D01*
X12455138Y6338315D01*
X12464282Y6333744D01*
X12491460Y6324600D01*
X12500604Y6320281D01*
X12505176Y6315710D01*
X12509748Y6306565D01*
X12509748Y6292850D01*
X12500604Y6283705D01*
X12486888Y6279134D01*
X12468600Y6279134D01*
X12455138Y6283705D01*
X12445994Y6292850D01*
X12594076Y6361176D02*
G01*
X12589504Y6370065D01*
X12576042Y6374637D01*
X12566898Y6374637D01*
X12553182Y6370065D01*
X12544292Y6356604D01*
X12539720Y6333744D01*
X12539720Y6311137D01*
X12544292Y6292850D01*
X12553182Y6283705D01*
X12566898Y6279134D01*
X12571470Y6279134D01*
X12585186Y6283705D01*
X12594076Y6292850D01*
X12598648Y6306565D01*
X12598648Y6311137D01*
X12594076Y6324600D01*
X12585186Y6333744D01*
X12571470Y6338315D01*
X12566898Y6338315D01*
X12553182Y6333744D01*
X12544292Y6324600D01*
X12539720Y6311137D01*
X14414728Y6361176D02*
G01*
X14405584Y6370065D01*
X14391868Y6374637D01*
X14373580Y6374637D01*
X14360118Y6370065D01*
X14350974Y6361176D01*
X14350974Y6352031D01*
X14355546Y6342887D01*
X14360118Y6338315D01*
X14369262Y6333744D01*
X14396440Y6324600D01*
X14405584Y6320281D01*
X14410156Y6315710D01*
X14414728Y6306565D01*
X14414728Y6292850D01*
X14405584Y6283705D01*
X14391868Y6279134D01*
X14373580Y6279134D01*
X14360118Y6283705D01*
X14350974Y6292850D01*
X14508200Y6374637D02*
G01*
X14462734Y6279134D01*
X14444700Y6374637D02*
G01*
X14508200Y6374637D01*
X16319743Y6361176D02*
G01*
X16310599Y6370065D01*
X16296883Y6374637D01*
X16278595Y6374637D01*
X16265133Y6370065D01*
X16255989Y6361176D01*
X16255989Y6352031D01*
X16260561Y6342887D01*
X16265133Y6338315D01*
X16274277Y6333744D01*
X16301455Y6324600D01*
X16310599Y6320281D01*
X16315171Y6315710D01*
X16319743Y6306565D01*
X16319743Y6292850D01*
X16310599Y6283705D01*
X16296883Y6279134D01*
X16278595Y6279134D01*
X16265133Y6283705D01*
X16255989Y6292850D01*
X16372321Y6374637D02*
G01*
X16358605Y6370065D01*
X16354287Y6361176D01*
X16354287Y6352031D01*
X16358605Y6342887D01*
X16367749Y6338315D01*
X16386037Y6333744D01*
X16399499Y6329171D01*
X16408643Y6320281D01*
X16413215Y6311137D01*
X16413215Y6297421D01*
X16408643Y6288278D01*
X16404071Y6283705D01*
X16390609Y6279134D01*
X16372321Y6279134D01*
X16358605Y6283705D01*
X16354287Y6288278D01*
X16349715Y6297421D01*
X16349715Y6311137D01*
X16354287Y6320281D01*
X16363177Y6329171D01*
X16376893Y6333744D01*
X16395181Y6338315D01*
X16404071Y6342887D01*
X16408643Y6352031D01*
X16408643Y6361176D01*
X16404071Y6370065D01*
X16390609Y6374637D01*
X16372321Y6374637D01*
X18224741Y6361176D02*
G01*
X18215597Y6370065D01*
X18201881Y6374637D01*
X18183593Y6374637D01*
X18170131Y6370065D01*
X18160987Y6361176D01*
X18160987Y6352031D01*
X18165559Y6342887D01*
X18170131Y6338315D01*
X18179275Y6333744D01*
X18206453Y6324600D01*
X18215597Y6320281D01*
X18220169Y6315710D01*
X18224741Y6306565D01*
X18224741Y6292850D01*
X18215597Y6283705D01*
X18201881Y6279134D01*
X18183593Y6279134D01*
X18170131Y6283705D01*
X18160987Y6292850D01*
X18313641Y6342887D02*
G01*
X18309069Y6329171D01*
X18300179Y6320281D01*
X18286463Y6315710D01*
X18281891Y6315710D01*
X18268175Y6320281D01*
X18259285Y6329171D01*
X18254713Y6342887D01*
X18254713Y6347460D01*
X18259285Y6361176D01*
X18268175Y6370065D01*
X18281891Y6374637D01*
X18286463Y6374637D01*
X18300179Y6370065D01*
X18309069Y6361176D01*
X18313641Y6342887D01*
X18313641Y6320281D01*
X18309069Y6297421D01*
X18300179Y6283705D01*
X18286463Y6279134D01*
X18277319Y6279134D01*
X18263603Y6283705D01*
X18259285Y6292850D01*
X20104356Y6361176D02*
G01*
X20095212Y6370065D01*
X20081496Y6374637D01*
X20063208Y6374637D01*
X20049746Y6370065D01*
X20040602Y6361176D01*
X20040602Y6352031D01*
X20045174Y6342887D01*
X20049746Y6338315D01*
X20058890Y6333744D01*
X20086068Y6324600D01*
X20095212Y6320281D01*
X20099784Y6315710D01*
X20104356Y6306565D01*
X20104356Y6292850D01*
X20095212Y6283705D01*
X20081496Y6279134D01*
X20063208Y6279134D01*
X20049746Y6283705D01*
X20040602Y6292850D01*
X20134328Y6356604D02*
G01*
X20143218Y6361176D01*
X20156934Y6374637D01*
X20156934Y6279134D01*
X20214338Y6374637D02*
G01*
X20200622Y6370065D01*
X20191478Y6356604D01*
X20186906Y6333744D01*
X20186906Y6320281D01*
X20191478Y6297421D01*
X20200622Y6283705D01*
X20214338Y6279134D01*
X20223228Y6279134D01*
X20236944Y6283705D01*
X20246088Y6297421D01*
X20250660Y6320281D01*
X20250660Y6333744D01*
X20246088Y6356604D01*
X20236944Y6370065D01*
X20223228Y6374637D01*
X20214338Y6374637D01*
X22009356Y6361176D02*
G01*
X22000212Y6370065D01*
X21986496Y6374637D01*
X21968208Y6374637D01*
X21954746Y6370065D01*
X21945602Y6361176D01*
X21945602Y6352031D01*
X21950174Y6342887D01*
X21954746Y6338315D01*
X21963890Y6333744D01*
X21991068Y6324600D01*
X22000212Y6320281D01*
X22004784Y6315710D01*
X22009356Y6306565D01*
X22009356Y6292850D01*
X22000212Y6283705D01*
X21986496Y6279134D01*
X21968208Y6279134D01*
X21954746Y6283705D01*
X21945602Y6292850D01*
X22039328Y6356604D02*
G01*
X22048218Y6361176D01*
X22061934Y6374637D01*
X22061934Y6279134D01*
X22091906Y6356604D02*
G01*
X22101050Y6361176D01*
X22114766Y6374637D01*
X22114766Y6279134D01*
X23914356Y6361176D02*
G01*
X23905212Y6370065D01*
X23891496Y6374637D01*
X23873208Y6374637D01*
X23859746Y6370065D01*
X23850602Y6361176D01*
X23850602Y6352031D01*
X23855174Y6342887D01*
X23859746Y6338315D01*
X23868890Y6333744D01*
X23896068Y6324600D01*
X23905212Y6320281D01*
X23909784Y6315710D01*
X23914356Y6306565D01*
X23914356Y6292850D01*
X23905212Y6283705D01*
X23891496Y6279134D01*
X23873208Y6279134D01*
X23859746Y6283705D01*
X23850602Y6292850D01*
X23944328Y6356604D02*
G01*
X23953218Y6361176D01*
X23966934Y6374637D01*
X23966934Y6279134D01*
X24001478Y6352031D02*
G01*
X24001478Y6356604D01*
X24006050Y6365494D01*
X24010622Y6370065D01*
X24019766Y6374637D01*
X24037800Y6374637D01*
X24046944Y6370065D01*
X24051516Y6365494D01*
X24056088Y6356604D01*
X24056088Y6347460D01*
X24051516Y6338315D01*
X24042372Y6324600D01*
X23996906Y6279134D01*
X24060660Y6279134D01*
X26517856Y5408676D02*
G01*
X26508712Y5417565D01*
X26494996Y5422137D01*
X26476708Y5422137D01*
X26463246Y5417565D01*
X26454102Y5408676D01*
X26454102Y5399531D01*
X26458674Y5390387D01*
X26463246Y5385815D01*
X26472390Y5381244D01*
X26499568Y5372100D01*
X26508712Y5367781D01*
X26513284Y5363210D01*
X26517856Y5354065D01*
X26517856Y5340350D01*
X26508712Y5331205D01*
X26494996Y5326634D01*
X26476708Y5326634D01*
X26463246Y5331205D01*
X26454102Y5340350D01*
X26547828Y5404104D02*
G01*
X26556718Y5408676D01*
X26570434Y5422137D01*
X26570434Y5326634D01*
X26609550Y5422137D02*
G01*
X26659588Y5422137D01*
X26632156Y5385815D01*
X26645872Y5385815D01*
X26655016Y5381244D01*
X26659588Y5376671D01*
X26664160Y5363210D01*
X26664160Y5354065D01*
X26659588Y5340350D01*
X26650444Y5331205D01*
X26636728Y5326634D01*
X26623266Y5326634D01*
X26609550Y5331205D01*
X26604978Y5335778D01*
X26600406Y5344921D01*
X2756156Y4456176D02*
G01*
X2747012Y4465065D01*
X2733296Y4469637D01*
X2715008Y4469637D01*
X2701546Y4465065D01*
X2692402Y4456176D01*
X2692402Y4447031D01*
X2696974Y4437887D01*
X2701546Y4433315D01*
X2710690Y4428744D01*
X2737868Y4419600D01*
X2747012Y4415281D01*
X2751584Y4410710D01*
X2756156Y4401565D01*
X2756156Y4387850D01*
X2747012Y4378705D01*
X2733296Y4374134D01*
X2715008Y4374134D01*
X2701546Y4378705D01*
X2692402Y4387850D01*
X2786128Y4451604D02*
G01*
X2795018Y4456176D01*
X2808734Y4469637D01*
X2808734Y4374134D01*
X2884172Y4469637D02*
G01*
X2838706Y4406137D01*
X2907032Y4406137D01*
X2884172Y4469637D02*
G01*
X2884172Y4374134D01*
X5359656Y4456176D02*
G01*
X5350512Y4465065D01*
X5336796Y4469637D01*
X5318508Y4469637D01*
X5305046Y4465065D01*
X5295902Y4456176D01*
X5295902Y4447031D01*
X5300474Y4437887D01*
X5305046Y4433315D01*
X5314190Y4428744D01*
X5341368Y4419600D01*
X5350512Y4415281D01*
X5355084Y4410710D01*
X5359656Y4401565D01*
X5359656Y4387850D01*
X5350512Y4378705D01*
X5336796Y4374134D01*
X5318508Y4374134D01*
X5305046Y4378705D01*
X5295902Y4387850D01*
X5389628Y4451604D02*
G01*
X5398518Y4456176D01*
X5412234Y4469637D01*
X5412234Y4374134D01*
X5496816Y4469637D02*
G01*
X5451350Y4469637D01*
X5446778Y4428744D01*
X5451350Y4433315D01*
X5465066Y4437887D01*
X5478528Y4437887D01*
X5492244Y4433315D01*
X5501388Y4424171D01*
X5505960Y4410710D01*
X5505960Y4401565D01*
X5501388Y4387850D01*
X5492244Y4378705D01*
X5478528Y4374134D01*
X5465066Y4374134D01*
X5451350Y4378705D01*
X5446778Y4383278D01*
X5442206Y4392421D01*
X7264656Y4456176D02*
G01*
X7255512Y4465065D01*
X7241796Y4469637D01*
X7223508Y4469637D01*
X7210046Y4465065D01*
X7200902Y4456176D01*
X7200902Y4447031D01*
X7205474Y4437887D01*
X7210046Y4433315D01*
X7219190Y4428744D01*
X7246368Y4419600D01*
X7255512Y4415281D01*
X7260084Y4410710D01*
X7264656Y4401565D01*
X7264656Y4387850D01*
X7255512Y4378705D01*
X7241796Y4374134D01*
X7223508Y4374134D01*
X7210046Y4378705D01*
X7200902Y4387850D01*
X7294628Y4451604D02*
G01*
X7303518Y4456176D01*
X7317234Y4469637D01*
X7317234Y4374134D01*
X7401816Y4456176D02*
G01*
X7397244Y4465065D01*
X7383528Y4469637D01*
X7374638Y4469637D01*
X7360922Y4465065D01*
X7351778Y4451604D01*
X7347206Y4428744D01*
X7347206Y4406137D01*
X7351778Y4387850D01*
X7360922Y4378705D01*
X7374638Y4374134D01*
X7378956Y4374134D01*
X7392672Y4378705D01*
X7401816Y4387850D01*
X7406388Y4401565D01*
X7406388Y4406137D01*
X7401816Y4419600D01*
X7392672Y4428744D01*
X7378956Y4433315D01*
X7374638Y4433315D01*
X7360922Y4428744D01*
X7351778Y4419600D01*
X7347206Y4406137D01*
X9169654Y4456176D02*
G01*
X9160509Y4465065D01*
X9146793Y4469637D01*
X9128506Y4469637D01*
X9115043Y4465065D01*
X9105900Y4456176D01*
X9105900Y4447031D01*
X9110472Y4437887D01*
X9115043Y4433315D01*
X9124188Y4428744D01*
X9151365Y4419600D01*
X9160509Y4415281D01*
X9165081Y4410710D01*
X9169654Y4401565D01*
X9169654Y4387850D01*
X9160509Y4378705D01*
X9146793Y4374134D01*
X9128506Y4374134D01*
X9115043Y4378705D01*
X9105900Y4387850D01*
X9199625Y4451604D02*
G01*
X9208515Y4456176D01*
X9222231Y4469637D01*
X9222231Y4374134D01*
X9315958Y4469637D02*
G01*
X9270491Y4374134D01*
X9252204Y4469637D02*
G01*
X9315958Y4469637D01*
X11074654Y4456176D02*
G01*
X11065509Y4465065D01*
X11051793Y4469637D01*
X11033506Y4469637D01*
X11020043Y4465065D01*
X11010900Y4456176D01*
X11010900Y4447031D01*
X11015472Y4437887D01*
X11020043Y4433315D01*
X11029188Y4428744D01*
X11056365Y4419600D01*
X11065509Y4415281D01*
X11070081Y4410710D01*
X11074654Y4401565D01*
X11074654Y4387850D01*
X11065509Y4378705D01*
X11051793Y4374134D01*
X11033506Y4374134D01*
X11020043Y4378705D01*
X11010900Y4387850D01*
X11104625Y4451604D02*
G01*
X11113515Y4456176D01*
X11127231Y4469637D01*
X11127231Y4374134D01*
X11180063Y4469637D02*
G01*
X11166347Y4465065D01*
X11161775Y4456176D01*
X11161775Y4447031D01*
X11166347Y4437887D01*
X11175491Y4433315D01*
X11193525Y4428744D01*
X11207241Y4424171D01*
X11216386Y4415281D01*
X11220958Y4406137D01*
X11220958Y4392421D01*
X11216386Y4383278D01*
X11211813Y4378705D01*
X11198097Y4374134D01*
X11180063Y4374134D01*
X11166347Y4378705D01*
X11161775Y4383278D01*
X11157204Y4392421D01*
X11157204Y4406137D01*
X11161775Y4415281D01*
X11170920Y4424171D01*
X11184636Y4428744D01*
X11202670Y4433315D01*
X11211813Y4437887D01*
X11216386Y4447031D01*
X11216386Y4456176D01*
X11211813Y4465065D01*
X11198097Y4469637D01*
X11180063Y4469637D01*
X12979654Y4456176D02*
G01*
X12970509Y4465065D01*
X12956793Y4469637D01*
X12938506Y4469637D01*
X12925043Y4465065D01*
X12915900Y4456176D01*
X12915900Y4447031D01*
X12920472Y4437887D01*
X12925043Y4433315D01*
X12934188Y4428744D01*
X12961365Y4419600D01*
X12970509Y4415281D01*
X12975081Y4410710D01*
X12979654Y4401565D01*
X12979654Y4387850D01*
X12970509Y4378705D01*
X12956793Y4374134D01*
X12938506Y4374134D01*
X12925043Y4378705D01*
X12915900Y4387850D01*
X13009625Y4451604D02*
G01*
X13018515Y4456176D01*
X13032231Y4469637D01*
X13032231Y4374134D01*
X13121386Y4437887D02*
G01*
X13116813Y4424171D01*
X13107670Y4415281D01*
X13094208Y4410710D01*
X13089636Y4410710D01*
X13075920Y4415281D01*
X13066775Y4424171D01*
X13062204Y4437887D01*
X13062204Y4442460D01*
X13066775Y4456176D01*
X13075920Y4465065D01*
X13089636Y4469637D01*
X13094208Y4469637D01*
X13107670Y4465065D01*
X13116813Y4456176D01*
X13121386Y4437887D01*
X13121386Y4415281D01*
X13116813Y4392421D01*
X13107670Y4378705D01*
X13094208Y4374134D01*
X13085063Y4374134D01*
X13071347Y4378705D01*
X13066775Y4387850D01*
X14821154Y4456176D02*
G01*
X14812009Y4465065D01*
X14798293Y4469637D01*
X14780006Y4469637D01*
X14766543Y4465065D01*
X14757400Y4456176D01*
X14757400Y4447031D01*
X14761972Y4437887D01*
X14766543Y4433315D01*
X14775688Y4428744D01*
X14802866Y4419600D01*
X14812009Y4415281D01*
X14816581Y4410710D01*
X14821154Y4401565D01*
X14821154Y4387850D01*
X14812009Y4378705D01*
X14798293Y4374134D01*
X14780006Y4374134D01*
X14766543Y4378705D01*
X14757400Y4387850D01*
X14855697Y4447031D02*
G01*
X14855697Y4451604D01*
X14860016Y4460494D01*
X14864588Y4465065D01*
X14873731Y4469637D01*
X14892020Y4469637D01*
X14900909Y4465065D01*
X14905481Y4460494D01*
X14910054Y4451604D01*
X14910054Y4442460D01*
X14905481Y4433315D01*
X14896591Y4419600D01*
X14851125Y4374134D01*
X14914625Y4374134D01*
X14972029Y4469637D02*
G01*
X14958313Y4465065D01*
X14949170Y4451604D01*
X14944597Y4428744D01*
X14944597Y4415281D01*
X14949170Y4392421D01*
X14958313Y4378705D01*
X14972029Y4374134D01*
X14980920Y4374134D01*
X14994636Y4378705D01*
X15003779Y4392421D01*
X15008352Y4415281D01*
X15008352Y4428744D01*
X15003779Y4451604D01*
X14994636Y4465065D01*
X14980920Y4469637D01*
X14972029Y4469637D01*
X16726154Y4456176D02*
G01*
X16717009Y4465065D01*
X16703293Y4469637D01*
X16685006Y4469637D01*
X16671543Y4465065D01*
X16662400Y4456176D01*
X16662400Y4447031D01*
X16666972Y4437887D01*
X16671543Y4433315D01*
X16680688Y4428744D01*
X16707866Y4419600D01*
X16717009Y4415281D01*
X16721581Y4410710D01*
X16726154Y4401565D01*
X16726154Y4387850D01*
X16717009Y4378705D01*
X16703293Y4374134D01*
X16685006Y4374134D01*
X16671543Y4378705D01*
X16662400Y4387850D01*
X16760697Y4447031D02*
G01*
X16760697Y4451604D01*
X16765016Y4460494D01*
X16769588Y4465065D01*
X16778731Y4469637D01*
X16797020Y4469637D01*
X16805909Y4465065D01*
X16810481Y4460494D01*
X16815054Y4451604D01*
X16815054Y4442460D01*
X16810481Y4433315D01*
X16801591Y4419600D01*
X16756125Y4374134D01*
X16819625Y4374134D01*
X16849598Y4451604D02*
G01*
X16858741Y4456176D01*
X16872458Y4469637D01*
X16872458Y4374134D01*
X18631154Y4456176D02*
G01*
X18622009Y4465065D01*
X18608293Y4469637D01*
X18590006Y4469637D01*
X18576543Y4465065D01*
X18567400Y4456176D01*
X18567400Y4447031D01*
X18571972Y4437887D01*
X18576543Y4433315D01*
X18585688Y4428744D01*
X18612866Y4419600D01*
X18622009Y4415281D01*
X18626581Y4410710D01*
X18631154Y4401565D01*
X18631154Y4387850D01*
X18622009Y4378705D01*
X18608293Y4374134D01*
X18590006Y4374134D01*
X18576543Y4378705D01*
X18567400Y4387850D01*
X18665698Y4447031D02*
G01*
X18665698Y4451604D01*
X18670016Y4460494D01*
X18674588Y4465065D01*
X18683731Y4469637D01*
X18702020Y4469637D01*
X18710909Y4465065D01*
X18715481Y4460494D01*
X18720054Y4451604D01*
X18720054Y4442460D01*
X18715481Y4433315D01*
X18706591Y4419600D01*
X18661125Y4374134D01*
X18724625Y4374134D01*
X18759170Y4447031D02*
G01*
X18759170Y4451604D01*
X18763741Y4460494D01*
X18768313Y4465065D01*
X18777458Y4469637D01*
X18795491Y4469637D01*
X18804636Y4465065D01*
X18809208Y4460494D01*
X18813779Y4451604D01*
X18813779Y4442460D01*
X18809208Y4433315D01*
X18800063Y4419600D01*
X18754598Y4374134D01*
X18818352Y4374134D01*
X20536154Y4456176D02*
G01*
X20527009Y4465065D01*
X20513293Y4469637D01*
X20495006Y4469637D01*
X20481543Y4465065D01*
X20472400Y4456176D01*
X20472400Y4447031D01*
X20476972Y4437887D01*
X20481543Y4433315D01*
X20490688Y4428744D01*
X20517866Y4419600D01*
X20527009Y4415281D01*
X20531581Y4410710D01*
X20536154Y4401565D01*
X20536154Y4387850D01*
X20527009Y4378705D01*
X20513293Y4374134D01*
X20495006Y4374134D01*
X20481543Y4378705D01*
X20472400Y4387850D01*
X20570698Y4447031D02*
G01*
X20570698Y4451604D01*
X20575016Y4460494D01*
X20579588Y4465065D01*
X20588731Y4469637D01*
X20607020Y4469637D01*
X20615909Y4465065D01*
X20620481Y4460494D01*
X20625054Y4451604D01*
X20625054Y4442460D01*
X20620481Y4433315D01*
X20611591Y4419600D01*
X20566125Y4374134D01*
X20629625Y4374134D01*
X20668741Y4469637D02*
G01*
X20718779Y4469637D01*
X20691602Y4433315D01*
X20705063Y4433315D01*
X20714208Y4428744D01*
X20718779Y4424171D01*
X20723352Y4410710D01*
X20723352Y4401565D01*
X20718779Y4387850D01*
X20709636Y4378705D01*
X20695920Y4374134D01*
X20682458Y4374134D01*
X20668741Y4378705D01*
X20664170Y4383278D01*
X20659598Y4392421D01*
X22441154Y4456176D02*
G01*
X22432009Y4465065D01*
X22418293Y4469637D01*
X22400006Y4469637D01*
X22386543Y4465065D01*
X22377400Y4456176D01*
X22377400Y4447031D01*
X22381972Y4437887D01*
X22386543Y4433315D01*
X22395688Y4428744D01*
X22422866Y4419600D01*
X22432009Y4415281D01*
X22436581Y4410710D01*
X22441154Y4401565D01*
X22441154Y4387850D01*
X22432009Y4378705D01*
X22418293Y4374134D01*
X22400006Y4374134D01*
X22386543Y4378705D01*
X22377400Y4387850D01*
X22475698Y4447031D02*
G01*
X22475698Y4451604D01*
X22480016Y4460494D01*
X22484588Y4465065D01*
X22493731Y4469637D01*
X22512020Y4469637D01*
X22520909Y4465065D01*
X22525481Y4460494D01*
X22530054Y4451604D01*
X22530054Y4442460D01*
X22525481Y4433315D01*
X22516591Y4419600D01*
X22471125Y4374134D01*
X22534625Y4374134D01*
X22610063Y4469637D02*
G01*
X22564598Y4406137D01*
X22632924Y4406137D01*
X22610063Y4469637D02*
G01*
X22610063Y4374134D01*
X24346154Y4456176D02*
G01*
X24337009Y4465065D01*
X24323293Y4469637D01*
X24305006Y4469637D01*
X24291543Y4465065D01*
X24282400Y4456176D01*
X24282400Y4447031D01*
X24286972Y4437887D01*
X24291543Y4433315D01*
X24300688Y4428744D01*
X24327866Y4419600D01*
X24337009Y4415281D01*
X24341581Y4410710D01*
X24346154Y4401565D01*
X24346154Y4387850D01*
X24337009Y4378705D01*
X24323293Y4374134D01*
X24305006Y4374134D01*
X24291543Y4378705D01*
X24282400Y4387850D01*
X24380698Y4447031D02*
G01*
X24380698Y4451604D01*
X24385016Y4460494D01*
X24389588Y4465065D01*
X24398731Y4469637D01*
X24417020Y4469637D01*
X24425909Y4465065D01*
X24430481Y4460494D01*
X24435054Y4451604D01*
X24435054Y4442460D01*
X24430481Y4433315D01*
X24421591Y4419600D01*
X24376125Y4374134D01*
X24439625Y4374134D01*
X24524208Y4469637D02*
G01*
X24478741Y4469637D01*
X24474170Y4428744D01*
X24478741Y4433315D01*
X24492458Y4437887D01*
X24505920Y4437887D01*
X24519636Y4433315D01*
X24528779Y4424171D01*
X24533352Y4410710D01*
X24533352Y4401565D01*
X24528779Y4387850D01*
X24519636Y4378705D01*
X24505920Y4374134D01*
X24492458Y4374134D01*
X24478741Y4378705D01*
X24474170Y4383278D01*
X24469598Y4392421D01*
X2019554Y2551176D02*
G01*
X2010409Y2560065D01*
X1996693Y2564637D01*
X1978406Y2564637D01*
X1964943Y2560065D01*
X1955800Y2551176D01*
X1955800Y2542031D01*
X1960372Y2532887D01*
X1964943Y2528315D01*
X1974088Y2523744D01*
X2001265Y2514600D01*
X2010409Y2510281D01*
X2014981Y2505710D01*
X2019554Y2496565D01*
X2019554Y2482850D01*
X2010409Y2473705D01*
X1996693Y2469134D01*
X1978406Y2469134D01*
X1964943Y2473705D01*
X1955800Y2482850D01*
X2054097Y2542031D02*
G01*
X2054097Y2546604D01*
X2058415Y2555494D01*
X2062988Y2560065D01*
X2072131Y2564637D01*
X2090420Y2564637D01*
X2099309Y2560065D01*
X2103881Y2555494D01*
X2108454Y2546604D01*
X2108454Y2537460D01*
X2103881Y2528315D01*
X2094991Y2514600D01*
X2049525Y2469134D01*
X2113025Y2469134D01*
X2197608Y2551176D02*
G01*
X2193036Y2560065D01*
X2179320Y2564637D01*
X2170429Y2564637D01*
X2156713Y2560065D01*
X2147570Y2546604D01*
X2142997Y2523744D01*
X2142997Y2501137D01*
X2147570Y2482850D01*
X2156713Y2473705D01*
X2170429Y2469134D01*
X2175002Y2469134D01*
X2188463Y2473705D01*
X2197608Y2482850D01*
X2202179Y2496565D01*
X2202179Y2501137D01*
X2197608Y2514600D01*
X2188463Y2523744D01*
X2175002Y2528315D01*
X2170429Y2528315D01*
X2156713Y2523744D01*
X2147570Y2514600D01*
X2142997Y2501137D01*
X4419854Y2551176D02*
G01*
X4410709Y2560065D01*
X4396993Y2564637D01*
X4378706Y2564637D01*
X4365243Y2560065D01*
X4356100Y2551176D01*
X4356100Y2542031D01*
X4360672Y2532887D01*
X4365243Y2528315D01*
X4374388Y2523744D01*
X4401565Y2514600D01*
X4410709Y2510281D01*
X4415281Y2505710D01*
X4419854Y2496565D01*
X4419854Y2482850D01*
X4410709Y2473705D01*
X4396993Y2469134D01*
X4378706Y2469134D01*
X4365243Y2473705D01*
X4356100Y2482850D01*
X4454397Y2542031D02*
G01*
X4454397Y2546604D01*
X4458715Y2555494D01*
X4463288Y2560065D01*
X4472431Y2564637D01*
X4490720Y2564637D01*
X4499609Y2560065D01*
X4504181Y2555494D01*
X4508754Y2546604D01*
X4508754Y2537460D01*
X4504181Y2528315D01*
X4495291Y2514600D01*
X4449825Y2469134D01*
X4513325Y2469134D01*
X4607052Y2564637D02*
G01*
X4561586Y2469134D01*
X4543297Y2564637D02*
G01*
X4607052Y2564637D01*
X6324854Y2551176D02*
G01*
X6315709Y2560065D01*
X6301993Y2564637D01*
X6283706Y2564637D01*
X6270243Y2560065D01*
X6261100Y2551176D01*
X6261100Y2542031D01*
X6265672Y2532887D01*
X6270243Y2528315D01*
X6279388Y2523744D01*
X6306565Y2514600D01*
X6315709Y2510281D01*
X6320281Y2505710D01*
X6324854Y2496565D01*
X6324854Y2482850D01*
X6315709Y2473705D01*
X6301993Y2469134D01*
X6283706Y2469134D01*
X6270243Y2473705D01*
X6261100Y2482850D01*
X6359397Y2542031D02*
G01*
X6359397Y2546604D01*
X6363715Y2555494D01*
X6368288Y2560065D01*
X6377431Y2564637D01*
X6395720Y2564637D01*
X6404609Y2560065D01*
X6409181Y2555494D01*
X6413754Y2546604D01*
X6413754Y2537460D01*
X6409181Y2528315D01*
X6400291Y2514600D01*
X6354825Y2469134D01*
X6418325Y2469134D01*
X6471158Y2564637D02*
G01*
X6457441Y2560065D01*
X6452870Y2551176D01*
X6452870Y2542031D01*
X6457441Y2532887D01*
X6466586Y2528315D01*
X6484620Y2523744D01*
X6498336Y2519171D01*
X6507479Y2510281D01*
X6512052Y2501137D01*
X6512052Y2487421D01*
X6507479Y2478278D01*
X6502908Y2473705D01*
X6489191Y2469134D01*
X6471158Y2469134D01*
X6457441Y2473705D01*
X6452870Y2478278D01*
X6448297Y2487421D01*
X6448297Y2501137D01*
X6452870Y2510281D01*
X6462013Y2519171D01*
X6475729Y2523744D01*
X6493763Y2528315D01*
X6502908Y2532887D01*
X6507479Y2542031D01*
X6507479Y2551176D01*
X6502908Y2560065D01*
X6489191Y2564637D01*
X6471158Y2564637D01*
X8229854Y2551176D02*
G01*
X8220709Y2560065D01*
X8206993Y2564637D01*
X8188706Y2564637D01*
X8175243Y2560065D01*
X8166100Y2551176D01*
X8166100Y2542031D01*
X8170672Y2532887D01*
X8175243Y2528315D01*
X8184388Y2523744D01*
X8211565Y2514600D01*
X8220709Y2510281D01*
X8225281Y2505710D01*
X8229854Y2496565D01*
X8229854Y2482850D01*
X8220709Y2473705D01*
X8206993Y2469134D01*
X8188706Y2469134D01*
X8175243Y2473705D01*
X8166100Y2482850D01*
X8264397Y2542031D02*
G01*
X8264397Y2546604D01*
X8268715Y2555494D01*
X8273288Y2560065D01*
X8282431Y2564637D01*
X8300720Y2564637D01*
X8309609Y2560065D01*
X8314181Y2555494D01*
X8318754Y2546604D01*
X8318754Y2537460D01*
X8314181Y2528315D01*
X8305291Y2514600D01*
X8259825Y2469134D01*
X8323325Y2469134D01*
X8412479Y2532887D02*
G01*
X8407908Y2519171D01*
X8398763Y2510281D01*
X8385302Y2505710D01*
X8380729Y2505710D01*
X8367013Y2510281D01*
X8357870Y2519171D01*
X8353297Y2532887D01*
X8353297Y2537460D01*
X8357870Y2551176D01*
X8367013Y2560065D01*
X8380729Y2564637D01*
X8385302Y2564637D01*
X8398763Y2560065D01*
X8407908Y2551176D01*
X8412479Y2532887D01*
X8412479Y2510281D01*
X8407908Y2487421D01*
X8398763Y2473705D01*
X8385302Y2469134D01*
X8376158Y2469134D01*
X8362441Y2473705D01*
X8357870Y2482850D01*
X10134854Y2551176D02*
G01*
X10125709Y2560065D01*
X10111993Y2564637D01*
X10093706Y2564637D01*
X10080243Y2560065D01*
X10071100Y2551176D01*
X10071100Y2542031D01*
X10075672Y2532887D01*
X10080243Y2528315D01*
X10089388Y2523744D01*
X10116565Y2514600D01*
X10125709Y2510281D01*
X10130281Y2505710D01*
X10134854Y2496565D01*
X10134854Y2482850D01*
X10125709Y2473705D01*
X10111993Y2469134D01*
X10093706Y2469134D01*
X10080243Y2473705D01*
X10071100Y2482850D01*
X10173715Y2564637D02*
G01*
X10223754Y2564637D01*
X10196575Y2528315D01*
X10210291Y2528315D01*
X10219181Y2523744D01*
X10223754Y2519171D01*
X10228325Y2505710D01*
X10228325Y2496565D01*
X10223754Y2482850D01*
X10214609Y2473705D01*
X10201147Y2469134D01*
X10187431Y2469134D01*
X10173715Y2473705D01*
X10169397Y2478278D01*
X10164825Y2487421D01*
X10285729Y2564637D02*
G01*
X10272013Y2560065D01*
X10262870Y2546604D01*
X10258297Y2523744D01*
X10258297Y2510281D01*
X10262870Y2487421D01*
X10272013Y2473705D01*
X10285729Y2469134D01*
X10294620Y2469134D01*
X10308336Y2473705D01*
X10317479Y2487421D01*
X10322052Y2510281D01*
X10322052Y2523744D01*
X10317479Y2546604D01*
X10308336Y2560065D01*
X10294620Y2564637D01*
X10285729Y2564637D01*
X12039854Y2551176D02*
G01*
X12030709Y2560065D01*
X12016993Y2564637D01*
X11998706Y2564637D01*
X11985243Y2560065D01*
X11976100Y2551176D01*
X11976100Y2542031D01*
X11980672Y2532887D01*
X11985243Y2528315D01*
X11994388Y2523744D01*
X12021565Y2514600D01*
X12030709Y2510281D01*
X12035281Y2505710D01*
X12039854Y2496565D01*
X12039854Y2482850D01*
X12030709Y2473705D01*
X12016993Y2469134D01*
X11998706Y2469134D01*
X11985243Y2473705D01*
X11976100Y2482850D01*
X12078715Y2564637D02*
G01*
X12128754Y2564637D01*
X12101575Y2528315D01*
X12115291Y2528315D01*
X12124181Y2523744D01*
X12128754Y2519171D01*
X12133325Y2505710D01*
X12133325Y2496565D01*
X12128754Y2482850D01*
X12119609Y2473705D01*
X12106147Y2469134D01*
X12092431Y2469134D01*
X12078715Y2473705D01*
X12074397Y2478278D01*
X12069825Y2487421D01*
X12163297Y2546604D02*
G01*
X12172441Y2551176D01*
X12186158Y2564637D01*
X12186158Y2469134D01*
X13944854Y2551176D02*
G01*
X13935709Y2560065D01*
X13921993Y2564637D01*
X13903706Y2564637D01*
X13890243Y2560065D01*
X13881100Y2551176D01*
X13881100Y2542031D01*
X13885672Y2532887D01*
X13890243Y2528315D01*
X13899388Y2523744D01*
X13926566Y2514600D01*
X13935709Y2510281D01*
X13940281Y2505710D01*
X13944854Y2496565D01*
X13944854Y2482850D01*
X13935709Y2473705D01*
X13921993Y2469134D01*
X13903706Y2469134D01*
X13890243Y2473705D01*
X13881100Y2482850D01*
X13983716Y2564637D02*
G01*
X14033754Y2564637D01*
X14006575Y2528315D01*
X14020291Y2528315D01*
X14029181Y2523744D01*
X14033754Y2519171D01*
X14038325Y2505710D01*
X14038325Y2496565D01*
X14033754Y2482850D01*
X14024609Y2473705D01*
X14011147Y2469134D01*
X13997431Y2469134D01*
X13983716Y2473705D01*
X13979397Y2478278D01*
X13974825Y2487421D01*
X14072870Y2542031D02*
G01*
X14072870Y2546604D01*
X14077441Y2555494D01*
X14082013Y2560065D01*
X14091158Y2564637D01*
X14109191Y2564637D01*
X14118336Y2560065D01*
X14122908Y2555494D01*
X14127479Y2546604D01*
X14127479Y2537460D01*
X14122908Y2528315D01*
X14113763Y2514600D01*
X14068297Y2469134D01*
X14132052Y2469134D01*
X15849854Y2551176D02*
G01*
X15840709Y2560065D01*
X15826993Y2564637D01*
X15808706Y2564637D01*
X15795243Y2560065D01*
X15786100Y2551176D01*
X15786100Y2542031D01*
X15790672Y2532887D01*
X15795243Y2528315D01*
X15804388Y2523744D01*
X15831566Y2514600D01*
X15840709Y2510281D01*
X15845281Y2505710D01*
X15849854Y2496565D01*
X15849854Y2482850D01*
X15840709Y2473705D01*
X15826993Y2469134D01*
X15808706Y2469134D01*
X15795243Y2473705D01*
X15786100Y2482850D01*
X15888716Y2564637D02*
G01*
X15938754Y2564637D01*
X15911575Y2528315D01*
X15925291Y2528315D01*
X15934181Y2523744D01*
X15938754Y2519171D01*
X15943325Y2505710D01*
X15943325Y2496565D01*
X15938754Y2482850D01*
X15929609Y2473705D01*
X15916147Y2469134D01*
X15902431Y2469134D01*
X15888716Y2473705D01*
X15884397Y2478278D01*
X15879825Y2487421D01*
X15982441Y2564637D02*
G01*
X16032479Y2564637D01*
X16005302Y2528315D01*
X16018763Y2528315D01*
X16027908Y2523744D01*
X16032479Y2519171D01*
X16037052Y2505710D01*
X16037052Y2496565D01*
X16032479Y2482850D01*
X16023336Y2473705D01*
X16009620Y2469134D01*
X15996158Y2469134D01*
X15982441Y2473705D01*
X15977870Y2478278D01*
X15973297Y2487421D01*
X17754854Y2551176D02*
G01*
X17745709Y2560065D01*
X17731993Y2564637D01*
X17713706Y2564637D01*
X17700243Y2560065D01*
X17691100Y2551176D01*
X17691100Y2542031D01*
X17695672Y2532887D01*
X17700243Y2528315D01*
X17709388Y2523744D01*
X17736566Y2514600D01*
X17745709Y2510281D01*
X17750281Y2505710D01*
X17754854Y2496565D01*
X17754854Y2482850D01*
X17745709Y2473705D01*
X17731993Y2469134D01*
X17713706Y2469134D01*
X17700243Y2473705D01*
X17691100Y2482850D01*
X17793716Y2564637D02*
G01*
X17843754Y2564637D01*
X17816575Y2528315D01*
X17830291Y2528315D01*
X17839181Y2523744D01*
X17843754Y2519171D01*
X17848325Y2505710D01*
X17848325Y2496565D01*
X17843754Y2482850D01*
X17834609Y2473705D01*
X17821148Y2469134D01*
X17807431Y2469134D01*
X17793716Y2473705D01*
X17789398Y2478278D01*
X17784825Y2487421D01*
X17923763Y2564637D02*
G01*
X17878298Y2501137D01*
X17946624Y2501137D01*
X17923763Y2564637D02*
G01*
X17923763Y2469134D01*
X19659854Y2551176D02*
G01*
X19650709Y2560065D01*
X19636993Y2564637D01*
X19618706Y2564637D01*
X19605243Y2560065D01*
X19596100Y2551176D01*
X19596100Y2542031D01*
X19600672Y2532887D01*
X19605243Y2528315D01*
X19614388Y2523744D01*
X19641566Y2514600D01*
X19650709Y2510281D01*
X19655281Y2505710D01*
X19659854Y2496565D01*
X19659854Y2482850D01*
X19650709Y2473705D01*
X19636993Y2469134D01*
X19618706Y2469134D01*
X19605243Y2473705D01*
X19596100Y2482850D01*
X19698716Y2564637D02*
G01*
X19748754Y2564637D01*
X19721575Y2528315D01*
X19735291Y2528315D01*
X19744181Y2523744D01*
X19748754Y2519171D01*
X19753325Y2505710D01*
X19753325Y2496565D01*
X19748754Y2482850D01*
X19739609Y2473705D01*
X19726148Y2469134D01*
X19712431Y2469134D01*
X19698716Y2473705D01*
X19694398Y2478278D01*
X19689825Y2487421D01*
X19837908Y2564637D02*
G01*
X19792441Y2564637D01*
X19787870Y2523744D01*
X19792441Y2528315D01*
X19806158Y2532887D01*
X19819620Y2532887D01*
X19833336Y2528315D01*
X19842479Y2519171D01*
X19847052Y2505710D01*
X19847052Y2496565D01*
X19842479Y2482850D01*
X19833336Y2473705D01*
X19819620Y2469134D01*
X19806158Y2469134D01*
X19792441Y2473705D01*
X19787870Y2478278D01*
X19783298Y2487421D01*
X21564854Y2551176D02*
G01*
X21555709Y2560065D01*
X21541993Y2564637D01*
X21523706Y2564637D01*
X21510243Y2560065D01*
X21501100Y2551176D01*
X21501100Y2542031D01*
X21505672Y2532887D01*
X21510243Y2528315D01*
X21519388Y2523744D01*
X21546566Y2514600D01*
X21555709Y2510281D01*
X21560281Y2505710D01*
X21564854Y2496565D01*
X21564854Y2482850D01*
X21555709Y2473705D01*
X21541993Y2469134D01*
X21523706Y2469134D01*
X21510243Y2473705D01*
X21501100Y2482850D01*
X21603716Y2564637D02*
G01*
X21653754Y2564637D01*
X21626575Y2528315D01*
X21640291Y2528315D01*
X21649181Y2523744D01*
X21653754Y2519171D01*
X21658325Y2505710D01*
X21658325Y2496565D01*
X21653754Y2482850D01*
X21644609Y2473705D01*
X21631148Y2469134D01*
X21617431Y2469134D01*
X21603716Y2473705D01*
X21599398Y2478278D01*
X21594825Y2487421D01*
X21742908Y2551176D02*
G01*
X21738336Y2560065D01*
X21724620Y2564637D01*
X21715729Y2564637D01*
X21702013Y2560065D01*
X21692870Y2546604D01*
X21688298Y2523744D01*
X21688298Y2501137D01*
X21692870Y2482850D01*
X21702013Y2473705D01*
X21715729Y2469134D01*
X21720302Y2469134D01*
X21733763Y2473705D01*
X21742908Y2482850D01*
X21747479Y2496565D01*
X21747479Y2501137D01*
X21742908Y2514600D01*
X21733763Y2523744D01*
X21720302Y2528315D01*
X21715729Y2528315D01*
X21702013Y2523744D01*
X21692870Y2514600D01*
X21688298Y2501137D01*
X23469854Y2551176D02*
G01*
X23460709Y2560065D01*
X23446993Y2564637D01*
X23428706Y2564637D01*
X23415243Y2560065D01*
X23406100Y2551176D01*
X23406100Y2542031D01*
X23410672Y2532887D01*
X23415243Y2528315D01*
X23424388Y2523744D01*
X23451566Y2514600D01*
X23460709Y2510281D01*
X23465281Y2505710D01*
X23469854Y2496565D01*
X23469854Y2482850D01*
X23460709Y2473705D01*
X23446993Y2469134D01*
X23428706Y2469134D01*
X23415243Y2473705D01*
X23406100Y2482850D01*
X23508716Y2564637D02*
G01*
X23558754Y2564637D01*
X23531575Y2528315D01*
X23545291Y2528315D01*
X23554181Y2523744D01*
X23558754Y2519171D01*
X23563325Y2505710D01*
X23563325Y2496565D01*
X23558754Y2482850D01*
X23549609Y2473705D01*
X23536148Y2469134D01*
X23522431Y2469134D01*
X23508716Y2473705D01*
X23504398Y2478278D01*
X23499825Y2487421D01*
X23657052Y2564637D02*
G01*
X23611586Y2469134D01*
X23593298Y2564637D02*
G01*
X23657052Y2564637D01*
X26073354Y2551176D02*
G01*
X26064209Y2560065D01*
X26050493Y2564637D01*
X26032206Y2564637D01*
X26018743Y2560065D01*
X26009600Y2551176D01*
X26009600Y2542031D01*
X26014172Y2532887D01*
X26018743Y2528315D01*
X26027888Y2523744D01*
X26055066Y2514600D01*
X26064209Y2510281D01*
X26068781Y2505710D01*
X26073354Y2496565D01*
X26073354Y2482850D01*
X26064209Y2473705D01*
X26050493Y2469134D01*
X26032206Y2469134D01*
X26018743Y2473705D01*
X26009600Y2482850D01*
X26112216Y2564637D02*
G01*
X26162254Y2564637D01*
X26135075Y2528315D01*
X26148791Y2528315D01*
X26157681Y2523744D01*
X26162254Y2519171D01*
X26166825Y2505710D01*
X26166825Y2496565D01*
X26162254Y2482850D01*
X26153109Y2473705D01*
X26139648Y2469134D01*
X26125931Y2469134D01*
X26112216Y2473705D01*
X26107898Y2478278D01*
X26103325Y2487421D01*
X26219658Y2564637D02*
G01*
X26205941Y2560065D01*
X26201370Y2551176D01*
X26201370Y2542031D01*
X26205941Y2532887D01*
X26215086Y2528315D01*
X26233120Y2523744D01*
X26246836Y2519171D01*
X26255979Y2510281D01*
X26260552Y2501137D01*
X26260552Y2487421D01*
X26255979Y2478278D01*
X26251408Y2473705D01*
X26237691Y2469134D01*
X26219658Y2469134D01*
X26205941Y2473705D01*
X26201370Y2478278D01*
X26196798Y2487421D01*
X26196798Y2501137D01*
X26201370Y2510281D01*
X26210513Y2519171D01*
X26224229Y2523744D01*
X26242263Y2528315D01*
X26251408Y2532887D01*
X26255979Y2542031D01*
X26255979Y2551176D01*
X26251408Y2560065D01*
X26237691Y2564637D01*
X26219658Y2564637D01*
X2718054Y646176D02*
G01*
X2708909Y655065D01*
X2695193Y659637D01*
X2676906Y659637D01*
X2663443Y655065D01*
X2654300Y646176D01*
X2654300Y637031D01*
X2658872Y627887D01*
X2663443Y623315D01*
X2672588Y618744D01*
X2699765Y609600D01*
X2708909Y605281D01*
X2713481Y600710D01*
X2718054Y591565D01*
X2718054Y577850D01*
X2708909Y568705D01*
X2695193Y564134D01*
X2676906Y564134D01*
X2663443Y568705D01*
X2654300Y577850D01*
X2756915Y659637D02*
G01*
X2806954Y659637D01*
X2779775Y623315D01*
X2793491Y623315D01*
X2802381Y618744D01*
X2806954Y614171D01*
X2811525Y600710D01*
X2811525Y591565D01*
X2806954Y577850D01*
X2797809Y568705D01*
X2784347Y564134D01*
X2770631Y564134D01*
X2756915Y568705D01*
X2752597Y573278D01*
X2748025Y582421D01*
X2900679Y627887D02*
G01*
X2896108Y614171D01*
X2886963Y605281D01*
X2873502Y600710D01*
X2868929Y600710D01*
X2855213Y605281D01*
X2846070Y614171D01*
X2841497Y627887D01*
X2841497Y632460D01*
X2846070Y646176D01*
X2855213Y655065D01*
X2868929Y659637D01*
X2873502Y659637D01*
X2886963Y655065D01*
X2896108Y646176D01*
X2900679Y627887D01*
X2900679Y605281D01*
X2896108Y582421D01*
X2886963Y568705D01*
X2873502Y564134D01*
X2864358Y564134D01*
X2850641Y568705D01*
X2846070Y577850D01*
X5772353Y646176D02*
G01*
X5763209Y655065D01*
X5749493Y659637D01*
X5731205Y659637D01*
X5717743Y655065D01*
X5708599Y646176D01*
X5708599Y637031D01*
X5713171Y627887D01*
X5717743Y623315D01*
X5726887Y618744D01*
X5754065Y609600D01*
X5763209Y605281D01*
X5767781Y600710D01*
X5772353Y591565D01*
X5772353Y577850D01*
X5763209Y568705D01*
X5749493Y564134D01*
X5731205Y564134D01*
X5717743Y568705D01*
X5708599Y577850D01*
X5847791Y659637D02*
G01*
X5802325Y596137D01*
X5870397Y596137D01*
X5847791Y659637D02*
G01*
X5847791Y564134D01*
X5927801Y659637D02*
G01*
X5914085Y655065D01*
X5904941Y641604D01*
X5900369Y618744D01*
X5900369Y605281D01*
X5904941Y582421D01*
X5914085Y568705D01*
X5927801Y564134D01*
X5936691Y564134D01*
X5950407Y568705D01*
X5959551Y582421D01*
X5964123Y605281D01*
X5964123Y618744D01*
X5959551Y641604D01*
X5950407Y655065D01*
X5936691Y659637D01*
X5927801Y659637D01*
X9029954Y646176D02*
G01*
X9020809Y655065D01*
X9007093Y659637D01*
X8988806Y659637D01*
X8975343Y655065D01*
X8966200Y646176D01*
X8966200Y637031D01*
X8970772Y627887D01*
X8975343Y623315D01*
X8984488Y618744D01*
X9011665Y609600D01*
X9020809Y605281D01*
X9025381Y600710D01*
X9029954Y591565D01*
X9029954Y577850D01*
X9020809Y568705D01*
X9007093Y564134D01*
X8988806Y564134D01*
X8975343Y568705D01*
X8966200Y577850D01*
X9105391Y659637D02*
G01*
X9059925Y596137D01*
X9127997Y596137D01*
X9105391Y659637D02*
G01*
X9105391Y564134D01*
X9157970Y641604D02*
G01*
X9167113Y646176D01*
X9180829Y659637D01*
X9180829Y564134D01*
X12287453Y646176D02*
G01*
X12278309Y655065D01*
X12264593Y659637D01*
X12246305Y659637D01*
X12232843Y655065D01*
X12223699Y646176D01*
X12223699Y637031D01*
X12228271Y627887D01*
X12232843Y623315D01*
X12241987Y618744D01*
X12269165Y609600D01*
X12278309Y605281D01*
X12282881Y600710D01*
X12287453Y591565D01*
X12287453Y577850D01*
X12278309Y568705D01*
X12264593Y564134D01*
X12246305Y564134D01*
X12232843Y568705D01*
X12223699Y577850D01*
X12362891Y659637D02*
G01*
X12317425Y596137D01*
X12385497Y596137D01*
X12362891Y659637D02*
G01*
X12362891Y564134D01*
X12420041Y637031D02*
G01*
X12420041Y641604D01*
X12424613Y650494D01*
X12429185Y655065D01*
X12438329Y659637D01*
X12456363Y659637D01*
X12465507Y655065D01*
X12470079Y650494D01*
X12474651Y641604D01*
X12474651Y632460D01*
X12470079Y623315D01*
X12460935Y609600D01*
X12415469Y564134D01*
X12479223Y564134D01*
X14687753Y646176D02*
G01*
X14678609Y655065D01*
X14664893Y659637D01*
X14646605Y659637D01*
X14633143Y655065D01*
X14623999Y646176D01*
X14623999Y637031D01*
X14628571Y627887D01*
X14633143Y623315D01*
X14642287Y618744D01*
X14669465Y609600D01*
X14678609Y605281D01*
X14683181Y600710D01*
X14687753Y591565D01*
X14687753Y577850D01*
X14678609Y568705D01*
X14664893Y564134D01*
X14646605Y564134D01*
X14633143Y568705D01*
X14623999Y577850D01*
X14763191Y659637D02*
G01*
X14717725Y596137D01*
X14785797Y596137D01*
X14763191Y659637D02*
G01*
X14763191Y564134D01*
X14824913Y659637D02*
G01*
X14874951Y659637D01*
X14847519Y623315D01*
X14861235Y623315D01*
X14870379Y618744D01*
X14874951Y614171D01*
X14879523Y600710D01*
X14879523Y591565D01*
X14874951Y577850D01*
X14865807Y568705D01*
X14852091Y564134D01*
X14838629Y564134D01*
X14824913Y568705D01*
X14820341Y573278D01*
X14815769Y582421D01*
X17037253Y646176D02*
G01*
X17028109Y655065D01*
X17014393Y659637D01*
X16996105Y659637D01*
X16982643Y655065D01*
X16973499Y646176D01*
X16973499Y637031D01*
X16978071Y627887D01*
X16982643Y623315D01*
X16991787Y618744D01*
X17018965Y609600D01*
X17028109Y605281D01*
X17032681Y600710D01*
X17037253Y591565D01*
X17037253Y577850D01*
X17028109Y568705D01*
X17014393Y564134D01*
X16996105Y564134D01*
X16982643Y568705D01*
X16973499Y577850D01*
X17112691Y659637D02*
G01*
X17067225Y596137D01*
X17135297Y596137D01*
X17112691Y659637D02*
G01*
X17112691Y564134D01*
X17210735Y659637D02*
G01*
X17165269Y596137D01*
X17233595Y596137D01*
X17210735Y659637D02*
G01*
X17210735Y564134D01*
X18942253Y646176D02*
G01*
X18933109Y655065D01*
X18919393Y659637D01*
X18901105Y659637D01*
X18887643Y655065D01*
X18878499Y646176D01*
X18878499Y637031D01*
X18883071Y627887D01*
X18887643Y623315D01*
X18896787Y618744D01*
X18923965Y609600D01*
X18933109Y605281D01*
X18937681Y600710D01*
X18942253Y591565D01*
X18942253Y577850D01*
X18933109Y568705D01*
X18919393Y564134D01*
X18901105Y564134D01*
X18887643Y568705D01*
X18878499Y577850D01*
X19017691Y659637D02*
G01*
X18972225Y596137D01*
X19040297Y596137D01*
X19017691Y659637D02*
G01*
X19017691Y564134D01*
X19124879Y659637D02*
G01*
X19079413Y659637D01*
X19074841Y618744D01*
X19079413Y623315D01*
X19093129Y627887D01*
X19106591Y627887D01*
X19120307Y623315D01*
X19129451Y614171D01*
X19134023Y600710D01*
X19134023Y591565D01*
X19129451Y577850D01*
X19120307Y568705D01*
X19106591Y564134D01*
X19093129Y564134D01*
X19079413Y568705D01*
X19074841Y573278D01*
X19070269Y582421D01*
X20847255Y646176D02*
G01*
X20838111Y655065D01*
X20824395Y659637D01*
X20806107Y659637D01*
X20792645Y655065D01*
X20783501Y646176D01*
X20783501Y637031D01*
X20788073Y627887D01*
X20792645Y623315D01*
X20801789Y618744D01*
X20828967Y609600D01*
X20838111Y605281D01*
X20842683Y600710D01*
X20847255Y591565D01*
X20847255Y577850D01*
X20838111Y568705D01*
X20824395Y564134D01*
X20806107Y564134D01*
X20792645Y568705D01*
X20783501Y577850D01*
X20922693Y659637D02*
G01*
X20877227Y596137D01*
X20945299Y596137D01*
X20922693Y659637D02*
G01*
X20922693Y564134D01*
X21029881Y646176D02*
G01*
X21025309Y655065D01*
X21011593Y659637D01*
X21002703Y659637D01*
X20988987Y655065D01*
X20979843Y641604D01*
X20975271Y618744D01*
X20975271Y596137D01*
X20979843Y577850D01*
X20988987Y568705D01*
X21002703Y564134D01*
X21007021Y564134D01*
X21020737Y568705D01*
X21029881Y577850D01*
X21034453Y591565D01*
X21034453Y596137D01*
X21029881Y609600D01*
X21020737Y618744D01*
X21007021Y623315D01*
X21002703Y623315D01*
X20988987Y618744D01*
X20979843Y609600D01*
X20975271Y596137D01*
X22752255Y646176D02*
G01*
X22743111Y655065D01*
X22729395Y659637D01*
X22711107Y659637D01*
X22697645Y655065D01*
X22688501Y646176D01*
X22688501Y637031D01*
X22693073Y627887D01*
X22697645Y623315D01*
X22706789Y618744D01*
X22733967Y609600D01*
X22743111Y605281D01*
X22747683Y600710D01*
X22752255Y591565D01*
X22752255Y577850D01*
X22743111Y568705D01*
X22729395Y564134D01*
X22711107Y564134D01*
X22697645Y568705D01*
X22688501Y577850D01*
X22827693Y659637D02*
G01*
X22782227Y596137D01*
X22850299Y596137D01*
X22827693Y659637D02*
G01*
X22827693Y564134D01*
X22944025Y659637D02*
G01*
X22898559Y564134D01*
X22880271Y659637D02*
G01*
X22944025Y659637D01*
X24657255Y646176D02*
G01*
X24648111Y655065D01*
X24634395Y659637D01*
X24616107Y659637D01*
X24602645Y655065D01*
X24593501Y646176D01*
X24593501Y637031D01*
X24598073Y627887D01*
X24602645Y623315D01*
X24611789Y618744D01*
X24638967Y609600D01*
X24648111Y605281D01*
X24652683Y600710D01*
X24657255Y591565D01*
X24657255Y577850D01*
X24648111Y568705D01*
X24634395Y564134D01*
X24616107Y564134D01*
X24602645Y568705D01*
X24593501Y577850D01*
X24732693Y659637D02*
G01*
X24687227Y596137D01*
X24755299Y596137D01*
X24732693Y659637D02*
G01*
X24732693Y564134D01*
X24808131Y659637D02*
G01*
X24794415Y655065D01*
X24789843Y646176D01*
X24789843Y637031D01*
X24794415Y627887D01*
X24803559Y623315D01*
X24821593Y618744D01*
X24835309Y614171D01*
X24844453Y605281D01*
X24849025Y596137D01*
X24849025Y582421D01*
X24844453Y573278D01*
X24839881Y568705D01*
X24826165Y564134D01*
X24808131Y564134D01*
X24794415Y568705D01*
X24789843Y573278D01*
X24785271Y582421D01*
X24785271Y596137D01*
X24789843Y605281D01*
X24798987Y614171D01*
X24812703Y618744D01*
X24830737Y623315D01*
X24839881Y627887D01*
X24844453Y637031D01*
X24844453Y646176D01*
X24839881Y655065D01*
X24826165Y659637D01*
X24808131Y659637D01*
X26562255Y646176D02*
G01*
X26553111Y655065D01*
X26539395Y659637D01*
X26521107Y659637D01*
X26507645Y655065D01*
X26498501Y646176D01*
X26498501Y637031D01*
X26503073Y627887D01*
X26507645Y623315D01*
X26516789Y618744D01*
X26543967Y609600D01*
X26553111Y605281D01*
X26557683Y600710D01*
X26562255Y591565D01*
X26562255Y577850D01*
X26553111Y568705D01*
X26539395Y564134D01*
X26521107Y564134D01*
X26507645Y568705D01*
X26498501Y577850D01*
X26637693Y659637D02*
G01*
X26592227Y596137D01*
X26660299Y596137D01*
X26637693Y659637D02*
G01*
X26637693Y564134D01*
X26749453Y627887D02*
G01*
X26744881Y614171D01*
X26735737Y605281D01*
X26722021Y600710D01*
X26717703Y600710D01*
X26703987Y605281D01*
X26694843Y614171D01*
X26690271Y627887D01*
X26690271Y632460D01*
X26694843Y646176D01*
X26703987Y655065D01*
X26717703Y659637D01*
X26722021Y659637D01*
X26735737Y655065D01*
X26744881Y646176D01*
X26749453Y627887D01*
X26749453Y605281D01*
X26744881Y582421D01*
X26735737Y568705D01*
X26722021Y564134D01*
X26713131Y564134D01*
X26699415Y568705D01*
X26694843Y577850D01*
D12*
X27076445Y4318000D02*
G01*
X27076400Y8128000D01*
X27076400Y8128000D02*
G01*
X24269700Y8128000D01*
X2661284Y6425514D02*
G01*
X2661284Y7925485D01*
X1161313Y7925485D01*
X1161313Y6425514D01*
X2661284Y6425514D01*
X2091309Y7465491D02*
G01*
X1591310Y7465491D01*
X1591310Y7785506D01*
X2091309Y7785506D01*
X2091309Y7465491D01*
X5017185Y6425514D02*
G01*
X5017185Y7925485D01*
X3517214Y7925485D01*
X3517214Y6425514D01*
X5017185Y6425514D01*
X4447209Y7465491D02*
G01*
X3947210Y7465491D01*
X3947210Y7785506D01*
X4447209Y7785506D01*
X4447209Y7465491D01*
X6922185Y6425514D02*
G01*
X6922185Y7925485D01*
X5422214Y7925485D01*
X5422214Y6425514D01*
X6922185Y6425514D01*
X6352209Y7465491D02*
G01*
X5852210Y7465491D01*
X5852210Y7785506D01*
X6352209Y7785506D01*
X6352209Y7465491D01*
X8827183Y6425514D02*
G01*
X8827183Y7925485D01*
X7327211Y7925485D01*
X7327211Y6425514D01*
X8827183Y6425514D01*
X8257207Y7465491D02*
G01*
X7757208Y7465491D01*
X7757208Y7785506D01*
X8257207Y7785506D01*
X8257207Y7465491D01*
X10732180Y6425514D02*
G01*
X10732180Y7925485D01*
X9232209Y7925485D01*
X9232209Y6425514D01*
X10732180Y6425514D01*
X10162204Y7465491D02*
G01*
X9662205Y7465491D01*
X9662205Y7785506D01*
X10162204Y7785506D01*
X10162204Y7465491D01*
X12637178Y6425514D02*
G01*
X12637178Y7925485D01*
X11137206Y7925485D01*
X11137206Y6425514D01*
X12637178Y6425514D01*
X12067202Y7465491D02*
G01*
X11567203Y7465491D01*
X11567203Y7785506D01*
X12067202Y7785506D01*
X12067202Y7465491D01*
X14542157Y6425514D02*
G01*
X14542157Y7925485D01*
X13042186Y7925485D01*
X13042186Y6425514D01*
X14542157Y6425514D01*
X13972181Y7465491D02*
G01*
X13472182Y7465491D01*
X13472182Y7785506D01*
X13972181Y7785506D01*
X13972181Y7465491D01*
X16447173Y6425514D02*
G01*
X16447173Y7925485D01*
X14947201Y7925485D01*
X14947201Y6425514D01*
X16447173Y6425514D01*
X15877197Y7465491D02*
G01*
X15377198Y7465491D01*
X15377198Y7785506D01*
X15877197Y7785506D01*
X15877197Y7465491D01*
X18352170Y6425514D02*
G01*
X18352170Y7925485D01*
X16852198Y7925485D01*
X16852198Y6425514D01*
X18352170Y6425514D01*
X17782194Y7465491D02*
G01*
X17282195Y7465491D01*
X17282195Y7785506D01*
X17782194Y7785506D01*
X17782194Y7465491D01*
X20257168Y6425514D02*
G01*
X20257168Y7925485D01*
X18757196Y7925485D01*
X18757196Y6425514D01*
X20257168Y6425514D01*
X19687192Y7465491D02*
G01*
X19187193Y7465491D01*
X19187193Y7785506D01*
X19687192Y7785506D01*
X19687192Y7465491D01*
X22162165Y6425514D02*
G01*
X22162165Y7925485D01*
X20662193Y7925485D01*
X20662193Y6425514D01*
X22162165Y6425514D01*
X21592189Y7465491D02*
G01*
X21092190Y7465491D01*
X21092190Y7785506D01*
X21592189Y7785506D01*
X21592189Y7465491D01*
X24067162Y6425514D02*
G01*
X24067162Y7925485D01*
X22567191Y7925485D01*
X22567191Y6425514D01*
X24067162Y6425514D01*
X23497186Y7465491D02*
G01*
X22997187Y7465491D01*
X22997187Y7785506D01*
X23497186Y7785506D01*
X23497186Y7465491D01*
X26670685Y5473014D02*
G01*
X26670685Y6972985D01*
X25170714Y6972985D01*
X25170714Y5473014D01*
X26670685Y5473014D01*
X26100709Y6512991D02*
G01*
X25600710Y6512991D01*
X25600710Y6833006D01*
X26100709Y6833006D01*
X26100709Y6512991D01*
X2908985Y4520514D02*
G01*
X2908985Y6020485D01*
X1409014Y6020485D01*
X1409014Y4520514D01*
X2908985Y4520514D01*
X2339009Y5560491D02*
G01*
X1839010Y5560491D01*
X1839010Y5880506D01*
X2339009Y5880506D01*
X2339009Y5560491D01*
X5512485Y4520514D02*
G01*
X5512485Y6020485D01*
X4012514Y6020485D01*
X4012514Y4520514D01*
X5512485Y4520514D01*
X4942509Y5560491D02*
G01*
X4442510Y5560491D01*
X4442510Y5880506D01*
X4942509Y5880506D01*
X4942509Y5560491D01*
X7417485Y4520514D02*
G01*
X7417485Y6020485D01*
X5917514Y6020485D01*
X5917514Y4520514D01*
X7417485Y4520514D01*
X6847509Y5560491D02*
G01*
X6347510Y5560491D01*
X6347510Y5880506D01*
X6847509Y5880506D01*
X6847509Y5560491D01*
X9322485Y4520514D02*
G01*
X9322485Y6020485D01*
X7822514Y6020485D01*
X7822514Y4520514D01*
X9322485Y4520514D01*
X8752509Y5560491D02*
G01*
X8252510Y5560491D01*
X8252510Y5880506D01*
X8752509Y5880506D01*
X8752509Y5560491D01*
X11227485Y4520514D02*
G01*
X11227485Y6020485D01*
X9727514Y6020485D01*
X9727514Y4520514D01*
X11227485Y4520514D01*
X10657509Y5560491D02*
G01*
X10157510Y5560491D01*
X10157510Y5880506D01*
X10657509Y5880506D01*
X10657509Y5560491D01*
X13132485Y4520514D02*
G01*
X13132485Y6020485D01*
X11632514Y6020485D01*
X11632514Y4520514D01*
X13132485Y4520514D01*
X12562509Y5560491D02*
G01*
X12062510Y5560491D01*
X12062510Y5880506D01*
X12562509Y5880506D01*
X12562509Y5560491D01*
X15037485Y4520514D02*
G01*
X15037485Y6020485D01*
X13537514Y6020485D01*
X13537514Y4520514D01*
X15037485Y4520514D01*
X14467509Y5560491D02*
G01*
X13967510Y5560491D01*
X13967510Y5880506D01*
X14467509Y5880506D01*
X14467509Y5560491D01*
X16942485Y4520514D02*
G01*
X16942485Y6020485D01*
X15442514Y6020485D01*
X15442514Y4520514D01*
X16942485Y4520514D01*
X16372509Y5560491D02*
G01*
X15872510Y5560491D01*
X15872510Y5880506D01*
X16372509Y5880506D01*
X16372509Y5560491D01*
X18847485Y4520514D02*
G01*
X18847485Y6020485D01*
X17347514Y6020485D01*
X17347514Y4520514D01*
X18847485Y4520514D01*
X18277509Y5560491D02*
G01*
X17777510Y5560491D01*
X17777510Y5880506D01*
X18277509Y5880506D01*
X18277509Y5560491D01*
X20752485Y4520514D02*
G01*
X20752485Y6020485D01*
X19252514Y6020485D01*
X19252514Y4520514D01*
X20752485Y4520514D01*
X20182509Y5560491D02*
G01*
X19682510Y5560491D01*
X19682510Y5880506D01*
X20182509Y5880506D01*
X20182509Y5560491D01*
X22657485Y4520514D02*
G01*
X22657485Y6020485D01*
X21157514Y6020485D01*
X21157514Y4520514D01*
X22657485Y4520514D01*
X22087509Y5560491D02*
G01*
X21587510Y5560491D01*
X21587510Y5880506D01*
X22087509Y5880506D01*
X22087509Y5560491D01*
X24562485Y4520514D02*
G01*
X24562485Y6020485D01*
X23062514Y6020485D01*
X23062514Y4520514D01*
X24562485Y4520514D01*
X23992509Y5560491D02*
G01*
X23492510Y5560491D01*
X23492510Y5880506D01*
X23992509Y5880506D01*
X23992509Y5560491D01*
X2210485Y2615514D02*
G01*
X2210485Y4115485D01*
X710514Y4115485D01*
X710514Y2615514D01*
X2210485Y2615514D01*
X1640509Y3655491D02*
G01*
X1140510Y3655491D01*
X1140510Y3975506D01*
X1640509Y3975506D01*
X1640509Y3655491D01*
X4610785Y2615514D02*
G01*
X4610785Y4115485D01*
X3110814Y4115485D01*
X3110814Y2615514D01*
X4610785Y2615514D01*
X4040809Y3655491D02*
G01*
X3540810Y3655491D01*
X3540810Y3975506D01*
X4040809Y3975506D01*
X4040809Y3655491D01*
X6515785Y2615514D02*
G01*
X6515785Y4115485D01*
X5015814Y4115485D01*
X5015814Y2615514D01*
X6515785Y2615514D01*
X5945809Y3655491D02*
G01*
X5445810Y3655491D01*
X5445810Y3975506D01*
X5945809Y3975506D01*
X5945809Y3655491D01*
X8420785Y2615514D02*
G01*
X8420785Y4115485D01*
X6920814Y4115485D01*
X6920814Y2615514D01*
X8420785Y2615514D01*
X7850809Y3655491D02*
G01*
X7350810Y3655491D01*
X7350810Y3975506D01*
X7850809Y3975506D01*
X7850809Y3655491D01*
X10325785Y2615514D02*
G01*
X10325785Y4115485D01*
X8825814Y4115485D01*
X8825814Y2615514D01*
X10325785Y2615514D01*
X9755809Y3655491D02*
G01*
X9255810Y3655491D01*
X9255810Y3975506D01*
X9755809Y3975506D01*
X9755809Y3655491D01*
X12230785Y2615514D02*
G01*
X12230785Y4115485D01*
X10730814Y4115485D01*
X10730814Y2615514D01*
X12230785Y2615514D01*
X11660809Y3655491D02*
G01*
X11160810Y3655491D01*
X11160810Y3975506D01*
X11660809Y3975506D01*
X11660809Y3655491D01*
X14135785Y2615514D02*
G01*
X14135785Y4115485D01*
X12635814Y4115485D01*
X12635814Y2615514D01*
X14135785Y2615514D01*
X13565809Y3655491D02*
G01*
X13065810Y3655491D01*
X13065810Y3975506D01*
X13565809Y3975506D01*
X13565809Y3655491D01*
X16040785Y2615514D02*
G01*
X16040785Y4115485D01*
X14540814Y4115485D01*
X14540814Y2615514D01*
X16040785Y2615514D01*
X15470809Y3655491D02*
G01*
X14970810Y3655491D01*
X14970810Y3975506D01*
X15470809Y3975506D01*
X15470809Y3655491D01*
X17945785Y2615514D02*
G01*
X17945785Y4115485D01*
X16445814Y4115485D01*
X16445814Y2615514D01*
X17945785Y2615514D01*
X17375809Y3655491D02*
G01*
X16875810Y3655491D01*
X16875810Y3975506D01*
X17375809Y3975506D01*
X17375809Y3655491D01*
X19850785Y2615514D02*
G01*
X19850785Y4115485D01*
X18350814Y4115485D01*
X18350814Y2615514D01*
X19850785Y2615514D01*
X19280809Y3655491D02*
G01*
X18780810Y3655491D01*
X18780810Y3975506D01*
X19280809Y3975506D01*
X19280809Y3655491D01*
X21755785Y2615514D02*
G01*
X21755785Y4115485D01*
X20255814Y4115485D01*
X20255814Y2615514D01*
X21755785Y2615514D01*
X21185809Y3655491D02*
G01*
X20685810Y3655491D01*
X20685810Y3975506D01*
X21185809Y3975506D01*
X21185809Y3655491D01*
X23660785Y2615514D02*
G01*
X23660785Y4115485D01*
X22160814Y4115485D01*
X22160814Y2615514D01*
X23660785Y2615514D01*
X23090809Y3655491D02*
G01*
X22590810Y3655491D01*
X22590810Y3975506D01*
X23090809Y3975506D01*
X23090809Y3655491D01*
X26264285Y2615514D02*
G01*
X26264285Y4115485D01*
X24764314Y4115485D01*
X24764314Y2615514D01*
X26264285Y2615514D01*
X25694309Y3655491D02*
G01*
X25194310Y3655491D01*
X25194310Y3975506D01*
X25694309Y3975506D01*
X25694309Y3655491D01*
X2908985Y710514D02*
G01*
X2908985Y2210485D01*
X1409014Y2210485D01*
X1409014Y710514D01*
X2908985Y710514D01*
X2339009Y1750491D02*
G01*
X1839010Y1750491D01*
X1839010Y2070506D01*
X2339009Y2070506D01*
X2339009Y1750491D01*
X5963284Y710514D02*
G01*
X5963284Y2210485D01*
X4463313Y2210485D01*
X4463313Y710514D01*
X5963284Y710514D01*
X5393309Y1750491D02*
G01*
X4893309Y1750491D01*
X4893309Y2070506D01*
X5393309Y2070506D01*
X5393309Y1750491D01*
X9220885Y710514D02*
G01*
X9220885Y2210485D01*
X7720914Y2210485D01*
X7720914Y710514D01*
X9220885Y710514D01*
X8650909Y1750491D02*
G01*
X8150910Y1750491D01*
X8150910Y2070506D01*
X8650909Y2070506D01*
X8650909Y1750491D01*
X12478384Y710514D02*
G01*
X12478384Y2210485D01*
X10978413Y2210485D01*
X10978413Y710514D01*
X12478384Y710514D01*
X11908409Y1750491D02*
G01*
X11408409Y1750491D01*
X11408409Y2070506D01*
X11908409Y2070506D01*
X11908409Y1750491D01*
X14878684Y710514D02*
G01*
X14878684Y2210485D01*
X13378713Y2210485D01*
X13378713Y710514D01*
X14878684Y710514D01*
X14308709Y1750491D02*
G01*
X13808709Y1750491D01*
X13808709Y2070506D01*
X14308709Y2070506D01*
X14308709Y1750491D01*
X17228184Y710514D02*
G01*
X17228184Y2210485D01*
X15728213Y2210485D01*
X15728213Y710514D01*
X17228184Y710514D01*
X16658209Y1750491D02*
G01*
X16158209Y1750491D01*
X16158209Y2070506D01*
X16658209Y2070506D01*
X16658209Y1750491D01*
X19133184Y710514D02*
G01*
X19133184Y2210485D01*
X17633213Y2210485D01*
X17633213Y710514D01*
X19133184Y710514D01*
X18563209Y1750491D02*
G01*
X18063209Y1750491D01*
X18063209Y2070506D01*
X18563209Y2070506D01*
X18563209Y1750491D01*
X21038184Y710514D02*
G01*
X21038184Y2210485D01*
X19538213Y2210485D01*
X19538213Y710514D01*
X21038184Y710514D01*
X20468209Y1750491D02*
G01*
X19968209Y1750491D01*
X19968209Y2070506D01*
X20468209Y2070506D01*
X20468209Y1750491D01*
X22943184Y710514D02*
G01*
X22943184Y2210485D01*
X21443213Y2210485D01*
X21443213Y710514D01*
X22943184Y710514D01*
X22373209Y1750491D02*
G01*
X21873209Y1750491D01*
X21873209Y2070506D01*
X22373209Y2070506D01*
X22373209Y1750491D01*
X24848184Y710514D02*
G01*
X24848184Y2210485D01*
X23348213Y2210485D01*
X23348213Y710514D01*
X24848184Y710514D01*
X24278209Y1750491D02*
G01*
X23778209Y1750491D01*
X23778209Y2070506D01*
X24278209Y2070506D01*
X24278209Y1750491D01*
X26753184Y710514D02*
G01*
X26753184Y2210485D01*
X25253213Y2210485D01*
X25253213Y710514D01*
X26753184Y710514D01*
X26183209Y1750491D02*
G01*
X25683209Y1750491D01*
X25683209Y2070506D01*
X26183209Y2070506D01*
X26183209Y1750491D01*
X4813300Y4318000D02*
G01*
X6718300Y4318000D01*
X6718300Y2413000D01*
X4813300Y2413000D01*
X4813300Y4318000D01*
X5016500Y4114800D02*
G01*
X6515100Y4114800D01*
X6515100Y2616200D01*
X5016500Y2616200D01*
X5016500Y4114800D01*
X6718300Y4318000D02*
G01*
X8623300Y4318000D01*
X8623300Y2413000D01*
X6718300Y2413000D01*
X6718300Y4318000D01*
X508000Y2413000D02*
G01*
X3812997Y2413000D01*
X3812997Y508000D01*
X508000Y508000D01*
X508000Y2413000D01*
X508000Y4318000D02*
G01*
X4812995Y4318000D01*
X4812995Y2413000D01*
X508000Y2413000D01*
X508000Y4318000D01*
X508000Y6223000D02*
G01*
X3812997Y6223000D01*
X3812997Y4318000D01*
X508000Y4318000D01*
X508000Y6223000D01*
X5715000Y6223000D02*
G01*
X7620000Y6223000D01*
X7620000Y4318000D01*
X5715000Y4318000D01*
X5715000Y6223000D01*
X3810000Y6223000D02*
G01*
X5715000Y6223000D01*
X5715000Y4318000D01*
X3810000Y4318000D01*
X3810000Y6223000D01*
X508000Y8128000D02*
G01*
X3312998Y8128000D01*
X3312998Y6223000D01*
X508000Y6223000D01*
X508000Y8128000D01*
X3314700Y8128000D02*
G01*
X5219700Y8128000D01*
X5219700Y6223000D01*
X3314700Y6223000D01*
X3314700Y8128000D01*
X5219700Y8128000D02*
G01*
X7124700Y8128000D01*
X7124700Y6223000D01*
X5219700Y6223000D01*
X5219700Y8128000D01*
X9029700Y8128000D02*
G01*
X10934700Y8128000D01*
X10934700Y6223000D01*
X9029700Y6223000D01*
X9029700Y8128000D01*
X7124700Y8128000D02*
G01*
X9029700Y8128000D01*
X9029700Y6223000D01*
X7124700Y6223000D01*
X7124700Y8128000D01*
X9525000Y6223000D02*
G01*
X11430000Y6223000D01*
X11430000Y4318000D01*
X9525000Y4318000D01*
X9525000Y6223000D01*
X7620000Y6223000D02*
G01*
X9525000Y6223000D01*
X9525000Y4318000D01*
X7620000Y4318000D01*
X7620000Y6223000D01*
X10528300Y4318000D02*
G01*
X12433300Y4318000D01*
X12433300Y2413000D01*
X10528300Y2413000D01*
X10528300Y4318000D01*
X8623300Y4318000D02*
G01*
X10528300Y4318000D01*
X10528300Y2413000D01*
X8623300Y2413000D01*
X8623300Y4318000D01*
X3810000Y2413000D02*
G01*
X6614998Y2413000D01*
X6614998Y508000D01*
X3810000Y508000D01*
X3810000Y2413000D01*
X6616700Y2413000D02*
G01*
X10321696Y2413000D01*
X10321696Y508000D01*
X6616700Y508000D01*
X6616700Y2413000D01*
X10325100Y2413000D02*
G01*
X15530093Y2413000D01*
X15530093Y508000D01*
X10325100Y508000D01*
X10325100Y2413000D01*
X15525750Y2413000D02*
G01*
X17430750Y2413000D01*
X17430750Y508000D01*
X15525750Y508000D01*
X15525750Y2413000D01*
X17430750Y2413000D02*
G01*
X19335750Y2413000D01*
X19335750Y508000D01*
X17430750Y508000D01*
X17430750Y2413000D01*
X19335750Y2413000D02*
G01*
X21240750Y2413000D01*
X21240750Y508000D01*
X19335750Y508000D01*
X19335750Y2413000D01*
X21240750Y2413000D02*
G01*
X23145750Y2413000D01*
X23145750Y508000D01*
X21240750Y508000D01*
X21240750Y2413000D01*
X23145750Y2413000D02*
G01*
X25050750Y2413000D01*
X25050750Y508000D01*
X23145750Y508000D01*
X23145750Y2413000D01*
X25050750Y2413000D02*
G01*
X26955750Y2413000D01*
X26955750Y508000D01*
X25050750Y508000D01*
X25050750Y2413000D01*
X12433300Y4318000D02*
G01*
X14338300Y4318000D01*
X14338300Y2413000D01*
X12433300Y2413000D01*
X12433300Y4318000D01*
X14338300Y4318000D02*
G01*
X16243300Y4318000D01*
X16243300Y2413000D01*
X14338300Y2413000D01*
X14338300Y4318000D01*
X16243300Y4318000D02*
G01*
X18148300Y4318000D01*
X18148300Y2413000D01*
X16243300Y2413000D01*
X16243300Y4318000D01*
X18148300Y4318000D02*
G01*
X20053300Y4318000D01*
X20053300Y2413000D01*
X18148300Y2413000D01*
X18148300Y4318000D01*
X20053300Y4318000D02*
G01*
X21958300Y4318000D01*
X21958300Y2413000D01*
X20053300Y2413000D01*
X20053300Y4318000D01*
X21958300Y4318000D02*
G01*
X23863300Y4318000D01*
X23863300Y2413000D01*
X21958300Y2413000D01*
X21958300Y4318000D01*
X23861801Y4318000D02*
G01*
X27166798Y4318000D01*
X27166798Y2413000D01*
X23861801Y2413000D01*
X23861801Y4318000D01*
X11430000Y6223000D02*
G01*
X13335000Y6223000D01*
X13335000Y4318000D01*
X11430000Y4318000D01*
X11430000Y6223000D01*
X13335000Y6223000D02*
G01*
X15240000Y6223000D01*
X15240000Y4318000D01*
X13335000Y4318000D01*
X13335000Y6223000D01*
X15240000Y6223000D02*
G01*
X17145000Y6223000D01*
X17145000Y4318000D01*
X15240000Y4318000D01*
X15240000Y6223000D01*
X17145000Y6223000D02*
G01*
X19050000Y6223000D01*
X19050000Y4318000D01*
X17145000Y4318000D01*
X17145000Y6223000D01*
X19050000Y6223000D02*
G01*
X20955000Y6223000D01*
X20955000Y4318000D01*
X19050000Y4318000D01*
X19050000Y6223000D01*
X20955000Y6223000D02*
G01*
X22860000Y6223000D01*
X22860000Y4318000D01*
X20955000Y4318000D01*
X20955000Y6223000D01*
X22860000Y6223000D02*
G01*
X24765000Y6223000D01*
X24765000Y4318000D01*
X22860000Y4318000D01*
X22860000Y6223000D01*
X10934700Y8128000D02*
G01*
X12839700Y8128000D01*
X12839700Y6223000D01*
X10934700Y6223000D01*
X10934700Y8128000D01*
X12839700Y8128000D02*
G01*
X14744700Y8128000D01*
X14744700Y6223000D01*
X12839700Y6223000D01*
X12839700Y8128000D01*
X14744700Y8128000D02*
G01*
X16649700Y8128000D01*
X16649700Y6223000D01*
X14744700Y6223000D01*
X14744700Y8128000D01*
X16649700Y8128000D02*
G01*
X18554700Y8128000D01*
X18554700Y6223000D01*
X16649700Y6223000D01*
X16649700Y8128000D01*
X18554700Y8128000D02*
G01*
X20459700Y8128000D01*
X20459700Y6223000D01*
X18554700Y6223000D01*
X18554700Y8128000D01*
X20459700Y8128000D02*
G01*
X22364700Y8128000D01*
X22364700Y6223000D01*
X20459700Y6223000D01*
X20459700Y8128000D01*
X22364700Y8128000D02*
G01*
X24269700Y8128000D01*
X24269700Y6223000D01*
X22364700Y6223000D01*
X22364700Y8128000D01*
D13*
X3136900Y11404600D02*
G01*
X12836880Y11404600D01*
X12836880Y8154593D01*
X3136900Y8154593D01*
X3136900Y11404600D01*
X12306300Y10744200D02*
G01*
X12813106Y10744200D01*
X12813106Y8712200D01*
X12306300Y8712200D01*
X12306300Y10744200D01*
X23926800Y10731500D02*
G01*
X24433606Y10731500D01*
X24433606Y8699500D01*
X23926800Y8699500D01*
X23926800Y10731500D01*
X14756206Y11404600D02*
G01*
X24456186Y11404600D01*
X24456186Y8154593D01*
X14756206Y8154593D01*
X14756206Y11404600D01*
X1993900Y10058400D02*
G01*
X2247900Y10058400D01*
X2247900Y8534400D01*
X1993900Y8534400D01*
X1993900Y10058400D01*
M02*
