G04 Layer: TopSolderMaskLayer*
G04 EasyEDA v6.5.34, 2023-08-13 23:18:08*
G04 4af7dcaf46fa4c71bde35255d9dd92c6,5a6b42c53f6a479593ecc07194224c93,10*
G04 Gerber Generator version 0.2*
G04 Scale: 100 percent, Rotated: No, Reflected: No *
G04 Dimensions in millimeters *
G04 leading zeros omitted , absolute positions ,4 integer and 5 decimal *
%FSLAX45Y45*%
%MOMM*%

%AMMACRO1*1,1,$1,$2,$3*1,1,$1,$4,$5*1,1,$1,0-$2,0-$3*1,1,$1,0-$4,0-$5*20,1,$1,$2,$3,$4,$5,0*20,1,$1,$4,$5,0-$2,0-$3,0*20,1,$1,0-$2,0-$3,0-$4,0-$5,0*20,1,$1,0-$4,0-$5,$2,$3,0*4,1,4,$2,$3,$4,$5,0-$2,0-$3,0-$4,0-$5,$2,$3,0*%
%ADD10C,1.9812*%
%ADD11C,1.8796*%
%ADD12C,1.6342*%
%ADD13C,3.6533*%
%ADD14C,3.2032*%
%ADD15C,1.7272*%
%ADD16C,1.9016*%
%ADD17MACRO1,0.1016X-0.9X0.9X0.9X0.9*%

%LPD*%
D10*
G01*
X1461312Y6715505D03*
D11*
G01*
X2151303Y6595490D03*
D10*
G01*
X3817213Y6715505D03*
D11*
G01*
X4507204Y6595490D03*
D10*
G01*
X5722213Y6715505D03*
D11*
G01*
X6412204Y6595490D03*
D10*
G01*
X7627213Y6715505D03*
D11*
G01*
X8317204Y6595490D03*
D10*
G01*
X9532213Y6715505D03*
D11*
G01*
X10222204Y6595490D03*
D10*
G01*
X11437213Y6715505D03*
D11*
G01*
X12127204Y6595490D03*
D10*
G01*
X13342188Y6715505D03*
D11*
G01*
X14032179Y6595490D03*
D10*
G01*
X15247213Y6715505D03*
D11*
G01*
X15937204Y6595490D03*
D10*
G01*
X17152188Y6715505D03*
D11*
G01*
X17842179Y6595490D03*
D10*
G01*
X19057188Y6715505D03*
D11*
G01*
X19747179Y6595490D03*
D10*
G01*
X20962188Y6715505D03*
D11*
G01*
X21652179Y6595490D03*
D10*
G01*
X22867188Y6715505D03*
D11*
G01*
X23557179Y6595490D03*
D10*
G01*
X25470713Y5763005D03*
D11*
G01*
X26160704Y5642990D03*
D10*
G01*
X1709013Y4810505D03*
D11*
G01*
X2399004Y4690490D03*
D10*
G01*
X4312513Y4810505D03*
D11*
G01*
X5002504Y4690490D03*
D10*
G01*
X6217513Y4810505D03*
D11*
G01*
X6907504Y4690490D03*
D10*
G01*
X8122513Y4810505D03*
D11*
G01*
X8812504Y4690490D03*
D10*
G01*
X10027513Y4810505D03*
D11*
G01*
X10717504Y4690490D03*
D10*
G01*
X11932513Y4810505D03*
D11*
G01*
X12622504Y4690490D03*
D10*
G01*
X13837513Y4810505D03*
D11*
G01*
X14527504Y4690490D03*
D10*
G01*
X15742513Y4810505D03*
D11*
G01*
X16432504Y4690490D03*
D10*
G01*
X17647513Y4810505D03*
D11*
G01*
X18337504Y4690490D03*
D10*
G01*
X19552513Y4810505D03*
D11*
G01*
X20242504Y4690490D03*
D10*
G01*
X21457513Y4810505D03*
D11*
G01*
X22147504Y4690490D03*
D10*
G01*
X23362513Y4810505D03*
D11*
G01*
X24052504Y4690490D03*
D10*
G01*
X1010513Y2905505D03*
D11*
G01*
X1700504Y2785490D03*
D10*
G01*
X3410813Y2905505D03*
D11*
G01*
X4100804Y2785490D03*
D10*
G01*
X5315813Y2905505D03*
D11*
G01*
X6005804Y2785490D03*
D10*
G01*
X7220813Y2905505D03*
D11*
G01*
X7910804Y2785490D03*
D10*
G01*
X9125813Y2905505D03*
D11*
G01*
X9815804Y2785490D03*
D10*
G01*
X11030813Y2905505D03*
D11*
G01*
X11720804Y2785490D03*
D10*
G01*
X12935813Y2905505D03*
D11*
G01*
X13625804Y2785490D03*
D10*
G01*
X14840813Y2905505D03*
D11*
G01*
X15530804Y2785490D03*
D10*
G01*
X16745813Y2905505D03*
D11*
G01*
X17435804Y2785490D03*
D10*
G01*
X18650813Y2905505D03*
D11*
G01*
X19340804Y2785490D03*
D10*
G01*
X20555813Y2905505D03*
D11*
G01*
X21245804Y2785490D03*
D10*
G01*
X22460813Y2905505D03*
D11*
G01*
X23150804Y2785490D03*
D10*
G01*
X25064313Y2905505D03*
D11*
G01*
X25754304Y2785490D03*
D10*
G01*
X1709013Y1000505D03*
D11*
G01*
X2399004Y880490D03*
D10*
G01*
X4763312Y1000505D03*
D11*
G01*
X5453303Y880490D03*
D10*
G01*
X8020913Y1000505D03*
D11*
G01*
X8710904Y880490D03*
D10*
G01*
X11278412Y1000505D03*
D11*
G01*
X11968403Y880490D03*
D10*
G01*
X13678712Y1000505D03*
D11*
G01*
X14368703Y880490D03*
D10*
G01*
X16028212Y1000505D03*
D11*
G01*
X16718203Y880490D03*
D10*
G01*
X17933212Y1000505D03*
D11*
G01*
X18623203Y880490D03*
D10*
G01*
X19838212Y1000505D03*
D11*
G01*
X20528203Y880490D03*
D10*
G01*
X21743212Y1000505D03*
D11*
G01*
X22433203Y880490D03*
D10*
G01*
X23648212Y1000505D03*
D11*
G01*
X24338203Y880490D03*
D10*
G01*
X25553212Y1000505D03*
D11*
G01*
X26243203Y880490D03*
D12*
G01*
X13449300Y10160000D03*
G01*
X13699286Y10160000D03*
G01*
X13899286Y10160000D03*
G01*
X14149298Y10160000D03*
D13*
G01*
X13142290Y10430992D03*
G01*
X14456308Y10430992D03*
D14*
G01*
X502920Y10420883D03*
G01*
X1706930Y10420883D03*
D15*
G01*
X1229918Y10149890D03*
G01*
X979931Y10149890D03*
G01*
X979931Y9949891D03*
G01*
X1229918Y9949891D03*
D14*
G01*
X25979094Y10420883D03*
G01*
X27183105Y10420883D03*
D15*
G01*
X26706093Y10149890D03*
G01*
X26456106Y10149890D03*
G01*
X26456106Y9949891D03*
G01*
X26706093Y9949891D03*
D16*
G01*
X12687300Y10617200D03*
G01*
X12433300Y10617200D03*
G01*
X12687300Y10363200D03*
G01*
X12433300Y10363200D03*
G01*
X12433300Y10109200D03*
G01*
X12687300Y10109200D03*
G01*
X12433300Y9855200D03*
G01*
X12687300Y9855200D03*
G01*
X12433300Y9601200D03*
G01*
X12687300Y9601200D03*
G01*
X12433300Y9347200D03*
G01*
X12687300Y9347200D03*
G01*
X12433300Y9093200D03*
G01*
X12687300Y9093200D03*
G01*
X12433300Y8839200D03*
G01*
X12687300Y8839200D03*
G01*
X24307800Y8826500D03*
G01*
X24053800Y8826500D03*
G01*
X24307800Y9080500D03*
G01*
X24053800Y9080500D03*
G01*
X24307800Y9334500D03*
G01*
X24053800Y9334500D03*
G01*
X24307800Y9588500D03*
G01*
X24053800Y9588500D03*
G01*
X24307800Y9842500D03*
G01*
X24053800Y9842500D03*
G01*
X24307800Y10096500D03*
G01*
X24053800Y10096500D03*
G01*
X24053800Y10350500D03*
G01*
X24307800Y10350500D03*
G01*
X24053800Y10604500D03*
G01*
X24307800Y10604500D03*
D17*
G01*
X2120900Y8661400D03*
D16*
G01*
X2120900Y8915400D03*
G01*
X2120900Y9169400D03*
G01*
X2120900Y9423400D03*
G01*
X2120900Y9677400D03*
G01*
X2120900Y9931400D03*
M02*
