G04 Layer: BottomSilkscreenLayer*
G04 EasyEDA v6.5.29, 2023-07-18 11:26:45*
G04 4d29bd309a2048ebad46bf779903c475,5a6b42c53f6a479593ecc07194224c93,10*
G04 Gerber Generator version 0.2*
G04 Scale: 100 percent, Rotated: No, Reflected: No *
G04 Dimensions in millimeters *
G04 leading zeros omitted , absolute positions ,4 integer and 5 decimal *
%FSLAX45Y45*%
%MOMM*%

%ADD10C,0.1520*%
%ADD11C,0.1524*%

%LPD*%
D10*
X1738744Y8535438D02*
G01*
X1738744Y8452312D01*
X1743941Y8436724D01*
X1749135Y8431529D01*
X1759526Y8426335D01*
X1769917Y8426335D01*
X1780308Y8431529D01*
X1785505Y8436724D01*
X1790700Y8452312D01*
X1790700Y8462703D01*
X1704454Y8535438D02*
G01*
X1704454Y8426335D01*
X1704454Y8426335D02*
G01*
X1642110Y8426335D01*
X1529887Y8509462D02*
G01*
X1535084Y8519853D01*
X1545475Y8530244D01*
X1555864Y8535438D01*
X1576646Y8535438D01*
X1587037Y8530244D01*
X1597428Y8519853D01*
X1602625Y8509462D01*
X1607820Y8493874D01*
X1607820Y8467897D01*
X1602625Y8452312D01*
X1597428Y8441921D01*
X1587037Y8431529D01*
X1576646Y8426335D01*
X1555864Y8426335D01*
X1545475Y8431529D01*
X1535084Y8441921D01*
X1529887Y8452312D01*
X1443644Y8535438D02*
G01*
X1443644Y8452312D01*
X1448838Y8436724D01*
X1454035Y8431529D01*
X1464424Y8426335D01*
X1474815Y8426335D01*
X1485206Y8431529D01*
X1490403Y8436724D01*
X1495597Y8452312D01*
X1495597Y8462703D01*
X1409354Y8535438D02*
G01*
X1409354Y8426335D01*
X1409354Y8426335D02*
G01*
X1347007Y8426335D01*
X1234785Y8509462D02*
G01*
X1239982Y8519853D01*
X1250373Y8530244D01*
X1260764Y8535438D01*
X1281544Y8535438D01*
X1291935Y8530244D01*
X1302326Y8519853D01*
X1307523Y8509462D01*
X1312717Y8493874D01*
X1312717Y8467897D01*
X1307523Y8452312D01*
X1302326Y8441921D01*
X1291935Y8431529D01*
X1281544Y8426335D01*
X1260764Y8426335D01*
X1250373Y8431529D01*
X1239982Y8441921D01*
X1234785Y8452312D01*
X1148542Y8535438D02*
G01*
X1148542Y8452312D01*
X1153736Y8436724D01*
X1158933Y8431529D01*
X1169324Y8426335D01*
X1179715Y8426335D01*
X1190104Y8431529D01*
X1195301Y8436724D01*
X1200495Y8452312D01*
X1200495Y8462703D01*
X1114252Y8535438D02*
G01*
X1114252Y8426335D01*
X1114252Y8426335D02*
G01*
X1051905Y8426335D01*
X939685Y8509462D02*
G01*
X944879Y8519853D01*
X955271Y8530244D01*
X965662Y8535438D01*
X986444Y8535438D01*
X996835Y8530244D01*
X1007224Y8519853D01*
X1012421Y8509462D01*
X1017615Y8493874D01*
X1017615Y8467897D01*
X1012421Y8452312D01*
X1007224Y8441921D01*
X996835Y8431529D01*
X986444Y8426335D01*
X965662Y8426335D01*
X955271Y8431529D01*
X944879Y8441921D01*
X939685Y8452312D01*
X853439Y8535438D02*
G01*
X853439Y8452312D01*
X858634Y8436724D01*
X863831Y8431529D01*
X874222Y8426335D01*
X884613Y8426335D01*
X895004Y8431529D01*
X900198Y8436724D01*
X905395Y8452312D01*
X905395Y8462703D01*
X819150Y8535438D02*
G01*
X819150Y8426335D01*
X819150Y8426335D02*
G01*
X756805Y8426335D01*
X644583Y8509462D02*
G01*
X649777Y8519853D01*
X660168Y8530244D01*
X670560Y8535438D01*
X691342Y8535438D01*
X701733Y8530244D01*
X712124Y8519853D01*
X717318Y8509462D01*
X722515Y8493874D01*
X722515Y8467897D01*
X717318Y8452312D01*
X712124Y8441921D01*
X701733Y8431529D01*
X691342Y8426335D01*
X670560Y8426335D01*
X660168Y8431529D01*
X649777Y8441921D01*
X644583Y8452312D01*
D11*
X2627167Y8306262D02*
G01*
X2632364Y8316653D01*
X2642755Y8327044D01*
X2653144Y8332238D01*
X2673926Y8332238D01*
X2684317Y8327044D01*
X2694708Y8316653D01*
X2699905Y8306262D01*
X2705100Y8290674D01*
X2705100Y8264697D01*
X2699905Y8249112D01*
X2694708Y8238721D01*
X2684317Y8228329D01*
X2673926Y8223135D01*
X2653144Y8223135D01*
X2642755Y8228329D01*
X2632364Y8238721D01*
X2627167Y8249112D01*
X2561704Y8332238D02*
G01*
X2572095Y8327044D01*
X2582486Y8316653D01*
X2587683Y8306262D01*
X2592877Y8290674D01*
X2592877Y8264697D01*
X2587683Y8249112D01*
X2582486Y8238721D01*
X2572095Y8228329D01*
X2561704Y8223135D01*
X2540924Y8223135D01*
X2530533Y8228329D01*
X2520142Y8238721D01*
X2514945Y8249112D01*
X2509751Y8264697D01*
X2509751Y8290674D01*
X2514945Y8306262D01*
X2520142Y8316653D01*
X2530533Y8327044D01*
X2540924Y8332238D01*
X2561704Y8332238D01*
X2475461Y8332238D02*
G01*
X2475461Y8223135D01*
X2475461Y8332238D02*
G01*
X2428702Y8332238D01*
X2413114Y8327044D01*
X2407920Y8321847D01*
X2402725Y8311456D01*
X2402725Y8295871D01*
X2407920Y8285479D01*
X2413114Y8280285D01*
X2428702Y8275088D01*
X2475461Y8275088D01*
X2368435Y8332238D02*
G01*
X2326871Y8280285D01*
X2326871Y8223135D01*
X2285306Y8332238D02*
G01*
X2326871Y8280285D01*
X2251016Y8332238D02*
G01*
X2251016Y8223135D01*
X2251016Y8332238D02*
G01*
X2204257Y8332238D01*
X2188672Y8327044D01*
X2183475Y8321847D01*
X2178281Y8311456D01*
X2178281Y8301065D01*
X2183475Y8290674D01*
X2188672Y8285479D01*
X2204257Y8280285D01*
X2251016Y8280285D01*
X2214648Y8280285D02*
G01*
X2178281Y8223135D01*
X2143991Y8332238D02*
G01*
X2143991Y8223135D01*
X2031768Y8306262D02*
G01*
X2036965Y8316653D01*
X2047354Y8327044D01*
X2057745Y8332238D01*
X2078527Y8332238D01*
X2088918Y8327044D01*
X2099309Y8316653D01*
X2104504Y8306262D01*
X2109701Y8290674D01*
X2109701Y8264697D01*
X2104504Y8249112D01*
X2099309Y8238721D01*
X2088918Y8228329D01*
X2078527Y8223135D01*
X2057745Y8223135D01*
X2047354Y8228329D01*
X2036965Y8238721D01*
X2031768Y8249112D01*
X2031768Y8264697D01*
X2057745Y8264697D02*
G01*
X2031768Y8264697D01*
X1997478Y8332238D02*
G01*
X1997478Y8223135D01*
X1924743Y8332238D02*
G01*
X1924743Y8223135D01*
X1997478Y8280285D02*
G01*
X1924743Y8280285D01*
X1854085Y8332238D02*
G01*
X1854085Y8223135D01*
X1890453Y8332238D02*
G01*
X1817715Y8332238D01*
X1698221Y8306262D02*
G01*
X1698221Y8311456D01*
X1693024Y8321847D01*
X1687829Y8327044D01*
X1677438Y8332238D01*
X1656656Y8332238D01*
X1646265Y8327044D01*
X1641071Y8321847D01*
X1635874Y8311456D01*
X1635874Y8301065D01*
X1641071Y8290674D01*
X1651462Y8275088D01*
X1703415Y8223135D01*
X1630679Y8223135D01*
X1565216Y8332238D02*
G01*
X1580804Y8327044D01*
X1591195Y8311456D01*
X1596389Y8285479D01*
X1596389Y8269894D01*
X1591195Y8243915D01*
X1580804Y8228329D01*
X1565216Y8223135D01*
X1554825Y8223135D01*
X1539239Y8228329D01*
X1528848Y8243915D01*
X1523654Y8269894D01*
X1523654Y8285479D01*
X1528848Y8311456D01*
X1539239Y8327044D01*
X1554825Y8332238D01*
X1565216Y8332238D01*
X1484167Y8306262D02*
G01*
X1484167Y8311456D01*
X1478973Y8321847D01*
X1473776Y8327044D01*
X1463385Y8332238D01*
X1442605Y8332238D01*
X1432214Y8327044D01*
X1427017Y8321847D01*
X1421823Y8311456D01*
X1421823Y8301065D01*
X1427017Y8290674D01*
X1437408Y8275088D01*
X1489364Y8223135D01*
X1416626Y8223135D01*
X1371945Y8332238D02*
G01*
X1314795Y8332238D01*
X1345968Y8290674D01*
X1330383Y8290674D01*
X1319992Y8285479D01*
X1314795Y8280285D01*
X1309601Y8264697D01*
X1309601Y8254306D01*
X1314795Y8238721D01*
X1325186Y8228329D01*
X1340774Y8223135D01*
X1356360Y8223135D01*
X1371945Y8228329D01*
X1377142Y8233524D01*
X1382336Y8243915D01*
X1195301Y8332238D02*
G01*
X1153736Y8223135D01*
X1112174Y8332238D02*
G01*
X1153736Y8223135D01*
X1077884Y8332238D02*
G01*
X1077884Y8223135D01*
X1077884Y8332238D02*
G01*
X1010343Y8332238D01*
X1077884Y8280285D02*
G01*
X1036320Y8280285D01*
X1077884Y8223135D02*
G01*
X1010343Y8223135D01*
X903315Y8332238D02*
G01*
X955271Y8223135D01*
X976053Y8332238D02*
G01*
X903315Y8332238D01*
X869025Y8332238D02*
G01*
X869025Y8223135D01*
X869025Y8332238D02*
G01*
X801484Y8332238D01*
X869025Y8280285D02*
G01*
X827463Y8280285D01*
X767194Y8332238D02*
G01*
X767194Y8223135D01*
X732904Y8332238D02*
G01*
X732904Y8223135D01*
X732904Y8332238D02*
G01*
X691342Y8223135D01*
X649777Y8332238D02*
G01*
X691342Y8223135D01*
X649777Y8332238D02*
G01*
X649777Y8223135D01*
M02*
