G04 Layer: BoardOutlineLayer*
G04 EasyEDA v6.5.34, 2023-08-10 18:14:54*
G04 5dc3205a5ac840d6a07c20858af23a92,5a6b42c53f6a479593ecc07194224c93,10*
G04 Gerber Generator version 0.2*
G04 Scale: 100 percent, Rotated: No, Reflected: No *
G04 Dimensions in millimeters *
G04 leading zeros omitted , absolute positions ,4 integer and 5 decimal *
%FSLAX45Y45*%
%MOMM*%

%ADD10C,0.2540*%
D10*
X0Y9004300D02*
G01*
X0Y11455400D01*
X27698700Y11455400D01*
X27686000Y0D01*
X0Y0D01*
X0Y9004300D01*
X495300Y8140700D02*
G01*
X495300Y495300D01*
X495300Y495300D02*
G01*
X26962100Y495300D01*
X26962100Y495300D02*
G01*
X26962100Y2400300D01*
X26962100Y2400300D02*
G01*
X27178000Y2400300D01*
X27178000Y2400300D02*
G01*
X27178000Y4330700D01*
X27178000Y4330700D02*
G01*
X27089100Y4330700D01*
X27089100Y4330700D02*
G01*
X27089100Y8140700D01*
X27089100Y8140700D02*
G01*
X495300Y8140700D01*
X3624199Y11267300D02*
G01*
X3624199Y8241906D01*
X3624199Y8241906D02*
G01*
X12249581Y8241906D01*
X12249581Y8241906D02*
G01*
X12249581Y11267300D01*
X12249581Y11267300D02*
G01*
X3624199Y11267300D01*
X12242800Y10704601D02*
G01*
X12242800Y8704605D01*
X12242800Y8704605D02*
G01*
X12842798Y8704605D01*
X12842798Y8704605D02*
G01*
X12842798Y10704601D01*
X12842798Y10704601D02*
G01*
X12242800Y10704601D01*
X15244699Y11267300D02*
G01*
X15244699Y8241906D01*
X15244699Y8241906D02*
G01*
X23870081Y8241906D01*
X23870081Y8241906D02*
G01*
X23870081Y11267300D01*
X23870081Y11267300D02*
G01*
X15244699Y11267300D01*
X23863300Y10704601D02*
G01*
X23863300Y8704605D01*
X23863300Y8704605D02*
G01*
X24463298Y8704605D01*
X24463298Y8704605D02*
G01*
X24463298Y10704601D01*
X24463298Y10704601D02*
G01*
X23863300Y10704601D01*

%LPD*%
M02*
